%TF.GenerationSoftware,KiCad,Pcbnew,8.0.3*%
%TF.CreationDate,2024-08-29T14:55:06+08:00*%
%TF.ProjectId,Full_withESP,46756c6c-5f77-4697-9468-4553502e6b69,rev?*%
%TF.SameCoordinates,Original*%
%TF.FileFunction,Legend,Top*%
%TF.FilePolarity,Positive*%
%FSLAX46Y46*%
G04 Gerber Fmt 4.6, Leading zero omitted, Abs format (unit mm)*
G04 Created by KiCad (PCBNEW 8.0.3) date 2024-08-29 14:55:06*
%MOMM*%
%LPD*%
G01*
G04 APERTURE LIST*
%ADD10C,0.250000*%
%ADD11C,0.150000*%
%ADD12C,0.152400*%
%ADD13C,0.100000*%
%ADD14C,0.120000*%
%ADD15C,0.000000*%
G04 APERTURE END LIST*
D10*
X101065901Y-104980921D02*
X100732568Y-104980921D01*
X100732568Y-105504731D02*
X100732568Y-104504731D01*
X100732568Y-104504731D02*
X101208758Y-104504731D01*
X101589711Y-105504731D02*
X101589711Y-104504731D01*
X101589711Y-104504731D02*
X101923044Y-105219016D01*
X101923044Y-105219016D02*
X102256377Y-104504731D01*
X102256377Y-104504731D02*
X102256377Y-105504731D01*
X103303996Y-105409492D02*
X103256377Y-105457112D01*
X103256377Y-105457112D02*
X103113520Y-105504731D01*
X103113520Y-105504731D02*
X103018282Y-105504731D01*
X103018282Y-105504731D02*
X102875425Y-105457112D01*
X102875425Y-105457112D02*
X102780187Y-105361873D01*
X102780187Y-105361873D02*
X102732568Y-105266635D01*
X102732568Y-105266635D02*
X102684949Y-105076159D01*
X102684949Y-105076159D02*
X102684949Y-104933302D01*
X102684949Y-104933302D02*
X102732568Y-104742826D01*
X102732568Y-104742826D02*
X102780187Y-104647588D01*
X102780187Y-104647588D02*
X102875425Y-104552350D01*
X102875425Y-104552350D02*
X103018282Y-104504731D01*
X103018282Y-104504731D02*
X103113520Y-104504731D01*
X103113520Y-104504731D02*
X103256377Y-104552350D01*
X103256377Y-104552350D02*
X103303996Y-104599969D01*
X103637330Y-104504731D02*
X103875425Y-105504731D01*
X103875425Y-105504731D02*
X104065901Y-104790445D01*
X104065901Y-104790445D02*
X104256377Y-105504731D01*
X104256377Y-105504731D02*
X104494473Y-104504731D01*
X106208758Y-105504731D02*
X105875425Y-105028540D01*
X105637330Y-105504731D02*
X105637330Y-104504731D01*
X105637330Y-104504731D02*
X106018282Y-104504731D01*
X106018282Y-104504731D02*
X106113520Y-104552350D01*
X106113520Y-104552350D02*
X106161139Y-104599969D01*
X106161139Y-104599969D02*
X106208758Y-104695207D01*
X106208758Y-104695207D02*
X106208758Y-104838064D01*
X106208758Y-104838064D02*
X106161139Y-104933302D01*
X106161139Y-104933302D02*
X106113520Y-104980921D01*
X106113520Y-104980921D02*
X106018282Y-105028540D01*
X106018282Y-105028540D02*
X105637330Y-105028540D01*
X107065901Y-105504731D02*
X107065901Y-104980921D01*
X107065901Y-104980921D02*
X107018282Y-104885683D01*
X107018282Y-104885683D02*
X106923044Y-104838064D01*
X106923044Y-104838064D02*
X106732568Y-104838064D01*
X106732568Y-104838064D02*
X106637330Y-104885683D01*
X107065901Y-105457112D02*
X106970663Y-105504731D01*
X106970663Y-105504731D02*
X106732568Y-105504731D01*
X106732568Y-105504731D02*
X106637330Y-105457112D01*
X106637330Y-105457112D02*
X106589711Y-105361873D01*
X106589711Y-105361873D02*
X106589711Y-105266635D01*
X106589711Y-105266635D02*
X106637330Y-105171397D01*
X106637330Y-105171397D02*
X106732568Y-105123778D01*
X106732568Y-105123778D02*
X106970663Y-105123778D01*
X106970663Y-105123778D02*
X107065901Y-105076159D01*
X107970663Y-105504731D02*
X107970663Y-104504731D01*
X107970663Y-105457112D02*
X107875425Y-105504731D01*
X107875425Y-105504731D02*
X107684949Y-105504731D01*
X107684949Y-105504731D02*
X107589711Y-105457112D01*
X107589711Y-105457112D02*
X107542092Y-105409492D01*
X107542092Y-105409492D02*
X107494473Y-105314254D01*
X107494473Y-105314254D02*
X107494473Y-105028540D01*
X107494473Y-105028540D02*
X107542092Y-104933302D01*
X107542092Y-104933302D02*
X107589711Y-104885683D01*
X107589711Y-104885683D02*
X107684949Y-104838064D01*
X107684949Y-104838064D02*
X107875425Y-104838064D01*
X107875425Y-104838064D02*
X107970663Y-104885683D01*
X108875425Y-105504731D02*
X108875425Y-104980921D01*
X108875425Y-104980921D02*
X108827806Y-104885683D01*
X108827806Y-104885683D02*
X108732568Y-104838064D01*
X108732568Y-104838064D02*
X108542092Y-104838064D01*
X108542092Y-104838064D02*
X108446854Y-104885683D01*
X108875425Y-105457112D02*
X108780187Y-105504731D01*
X108780187Y-105504731D02*
X108542092Y-105504731D01*
X108542092Y-105504731D02*
X108446854Y-105457112D01*
X108446854Y-105457112D02*
X108399235Y-105361873D01*
X108399235Y-105361873D02*
X108399235Y-105266635D01*
X108399235Y-105266635D02*
X108446854Y-105171397D01*
X108446854Y-105171397D02*
X108542092Y-105123778D01*
X108542092Y-105123778D02*
X108780187Y-105123778D01*
X108780187Y-105123778D02*
X108875425Y-105076159D01*
X109351616Y-105504731D02*
X109351616Y-104838064D01*
X109351616Y-105028540D02*
X109399235Y-104933302D01*
X109399235Y-104933302D02*
X109446854Y-104885683D01*
X109446854Y-104885683D02*
X109542092Y-104838064D01*
X109542092Y-104838064D02*
X109637330Y-104838064D01*
X110684950Y-105219016D02*
X111161140Y-105219016D01*
X110589712Y-105504731D02*
X110923045Y-104504731D01*
X110923045Y-104504731D02*
X111256378Y-105504731D01*
X111589712Y-105504731D02*
X111589712Y-104838064D01*
X111589712Y-104933302D02*
X111637331Y-104885683D01*
X111637331Y-104885683D02*
X111732569Y-104838064D01*
X111732569Y-104838064D02*
X111875426Y-104838064D01*
X111875426Y-104838064D02*
X111970664Y-104885683D01*
X111970664Y-104885683D02*
X112018283Y-104980921D01*
X112018283Y-104980921D02*
X112018283Y-105504731D01*
X112018283Y-104980921D02*
X112065902Y-104885683D01*
X112065902Y-104885683D02*
X112161140Y-104838064D01*
X112161140Y-104838064D02*
X112303997Y-104838064D01*
X112303997Y-104838064D02*
X112399236Y-104885683D01*
X112399236Y-104885683D02*
X112446855Y-104980921D01*
X112446855Y-104980921D02*
X112446855Y-105504731D01*
X112923045Y-104838064D02*
X112923045Y-105838064D01*
X112923045Y-104885683D02*
X113018283Y-104838064D01*
X113018283Y-104838064D02*
X113208759Y-104838064D01*
X113208759Y-104838064D02*
X113303997Y-104885683D01*
X113303997Y-104885683D02*
X113351616Y-104933302D01*
X113351616Y-104933302D02*
X113399235Y-105028540D01*
X113399235Y-105028540D02*
X113399235Y-105314254D01*
X113399235Y-105314254D02*
X113351616Y-105409492D01*
X113351616Y-105409492D02*
X113303997Y-105457112D01*
X113303997Y-105457112D02*
X113208759Y-105504731D01*
X113208759Y-105504731D02*
X113018283Y-105504731D01*
X113018283Y-105504731D02*
X112923045Y-105457112D01*
X115399236Y-105504731D02*
X115351617Y-105504731D01*
X115351617Y-105504731D02*
X115256378Y-105457112D01*
X115256378Y-105457112D02*
X115113521Y-105314254D01*
X115113521Y-105314254D02*
X114875426Y-105028540D01*
X114875426Y-105028540D02*
X114780188Y-104885683D01*
X114780188Y-104885683D02*
X114732569Y-104742826D01*
X114732569Y-104742826D02*
X114732569Y-104647588D01*
X114732569Y-104647588D02*
X114780188Y-104552350D01*
X114780188Y-104552350D02*
X114875426Y-104504731D01*
X114875426Y-104504731D02*
X114923045Y-104504731D01*
X114923045Y-104504731D02*
X115018283Y-104552350D01*
X115018283Y-104552350D02*
X115065902Y-104647588D01*
X115065902Y-104647588D02*
X115065902Y-104695207D01*
X115065902Y-104695207D02*
X115018283Y-104790445D01*
X115018283Y-104790445D02*
X114970664Y-104838064D01*
X114970664Y-104838064D02*
X114684950Y-105028540D01*
X114684950Y-105028540D02*
X114637331Y-105076159D01*
X114637331Y-105076159D02*
X114589712Y-105171397D01*
X114589712Y-105171397D02*
X114589712Y-105314254D01*
X114589712Y-105314254D02*
X114637331Y-105409492D01*
X114637331Y-105409492D02*
X114684950Y-105457112D01*
X114684950Y-105457112D02*
X114780188Y-105504731D01*
X114780188Y-105504731D02*
X114923045Y-105504731D01*
X114923045Y-105504731D02*
X115018283Y-105457112D01*
X115018283Y-105457112D02*
X115065902Y-105409492D01*
X115065902Y-105409492D02*
X115208759Y-105219016D01*
X115208759Y-105219016D02*
X115256378Y-105076159D01*
X115256378Y-105076159D02*
X115256378Y-104980921D01*
X116923045Y-104980921D02*
X116589712Y-104980921D01*
X116589712Y-105504731D02*
X116589712Y-104504731D01*
X116589712Y-104504731D02*
X117065902Y-104504731D01*
X117446855Y-105504731D02*
X117446855Y-104838064D01*
X117446855Y-104504731D02*
X117399236Y-104552350D01*
X117399236Y-104552350D02*
X117446855Y-104599969D01*
X117446855Y-104599969D02*
X117494474Y-104552350D01*
X117494474Y-104552350D02*
X117446855Y-104504731D01*
X117446855Y-104504731D02*
X117446855Y-104599969D01*
X118065902Y-105504731D02*
X117970664Y-105457112D01*
X117970664Y-105457112D02*
X117923045Y-105361873D01*
X117923045Y-105361873D02*
X117923045Y-104504731D01*
X118303998Y-104838064D02*
X118684950Y-104838064D01*
X118446855Y-104504731D02*
X118446855Y-105361873D01*
X118446855Y-105361873D02*
X118494474Y-105457112D01*
X118494474Y-105457112D02*
X118589712Y-105504731D01*
X118589712Y-105504731D02*
X118684950Y-105504731D01*
X119399236Y-105457112D02*
X119303998Y-105504731D01*
X119303998Y-105504731D02*
X119113522Y-105504731D01*
X119113522Y-105504731D02*
X119018284Y-105457112D01*
X119018284Y-105457112D02*
X118970665Y-105361873D01*
X118970665Y-105361873D02*
X118970665Y-104980921D01*
X118970665Y-104980921D02*
X119018284Y-104885683D01*
X119018284Y-104885683D02*
X119113522Y-104838064D01*
X119113522Y-104838064D02*
X119303998Y-104838064D01*
X119303998Y-104838064D02*
X119399236Y-104885683D01*
X119399236Y-104885683D02*
X119446855Y-104980921D01*
X119446855Y-104980921D02*
X119446855Y-105076159D01*
X119446855Y-105076159D02*
X118970665Y-105171397D01*
X119875427Y-105504731D02*
X119875427Y-104838064D01*
X119875427Y-105028540D02*
X119923046Y-104933302D01*
X119923046Y-104933302D02*
X119970665Y-104885683D01*
X119970665Y-104885683D02*
X120065903Y-104838064D01*
X120065903Y-104838064D02*
X120161141Y-104838064D01*
X101065901Y-108200809D02*
X101208758Y-108248428D01*
X101208758Y-108248428D02*
X101256377Y-108296047D01*
X101256377Y-108296047D02*
X101303996Y-108391285D01*
X101303996Y-108391285D02*
X101303996Y-108534142D01*
X101303996Y-108534142D02*
X101256377Y-108629380D01*
X101256377Y-108629380D02*
X101208758Y-108677000D01*
X101208758Y-108677000D02*
X101113520Y-108724619D01*
X101113520Y-108724619D02*
X100732568Y-108724619D01*
X100732568Y-108724619D02*
X100732568Y-107724619D01*
X100732568Y-107724619D02*
X101065901Y-107724619D01*
X101065901Y-107724619D02*
X101161139Y-107772238D01*
X101161139Y-107772238D02*
X101208758Y-107819857D01*
X101208758Y-107819857D02*
X101256377Y-107915095D01*
X101256377Y-107915095D02*
X101256377Y-108010333D01*
X101256377Y-108010333D02*
X101208758Y-108105571D01*
X101208758Y-108105571D02*
X101161139Y-108153190D01*
X101161139Y-108153190D02*
X101065901Y-108200809D01*
X101065901Y-108200809D02*
X100732568Y-108200809D01*
X101637330Y-108057952D02*
X101875425Y-108724619D01*
X102113520Y-108057952D02*
X101875425Y-108724619D01*
X101875425Y-108724619D02*
X101780187Y-108962714D01*
X101780187Y-108962714D02*
X101732568Y-109010333D01*
X101732568Y-109010333D02*
X101637330Y-109057952D01*
X103446854Y-108248428D02*
X103446854Y-108724619D01*
X103113521Y-107724619D02*
X103446854Y-108248428D01*
X103446854Y-108248428D02*
X103780187Y-107724619D01*
X104542092Y-108057952D02*
X104542092Y-108724619D01*
X104113521Y-108057952D02*
X104113521Y-108581761D01*
X104113521Y-108581761D02*
X104161140Y-108677000D01*
X104161140Y-108677000D02*
X104256378Y-108724619D01*
X104256378Y-108724619D02*
X104399235Y-108724619D01*
X104399235Y-108724619D02*
X104494473Y-108677000D01*
X104494473Y-108677000D02*
X104542092Y-108629380D01*
X105018283Y-108343666D02*
X105780188Y-108343666D01*
X106256378Y-108724619D02*
X106256378Y-107724619D01*
X106256378Y-108200809D02*
X106827806Y-108200809D01*
X106827806Y-108724619D02*
X106827806Y-107724619D01*
X107256378Y-108677000D02*
X107351616Y-108724619D01*
X107351616Y-108724619D02*
X107542092Y-108724619D01*
X107542092Y-108724619D02*
X107637330Y-108677000D01*
X107637330Y-108677000D02*
X107684949Y-108581761D01*
X107684949Y-108581761D02*
X107684949Y-108534142D01*
X107684949Y-108534142D02*
X107637330Y-108438904D01*
X107637330Y-108438904D02*
X107542092Y-108391285D01*
X107542092Y-108391285D02*
X107399235Y-108391285D01*
X107399235Y-108391285D02*
X107303997Y-108343666D01*
X107303997Y-108343666D02*
X107256378Y-108248428D01*
X107256378Y-108248428D02*
X107256378Y-108200809D01*
X107256378Y-108200809D02*
X107303997Y-108105571D01*
X107303997Y-108105571D02*
X107399235Y-108057952D01*
X107399235Y-108057952D02*
X107542092Y-108057952D01*
X107542092Y-108057952D02*
X107637330Y-108105571D01*
X108113521Y-108724619D02*
X108113521Y-108057952D01*
X108113521Y-107724619D02*
X108065902Y-107772238D01*
X108065902Y-107772238D02*
X108113521Y-107819857D01*
X108113521Y-107819857D02*
X108161140Y-107772238D01*
X108161140Y-107772238D02*
X108113521Y-107724619D01*
X108113521Y-107724619D02*
X108113521Y-107819857D01*
X109018282Y-108724619D02*
X109018282Y-108200809D01*
X109018282Y-108200809D02*
X108970663Y-108105571D01*
X108970663Y-108105571D02*
X108875425Y-108057952D01*
X108875425Y-108057952D02*
X108684949Y-108057952D01*
X108684949Y-108057952D02*
X108589711Y-108105571D01*
X109018282Y-108677000D02*
X108923044Y-108724619D01*
X108923044Y-108724619D02*
X108684949Y-108724619D01*
X108684949Y-108724619D02*
X108589711Y-108677000D01*
X108589711Y-108677000D02*
X108542092Y-108581761D01*
X108542092Y-108581761D02*
X108542092Y-108486523D01*
X108542092Y-108486523D02*
X108589711Y-108391285D01*
X108589711Y-108391285D02*
X108684949Y-108343666D01*
X108684949Y-108343666D02*
X108923044Y-108343666D01*
X108923044Y-108343666D02*
X109018282Y-108296047D01*
X109494473Y-108057952D02*
X109494473Y-108724619D01*
X109494473Y-108153190D02*
X109542092Y-108105571D01*
X109542092Y-108105571D02*
X109637330Y-108057952D01*
X109637330Y-108057952D02*
X109780187Y-108057952D01*
X109780187Y-108057952D02*
X109875425Y-108105571D01*
X109875425Y-108105571D02*
X109923044Y-108200809D01*
X109923044Y-108200809D02*
X109923044Y-108724619D01*
X110827806Y-108057952D02*
X110827806Y-108867476D01*
X110827806Y-108867476D02*
X110780187Y-108962714D01*
X110780187Y-108962714D02*
X110732568Y-109010333D01*
X110732568Y-109010333D02*
X110637330Y-109057952D01*
X110637330Y-109057952D02*
X110494473Y-109057952D01*
X110494473Y-109057952D02*
X110399235Y-109010333D01*
X110827806Y-108677000D02*
X110732568Y-108724619D01*
X110732568Y-108724619D02*
X110542092Y-108724619D01*
X110542092Y-108724619D02*
X110446854Y-108677000D01*
X110446854Y-108677000D02*
X110399235Y-108629380D01*
X110399235Y-108629380D02*
X110351616Y-108534142D01*
X110351616Y-108534142D02*
X110351616Y-108248428D01*
X110351616Y-108248428D02*
X110399235Y-108153190D01*
X110399235Y-108153190D02*
X110446854Y-108105571D01*
X110446854Y-108105571D02*
X110542092Y-108057952D01*
X110542092Y-108057952D02*
X110732568Y-108057952D01*
X110732568Y-108057952D02*
X110827806Y-108105571D01*
X112065902Y-108724619D02*
X112065902Y-107724619D01*
X112065902Y-108200809D02*
X112637330Y-108200809D01*
X112637330Y-108724619D02*
X112637330Y-107724619D01*
X113542092Y-108057952D02*
X113542092Y-108724619D01*
X113113521Y-108057952D02*
X113113521Y-108581761D01*
X113113521Y-108581761D02*
X113161140Y-108677000D01*
X113161140Y-108677000D02*
X113256378Y-108724619D01*
X113256378Y-108724619D02*
X113399235Y-108724619D01*
X113399235Y-108724619D02*
X113494473Y-108677000D01*
X113494473Y-108677000D02*
X113542092Y-108629380D01*
X114446854Y-108724619D02*
X114446854Y-108200809D01*
X114446854Y-108200809D02*
X114399235Y-108105571D01*
X114399235Y-108105571D02*
X114303997Y-108057952D01*
X114303997Y-108057952D02*
X114113521Y-108057952D01*
X114113521Y-108057952D02*
X114018283Y-108105571D01*
X114446854Y-108677000D02*
X114351616Y-108724619D01*
X114351616Y-108724619D02*
X114113521Y-108724619D01*
X114113521Y-108724619D02*
X114018283Y-108677000D01*
X114018283Y-108677000D02*
X113970664Y-108581761D01*
X113970664Y-108581761D02*
X113970664Y-108486523D01*
X113970664Y-108486523D02*
X114018283Y-108391285D01*
X114018283Y-108391285D02*
X114113521Y-108343666D01*
X114113521Y-108343666D02*
X114351616Y-108343666D01*
X114351616Y-108343666D02*
X114446854Y-108296047D01*
X114923045Y-108057952D02*
X114923045Y-108724619D01*
X114923045Y-108153190D02*
X114970664Y-108105571D01*
X114970664Y-108105571D02*
X115065902Y-108057952D01*
X115065902Y-108057952D02*
X115208759Y-108057952D01*
X115208759Y-108057952D02*
X115303997Y-108105571D01*
X115303997Y-108105571D02*
X115351616Y-108200809D01*
X115351616Y-108200809D02*
X115351616Y-108724619D01*
X116256378Y-108057952D02*
X116256378Y-108867476D01*
X116256378Y-108867476D02*
X116208759Y-108962714D01*
X116208759Y-108962714D02*
X116161140Y-109010333D01*
X116161140Y-109010333D02*
X116065902Y-109057952D01*
X116065902Y-109057952D02*
X115923045Y-109057952D01*
X115923045Y-109057952D02*
X115827807Y-109010333D01*
X116256378Y-108677000D02*
X116161140Y-108724619D01*
X116161140Y-108724619D02*
X115970664Y-108724619D01*
X115970664Y-108724619D02*
X115875426Y-108677000D01*
X115875426Y-108677000D02*
X115827807Y-108629380D01*
X115827807Y-108629380D02*
X115780188Y-108534142D01*
X115780188Y-108534142D02*
X115780188Y-108248428D01*
X115780188Y-108248428D02*
X115827807Y-108153190D01*
X115827807Y-108153190D02*
X115875426Y-108105571D01*
X115875426Y-108105571D02*
X115970664Y-108057952D01*
X115970664Y-108057952D02*
X116161140Y-108057952D01*
X116161140Y-108057952D02*
X116256378Y-108105571D01*
D11*
X108238095Y-119006819D02*
X108809523Y-119006819D01*
X108523809Y-120006819D02*
X108523809Y-119006819D01*
X109142857Y-120006819D02*
X109142857Y-119006819D01*
X109142857Y-119006819D02*
X109523809Y-119006819D01*
X109523809Y-119006819D02*
X109619047Y-119054438D01*
X109619047Y-119054438D02*
X109666666Y-119102057D01*
X109666666Y-119102057D02*
X109714285Y-119197295D01*
X109714285Y-119197295D02*
X109714285Y-119340152D01*
X109714285Y-119340152D02*
X109666666Y-119435390D01*
X109666666Y-119435390D02*
X109619047Y-119483009D01*
X109619047Y-119483009D02*
X109523809Y-119530628D01*
X109523809Y-119530628D02*
X109142857Y-119530628D01*
X110666666Y-120006819D02*
X110095238Y-120006819D01*
X110380952Y-120006819D02*
X110380952Y-119006819D01*
X110380952Y-119006819D02*
X110285714Y-119149676D01*
X110285714Y-119149676D02*
X110190476Y-119244914D01*
X110190476Y-119244914D02*
X110095238Y-119292533D01*
D12*
%TO.C,U1*%
X92520200Y-118899802D02*
X92520200Y-122862202D01*
X92520200Y-122862202D02*
X99479800Y-122862202D01*
X99479800Y-118899802D02*
X92520200Y-118899802D01*
X99479800Y-122862202D02*
X99479800Y-118899802D01*
X100749800Y-117381002D02*
G75*
G02*
X100495800Y-117381002I-127000J0D01*
G01*
X100495800Y-117381002D02*
G75*
G02*
X100749800Y-117381002I127000J0D01*
G01*
%TO.C,U2*%
D13*
X137400000Y-101400000D02*
X99400000Y-101400000D01*
X99400000Y-76400000D01*
X137400000Y-76400000D01*
X137400000Y-101400000D01*
%TO.C,U5*%
X142780000Y-106240000D02*
X201200000Y-106240000D01*
X201200000Y-75760000D01*
X142780000Y-75760000D01*
X142780000Y-106240000D01*
D14*
%TO.C,TP1*%
X110200000Y-121000000D02*
G75*
G02*
X108800000Y-121000000I-700000J0D01*
G01*
X108800000Y-121000000D02*
G75*
G02*
X110200000Y-121000000I700000J0D01*
G01*
D12*
%TO.C,U4*%
X132207497Y-123418800D02*
X134792503Y-123418800D01*
X134792503Y-114681200D02*
X132207497Y-114681200D01*
X133804800Y-114681200D02*
G75*
G02*
X133195200Y-114681200I-304800J0D01*
G01*
D15*
G36*
X137462400Y-120510500D02*
G01*
X137208400Y-120510500D01*
X137208400Y-120129500D01*
X137462400Y-120129500D01*
X137462400Y-120510500D01*
G37*
D14*
%TO.C,J1*%
X91670000Y-87670000D02*
X93000000Y-87670000D01*
X91670000Y-89000000D02*
X91670000Y-87670000D01*
X91670000Y-90270000D02*
X91670000Y-97950000D01*
X91670000Y-90270000D02*
X94330000Y-90270000D01*
X91670000Y-97950000D02*
X94330000Y-97950000D01*
X94330000Y-90270000D02*
X94330000Y-97950000D01*
D12*
%TO.C,U3*%
X132207497Y-110868800D02*
X134792503Y-110868800D01*
X134792503Y-102131200D02*
X132207497Y-102131200D01*
X133804800Y-102131200D02*
G75*
G02*
X133195200Y-102131200I-304800J0D01*
G01*
D15*
G36*
X137462400Y-107960500D02*
G01*
X137208400Y-107960500D01*
X137208400Y-107579500D01*
X137462400Y-107579500D01*
X137462400Y-107960500D01*
G37*
%TD*%
M02*
