%TF.GenerationSoftware,KiCad,Pcbnew,8.0.3*%
%TF.CreationDate,2024-08-29T14:55:06+08:00*%
%TF.ProjectId,Full_withESP,46756c6c-5f77-4697-9468-4553502e6b69,rev?*%
%TF.SameCoordinates,Original*%
%TF.FileFunction,Paste,Bot*%
%TF.FilePolarity,Positive*%
%FSLAX46Y46*%
G04 Gerber Fmt 4.6, Leading zero omitted, Abs format (unit mm)*
G04 Created by KiCad (PCBNEW 8.0.3) date 2024-08-29 14:55:06*
%MOMM*%
%LPD*%
G01*
G04 APERTURE LIST*
G04 Aperture macros list*
%AMRoundRect*
0 Rectangle with rounded corners*
0 $1 Rounding radius*
0 $2 $3 $4 $5 $6 $7 $8 $9 X,Y pos of 4 corners*
0 Add a 4 corners polygon primitive as box body*
4,1,4,$2,$3,$4,$5,$6,$7,$8,$9,$2,$3,0*
0 Add four circle primitives for the rounded corners*
1,1,$1+$1,$2,$3*
1,1,$1+$1,$4,$5*
1,1,$1+$1,$6,$7*
1,1,$1+$1,$8,$9*
0 Add four rect primitives between the rounded corners*
20,1,$1+$1,$2,$3,$4,$5,0*
20,1,$1+$1,$4,$5,$6,$7,0*
20,1,$1+$1,$6,$7,$8,$9,0*
20,1,$1+$1,$8,$9,$2,$3,0*%
G04 Aperture macros list end*
%ADD10RoundRect,0.140000X-0.170000X0.140000X-0.170000X-0.140000X0.170000X-0.140000X0.170000X0.140000X0*%
%ADD11RoundRect,0.135000X-0.135000X-0.185000X0.135000X-0.185000X0.135000X0.185000X-0.135000X0.185000X0*%
%ADD12RoundRect,0.135000X0.185000X-0.135000X0.185000X0.135000X-0.185000X0.135000X-0.185000X-0.135000X0*%
%ADD13RoundRect,0.140000X0.140000X0.170000X-0.140000X0.170000X-0.140000X-0.170000X0.140000X-0.170000X0*%
%ADD14RoundRect,0.140000X-0.140000X-0.170000X0.140000X-0.170000X0.140000X0.170000X-0.140000X0.170000X0*%
%ADD15RoundRect,0.135000X0.135000X0.185000X-0.135000X0.185000X-0.135000X-0.185000X0.135000X-0.185000X0*%
%ADD16RoundRect,0.135000X-0.185000X0.135000X-0.185000X-0.135000X0.185000X-0.135000X0.185000X0.135000X0*%
G04 APERTURE END LIST*
D10*
%TO.C,C2*%
X97500000Y-114540000D03*
X97500000Y-115500000D03*
%TD*%
D11*
%TO.C,R12*%
X138310000Y-110110000D03*
X139330000Y-110110000D03*
%TD*%
D12*
%TO.C,R19*%
X140500000Y-119020000D03*
X140500000Y-118000000D03*
%TD*%
D11*
%TO.C,R16*%
X134775000Y-124360000D03*
X135795000Y-124360000D03*
%TD*%
D10*
%TO.C,C1*%
X95000000Y-114540000D03*
X95000000Y-115500000D03*
%TD*%
D11*
%TO.C,R15*%
X134260000Y-113360000D03*
X135280000Y-113360000D03*
%TD*%
D13*
%TO.C,C9*%
X123810000Y-83360000D03*
X122850000Y-83360000D03*
%TD*%
D14*
%TO.C,C13*%
X138370000Y-111610000D03*
X139330000Y-111610000D03*
%TD*%
D11*
%TO.C,R9*%
X133360000Y-99860000D03*
X134380000Y-99860000D03*
%TD*%
D15*
%TO.C,R7*%
X126560000Y-82500000D03*
X125540000Y-82500000D03*
%TD*%
D14*
%TO.C,C19*%
X138370000Y-124110000D03*
X139330000Y-124110000D03*
%TD*%
%TO.C,C17*%
X132825000Y-124360000D03*
X133785000Y-124360000D03*
%TD*%
D13*
%TO.C,C5*%
X132300000Y-84860000D03*
X131340000Y-84860000D03*
%TD*%
D14*
%TO.C,C12*%
X132850000Y-110360000D03*
X133810000Y-110360000D03*
%TD*%
D11*
%TO.C,R17*%
X136320000Y-112420000D03*
X137340000Y-112420000D03*
%TD*%
D12*
%TO.C,R20*%
X140500000Y-109500000D03*
X140500000Y-108480000D03*
%TD*%
D14*
%TO.C,C18*%
X136380000Y-113470000D03*
X137340000Y-113470000D03*
%TD*%
D16*
%TO.C,R1*%
X101000000Y-112990000D03*
X101000000Y-114010000D03*
%TD*%
D15*
%TO.C,R8*%
X123840000Y-84860000D03*
X122820000Y-84860000D03*
%TD*%
D11*
%TO.C,R10*%
X135330000Y-99860000D03*
X136350000Y-99860000D03*
%TD*%
D13*
%TO.C,C6*%
X111280000Y-92360000D03*
X110320000Y-92360000D03*
%TD*%
%TO.C,C15*%
X115780000Y-88860000D03*
X114820000Y-88860000D03*
%TD*%
D15*
%TO.C,R5*%
X109340000Y-92360000D03*
X108320000Y-92360000D03*
%TD*%
D14*
%TO.C,C11*%
X135370000Y-97360000D03*
X136330000Y-97360000D03*
%TD*%
D13*
%TO.C,C14*%
X107330000Y-90920000D03*
X106370000Y-90920000D03*
%TD*%
D15*
%TO.C,R3*%
X129240000Y-82500000D03*
X128220000Y-82500000D03*
%TD*%
D11*
%TO.C,R11*%
X135320000Y-110360000D03*
X136340000Y-110360000D03*
%TD*%
D13*
%TO.C,C8*%
X126500000Y-81000000D03*
X125540000Y-81000000D03*
%TD*%
D11*
%TO.C,R18*%
X138310000Y-122610000D03*
X139330000Y-122610000D03*
%TD*%
D15*
%TO.C,R4*%
X130320000Y-84860000D03*
X129300000Y-84860000D03*
%TD*%
D16*
%TO.C,R22*%
X140330000Y-114480000D03*
X140330000Y-115500000D03*
%TD*%
D14*
%TO.C,C10*%
X130870000Y-99860000D03*
X131830000Y-99860000D03*
%TD*%
D15*
%TO.C,R6*%
X118330000Y-90360000D03*
X117310000Y-90360000D03*
%TD*%
D13*
%TO.C,C7*%
X120770000Y-90360000D03*
X119810000Y-90360000D03*
%TD*%
D15*
%TO.C,R14*%
X115840000Y-90360000D03*
X114820000Y-90360000D03*
%TD*%
D12*
%TO.C,R21*%
X139500000Y-98020000D03*
X139500000Y-97000000D03*
%TD*%
D15*
%TO.C,R13*%
X107390000Y-92420000D03*
X106370000Y-92420000D03*
%TD*%
D14*
%TO.C,C16*%
X132320000Y-113360000D03*
X133280000Y-113360000D03*
%TD*%
D13*
%TO.C,C4*%
X131720000Y-82500000D03*
X130760000Y-82500000D03*
%TD*%
D10*
%TO.C,C3*%
X99500000Y-114520000D03*
X99500000Y-115480000D03*
%TD*%
D16*
%TO.C,R2*%
X101000000Y-116000000D03*
X101000000Y-117020000D03*
%TD*%
M02*
