%TF.GenerationSoftware,KiCad,Pcbnew,8.0.3*%
%TF.CreationDate,2024-08-29T14:55:06+08:00*%
%TF.ProjectId,Full_withESP,46756c6c-5f77-4697-9468-4553502e6b69,rev?*%
%TF.SameCoordinates,Original*%
%TF.FileFunction,Copper,L1,Top*%
%TF.FilePolarity,Positive*%
%FSLAX46Y46*%
G04 Gerber Fmt 4.6, Leading zero omitted, Abs format (unit mm)*
G04 Created by KiCad (PCBNEW 8.0.3) date 2024-08-29 14:55:06*
%MOMM*%
%LPD*%
G01*
G04 APERTURE LIST*
%TA.AperFunction,SMDPad,CuDef*%
%ADD10R,0.889000X1.473200*%
%TD*%
%TA.AperFunction,SMDPad,CuDef*%
%ADD11R,3.149600X1.473200*%
%TD*%
%TA.AperFunction,ComponentPad*%
%ADD12C,1.300000*%
%TD*%
%TA.AperFunction,ComponentPad*%
%ADD13R,1.524000X1.524000*%
%TD*%
%TA.AperFunction,ComponentPad*%
%ADD14C,1.524000*%
%TD*%
%TA.AperFunction,SMDPad,CuDef*%
%ADD15C,1.000000*%
%TD*%
%TA.AperFunction,SMDPad,CuDef*%
%ADD16R,1.981200X0.558800*%
%TD*%
%TA.AperFunction,ComponentPad*%
%ADD17R,1.700000X1.700000*%
%TD*%
%TA.AperFunction,ComponentPad*%
%ADD18O,1.700000X1.700000*%
%TD*%
%TA.AperFunction,ViaPad*%
%ADD19C,0.600000*%
%TD*%
%TA.AperFunction,Conductor*%
%ADD20C,0.200000*%
%TD*%
G04 APERTURE END LIST*
D10*
%TO.P,U1,1,GROUND/ADJUST*%
%TO.N,GND*%
X98311400Y-117762004D03*
%TO.P,U1,2,VOUT*%
%TO.N,5v*%
X96000000Y-117762004D03*
%TO.P,U1,3,VIN*%
%TO.N,Net-(J1-Pin_4)*%
X93688600Y-117762004D03*
D11*
%TO.P,U1,4,4*%
%TO.N,unconnected-(U1-Pad4)*%
X96000000Y-124000000D03*
%TD*%
D12*
%TO.P,U2,X1\u002C1,VCC*%
%TO.N,5v*%
X101800000Y-91400000D03*
%TO.P,U2,X1\u002C2,GND*%
%TO.N,GND*%
X101800000Y-88860000D03*
%TO.P,U2,X1\u002C3,fDiv_out*%
%TO.N,Net-(J1-Pin_1)*%
X101800000Y-86320000D03*
%TO.P,U2,X2\u002C1,Out_I1*%
%TO.N,Net-(U2-Out_I1)*%
X134000000Y-82500000D03*
%TO.P,U2,X2\u002C2,Out_Q1*%
%TO.N,Net-(U2-Out_Q1)*%
X134000000Y-85040000D03*
%TO.P,U2,X2\u002C3,GND*%
%TO.N,GND*%
X134000000Y-87580000D03*
%TO.P,U2,X2\u002C4,Out_Q2*%
%TO.N,Net-(U2-Out_Q2)*%
X134000000Y-90120000D03*
%TO.P,U2,X2\u002C5,Out_I2*%
%TO.N,Net-(U2-Out_I2)*%
X134000000Y-92660000D03*
%TO.P,U2,X2\u002C6,VCO_In*%
%TO.N,Net-(J1-Pin_2)*%
X134000000Y-95200000D03*
%TD*%
D13*
%TO.P,U5,1,EN*%
%TO.N,unconnected-(U5-EN-Pad1)*%
X152940000Y-103700000D03*
D14*
%TO.P,U5,2,VP*%
%TO.N,unconnected-(U5-VP-Pad2)*%
X155480000Y-103700000D03*
%TO.P,U5,3,VN*%
%TO.N,unconnected-(U5-VN-Pad3)*%
X158020000Y-103700000D03*
%TO.P,U5,4,D34*%
%TO.N,Net-(U5-D34)*%
X160560000Y-103700000D03*
%TO.P,U5,5,D35*%
%TO.N,Net-(U5-D35)*%
X163100000Y-103700000D03*
%TO.P,U5,6,D32*%
%TO.N,Net-(U5-D32)*%
X165640000Y-103700000D03*
%TO.P,U5,7,D33*%
%TO.N,Net-(U5-D33)*%
X168180000Y-103700000D03*
%TO.P,U5,8,D25*%
%TO.N,unconnected-(U5-D25-Pad8)*%
X170720000Y-103700000D03*
%TO.P,U5,9,D26*%
%TO.N,unconnected-(U5-D26-Pad9)*%
X173260000Y-103700000D03*
%TO.P,U5,10,D27*%
%TO.N,unconnected-(U5-D27-Pad10)*%
X175800000Y-103700000D03*
%TO.P,U5,11,D14*%
%TO.N,unconnected-(U5-D14-Pad11)*%
X178340000Y-103700000D03*
%TO.P,U5,12,D12*%
%TO.N,unconnected-(U5-D12-Pad12)*%
X180880000Y-103700000D03*
%TO.P,U5,13,D13*%
%TO.N,unconnected-(U5-D13-Pad13)*%
X183420000Y-103700000D03*
%TO.P,U5,14,GND*%
%TO.N,GND*%
X185960000Y-103700000D03*
%TO.P,U5,15,VIN*%
%TO.N,5v*%
X188500000Y-103700000D03*
%TO.P,U5,16,D23*%
%TO.N,unconnected-(U5-D23-Pad16)*%
X152940000Y-78300000D03*
%TO.P,U5,17,D22*%
%TO.N,unconnected-(U5-D22-Pad17)*%
X155480000Y-78300000D03*
%TO.P,U5,18,TX0*%
%TO.N,unconnected-(U5-TX0-Pad18)*%
X158020000Y-78300000D03*
%TO.P,U5,19,RX0*%
%TO.N,unconnected-(U5-RX0-Pad19)*%
X160560000Y-78300000D03*
%TO.P,U5,20,D21*%
%TO.N,unconnected-(U5-D21-Pad20)*%
X163100000Y-78300000D03*
%TO.P,U5,21,D19*%
%TO.N,unconnected-(U5-D19-Pad21)*%
X165640000Y-78300000D03*
%TO.P,U5,22,D18*%
%TO.N,unconnected-(U5-D18-Pad22)*%
X168180000Y-78300000D03*
%TO.P,U5,23,D5*%
%TO.N,unconnected-(U5-D5-Pad23)*%
X170720000Y-78300000D03*
%TO.P,U5,24,TX2*%
%TO.N,unconnected-(U5-TX2-Pad24)*%
X173260000Y-78300000D03*
%TO.P,U5,25,RX2*%
%TO.N,unconnected-(U5-RX2-Pad25)*%
X175800000Y-78300000D03*
%TO.P,U5,26,D4*%
%TO.N,unconnected-(U5-D4-Pad26)*%
X178340000Y-78300000D03*
%TO.P,U5,27,D2*%
%TO.N,unconnected-(U5-D2-Pad27)*%
X180880000Y-78300000D03*
%TO.P,U5,28,D15*%
%TO.N,unconnected-(U5-D15-Pad28)*%
X183420000Y-78300000D03*
%TO.P,U5,29,GND*%
%TO.N,unconnected-(U5-GND-Pad29)*%
X185960000Y-78300000D03*
%TO.P,U5,30,3V3*%
%TO.N,unconnected-(U5-3V3-Pad30)*%
X188500000Y-78300000D03*
%TD*%
D15*
%TO.P,TP1,1,1*%
%TO.N,/2.5v*%
X109500000Y-121000000D03*
%TD*%
D16*
%TO.P,U4,1,OUTA*%
%TO.N,Net-(U4-OUTA)*%
X131036200Y-115240000D03*
%TO.P,U4,2,INA-*%
%TO.N,Net-(U4-INA-)*%
X131036200Y-116510000D03*
%TO.P,U4,3,INA+*%
%TO.N,/2.5v*%
X131036200Y-117780000D03*
%TO.P,U4,4,V+*%
%TO.N,5v*%
X131036200Y-119050000D03*
%TO.P,U4,5,INB+*%
%TO.N,/2.5v*%
X131036200Y-120320000D03*
%TO.P,U4,6,INB-*%
%TO.N,Net-(U4-INB-)*%
X131036200Y-121590000D03*
%TO.P,U4,7,OUTB*%
%TO.N,Net-(U4-OUTB)*%
X131036200Y-122860000D03*
%TO.P,U4,8,OUTC*%
%TO.N,Net-(U4-OUTC)*%
X135963800Y-122860000D03*
%TO.P,U4,9,INC-*%
%TO.N,Net-(U4-INC-)*%
X135963800Y-121590000D03*
%TO.P,U4,10,INC+*%
%TO.N,/2.5v*%
X135963800Y-120320000D03*
%TO.P,U4,11,V-*%
%TO.N,GND*%
X135963800Y-119050000D03*
%TO.P,U4,12,IND+*%
%TO.N,/2.5v*%
X135963800Y-117780000D03*
%TO.P,U4,13,IND-*%
%TO.N,Net-(U4-IND-)*%
X135963800Y-116510000D03*
%TO.P,U4,14,OUTD*%
%TO.N,Net-(U4-OUTD)*%
X135963800Y-115240000D03*
%TD*%
D17*
%TO.P,J1,1,Pin_1*%
%TO.N,Net-(J1-Pin_1)*%
X93000000Y-89000000D03*
D18*
%TO.P,J1,2,Pin_2*%
%TO.N,Net-(J1-Pin_2)*%
X93000000Y-91540000D03*
%TO.P,J1,3,Pin_3*%
%TO.N,GND*%
X93000000Y-94080000D03*
%TO.P,J1,4,Pin_4*%
%TO.N,Net-(J1-Pin_4)*%
X93000000Y-96620000D03*
%TD*%
D16*
%TO.P,U3,1,OUTA*%
%TO.N,Net-(U3-OUTA)*%
X131036200Y-102690000D03*
%TO.P,U3,2,INA-*%
%TO.N,Net-(U3-INA-)*%
X131036200Y-103960000D03*
%TO.P,U3,3,INA+*%
%TO.N,/2.5v*%
X131036200Y-105230000D03*
%TO.P,U3,4,V+*%
%TO.N,5v*%
X131036200Y-106500000D03*
%TO.P,U3,5,INB+*%
%TO.N,/2.5v*%
X131036200Y-107770000D03*
%TO.P,U3,6,INB-*%
%TO.N,Net-(U3-INB-)*%
X131036200Y-109040000D03*
%TO.P,U3,7,OUTB*%
%TO.N,Net-(U3-OUTB)*%
X131036200Y-110310000D03*
%TO.P,U3,8,OUTC*%
%TO.N,Net-(U3-OUTC)*%
X135963800Y-110310000D03*
%TO.P,U3,9,INC-*%
%TO.N,Net-(U3-INC-)*%
X135963800Y-109040000D03*
%TO.P,U3,10,INC+*%
%TO.N,/2.5v*%
X135963800Y-107770000D03*
%TO.P,U3,11,V-*%
%TO.N,GND*%
X135963800Y-106500000D03*
%TO.P,U3,12,IND+*%
%TO.N,/2.5v*%
X135963800Y-105230000D03*
%TO.P,U3,13,IND-*%
%TO.N,Net-(U3-IND-)*%
X135963800Y-103960000D03*
%TO.P,U3,14,OUTD*%
%TO.N,Net-(U3-OUTD)*%
X135963800Y-102690000D03*
%TD*%
D19*
%TO.N,GND*%
X164000000Y-90500000D03*
X155500000Y-114500000D03*
X123500000Y-78000000D03*
X107500000Y-100000000D03*
X124500000Y-117000000D03*
X145000000Y-117000000D03*
X123500000Y-104000000D03*
X126500000Y-106000000D03*
X170000000Y-117000000D03*
X119500000Y-78000000D03*
X119500000Y-87000000D03*
X125500000Y-106000000D03*
X123500000Y-91000000D03*
X127500000Y-86500000D03*
X104830000Y-118360000D03*
X159000000Y-88000000D03*
X107000000Y-87000000D03*
X180000000Y-112000000D03*
X161000000Y-91000000D03*
X143000000Y-117000000D03*
X159500000Y-114500000D03*
X102000000Y-78000000D03*
X186500000Y-114500000D03*
X111500000Y-117500000D03*
X113000000Y-113500000D03*
X112000000Y-87000000D03*
X109500000Y-85000000D03*
X123500000Y-86500000D03*
X145000000Y-93500000D03*
X126500000Y-96500000D03*
X119500000Y-82000000D03*
X122000000Y-115500000D03*
X131000000Y-91000000D03*
X123500000Y-99000000D03*
X132000000Y-92000000D03*
X112000000Y-78000000D03*
X161500000Y-114500000D03*
X123500000Y-100500000D03*
X155500000Y-117000000D03*
X165000000Y-117000000D03*
X175500000Y-112000000D03*
X121500000Y-78000000D03*
X104500000Y-82000000D03*
X172000000Y-112000000D03*
X104500000Y-78000000D03*
X153500000Y-112000000D03*
X107500000Y-102500000D03*
X128500000Y-108500000D03*
X107000000Y-78000000D03*
X115500000Y-94500000D03*
X124500000Y-91000000D03*
X150000000Y-112000000D03*
X121000000Y-120000000D03*
X130000000Y-92000000D03*
X161500000Y-117000000D03*
X119500000Y-85000000D03*
X123500000Y-94500000D03*
X113000000Y-117500000D03*
X109500000Y-78000000D03*
X150000000Y-93500000D03*
X182000000Y-117000000D03*
X184500000Y-117000000D03*
X123500000Y-92000000D03*
X117000000Y-87000000D03*
X157000000Y-93500000D03*
X107500000Y-110000000D03*
X164000000Y-88000000D03*
X186500000Y-112000000D03*
X123000000Y-114000000D03*
X180000000Y-117000000D03*
X172000000Y-114500000D03*
X180000000Y-114500000D03*
X117000000Y-78000000D03*
X109000000Y-117500000D03*
X112000000Y-82000000D03*
X141500000Y-87500000D03*
X114500000Y-87000000D03*
X143000000Y-114500000D03*
X110500000Y-116000000D03*
X127500000Y-88000000D03*
X110500000Y-117500000D03*
X114500000Y-78000000D03*
X167000000Y-114500000D03*
X134100000Y-118860000D03*
X117000000Y-85000000D03*
X119930000Y-118360000D03*
X117000000Y-82000000D03*
X150000000Y-91000000D03*
X159500000Y-112000000D03*
X125000000Y-120000000D03*
X112000000Y-85000000D03*
X107500000Y-117500000D03*
X148000000Y-114500000D03*
X109500000Y-87000000D03*
X186500000Y-117000000D03*
X123500000Y-95500000D03*
X122000000Y-114000000D03*
X166500000Y-90500000D03*
X116500000Y-94500000D03*
X110000000Y-111000000D03*
X147500000Y-91000000D03*
X139000000Y-120500000D03*
X182000000Y-112000000D03*
X155500000Y-90500000D03*
X153500000Y-114500000D03*
X124500000Y-88000000D03*
X175500000Y-114500000D03*
X106500000Y-116000000D03*
X165000000Y-114500000D03*
X167000000Y-112000000D03*
X104500000Y-87000000D03*
X143500000Y-91000000D03*
X170000000Y-112000000D03*
X146000000Y-88000000D03*
X153500000Y-93500000D03*
X123000000Y-120000000D03*
X148000000Y-117000000D03*
X102000000Y-82000000D03*
X172000000Y-117000000D03*
X115500000Y-100500000D03*
X166500000Y-92000000D03*
X150000000Y-114500000D03*
X115000000Y-117500000D03*
X123500000Y-88000000D03*
X143000000Y-112000000D03*
X167000000Y-117000000D03*
X145000000Y-112000000D03*
X182000000Y-114500000D03*
X177500000Y-114500000D03*
X123500000Y-107500000D03*
X107500000Y-106500000D03*
X125500000Y-104000000D03*
X126500000Y-88000000D03*
X123500000Y-106000000D03*
X111500000Y-116000000D03*
X153500000Y-91000000D03*
X161500000Y-112000000D03*
X155500000Y-88000000D03*
X159000000Y-90500000D03*
X116500000Y-100500000D03*
X148000000Y-112000000D03*
X103000000Y-118360000D03*
X162000000Y-96500000D03*
X126500000Y-86500000D03*
X159500000Y-117000000D03*
X170000000Y-114500000D03*
X157000000Y-91000000D03*
X124500000Y-92000000D03*
X184500000Y-114500000D03*
X145000000Y-91000000D03*
X106500000Y-117500000D03*
X123500000Y-98000000D03*
X107500000Y-98500000D03*
X128000000Y-105000000D03*
X126500000Y-100000000D03*
X117000000Y-117500000D03*
X147500000Y-93500000D03*
X123000000Y-117000000D03*
X107500000Y-95000000D03*
X165000000Y-112000000D03*
X117000000Y-116000000D03*
X131000000Y-92000000D03*
X146000000Y-90500000D03*
X126500000Y-104000000D03*
X114500000Y-82000000D03*
X128500000Y-107500000D03*
X130000000Y-91000000D03*
X107500000Y-96500000D03*
X143000000Y-93500000D03*
X121500000Y-87000000D03*
X126500000Y-95000000D03*
X153500000Y-117000000D03*
X109000000Y-116000000D03*
X134100000Y-106360000D03*
X121500000Y-82000000D03*
X177500000Y-117000000D03*
X121500000Y-85000000D03*
X145000000Y-114500000D03*
X132000000Y-91000000D03*
X104500000Y-85000000D03*
X149000000Y-90500000D03*
X116500000Y-98500000D03*
X126500000Y-92000000D03*
X124500000Y-86500000D03*
X175500000Y-117000000D03*
X115000000Y-116000000D03*
X112500000Y-111000000D03*
X126500000Y-98500000D03*
X107000000Y-82000000D03*
X123500000Y-82000000D03*
X110500000Y-113500000D03*
X150000000Y-117000000D03*
X107000000Y-85000000D03*
X125500000Y-107500000D03*
X164000000Y-92000000D03*
X149000000Y-88000000D03*
X151500000Y-88000000D03*
X114500000Y-85000000D03*
X126500000Y-91000000D03*
X107500000Y-116000000D03*
X151500000Y-90500000D03*
X109500000Y-82000000D03*
X115500000Y-98500000D03*
X122000000Y-117000000D03*
X177500000Y-112000000D03*
X123000000Y-115500000D03*
X155500000Y-112000000D03*
X184500000Y-112000000D03*
X123500000Y-96500000D03*
X113000000Y-116000000D03*
X123500000Y-102000000D03*
%TO.N,5v*%
X96000000Y-116000000D03*
X138500000Y-118500000D03*
X117000000Y-114500000D03*
X97000000Y-92000000D03*
X129000000Y-117500000D03*
%TO.N,Net-(U2-Out_I2)*%
X112830000Y-92360000D03*
%TO.N,Net-(U2-Out_Q2)*%
X121830000Y-90360000D03*
%TO.N,Net-(U3-OUTA)*%
X130830000Y-100860000D03*
X125500000Y-102500000D03*
%TO.N,Net-(U3-INA-)*%
X128000000Y-104000000D03*
%TO.N,Net-(U3-INB-)*%
X128830000Y-84860000D03*
X124830000Y-84860000D03*
X129330000Y-108860000D03*
%TO.N,Net-(U3-OUTB)*%
X131830000Y-111360000D03*
X128500000Y-109500000D03*
%TO.N,Net-(U3-OUTD)*%
X138330000Y-102360000D03*
%TO.N,Net-(U3-IND-)*%
X134330000Y-98860000D03*
%TO.N,Net-(U3-INC-)*%
X137830000Y-108860000D03*
%TO.N,Net-(U3-OUTC)*%
X140356880Y-113013678D03*
X134330000Y-109360000D03*
%TO.N,Net-(U4-INA-)*%
X116500000Y-110000000D03*
X127830000Y-114760000D03*
X125330000Y-111860000D03*
%TO.N,Net-(U4-OUTA)*%
X130830000Y-113360000D03*
X123830000Y-111860000D03*
X128830000Y-115360000D03*
X117230000Y-111860000D03*
%TO.N,Net-(U4-OUTB)*%
X131830000Y-124360000D03*
X128930000Y-122360000D03*
%TO.N,Net-(U4-INB-)*%
X128930000Y-121360000D03*
%TO.N,Net-(U4-OUTD)*%
X137330000Y-115360000D03*
%TO.N,Net-(U4-IND-)*%
X134330000Y-116360000D03*
%TO.N,Net-(U4-INC-)*%
X137902008Y-121260000D03*
%TO.N,Net-(U4-OUTC)*%
X140500000Y-120500000D03*
X137451708Y-121921233D03*
%TO.N,/2.5v*%
X104000000Y-115000000D03*
%TO.N,Net-(J1-Pin_4)*%
X94000000Y-114000000D03*
%TO.N,Net-(J1-Pin_2)*%
X95500000Y-91000000D03*
X96000000Y-84000000D03*
%TO.N,Net-(U5-D34)*%
X161000000Y-92000000D03*
X126000000Y-113600000D03*
X126000000Y-112400000D03*
X136600000Y-91960000D03*
X132900000Y-119500000D03*
%TO.N,Net-(U5-D32)*%
X165880000Y-86880000D03*
%TO.N,Net-(U5-D33)*%
X127600000Y-107100000D03*
X127500000Y-89500000D03*
X137400000Y-89000000D03*
X128000000Y-112000000D03*
X134100000Y-112000000D03*
X138500000Y-115500000D03*
%TD*%
D20*
%TO.N,GND*%
X143000000Y-106500000D02*
X143000000Y-110500000D01*
X96640000Y-88860000D02*
X96400000Y-89100000D01*
X135963800Y-119050000D02*
X134290000Y-119050000D01*
X134290000Y-119050000D02*
X134100000Y-118860000D01*
X132080000Y-87580000D02*
X134000000Y-87580000D01*
X132000000Y-88720000D02*
X132000000Y-87500000D01*
X135963800Y-106500000D02*
X143000000Y-106500000D01*
X185960000Y-110460000D02*
X185960000Y-103700000D01*
X96000000Y-94400000D02*
X96400000Y-94000000D01*
X96400000Y-89100000D02*
X96400000Y-94000000D01*
X134240000Y-106500000D02*
X134100000Y-106360000D01*
X100500000Y-119500000D02*
X103000000Y-119500000D01*
X103000000Y-118360000D02*
X103000000Y-112500000D01*
X98311400Y-117762004D02*
X99762004Y-117762004D01*
X101800000Y-88860000D02*
X131860000Y-88860000D01*
X96320000Y-94080000D02*
X96400000Y-94000000D01*
X131860000Y-88860000D02*
X132000000Y-88720000D01*
X101800000Y-88860000D02*
X96640000Y-88860000D01*
X103000000Y-112500000D02*
X97000000Y-112500000D01*
X143000000Y-110500000D02*
X186000000Y-110500000D01*
X103000000Y-119500000D02*
X103000000Y-118360000D01*
X93000000Y-94080000D02*
X96320000Y-94080000D01*
X97000000Y-112500000D02*
X96000000Y-111500000D01*
X186000000Y-110500000D02*
X185960000Y-110460000D01*
X132000000Y-87500000D02*
X132080000Y-87580000D01*
X119930000Y-118360000D02*
X104830000Y-118360000D01*
X99762004Y-117762004D02*
X100500000Y-118500000D01*
X96000000Y-111500000D02*
X96000000Y-94400000D01*
X100500000Y-118500000D02*
X100500000Y-119500000D01*
X135963800Y-106500000D02*
X134240000Y-106500000D01*
%TO.N,5v*%
X127000000Y-118690000D02*
X127360000Y-119050000D01*
X117000000Y-114500000D02*
X119000000Y-114500000D01*
X188500000Y-118000000D02*
X188500000Y-103700000D01*
X138500000Y-118500000D02*
X188000000Y-118500000D01*
X98000000Y-92000000D02*
X98600000Y-91400000D01*
X131036200Y-106500000D02*
X127000000Y-106500000D01*
X129000000Y-117500000D02*
X130550000Y-119050000D01*
X188000000Y-118500000D02*
X188500000Y-118000000D01*
X120500000Y-113000000D02*
X127000000Y-113000000D01*
X119000000Y-114500000D02*
X120500000Y-113000000D01*
X127000000Y-106500000D02*
X127000000Y-113000000D01*
X98600000Y-91400000D02*
X101800000Y-91400000D01*
X96000000Y-118262004D02*
X96000000Y-116000000D01*
X127360000Y-119050000D02*
X131036200Y-119050000D01*
X127000000Y-113000000D02*
X127000000Y-118690000D01*
X97000000Y-92000000D02*
X98000000Y-92000000D01*
X130550000Y-119050000D02*
X131036200Y-119050000D01*
%TO.N,Net-(U2-Out_I2)*%
X113130000Y-92660000D02*
X112830000Y-92360000D01*
X134000000Y-92660000D02*
X113130000Y-92660000D01*
%TO.N,Net-(U2-Out_Q2)*%
X122070000Y-90120000D02*
X121830000Y-90360000D01*
X134000000Y-90120000D02*
X122070000Y-90120000D01*
%TO.N,Net-(U3-OUTA)*%
X125690000Y-102690000D02*
X131036200Y-102690000D01*
X131036200Y-101066200D02*
X130830000Y-100860000D01*
X125500000Y-102500000D02*
X125690000Y-102690000D01*
X131036200Y-102690000D02*
X131036200Y-101066200D01*
%TO.N,Net-(U3-INA-)*%
X128040000Y-103960000D02*
X131036200Y-103960000D01*
X128000000Y-104000000D02*
X128040000Y-103960000D01*
%TO.N,Net-(U3-INB-)*%
X128830000Y-84860000D02*
X127830000Y-84860000D01*
X127830000Y-84860000D02*
X124830000Y-84860000D01*
X129330000Y-108860000D02*
X130856200Y-108860000D01*
X130856200Y-108860000D02*
X131036200Y-109040000D01*
%TO.N,Net-(U3-OUTB)*%
X131036200Y-110310000D02*
X131036200Y-110566200D01*
X131036200Y-110566200D02*
X131830000Y-111360000D01*
X128500000Y-109500000D02*
X128570000Y-109500000D01*
X129380000Y-110310000D02*
X131036200Y-110310000D01*
X128570000Y-109500000D02*
X129380000Y-110310000D01*
%TO.N,Net-(U3-OUTD)*%
X138330000Y-102360000D02*
X138000000Y-102690000D01*
X138000000Y-102690000D02*
X135963800Y-102690000D01*
%TO.N,Net-(U3-IND-)*%
X138830000Y-103860000D02*
X138730000Y-103960000D01*
X139330000Y-98860000D02*
X139330000Y-103860000D01*
X138730000Y-103960000D02*
X135963800Y-103960000D01*
X139330000Y-103860000D02*
X138830000Y-103860000D01*
X134330000Y-98860000D02*
X139330000Y-98860000D01*
%TO.N,Net-(U3-INC-)*%
X137830000Y-108860000D02*
X136143800Y-108860000D01*
X136143800Y-108860000D02*
X135963800Y-109040000D01*
%TO.N,Net-(U3-OUTC)*%
X135963800Y-110310000D02*
X140280000Y-110310000D01*
X140330000Y-110360000D02*
X140330000Y-112830000D01*
X140500000Y-113000000D02*
X140486322Y-113013678D01*
X140486322Y-113013678D02*
X140356880Y-113013678D01*
X135280000Y-110310000D02*
X135963800Y-110310000D01*
X140280000Y-110310000D02*
X140330000Y-110360000D01*
X140330000Y-112830000D02*
X140500000Y-113000000D01*
X134330000Y-109360000D02*
X135280000Y-110310000D01*
%TO.N,Net-(U4-INA-)*%
X127830000Y-116510000D02*
X131036200Y-116510000D01*
X124529997Y-111059997D02*
X125330000Y-111860000D01*
X117559997Y-111059997D02*
X124529997Y-111059997D01*
X127830000Y-114760000D02*
X127830000Y-116510000D01*
X116500000Y-110000000D02*
X117559997Y-111059997D01*
%TO.N,Net-(U4-OUTA)*%
X128950000Y-115240000D02*
X131036200Y-115240000D01*
X131036200Y-113566200D02*
X130830000Y-113360000D01*
X131036200Y-115240000D02*
X131036200Y-113566200D01*
X128830000Y-115360000D02*
X128950000Y-115240000D01*
X117230000Y-111860000D02*
X123830000Y-111860000D01*
%TO.N,Net-(U4-OUTB)*%
X130830000Y-124360000D02*
X131830000Y-124360000D01*
X128930000Y-122360000D02*
X129430000Y-122860000D01*
X129430000Y-122860000D02*
X131036200Y-122860000D01*
X130830000Y-124360000D02*
X131036200Y-124153800D01*
X131036200Y-124153800D02*
X131036200Y-122860000D01*
%TO.N,Net-(U4-INB-)*%
X128930000Y-121360000D02*
X129160000Y-121590000D01*
X129160000Y-121590000D02*
X131036200Y-121590000D01*
%TO.N,Net-(U4-OUTD)*%
X136083800Y-115360000D02*
X135963800Y-115240000D01*
X137330000Y-115360000D02*
X136083800Y-115360000D01*
%TO.N,Net-(U4-IND-)*%
X134330000Y-116360000D02*
X135813800Y-116360000D01*
X135813800Y-116360000D02*
X135963800Y-116510000D01*
%TO.N,Net-(U4-INC-)*%
X137902008Y-121260000D02*
X136103800Y-121260000D01*
X136103800Y-121260000D02*
X135963800Y-121400000D01*
%TO.N,Net-(U4-OUTC)*%
X135963800Y-122860000D02*
X135963800Y-124726200D01*
X135963800Y-122860000D02*
X136512941Y-122860000D01*
X135830000Y-124860000D02*
X140330000Y-124860000D01*
X135963800Y-124726200D02*
X135830000Y-124860000D01*
X136512941Y-122860000D02*
X137451708Y-121921233D01*
X140330000Y-124860000D02*
X140500000Y-124690000D01*
X140500000Y-124690000D02*
X140500000Y-120500000D01*
%TO.N,/2.5v*%
X128370000Y-120320000D02*
X128330000Y-120360000D01*
X128330000Y-123360000D02*
X128330000Y-120360000D01*
X109500000Y-123500000D02*
X128190000Y-123500000D01*
X131036200Y-107770000D02*
X135963800Y-107770000D01*
X133040000Y-120320000D02*
X131036200Y-120320000D01*
X104000000Y-115000000D02*
X104000000Y-123500000D01*
X133500000Y-119860000D02*
X133040000Y-120320000D01*
X131036200Y-117770000D02*
X133500000Y-117770000D01*
X131036200Y-120320000D02*
X128370000Y-120320000D01*
X131036200Y-105230000D02*
X133500000Y-105230000D01*
X133500000Y-105230000D02*
X133500000Y-111500000D01*
X104000000Y-123500000D02*
X109500000Y-123500000D01*
X133500000Y-111500000D02*
X133500000Y-117770000D01*
X133500000Y-105230000D02*
X135963800Y-105230000D01*
X133500000Y-119860000D02*
X133500000Y-119960000D01*
X128190000Y-123500000D02*
X128330000Y-123360000D01*
X133860000Y-120320000D02*
X135963800Y-120320000D01*
X133500000Y-117770000D02*
X133500000Y-119860000D01*
X109500000Y-121000000D02*
X109500000Y-123500000D01*
X133500000Y-117770000D02*
X135963800Y-117770000D01*
X133500000Y-119960000D02*
X133860000Y-120320000D01*
%TO.N,Net-(J1-Pin_4)*%
X93000000Y-117573404D02*
X93000000Y-114000000D01*
X93000000Y-114000000D02*
X93000000Y-96620000D01*
X93688600Y-118262004D02*
X93000000Y-117573404D01*
X93000000Y-114000000D02*
X94000000Y-114000000D01*
%TO.N,Net-(J1-Pin_1)*%
X95680000Y-86320000D02*
X93000000Y-89000000D01*
X101800000Y-86320000D02*
X95680000Y-86320000D01*
%TO.N,Net-(J1-Pin_2)*%
X96000000Y-84000000D02*
X96000000Y-80000000D01*
X95000000Y-91000000D02*
X94460000Y-91540000D01*
X94460000Y-91540000D02*
X93000000Y-91540000D01*
X138000000Y-80000000D02*
X138000000Y-95200000D01*
X95500000Y-91000000D02*
X95000000Y-91000000D01*
X96000000Y-80000000D02*
X138000000Y-80000000D01*
X138000000Y-95200000D02*
X134000000Y-95200000D01*
%TO.N,Net-(U5-D34)*%
X124500000Y-109464314D02*
X126000000Y-110964314D01*
X126000000Y-110964314D02*
X126000000Y-112400000D01*
X134560000Y-94000000D02*
X124780000Y-94000000D01*
X124780000Y-94000000D02*
X124500000Y-93720000D01*
X126000000Y-113600000D02*
X126000000Y-119694314D01*
X136600000Y-91960000D02*
X134560000Y-94000000D01*
X160560000Y-92440000D02*
X160560000Y-103700000D01*
X132705686Y-119694314D02*
X132900000Y-119500000D01*
X126000000Y-119694314D02*
X132705686Y-119694314D01*
X161000000Y-92000000D02*
X160560000Y-92440000D01*
X124500000Y-93720000D02*
X124500000Y-109464314D01*
%TO.N,Net-(U5-D32)*%
X165500000Y-87260000D02*
X165500000Y-103560000D01*
X165500000Y-103560000D02*
X165640000Y-103700000D01*
X165880000Y-86880000D02*
X165500000Y-87260000D01*
%TO.N,Net-(U5-D33)*%
X133276497Y-89500000D02*
X133776497Y-89000000D01*
X133776497Y-89000000D02*
X137400000Y-89000000D01*
X135120000Y-113020000D02*
X135050000Y-112950000D01*
X127500000Y-89500000D02*
X133276497Y-89500000D01*
X127600000Y-111600000D02*
X127600000Y-107100000D01*
X135100000Y-113000000D02*
X138500000Y-113000000D01*
X135050000Y-112950000D02*
X135100000Y-113000000D01*
X138500000Y-113000000D02*
X138500000Y-115500000D01*
X128000000Y-112000000D02*
X127600000Y-111600000D01*
X135050000Y-112950000D02*
X134100000Y-112000000D01*
%TD*%
%TA.AperFunction,Conductor*%
%TO.N,GND*%
G36*
X190942539Y-76020185D02*
G01*
X190988294Y-76072989D01*
X190999500Y-76124500D01*
X190999500Y-124875500D01*
X190979815Y-124942539D01*
X190927011Y-124988294D01*
X190875500Y-124999500D01*
X141200353Y-124999500D01*
X141133314Y-124979815D01*
X141087559Y-124927011D01*
X141077615Y-124857853D01*
X141080578Y-124843407D01*
X141081352Y-124840520D01*
X141100500Y-124769058D01*
X141100500Y-124610943D01*
X141100500Y-121082412D01*
X141120185Y-121015373D01*
X141127555Y-121005097D01*
X141129810Y-121002267D01*
X141129816Y-121002262D01*
X141225789Y-120849522D01*
X141285368Y-120679255D01*
X141294802Y-120595528D01*
X141305565Y-120500003D01*
X141305565Y-120499996D01*
X141285369Y-120320750D01*
X141285368Y-120320745D01*
X141274301Y-120289117D01*
X141225789Y-120150478D01*
X141129816Y-119997738D01*
X141002262Y-119870184D01*
X140849523Y-119774211D01*
X140679254Y-119714631D01*
X140679249Y-119714630D01*
X140500004Y-119694435D01*
X140499996Y-119694435D01*
X140320750Y-119714630D01*
X140320745Y-119714631D01*
X140150476Y-119774211D01*
X139997737Y-119870184D01*
X139870184Y-119997737D01*
X139774211Y-120150476D01*
X139714631Y-120320745D01*
X139714630Y-120320750D01*
X139694435Y-120499996D01*
X139694435Y-120500003D01*
X139714630Y-120679249D01*
X139714631Y-120679254D01*
X139757064Y-120800520D01*
X139774211Y-120849522D01*
X139864357Y-120992989D01*
X139870185Y-121002263D01*
X139872445Y-121005097D01*
X139873334Y-121007275D01*
X139873889Y-121008158D01*
X139873734Y-121008255D01*
X139898855Y-121069783D01*
X139899500Y-121082412D01*
X139899500Y-124135500D01*
X139879815Y-124202539D01*
X139827011Y-124248294D01*
X139775500Y-124259500D01*
X136688300Y-124259500D01*
X136621261Y-124239815D01*
X136575506Y-124187011D01*
X136564300Y-124135500D01*
X136564300Y-123763899D01*
X136583985Y-123696860D01*
X136636789Y-123651105D01*
X136688300Y-123639899D01*
X137002271Y-123639899D01*
X137002272Y-123639899D01*
X137061883Y-123633491D01*
X137196731Y-123583196D01*
X137311946Y-123496946D01*
X137398196Y-123381731D01*
X137448491Y-123246883D01*
X137454900Y-123187273D01*
X137454899Y-122837250D01*
X137474583Y-122770212D01*
X137527387Y-122724457D01*
X137565011Y-122714031D01*
X137630963Y-122706601D01*
X137801230Y-122647022D01*
X137953970Y-122551049D01*
X138081524Y-122423495D01*
X138177497Y-122270755D01*
X138237076Y-122100488D01*
X138243196Y-122046161D01*
X138270261Y-121981752D01*
X138300442Y-121955055D01*
X138404270Y-121889816D01*
X138531824Y-121762262D01*
X138627797Y-121609522D01*
X138687376Y-121439255D01*
X138707266Y-121262727D01*
X138707573Y-121260003D01*
X138707573Y-121259996D01*
X138687377Y-121080750D01*
X138687376Y-121080745D01*
X138661668Y-121007275D01*
X138627797Y-120910478D01*
X138531824Y-120757738D01*
X138404270Y-120630184D01*
X138380528Y-120615266D01*
X138251531Y-120534211D01*
X138081262Y-120474631D01*
X138081257Y-120474630D01*
X137902012Y-120454435D01*
X137902004Y-120454435D01*
X137722758Y-120474630D01*
X137722753Y-120474631D01*
X137619854Y-120510638D01*
X137550075Y-120514199D01*
X137489447Y-120479470D01*
X137457220Y-120417477D01*
X137454899Y-120393596D01*
X137454899Y-119992729D01*
X137454898Y-119992723D01*
X137448491Y-119933116D01*
X137398197Y-119798271D01*
X137398196Y-119798269D01*
X137368719Y-119758893D01*
X137344302Y-119693429D01*
X137359153Y-119625156D01*
X137368721Y-119610269D01*
X137397751Y-119571491D01*
X137447997Y-119436776D01*
X137447998Y-119436772D01*
X137454399Y-119377244D01*
X137454400Y-119377227D01*
X137454400Y-119300000D01*
X134473200Y-119300000D01*
X134473200Y-119377244D01*
X134479601Y-119436772D01*
X134479603Y-119436779D01*
X134522640Y-119552167D01*
X134527624Y-119621858D01*
X134494139Y-119683182D01*
X134432816Y-119716666D01*
X134406458Y-119719500D01*
X134224500Y-119719500D01*
X134157461Y-119699815D01*
X134111706Y-119647011D01*
X134100500Y-119595500D01*
X134100500Y-118494500D01*
X134120185Y-118427461D01*
X134172989Y-118381706D01*
X134224500Y-118370500D01*
X134410188Y-118370500D01*
X134477227Y-118390185D01*
X134522982Y-118442989D01*
X134532926Y-118512147D01*
X134526370Y-118537833D01*
X134479603Y-118663220D01*
X134479601Y-118663227D01*
X134473200Y-118722755D01*
X134473200Y-118800000D01*
X137454400Y-118800000D01*
X137454400Y-118722772D01*
X137454399Y-118722755D01*
X137447998Y-118663227D01*
X137447996Y-118663220D01*
X137397754Y-118528513D01*
X137397750Y-118528506D01*
X137376407Y-118499996D01*
X137694435Y-118499996D01*
X137694435Y-118500003D01*
X137714630Y-118679249D01*
X137714631Y-118679254D01*
X137774211Y-118849522D01*
X137870184Y-119002262D01*
X137997738Y-119129816D01*
X138150478Y-119225789D01*
X138320745Y-119285368D01*
X138320750Y-119285369D01*
X138499996Y-119305565D01*
X138500000Y-119305565D01*
X138500004Y-119305565D01*
X138679249Y-119285369D01*
X138679252Y-119285368D01*
X138679255Y-119285368D01*
X138849522Y-119225789D01*
X139002262Y-119129816D01*
X139002267Y-119129810D01*
X139005097Y-119127555D01*
X139007275Y-119126665D01*
X139008158Y-119126111D01*
X139008255Y-119126265D01*
X139069783Y-119101145D01*
X139082412Y-119100500D01*
X187913331Y-119100500D01*
X187913347Y-119100501D01*
X187920943Y-119100501D01*
X188079054Y-119100501D01*
X188079057Y-119100501D01*
X188231785Y-119059577D01*
X188301233Y-119019481D01*
X188368716Y-118980520D01*
X188480520Y-118868716D01*
X188480521Y-118868714D01*
X188980520Y-118368716D01*
X189059577Y-118231784D01*
X189100501Y-118079057D01*
X189100501Y-117920942D01*
X189100501Y-117913347D01*
X189100500Y-117913329D01*
X189100500Y-104885304D01*
X189120185Y-104818265D01*
X189153375Y-104783730D01*
X189314620Y-104670826D01*
X189470826Y-104514620D01*
X189597534Y-104333662D01*
X189690894Y-104133450D01*
X189748070Y-103920068D01*
X189767323Y-103700000D01*
X189762990Y-103650478D01*
X189754457Y-103552939D01*
X189748070Y-103479932D01*
X189690894Y-103266550D01*
X189597534Y-103066339D01*
X189502125Y-102930080D01*
X189470827Y-102885381D01*
X189415962Y-102830516D01*
X189314620Y-102729174D01*
X189314616Y-102729171D01*
X189314615Y-102729170D01*
X189133666Y-102602468D01*
X189133662Y-102602466D01*
X189086457Y-102580454D01*
X188933450Y-102509106D01*
X188933447Y-102509105D01*
X188933445Y-102509104D01*
X188720070Y-102451930D01*
X188720062Y-102451929D01*
X188500002Y-102432677D01*
X188499998Y-102432677D01*
X188279937Y-102451929D01*
X188279929Y-102451930D01*
X188066554Y-102509104D01*
X188066548Y-102509107D01*
X187866340Y-102602465D01*
X187866338Y-102602466D01*
X187685377Y-102729175D01*
X187529175Y-102885377D01*
X187402467Y-103066337D01*
X187342105Y-103195782D01*
X187295932Y-103248221D01*
X187228738Y-103267372D01*
X187161857Y-103247156D01*
X187117341Y-103195780D01*
X187057098Y-103066589D01*
X187057097Y-103066587D01*
X187011741Y-103001811D01*
X187011740Y-103001810D01*
X186341000Y-103672551D01*
X186341000Y-103649840D01*
X186315036Y-103552939D01*
X186264876Y-103466060D01*
X186193940Y-103395124D01*
X186107061Y-103344964D01*
X186010160Y-103319000D01*
X185987448Y-103319000D01*
X186658188Y-102648259D01*
X186658187Y-102648258D01*
X186593411Y-102602901D01*
X186593405Y-102602898D01*
X186393284Y-102509580D01*
X186393270Y-102509575D01*
X186179986Y-102452426D01*
X186179976Y-102452424D01*
X185960001Y-102433179D01*
X185959999Y-102433179D01*
X185740023Y-102452424D01*
X185740013Y-102452426D01*
X185526729Y-102509575D01*
X185526720Y-102509579D01*
X185326590Y-102602901D01*
X185261811Y-102648258D01*
X185932553Y-103319000D01*
X185909840Y-103319000D01*
X185812939Y-103344964D01*
X185726060Y-103395124D01*
X185655124Y-103466060D01*
X185604964Y-103552939D01*
X185579000Y-103649840D01*
X185579000Y-103672553D01*
X184908258Y-103001811D01*
X184862901Y-103066590D01*
X184802658Y-103195781D01*
X184756485Y-103248220D01*
X184689292Y-103267372D01*
X184622411Y-103247156D01*
X184577894Y-103195781D01*
X184554386Y-103145368D01*
X184517534Y-103066339D01*
X184422125Y-102930080D01*
X184390827Y-102885381D01*
X184335962Y-102830516D01*
X184234620Y-102729174D01*
X184234616Y-102729171D01*
X184234615Y-102729170D01*
X184053666Y-102602468D01*
X184053662Y-102602466D01*
X184006457Y-102580454D01*
X183853450Y-102509106D01*
X183853447Y-102509105D01*
X183853445Y-102509104D01*
X183640070Y-102451930D01*
X183640062Y-102451929D01*
X183420002Y-102432677D01*
X183419998Y-102432677D01*
X183199937Y-102451929D01*
X183199929Y-102451930D01*
X182986554Y-102509104D01*
X182986548Y-102509107D01*
X182786340Y-102602465D01*
X182786338Y-102602466D01*
X182605377Y-102729175D01*
X182449175Y-102885377D01*
X182322466Y-103066338D01*
X182322465Y-103066340D01*
X182262382Y-103195189D01*
X182216209Y-103247628D01*
X182149016Y-103266780D01*
X182082135Y-103246564D01*
X182037618Y-103195189D01*
X182014386Y-103145368D01*
X181977534Y-103066339D01*
X181882125Y-102930080D01*
X181850827Y-102885381D01*
X181795962Y-102830516D01*
X181694620Y-102729174D01*
X181694616Y-102729171D01*
X181694615Y-102729170D01*
X181513666Y-102602468D01*
X181513662Y-102602466D01*
X181466457Y-102580454D01*
X181313450Y-102509106D01*
X181313447Y-102509105D01*
X181313445Y-102509104D01*
X181100070Y-102451930D01*
X181100062Y-102451929D01*
X180880002Y-102432677D01*
X180879998Y-102432677D01*
X180659937Y-102451929D01*
X180659929Y-102451930D01*
X180446554Y-102509104D01*
X180446548Y-102509107D01*
X180246340Y-102602465D01*
X180246338Y-102602466D01*
X180065377Y-102729175D01*
X179909175Y-102885377D01*
X179782466Y-103066338D01*
X179782465Y-103066340D01*
X179722382Y-103195189D01*
X179676209Y-103247628D01*
X179609016Y-103266780D01*
X179542135Y-103246564D01*
X179497618Y-103195189D01*
X179474386Y-103145368D01*
X179437534Y-103066339D01*
X179342125Y-102930080D01*
X179310827Y-102885381D01*
X179255962Y-102830516D01*
X179154620Y-102729174D01*
X179154616Y-102729171D01*
X179154615Y-102729170D01*
X178973666Y-102602468D01*
X178973662Y-102602466D01*
X178926457Y-102580454D01*
X178773450Y-102509106D01*
X178773447Y-102509105D01*
X178773445Y-102509104D01*
X178560070Y-102451930D01*
X178560062Y-102451929D01*
X178340002Y-102432677D01*
X178339998Y-102432677D01*
X178119937Y-102451929D01*
X178119929Y-102451930D01*
X177906554Y-102509104D01*
X177906548Y-102509107D01*
X177706340Y-102602465D01*
X177706338Y-102602466D01*
X177525377Y-102729175D01*
X177369175Y-102885377D01*
X177242466Y-103066338D01*
X177242465Y-103066340D01*
X177182382Y-103195189D01*
X177136209Y-103247628D01*
X177069016Y-103266780D01*
X177002135Y-103246564D01*
X176957618Y-103195189D01*
X176934386Y-103145368D01*
X176897534Y-103066339D01*
X176802125Y-102930080D01*
X176770827Y-102885381D01*
X176715962Y-102830516D01*
X176614620Y-102729174D01*
X176614616Y-102729171D01*
X176614615Y-102729170D01*
X176433666Y-102602468D01*
X176433662Y-102602466D01*
X176386457Y-102580454D01*
X176233450Y-102509106D01*
X176233447Y-102509105D01*
X176233445Y-102509104D01*
X176020070Y-102451930D01*
X176020062Y-102451929D01*
X175800002Y-102432677D01*
X175799998Y-102432677D01*
X175579937Y-102451929D01*
X175579929Y-102451930D01*
X175366554Y-102509104D01*
X175366548Y-102509107D01*
X175166340Y-102602465D01*
X175166338Y-102602466D01*
X174985377Y-102729175D01*
X174829175Y-102885377D01*
X174702466Y-103066338D01*
X174702465Y-103066340D01*
X174642382Y-103195189D01*
X174596209Y-103247628D01*
X174529016Y-103266780D01*
X174462135Y-103246564D01*
X174417618Y-103195189D01*
X174394386Y-103145368D01*
X174357534Y-103066339D01*
X174262125Y-102930080D01*
X174230827Y-102885381D01*
X174175962Y-102830516D01*
X174074620Y-102729174D01*
X174074616Y-102729171D01*
X174074615Y-102729170D01*
X173893666Y-102602468D01*
X173893662Y-102602466D01*
X173846457Y-102580454D01*
X173693450Y-102509106D01*
X173693447Y-102509105D01*
X173693445Y-102509104D01*
X173480070Y-102451930D01*
X173480062Y-102451929D01*
X173260002Y-102432677D01*
X173259998Y-102432677D01*
X173039937Y-102451929D01*
X173039929Y-102451930D01*
X172826554Y-102509104D01*
X172826548Y-102509107D01*
X172626340Y-102602465D01*
X172626338Y-102602466D01*
X172445377Y-102729175D01*
X172289175Y-102885377D01*
X172162466Y-103066338D01*
X172162465Y-103066340D01*
X172102382Y-103195189D01*
X172056209Y-103247628D01*
X171989016Y-103266780D01*
X171922135Y-103246564D01*
X171877618Y-103195189D01*
X171854386Y-103145368D01*
X171817534Y-103066339D01*
X171722125Y-102930080D01*
X171690827Y-102885381D01*
X171635962Y-102830516D01*
X171534620Y-102729174D01*
X171534616Y-102729171D01*
X171534615Y-102729170D01*
X171353666Y-102602468D01*
X171353662Y-102602466D01*
X171306457Y-102580454D01*
X171153450Y-102509106D01*
X171153447Y-102509105D01*
X171153445Y-102509104D01*
X170940070Y-102451930D01*
X170940062Y-102451929D01*
X170720002Y-102432677D01*
X170719998Y-102432677D01*
X170499937Y-102451929D01*
X170499929Y-102451930D01*
X170286554Y-102509104D01*
X170286548Y-102509107D01*
X170086340Y-102602465D01*
X170086338Y-102602466D01*
X169905377Y-102729175D01*
X169749175Y-102885377D01*
X169622466Y-103066338D01*
X169622465Y-103066340D01*
X169562382Y-103195189D01*
X169516209Y-103247628D01*
X169449016Y-103266780D01*
X169382135Y-103246564D01*
X169337618Y-103195189D01*
X169314386Y-103145368D01*
X169277534Y-103066339D01*
X169182125Y-102930080D01*
X169150827Y-102885381D01*
X169095962Y-102830516D01*
X168994620Y-102729174D01*
X168994616Y-102729171D01*
X168994615Y-102729170D01*
X168813666Y-102602468D01*
X168813662Y-102602466D01*
X168766457Y-102580454D01*
X168613450Y-102509106D01*
X168613447Y-102509105D01*
X168613445Y-102509104D01*
X168400070Y-102451930D01*
X168400062Y-102451929D01*
X168180002Y-102432677D01*
X168179998Y-102432677D01*
X167959937Y-102451929D01*
X167959929Y-102451930D01*
X167746554Y-102509104D01*
X167746548Y-102509107D01*
X167546340Y-102602465D01*
X167546338Y-102602466D01*
X167365377Y-102729175D01*
X167209175Y-102885377D01*
X167082466Y-103066338D01*
X167082465Y-103066340D01*
X167022382Y-103195189D01*
X166976209Y-103247628D01*
X166909016Y-103266780D01*
X166842135Y-103246564D01*
X166797618Y-103195189D01*
X166774386Y-103145368D01*
X166737534Y-103066339D01*
X166642125Y-102930080D01*
X166610827Y-102885381D01*
X166555962Y-102830516D01*
X166454620Y-102729174D01*
X166454616Y-102729171D01*
X166454615Y-102729170D01*
X166273666Y-102602468D01*
X166273663Y-102602466D01*
X166273662Y-102602466D01*
X166218561Y-102576772D01*
X166172095Y-102555104D01*
X166119656Y-102508931D01*
X166100500Y-102442722D01*
X166100500Y-87738918D01*
X166120185Y-87671879D01*
X166172989Y-87626124D01*
X166183547Y-87621876D01*
X166229522Y-87605789D01*
X166382262Y-87509816D01*
X166509816Y-87382262D01*
X166605789Y-87229522D01*
X166665368Y-87059255D01*
X166665369Y-87059249D01*
X166685565Y-86880003D01*
X166685565Y-86879996D01*
X166665369Y-86700750D01*
X166665368Y-86700745D01*
X166605789Y-86530478D01*
X166509816Y-86377738D01*
X166382262Y-86250184D01*
X166283878Y-86188365D01*
X166229523Y-86154211D01*
X166059254Y-86094631D01*
X166059249Y-86094630D01*
X165880004Y-86074435D01*
X165879996Y-86074435D01*
X165700750Y-86094630D01*
X165700745Y-86094631D01*
X165530476Y-86154211D01*
X165377737Y-86250184D01*
X165250184Y-86377737D01*
X165154210Y-86530478D01*
X165094630Y-86700750D01*
X165084837Y-86787666D01*
X165057770Y-86852080D01*
X165049301Y-86861461D01*
X165019480Y-86891283D01*
X164980353Y-86959055D01*
X164980352Y-86959057D01*
X164940423Y-87028214D01*
X164940423Y-87028215D01*
X164899499Y-87180943D01*
X164899499Y-87180945D01*
X164899499Y-87349046D01*
X164899500Y-87349059D01*
X164899500Y-102612724D01*
X164879815Y-102679763D01*
X164846624Y-102714298D01*
X164825387Y-102729168D01*
X164825382Y-102729172D01*
X164669172Y-102885381D01*
X164542466Y-103066338D01*
X164542465Y-103066340D01*
X164482382Y-103195189D01*
X164436209Y-103247628D01*
X164369016Y-103266780D01*
X164302135Y-103246564D01*
X164257618Y-103195189D01*
X164234386Y-103145368D01*
X164197534Y-103066339D01*
X164102125Y-102930080D01*
X164070827Y-102885381D01*
X164015962Y-102830516D01*
X163914620Y-102729174D01*
X163914616Y-102729171D01*
X163914615Y-102729170D01*
X163733666Y-102602468D01*
X163733662Y-102602466D01*
X163686457Y-102580454D01*
X163533450Y-102509106D01*
X163533447Y-102509105D01*
X163533445Y-102509104D01*
X163320070Y-102451930D01*
X163320062Y-102451929D01*
X163100002Y-102432677D01*
X163099998Y-102432677D01*
X162879937Y-102451929D01*
X162879929Y-102451930D01*
X162666554Y-102509104D01*
X162666548Y-102509107D01*
X162466340Y-102602465D01*
X162466338Y-102602466D01*
X162285377Y-102729175D01*
X162129175Y-102885377D01*
X162002466Y-103066338D01*
X162002465Y-103066340D01*
X161942382Y-103195189D01*
X161896209Y-103247628D01*
X161829016Y-103266780D01*
X161762135Y-103246564D01*
X161717618Y-103195189D01*
X161694386Y-103145368D01*
X161657534Y-103066339D01*
X161562125Y-102930080D01*
X161530827Y-102885381D01*
X161475962Y-102830516D01*
X161374620Y-102729174D01*
X161374616Y-102729171D01*
X161374615Y-102729170D01*
X161213377Y-102616270D01*
X161169752Y-102561693D01*
X161160500Y-102514695D01*
X161160500Y-92879913D01*
X161180185Y-92812874D01*
X161232989Y-92767119D01*
X161243534Y-92762875D01*
X161349522Y-92725789D01*
X161502262Y-92629816D01*
X161629816Y-92502262D01*
X161725789Y-92349522D01*
X161785368Y-92179255D01*
X161787576Y-92159658D01*
X161805565Y-92000003D01*
X161805565Y-91999996D01*
X161785369Y-91820750D01*
X161785368Y-91820745D01*
X161758694Y-91744515D01*
X161725789Y-91650478D01*
X161701806Y-91612310D01*
X161665441Y-91554435D01*
X161629816Y-91497738D01*
X161502262Y-91370184D01*
X161448877Y-91336640D01*
X161349523Y-91274211D01*
X161179254Y-91214631D01*
X161179249Y-91214630D01*
X161000004Y-91194435D01*
X160999996Y-91194435D01*
X160820750Y-91214630D01*
X160820745Y-91214631D01*
X160650476Y-91274211D01*
X160497737Y-91370184D01*
X160370184Y-91497737D01*
X160274210Y-91650478D01*
X160214630Y-91820750D01*
X160204837Y-91907668D01*
X160177770Y-91972082D01*
X160169299Y-91981465D01*
X160079478Y-92071285D01*
X160063146Y-92099575D01*
X160039518Y-92140501D01*
X160000423Y-92208215D01*
X159959499Y-92360943D01*
X159959499Y-92360945D01*
X159959499Y-92529046D01*
X159959500Y-92529059D01*
X159959500Y-102514695D01*
X159939815Y-102581734D01*
X159906623Y-102616270D01*
X159745378Y-102729174D01*
X159589175Y-102885377D01*
X159462466Y-103066338D01*
X159462465Y-103066340D01*
X159402382Y-103195189D01*
X159356209Y-103247628D01*
X159289016Y-103266780D01*
X159222135Y-103246564D01*
X159177618Y-103195189D01*
X159154386Y-103145368D01*
X159117534Y-103066339D01*
X159022125Y-102930080D01*
X158990827Y-102885381D01*
X158935962Y-102830516D01*
X158834620Y-102729174D01*
X158834616Y-102729171D01*
X158834615Y-102729170D01*
X158653666Y-102602468D01*
X158653662Y-102602466D01*
X158606457Y-102580454D01*
X158453450Y-102509106D01*
X158453447Y-102509105D01*
X158453445Y-102509104D01*
X158240070Y-102451930D01*
X158240062Y-102451929D01*
X158020002Y-102432677D01*
X158019998Y-102432677D01*
X157799937Y-102451929D01*
X157799929Y-102451930D01*
X157586554Y-102509104D01*
X157586548Y-102509107D01*
X157386340Y-102602465D01*
X157386338Y-102602466D01*
X157205377Y-102729175D01*
X157049175Y-102885377D01*
X156922466Y-103066338D01*
X156922465Y-103066340D01*
X156862382Y-103195189D01*
X156816209Y-103247628D01*
X156749016Y-103266780D01*
X156682135Y-103246564D01*
X156637618Y-103195189D01*
X156614386Y-103145368D01*
X156577534Y-103066339D01*
X156482125Y-102930080D01*
X156450827Y-102885381D01*
X156395962Y-102830516D01*
X156294620Y-102729174D01*
X156294616Y-102729171D01*
X156294615Y-102729170D01*
X156113666Y-102602468D01*
X156113662Y-102602466D01*
X156066457Y-102580454D01*
X155913450Y-102509106D01*
X155913447Y-102509105D01*
X155913445Y-102509104D01*
X155700070Y-102451930D01*
X155700062Y-102451929D01*
X155480002Y-102432677D01*
X155479998Y-102432677D01*
X155259937Y-102451929D01*
X155259929Y-102451930D01*
X155046554Y-102509104D01*
X155046548Y-102509107D01*
X154846340Y-102602465D01*
X154846338Y-102602466D01*
X154665377Y-102729175D01*
X154509175Y-102885377D01*
X154428074Y-103001203D01*
X154373497Y-103044828D01*
X154303999Y-103052022D01*
X154241644Y-103020499D01*
X154206230Y-102960270D01*
X154202499Y-102930080D01*
X154202499Y-102890129D01*
X154202498Y-102890123D01*
X154202497Y-102890116D01*
X154196091Y-102830517D01*
X154158290Y-102729168D01*
X154145797Y-102695671D01*
X154145793Y-102695664D01*
X154059547Y-102580455D01*
X154059544Y-102580452D01*
X153944335Y-102494206D01*
X153944328Y-102494202D01*
X153809482Y-102443908D01*
X153809483Y-102443908D01*
X153749883Y-102437501D01*
X153749881Y-102437500D01*
X153749873Y-102437500D01*
X153749864Y-102437500D01*
X152130129Y-102437500D01*
X152130123Y-102437501D01*
X152070516Y-102443908D01*
X151935671Y-102494202D01*
X151935664Y-102494206D01*
X151820455Y-102580452D01*
X151820452Y-102580455D01*
X151734206Y-102695664D01*
X151734202Y-102695671D01*
X151683908Y-102830517D01*
X151678010Y-102885380D01*
X151677501Y-102890123D01*
X151677500Y-102890135D01*
X151677500Y-104509870D01*
X151677501Y-104509876D01*
X151683908Y-104569483D01*
X151734202Y-104704328D01*
X151734206Y-104704335D01*
X151820452Y-104819544D01*
X151820455Y-104819547D01*
X151935664Y-104905793D01*
X151935671Y-104905797D01*
X152070517Y-104956091D01*
X152070516Y-104956091D01*
X152077444Y-104956835D01*
X152130127Y-104962500D01*
X153749872Y-104962499D01*
X153809483Y-104956091D01*
X153944331Y-104905796D01*
X154059546Y-104819546D01*
X154145796Y-104704331D01*
X154196091Y-104569483D01*
X154202500Y-104509873D01*
X154202499Y-104469920D01*
X154222182Y-104402884D01*
X154274985Y-104357128D01*
X154344143Y-104347183D01*
X154407700Y-104376206D01*
X154428073Y-104398796D01*
X154509174Y-104514620D01*
X154509175Y-104514621D01*
X154665378Y-104670824D01*
X154665384Y-104670829D01*
X154846333Y-104797531D01*
X154846335Y-104797532D01*
X154846338Y-104797534D01*
X155046550Y-104890894D01*
X155259932Y-104948070D01*
X155417123Y-104961822D01*
X155479998Y-104967323D01*
X155480000Y-104967323D01*
X155480002Y-104967323D01*
X155535151Y-104962498D01*
X155700068Y-104948070D01*
X155913450Y-104890894D01*
X156113662Y-104797534D01*
X156294620Y-104670826D01*
X156450826Y-104514620D01*
X156577534Y-104333662D01*
X156637618Y-104204811D01*
X156683790Y-104152371D01*
X156750983Y-104133219D01*
X156817865Y-104153435D01*
X156862382Y-104204811D01*
X156922464Y-104333658D01*
X156922468Y-104333666D01*
X157049170Y-104514615D01*
X157049175Y-104514621D01*
X157205378Y-104670824D01*
X157205384Y-104670829D01*
X157386333Y-104797531D01*
X157386335Y-104797532D01*
X157386338Y-104797534D01*
X157586550Y-104890894D01*
X157799932Y-104948070D01*
X157957123Y-104961822D01*
X158019998Y-104967323D01*
X158020000Y-104967323D01*
X158020002Y-104967323D01*
X158075151Y-104962498D01*
X158240068Y-104948070D01*
X158453450Y-104890894D01*
X158653662Y-104797534D01*
X158834620Y-104670826D01*
X158990826Y-104514620D01*
X159117534Y-104333662D01*
X159177618Y-104204811D01*
X159223790Y-104152371D01*
X159290983Y-104133219D01*
X159357865Y-104153435D01*
X159402382Y-104204811D01*
X159462464Y-104333658D01*
X159462468Y-104333666D01*
X159589170Y-104514615D01*
X159589175Y-104514621D01*
X159745378Y-104670824D01*
X159745384Y-104670829D01*
X159926333Y-104797531D01*
X159926335Y-104797532D01*
X159926338Y-104797534D01*
X160126550Y-104890894D01*
X160339932Y-104948070D01*
X160497123Y-104961822D01*
X160559998Y-104967323D01*
X160560000Y-104967323D01*
X160560002Y-104967323D01*
X160615151Y-104962498D01*
X160780068Y-104948070D01*
X160993450Y-104890894D01*
X161193662Y-104797534D01*
X161374620Y-104670826D01*
X161530826Y-104514620D01*
X161657534Y-104333662D01*
X161717618Y-104204811D01*
X161763790Y-104152371D01*
X161830983Y-104133219D01*
X161897865Y-104153435D01*
X161942382Y-104204811D01*
X162002464Y-104333658D01*
X162002468Y-104333666D01*
X162129170Y-104514615D01*
X162129175Y-104514621D01*
X162285378Y-104670824D01*
X162285384Y-104670829D01*
X162466333Y-104797531D01*
X162466335Y-104797532D01*
X162466338Y-104797534D01*
X162666550Y-104890894D01*
X162879932Y-104948070D01*
X163037123Y-104961822D01*
X163099998Y-104967323D01*
X163100000Y-104967323D01*
X163100002Y-104967323D01*
X163155151Y-104962498D01*
X163320068Y-104948070D01*
X163533450Y-104890894D01*
X163733662Y-104797534D01*
X163914620Y-104670826D01*
X164070826Y-104514620D01*
X164197534Y-104333662D01*
X164257618Y-104204811D01*
X164303790Y-104152371D01*
X164370983Y-104133219D01*
X164437865Y-104153435D01*
X164482382Y-104204811D01*
X164542464Y-104333658D01*
X164542468Y-104333666D01*
X164669170Y-104514615D01*
X164669175Y-104514621D01*
X164825378Y-104670824D01*
X164825384Y-104670829D01*
X165006333Y-104797531D01*
X165006335Y-104797532D01*
X165006338Y-104797534D01*
X165206550Y-104890894D01*
X165419932Y-104948070D01*
X165577123Y-104961822D01*
X165639998Y-104967323D01*
X165640000Y-104967323D01*
X165640002Y-104967323D01*
X165695151Y-104962498D01*
X165860068Y-104948070D01*
X166073450Y-104890894D01*
X166273662Y-104797534D01*
X166454620Y-104670826D01*
X166610826Y-104514620D01*
X166737534Y-104333662D01*
X166797618Y-104204811D01*
X166843790Y-104152371D01*
X166910983Y-104133219D01*
X166977865Y-104153435D01*
X167022382Y-104204811D01*
X167082464Y-104333658D01*
X167082468Y-104333666D01*
X167209170Y-104514615D01*
X167209175Y-104514621D01*
X167365378Y-104670824D01*
X167365384Y-104670829D01*
X167546333Y-104797531D01*
X167546335Y-104797532D01*
X167546338Y-104797534D01*
X167746550Y-104890894D01*
X167959932Y-104948070D01*
X168117123Y-104961822D01*
X168179998Y-104967323D01*
X168180000Y-104967323D01*
X168180002Y-104967323D01*
X168235151Y-104962498D01*
X168400068Y-104948070D01*
X168613450Y-104890894D01*
X168813662Y-104797534D01*
X168994620Y-104670826D01*
X169150826Y-104514620D01*
X169277534Y-104333662D01*
X169337618Y-104204811D01*
X169383790Y-104152371D01*
X169450983Y-104133219D01*
X169517865Y-104153435D01*
X169562382Y-104204811D01*
X169622464Y-104333658D01*
X169622468Y-104333666D01*
X169749170Y-104514615D01*
X169749175Y-104514621D01*
X169905378Y-104670824D01*
X169905384Y-104670829D01*
X170086333Y-104797531D01*
X170086335Y-104797532D01*
X170086338Y-104797534D01*
X170286550Y-104890894D01*
X170499932Y-104948070D01*
X170657123Y-104961822D01*
X170719998Y-104967323D01*
X170720000Y-104967323D01*
X170720002Y-104967323D01*
X170775151Y-104962498D01*
X170940068Y-104948070D01*
X171153450Y-104890894D01*
X171353662Y-104797534D01*
X171534620Y-104670826D01*
X171690826Y-104514620D01*
X171817534Y-104333662D01*
X171877618Y-104204811D01*
X171923790Y-104152371D01*
X171990983Y-104133219D01*
X172057865Y-104153435D01*
X172102382Y-104204811D01*
X172162464Y-104333658D01*
X172162468Y-104333666D01*
X172289170Y-104514615D01*
X172289175Y-104514621D01*
X172445378Y-104670824D01*
X172445384Y-104670829D01*
X172626333Y-104797531D01*
X172626335Y-104797532D01*
X172626338Y-104797534D01*
X172826550Y-104890894D01*
X173039932Y-104948070D01*
X173197123Y-104961822D01*
X173259998Y-104967323D01*
X173260000Y-104967323D01*
X173260002Y-104967323D01*
X173315151Y-104962498D01*
X173480068Y-104948070D01*
X173693450Y-104890894D01*
X173893662Y-104797534D01*
X174074620Y-104670826D01*
X174230826Y-104514620D01*
X174357534Y-104333662D01*
X174417618Y-104204811D01*
X174463790Y-104152371D01*
X174530983Y-104133219D01*
X174597865Y-104153435D01*
X174642382Y-104204811D01*
X174702464Y-104333658D01*
X174702468Y-104333666D01*
X174829170Y-104514615D01*
X174829175Y-104514621D01*
X174985378Y-104670824D01*
X174985384Y-104670829D01*
X175166333Y-104797531D01*
X175166335Y-104797532D01*
X175166338Y-104797534D01*
X175366550Y-104890894D01*
X175579932Y-104948070D01*
X175737123Y-104961822D01*
X175799998Y-104967323D01*
X175800000Y-104967323D01*
X175800002Y-104967323D01*
X175855151Y-104962498D01*
X176020068Y-104948070D01*
X176233450Y-104890894D01*
X176433662Y-104797534D01*
X176614620Y-104670826D01*
X176770826Y-104514620D01*
X176897534Y-104333662D01*
X176957618Y-104204811D01*
X177003790Y-104152371D01*
X177070983Y-104133219D01*
X177137865Y-104153435D01*
X177182382Y-104204811D01*
X177242464Y-104333658D01*
X177242468Y-104333666D01*
X177369170Y-104514615D01*
X177369175Y-104514621D01*
X177525378Y-104670824D01*
X177525384Y-104670829D01*
X177706333Y-104797531D01*
X177706335Y-104797532D01*
X177706338Y-104797534D01*
X177906550Y-104890894D01*
X178119932Y-104948070D01*
X178277123Y-104961822D01*
X178339998Y-104967323D01*
X178340000Y-104967323D01*
X178340002Y-104967323D01*
X178395151Y-104962498D01*
X178560068Y-104948070D01*
X178773450Y-104890894D01*
X178973662Y-104797534D01*
X179154620Y-104670826D01*
X179310826Y-104514620D01*
X179437534Y-104333662D01*
X179497618Y-104204811D01*
X179543790Y-104152371D01*
X179610983Y-104133219D01*
X179677865Y-104153435D01*
X179722382Y-104204811D01*
X179782464Y-104333658D01*
X179782468Y-104333666D01*
X179909170Y-104514615D01*
X179909175Y-104514621D01*
X180065378Y-104670824D01*
X180065384Y-104670829D01*
X180246333Y-104797531D01*
X180246335Y-104797532D01*
X180246338Y-104797534D01*
X180446550Y-104890894D01*
X180659932Y-104948070D01*
X180817123Y-104961822D01*
X180879998Y-104967323D01*
X180880000Y-104967323D01*
X180880002Y-104967323D01*
X180935151Y-104962498D01*
X181100068Y-104948070D01*
X181313450Y-104890894D01*
X181513662Y-104797534D01*
X181694620Y-104670826D01*
X181850826Y-104514620D01*
X181977534Y-104333662D01*
X182037618Y-104204811D01*
X182083790Y-104152371D01*
X182150983Y-104133219D01*
X182217865Y-104153435D01*
X182262382Y-104204811D01*
X182322464Y-104333658D01*
X182322468Y-104333666D01*
X182449170Y-104514615D01*
X182449175Y-104514621D01*
X182605378Y-104670824D01*
X182605384Y-104670829D01*
X182786333Y-104797531D01*
X182786335Y-104797532D01*
X182786338Y-104797534D01*
X182986550Y-104890894D01*
X183199932Y-104948070D01*
X183357123Y-104961822D01*
X183419998Y-104967323D01*
X183420000Y-104967323D01*
X183420002Y-104967323D01*
X183475151Y-104962498D01*
X183640068Y-104948070D01*
X183853450Y-104890894D01*
X184053662Y-104797534D01*
X184234620Y-104670826D01*
X184390826Y-104514620D01*
X184517534Y-104333662D01*
X184577894Y-104204218D01*
X184624066Y-104151779D01*
X184691259Y-104132627D01*
X184758141Y-104152843D01*
X184802658Y-104204219D01*
X184862898Y-104333405D01*
X184862901Y-104333411D01*
X184908258Y-104398187D01*
X184908259Y-104398188D01*
X185579000Y-103727447D01*
X185579000Y-103750160D01*
X185604964Y-103847061D01*
X185655124Y-103933940D01*
X185726060Y-104004876D01*
X185812939Y-104055036D01*
X185909840Y-104081000D01*
X185932553Y-104081000D01*
X185261810Y-104751740D01*
X185326590Y-104797099D01*
X185326592Y-104797100D01*
X185526715Y-104890419D01*
X185526729Y-104890424D01*
X185740013Y-104947573D01*
X185740023Y-104947575D01*
X185959999Y-104966821D01*
X185960001Y-104966821D01*
X186179976Y-104947575D01*
X186179986Y-104947573D01*
X186393270Y-104890424D01*
X186393284Y-104890419D01*
X186593407Y-104797100D01*
X186593417Y-104797094D01*
X186658188Y-104751741D01*
X185987448Y-104081000D01*
X186010160Y-104081000D01*
X186107061Y-104055036D01*
X186193940Y-104004876D01*
X186264876Y-103933940D01*
X186315036Y-103847061D01*
X186341000Y-103750160D01*
X186341000Y-103727447D01*
X187011741Y-104398188D01*
X187057094Y-104333417D01*
X187057095Y-104333416D01*
X187117340Y-104204219D01*
X187163512Y-104151780D01*
X187230706Y-104132627D01*
X187297587Y-104152842D01*
X187342105Y-104204218D01*
X187402466Y-104333662D01*
X187402468Y-104333666D01*
X187525848Y-104509870D01*
X187529174Y-104514620D01*
X187685380Y-104670826D01*
X187846623Y-104783729D01*
X187890248Y-104838306D01*
X187899500Y-104885304D01*
X187899500Y-117699901D01*
X187879815Y-117766940D01*
X187863182Y-117787582D01*
X187787584Y-117863181D01*
X187726261Y-117896666D01*
X187699902Y-117899500D01*
X139082412Y-117899500D01*
X139015373Y-117879815D01*
X139005097Y-117872445D01*
X139002263Y-117870185D01*
X139002262Y-117870184D01*
X138898825Y-117805190D01*
X138849523Y-117774211D01*
X138679254Y-117714631D01*
X138679249Y-117714630D01*
X138500004Y-117694435D01*
X138499996Y-117694435D01*
X138320750Y-117714630D01*
X138320745Y-117714631D01*
X138150476Y-117774211D01*
X137997737Y-117870184D01*
X137870184Y-117997737D01*
X137774211Y-118150476D01*
X137714631Y-118320745D01*
X137714630Y-118320750D01*
X137694435Y-118499996D01*
X137376407Y-118499996D01*
X137368720Y-118489727D01*
X137344302Y-118424263D01*
X137359153Y-118355990D01*
X137368714Y-118341113D01*
X137398196Y-118301731D01*
X137448491Y-118166883D01*
X137454900Y-118107273D01*
X137454899Y-117452728D01*
X137448491Y-117393117D01*
X137398196Y-117258269D01*
X137369029Y-117219307D01*
X137344613Y-117153848D01*
X137359464Y-117085575D01*
X137369021Y-117070702D01*
X137398196Y-117031731D01*
X137448491Y-116896883D01*
X137454900Y-116837273D01*
X137454899Y-116252370D01*
X137474583Y-116185332D01*
X137527387Y-116139577D01*
X137537945Y-116135329D01*
X137553703Y-116129815D01*
X137679522Y-116085789D01*
X137764176Y-116032596D01*
X137831413Y-116013596D01*
X137898248Y-116033963D01*
X137917830Y-116049908D01*
X137997738Y-116129816D01*
X138150478Y-116225789D01*
X138226445Y-116252371D01*
X138320745Y-116285368D01*
X138320750Y-116285369D01*
X138499996Y-116305565D01*
X138500000Y-116305565D01*
X138500004Y-116305565D01*
X138679249Y-116285369D01*
X138679252Y-116285368D01*
X138679255Y-116285368D01*
X138849522Y-116225789D01*
X139002262Y-116129816D01*
X139129816Y-116002262D01*
X139225789Y-115849522D01*
X139285368Y-115679255D01*
X139285369Y-115679249D01*
X139305565Y-115500003D01*
X139305565Y-115499996D01*
X139285369Y-115320750D01*
X139285368Y-115320745D01*
X139241170Y-115194435D01*
X139225789Y-115150478D01*
X139129816Y-114997738D01*
X139129814Y-114997736D01*
X139129813Y-114997734D01*
X139127550Y-114994896D01*
X139126659Y-114992715D01*
X139126111Y-114991842D01*
X139126264Y-114991745D01*
X139101144Y-114930209D01*
X139100500Y-114917587D01*
X139100500Y-112920945D01*
X139100500Y-112920943D01*
X139059577Y-112768216D01*
X139055021Y-112760324D01*
X138980524Y-112631290D01*
X138980518Y-112631282D01*
X138868717Y-112519481D01*
X138868709Y-112519475D01*
X138731790Y-112440426D01*
X138731786Y-112440424D01*
X138731784Y-112440423D01*
X138579057Y-112399500D01*
X138579056Y-112399500D01*
X135400097Y-112399500D01*
X135333058Y-112379815D01*
X135312416Y-112363181D01*
X134930700Y-111981465D01*
X134897215Y-111920142D01*
X134895163Y-111907686D01*
X134885368Y-111820745D01*
X134825789Y-111650478D01*
X134729816Y-111497738D01*
X134602262Y-111370184D01*
X134449524Y-111274212D01*
X134449521Y-111274210D01*
X134279249Y-111214630D01*
X134210616Y-111206897D01*
X134146202Y-111179830D01*
X134106647Y-111122235D01*
X134100500Y-111083677D01*
X134100500Y-110279097D01*
X134120185Y-110212058D01*
X134172989Y-110166303D01*
X134242147Y-110156359D01*
X134305703Y-110185384D01*
X134312181Y-110191416D01*
X134436381Y-110315616D01*
X134469866Y-110376939D01*
X134472700Y-110403296D01*
X134472700Y-110637269D01*
X134472701Y-110637276D01*
X134479108Y-110696883D01*
X134529402Y-110831728D01*
X134529406Y-110831735D01*
X134615652Y-110946944D01*
X134615655Y-110946947D01*
X134730864Y-111033193D01*
X134730871Y-111033197D01*
X134865717Y-111083491D01*
X134865716Y-111083491D01*
X134872644Y-111084235D01*
X134925327Y-111089900D01*
X137002272Y-111089899D01*
X137061883Y-111083491D01*
X137196731Y-111033196D01*
X137311946Y-110946946D01*
X137311947Y-110946944D01*
X137311949Y-110946943D01*
X137312074Y-110946819D01*
X137312228Y-110946734D01*
X137319046Y-110941631D01*
X137319779Y-110942611D01*
X137373397Y-110913334D01*
X137399755Y-110910500D01*
X139605500Y-110910500D01*
X139672539Y-110930185D01*
X139718294Y-110982989D01*
X139729500Y-111034500D01*
X139729500Y-112471815D01*
X139710494Y-112537787D01*
X139631091Y-112664154D01*
X139571511Y-112834423D01*
X139571510Y-112834428D01*
X139551315Y-113013674D01*
X139551315Y-113013681D01*
X139571510Y-113192927D01*
X139571511Y-113192932D01*
X139631091Y-113363201D01*
X139635479Y-113370184D01*
X139727064Y-113515940D01*
X139854618Y-113643494D01*
X139873342Y-113655259D01*
X139961443Y-113710617D01*
X140007358Y-113739467D01*
X140121066Y-113779255D01*
X140177625Y-113799046D01*
X140177630Y-113799047D01*
X140356876Y-113819243D01*
X140356880Y-113819243D01*
X140356884Y-113819243D01*
X140536129Y-113799047D01*
X140536132Y-113799046D01*
X140536135Y-113799046D01*
X140706402Y-113739467D01*
X140859142Y-113643494D01*
X140986696Y-113515940D01*
X141082669Y-113363200D01*
X141142248Y-113192933D01*
X141143621Y-113180750D01*
X141162445Y-113013681D01*
X141162445Y-113013674D01*
X141142249Y-112834428D01*
X141142248Y-112834423D01*
X141125083Y-112785368D01*
X141082669Y-112664156D01*
X141070864Y-112645369D01*
X141026416Y-112574630D01*
X140986696Y-112511416D01*
X140966819Y-112491539D01*
X140933334Y-112430216D01*
X140930500Y-112403858D01*
X140930500Y-110449060D01*
X140930501Y-110449047D01*
X140930501Y-110280944D01*
X140912043Y-110212058D01*
X140889577Y-110128216D01*
X140815554Y-110000003D01*
X140810524Y-109991290D01*
X140810518Y-109991282D01*
X140648717Y-109829481D01*
X140648709Y-109829475D01*
X140533909Y-109763196D01*
X140533908Y-109763195D01*
X140518358Y-109754218D01*
X140511785Y-109750423D01*
X140359057Y-109709499D01*
X140200943Y-109709499D01*
X140193347Y-109709499D01*
X140193331Y-109709500D01*
X138411158Y-109709500D01*
X138344119Y-109689815D01*
X138298364Y-109637011D01*
X138288420Y-109567853D01*
X138317445Y-109504297D01*
X138327368Y-109494770D01*
X138327338Y-109494740D01*
X138332262Y-109489816D01*
X138459816Y-109362262D01*
X138555789Y-109209522D01*
X138615368Y-109039255D01*
X138635565Y-108860000D01*
X138619186Y-108714632D01*
X138615369Y-108680750D01*
X138615368Y-108680745D01*
X138605744Y-108653241D01*
X138555789Y-108510478D01*
X138545749Y-108494500D01*
X138480204Y-108390185D01*
X138459816Y-108357738D01*
X138332262Y-108230184D01*
X138179523Y-108134211D01*
X138009254Y-108074631D01*
X138009249Y-108074630D01*
X137830004Y-108054435D01*
X137829996Y-108054435D01*
X137650750Y-108074630D01*
X137650742Y-108074632D01*
X137619853Y-108085441D01*
X137550074Y-108089002D01*
X137489447Y-108054273D01*
X137457220Y-107992279D01*
X137454899Y-107968407D01*
X137454899Y-107442728D01*
X137448491Y-107383117D01*
X137398196Y-107248269D01*
X137368718Y-107208892D01*
X137344302Y-107143429D01*
X137359153Y-107075156D01*
X137368721Y-107060269D01*
X137397751Y-107021491D01*
X137447997Y-106886776D01*
X137447998Y-106886772D01*
X137454399Y-106827244D01*
X137454400Y-106827227D01*
X137454400Y-106750000D01*
X134473200Y-106750000D01*
X134473200Y-106827244D01*
X134479601Y-106886772D01*
X134479603Y-106886779D01*
X134522640Y-107002167D01*
X134527624Y-107071858D01*
X134494139Y-107133182D01*
X134432816Y-107166666D01*
X134406458Y-107169500D01*
X134224500Y-107169500D01*
X134157461Y-107149815D01*
X134111706Y-107097011D01*
X134100500Y-107045500D01*
X134100500Y-105954500D01*
X134120185Y-105887461D01*
X134172989Y-105841706D01*
X134224500Y-105830500D01*
X134406458Y-105830500D01*
X134473497Y-105850185D01*
X134519252Y-105902989D01*
X134529196Y-105972147D01*
X134522640Y-105997833D01*
X134479603Y-106113220D01*
X134479601Y-106113227D01*
X134473200Y-106172755D01*
X134473200Y-106250000D01*
X137454400Y-106250000D01*
X137454400Y-106172772D01*
X137454399Y-106172755D01*
X137447998Y-106113227D01*
X137447996Y-106113220D01*
X137397754Y-105978513D01*
X137397750Y-105978506D01*
X137368720Y-105939727D01*
X137344302Y-105874263D01*
X137359153Y-105805990D01*
X137368714Y-105791113D01*
X137398196Y-105751731D01*
X137448491Y-105616883D01*
X137454900Y-105557273D01*
X137454899Y-104902728D01*
X137448491Y-104843117D01*
X137431489Y-104797533D01*
X137405493Y-104727833D01*
X137400509Y-104658141D01*
X137433994Y-104596818D01*
X137495317Y-104563334D01*
X137521675Y-104560500D01*
X138643331Y-104560500D01*
X138643347Y-104560501D01*
X138650943Y-104560501D01*
X138809054Y-104560501D01*
X138809057Y-104560501D01*
X138961785Y-104519577D01*
X139011899Y-104490641D01*
X139011904Y-104490640D01*
X139035336Y-104477112D01*
X139097334Y-104460500D01*
X139409055Y-104460500D01*
X139409057Y-104460500D01*
X139561784Y-104419577D01*
X139698716Y-104340520D01*
X139810520Y-104228716D01*
X139889577Y-104091784D01*
X139930500Y-103939057D01*
X139930500Y-98780943D01*
X139889577Y-98628216D01*
X139821602Y-98510478D01*
X139810524Y-98491290D01*
X139810518Y-98491282D01*
X139698717Y-98379481D01*
X139698709Y-98379475D01*
X139561790Y-98300426D01*
X139561786Y-98300424D01*
X139561784Y-98300423D01*
X139409057Y-98259500D01*
X139409056Y-98259500D01*
X134912412Y-98259500D01*
X134845373Y-98239815D01*
X134835097Y-98232445D01*
X134832263Y-98230185D01*
X134832262Y-98230184D01*
X134775496Y-98194515D01*
X134679523Y-98134211D01*
X134509254Y-98074631D01*
X134509249Y-98074630D01*
X134330004Y-98054435D01*
X134329996Y-98054435D01*
X134150750Y-98074630D01*
X134150745Y-98074631D01*
X133980476Y-98134211D01*
X133827737Y-98230184D01*
X133700184Y-98357737D01*
X133604211Y-98510476D01*
X133544631Y-98680745D01*
X133544630Y-98680750D01*
X133524435Y-98859996D01*
X133524435Y-98860003D01*
X133544630Y-99039249D01*
X133544631Y-99039254D01*
X133604211Y-99209523D01*
X133700184Y-99362262D01*
X133827738Y-99489816D01*
X133918080Y-99546582D01*
X133978426Y-99584500D01*
X133980478Y-99585789D01*
X134150745Y-99645368D01*
X134150750Y-99645369D01*
X134329996Y-99665565D01*
X134330000Y-99665565D01*
X134330004Y-99665565D01*
X134509249Y-99645369D01*
X134509252Y-99645368D01*
X134509255Y-99645368D01*
X134679522Y-99585789D01*
X134832262Y-99489816D01*
X134832267Y-99489810D01*
X134835097Y-99487555D01*
X134837275Y-99486665D01*
X134838158Y-99486111D01*
X134838255Y-99486265D01*
X134899783Y-99461145D01*
X134912412Y-99460500D01*
X138605500Y-99460500D01*
X138672539Y-99480185D01*
X138718294Y-99532989D01*
X138729500Y-99584500D01*
X138729500Y-101476936D01*
X138709815Y-101543975D01*
X138657011Y-101589730D01*
X138587853Y-101599674D01*
X138564547Y-101593978D01*
X138509260Y-101574633D01*
X138509249Y-101574630D01*
X138330004Y-101554435D01*
X138329996Y-101554435D01*
X138150750Y-101574630D01*
X138150745Y-101574631D01*
X137980476Y-101634211D01*
X137827737Y-101730184D01*
X137700184Y-101857737D01*
X137604207Y-102010483D01*
X137601188Y-102016753D01*
X137598989Y-102015694D01*
X137564907Y-102063223D01*
X137499956Y-102088977D01*
X137488577Y-102089500D01*
X137399755Y-102089500D01*
X137332716Y-102069815D01*
X137312074Y-102053181D01*
X137311949Y-102053056D01*
X137263454Y-102016753D01*
X137196731Y-101966804D01*
X137196729Y-101966803D01*
X137196728Y-101966802D01*
X137061882Y-101916508D01*
X137061883Y-101916508D01*
X137002283Y-101910101D01*
X137002281Y-101910100D01*
X137002273Y-101910100D01*
X137002264Y-101910100D01*
X134925329Y-101910100D01*
X134925323Y-101910101D01*
X134865716Y-101916508D01*
X134730871Y-101966802D01*
X134730864Y-101966806D01*
X134615655Y-102053052D01*
X134615652Y-102053055D01*
X134529406Y-102168264D01*
X134529402Y-102168271D01*
X134479110Y-102303113D01*
X134479109Y-102303117D01*
X134472700Y-102362727D01*
X134472700Y-102362734D01*
X134472700Y-102362735D01*
X134472700Y-103017270D01*
X134472701Y-103017276D01*
X134479108Y-103076883D01*
X134529402Y-103211728D01*
X134529403Y-103211730D01*
X134558568Y-103250690D01*
X134582984Y-103316155D01*
X134568132Y-103384428D01*
X134558568Y-103399310D01*
X134529403Y-103438269D01*
X134529402Y-103438271D01*
X134479110Y-103573113D01*
X134479109Y-103573117D01*
X134472700Y-103632727D01*
X134472700Y-103632734D01*
X134472700Y-103632735D01*
X134472700Y-104287270D01*
X134472701Y-104287276D01*
X134479108Y-104346883D01*
X134522107Y-104462167D01*
X134527091Y-104531859D01*
X134493606Y-104593182D01*
X134432283Y-104626666D01*
X134405925Y-104629500D01*
X132594075Y-104629500D01*
X132527036Y-104609815D01*
X132481281Y-104557011D01*
X132471337Y-104487853D01*
X132477893Y-104462167D01*
X132501755Y-104398188D01*
X132520891Y-104346883D01*
X132527300Y-104287273D01*
X132527299Y-103632728D01*
X132520891Y-103573117D01*
X132492776Y-103497738D01*
X132470597Y-103438272D01*
X132470596Y-103438269D01*
X132441429Y-103399307D01*
X132417013Y-103333848D01*
X132431864Y-103265575D01*
X132441421Y-103250702D01*
X132470596Y-103211731D01*
X132520891Y-103076883D01*
X132527300Y-103017273D01*
X132527299Y-102362728D01*
X132520891Y-102303117D01*
X132470596Y-102168269D01*
X132470595Y-102168268D01*
X132470593Y-102168264D01*
X132384347Y-102053055D01*
X132384344Y-102053052D01*
X132269135Y-101966806D01*
X132269128Y-101966802D01*
X132134282Y-101916508D01*
X132134283Y-101916508D01*
X132074683Y-101910101D01*
X132074681Y-101910100D01*
X132074673Y-101910100D01*
X132074665Y-101910100D01*
X131760700Y-101910100D01*
X131693661Y-101890415D01*
X131647906Y-101837611D01*
X131636700Y-101786100D01*
X131636700Y-101155259D01*
X131636701Y-101155246D01*
X131636701Y-100987144D01*
X131636701Y-100987143D01*
X131631888Y-100969181D01*
X131628443Y-100923203D01*
X131635565Y-100860000D01*
X131635565Y-100859997D01*
X131615369Y-100680750D01*
X131615368Y-100680745D01*
X131555788Y-100510476D01*
X131459815Y-100357737D01*
X131332262Y-100230184D01*
X131179523Y-100134211D01*
X131009254Y-100074631D01*
X131009249Y-100074630D01*
X130830004Y-100054435D01*
X130829996Y-100054435D01*
X130650750Y-100074630D01*
X130650745Y-100074631D01*
X130480476Y-100134211D01*
X130327737Y-100230184D01*
X130200184Y-100357737D01*
X130104211Y-100510476D01*
X130044631Y-100680745D01*
X130044630Y-100680750D01*
X130024435Y-100859996D01*
X130024435Y-100860003D01*
X130044630Y-101039249D01*
X130044631Y-101039254D01*
X130104211Y-101209523D01*
X130200184Y-101362262D01*
X130327738Y-101489816D01*
X130377673Y-101521192D01*
X130423963Y-101573525D01*
X130435700Y-101626185D01*
X130435700Y-101786100D01*
X130416015Y-101853139D01*
X130363211Y-101898894D01*
X130311700Y-101910100D01*
X129997730Y-101910100D01*
X129997723Y-101910101D01*
X129938116Y-101916508D01*
X129803271Y-101966802D01*
X129803269Y-101966804D01*
X129688050Y-102053056D01*
X129687926Y-102053181D01*
X129687771Y-102053265D01*
X129680954Y-102058369D01*
X129680220Y-102057388D01*
X129626603Y-102086666D01*
X129600245Y-102089500D01*
X126256006Y-102089500D01*
X126188967Y-102069815D01*
X126151013Y-102031473D01*
X126129816Y-101997738D01*
X126002262Y-101870184D01*
X125975135Y-101853139D01*
X125849523Y-101774211D01*
X125679254Y-101714631D01*
X125679249Y-101714630D01*
X125500004Y-101694435D01*
X125499996Y-101694435D01*
X125320750Y-101714630D01*
X125320739Y-101714633D01*
X125265453Y-101733978D01*
X125195674Y-101737539D01*
X125135047Y-101702809D01*
X125102821Y-101640816D01*
X125100500Y-101616936D01*
X125100500Y-94724500D01*
X125120185Y-94657461D01*
X125172989Y-94611706D01*
X125224500Y-94600500D01*
X132813008Y-94600500D01*
X132880047Y-94620185D01*
X132925802Y-94672989D01*
X132935746Y-94742147D01*
X132924009Y-94779771D01*
X132922595Y-94782609D01*
X132864244Y-94987689D01*
X132844571Y-95199999D01*
X132844571Y-95200000D01*
X132864244Y-95412310D01*
X132922596Y-95617392D01*
X132922596Y-95617394D01*
X133017632Y-95808253D01*
X133146127Y-95978406D01*
X133146128Y-95978407D01*
X133303698Y-96122052D01*
X133484981Y-96234298D01*
X133683802Y-96311321D01*
X133893390Y-96350500D01*
X133893392Y-96350500D01*
X134106608Y-96350500D01*
X134106610Y-96350500D01*
X134316198Y-96311321D01*
X134515019Y-96234298D01*
X134696302Y-96122052D01*
X134853872Y-95978407D01*
X134951013Y-95849773D01*
X135007122Y-95808137D01*
X135049967Y-95800500D01*
X138079055Y-95800500D01*
X138079057Y-95800500D01*
X138231784Y-95759577D01*
X138368716Y-95680520D01*
X138480520Y-95568716D01*
X138559577Y-95431784D01*
X138600500Y-95279057D01*
X138600500Y-79920943D01*
X138559577Y-79768216D01*
X138559573Y-79768209D01*
X138480524Y-79631290D01*
X138480518Y-79631282D01*
X138368717Y-79519481D01*
X138368709Y-79519475D01*
X138231790Y-79440426D01*
X138231786Y-79440424D01*
X138231784Y-79440423D01*
X138079057Y-79399500D01*
X96079057Y-79399500D01*
X95920943Y-79399500D01*
X95768216Y-79440423D01*
X95768209Y-79440426D01*
X95631290Y-79519475D01*
X95631282Y-79519481D01*
X95519481Y-79631282D01*
X95519475Y-79631290D01*
X95440426Y-79768209D01*
X95440423Y-79768216D01*
X95399500Y-79920943D01*
X95399500Y-83417587D01*
X95379815Y-83484626D01*
X95372450Y-83494896D01*
X95370186Y-83497734D01*
X95274211Y-83650476D01*
X95214631Y-83820745D01*
X95214630Y-83820750D01*
X95194435Y-83999996D01*
X95194435Y-84000003D01*
X95214630Y-84179249D01*
X95214631Y-84179254D01*
X95274211Y-84349523D01*
X95279373Y-84357738D01*
X95370184Y-84502262D01*
X95497738Y-84629816D01*
X95650478Y-84725789D01*
X95820745Y-84785368D01*
X95820750Y-84785369D01*
X95999996Y-84805565D01*
X96000000Y-84805565D01*
X96000004Y-84805565D01*
X96179249Y-84785369D01*
X96179252Y-84785368D01*
X96179255Y-84785368D01*
X96349522Y-84725789D01*
X96502262Y-84629816D01*
X96629816Y-84502262D01*
X96725789Y-84349522D01*
X96785368Y-84179255D01*
X96785369Y-84179249D01*
X96805565Y-84000003D01*
X96805565Y-83999996D01*
X96785369Y-83820750D01*
X96785368Y-83820745D01*
X96733656Y-83672960D01*
X96725789Y-83650478D01*
X96629816Y-83497738D01*
X96629814Y-83497736D01*
X96629813Y-83497734D01*
X96627550Y-83494896D01*
X96626659Y-83492715D01*
X96626111Y-83491842D01*
X96626264Y-83491745D01*
X96601144Y-83430209D01*
X96600500Y-83417587D01*
X96600500Y-80724500D01*
X96620185Y-80657461D01*
X96672989Y-80611706D01*
X96724500Y-80600500D01*
X137275500Y-80600500D01*
X137342539Y-80620185D01*
X137388294Y-80672989D01*
X137399500Y-80724500D01*
X137399500Y-88083677D01*
X137379815Y-88150716D01*
X137327011Y-88196471D01*
X137289384Y-88206897D01*
X137220750Y-88214630D01*
X137050478Y-88274210D01*
X136897736Y-88370185D01*
X136894903Y-88372445D01*
X136892724Y-88373334D01*
X136891842Y-88373889D01*
X136891744Y-88373734D01*
X136830217Y-88398855D01*
X136817588Y-88399500D01*
X135071240Y-88399500D01*
X135004201Y-88379815D01*
X134958446Y-88327011D01*
X134948502Y-88257853D01*
X134972288Y-88200771D01*
X134981939Y-88187991D01*
X135076933Y-87997216D01*
X135076941Y-87997196D01*
X135135261Y-87792219D01*
X135135262Y-87792216D01*
X135154927Y-87580000D01*
X135154927Y-87579999D01*
X135135262Y-87367783D01*
X135135261Y-87367780D01*
X135076941Y-87162803D01*
X135076933Y-87162783D01*
X134981942Y-86972014D01*
X134981937Y-86972006D01*
X134973163Y-86960389D01*
X134370000Y-87563552D01*
X134370000Y-87531289D01*
X134344785Y-87437185D01*
X134296074Y-87352814D01*
X134227186Y-87283926D01*
X134142815Y-87235215D01*
X134048711Y-87210000D01*
X134016448Y-87210000D01*
X134617007Y-86609439D01*
X134514793Y-86546151D01*
X134514789Y-86546149D01*
X134316063Y-86469163D01*
X134316058Y-86469162D01*
X134118027Y-86432143D01*
X134055746Y-86400475D01*
X134020473Y-86340162D01*
X134023407Y-86270354D01*
X134063616Y-86213214D01*
X134118024Y-86188366D01*
X134316198Y-86151321D01*
X134515019Y-86074298D01*
X134696302Y-85962052D01*
X134853872Y-85818407D01*
X134982366Y-85648255D01*
X135035477Y-85541593D01*
X135077403Y-85457394D01*
X135077403Y-85457393D01*
X135077405Y-85457389D01*
X135135756Y-85252310D01*
X135155429Y-85040000D01*
X135155359Y-85039249D01*
X135153605Y-85020326D01*
X135135756Y-84827690D01*
X135077405Y-84622611D01*
X135077403Y-84622606D01*
X135077403Y-84622605D01*
X134982367Y-84431746D01*
X134853872Y-84261593D01*
X134823312Y-84233734D01*
X134696302Y-84117948D01*
X134515019Y-84005702D01*
X134515017Y-84005701D01*
X134415608Y-83967190D01*
X134316198Y-83928679D01*
X134119385Y-83891888D01*
X134057106Y-83860221D01*
X134021833Y-83799908D01*
X134024767Y-83730100D01*
X134064976Y-83672960D01*
X134119384Y-83648111D01*
X134316198Y-83611321D01*
X134515019Y-83534298D01*
X134696302Y-83422052D01*
X134853872Y-83278407D01*
X134982366Y-83108255D01*
X135077405Y-82917389D01*
X135135756Y-82712310D01*
X135155429Y-82500000D01*
X135135756Y-82287690D01*
X135077405Y-82082611D01*
X135077403Y-82082606D01*
X135077403Y-82082605D01*
X134982367Y-81891746D01*
X134853872Y-81721593D01*
X134696302Y-81577948D01*
X134515019Y-81465702D01*
X134515017Y-81465701D01*
X134415608Y-81427190D01*
X134316198Y-81388679D01*
X134106610Y-81349500D01*
X133893390Y-81349500D01*
X133683802Y-81388679D01*
X133683799Y-81388679D01*
X133683799Y-81388680D01*
X133484982Y-81465701D01*
X133484980Y-81465702D01*
X133303699Y-81577947D01*
X133146127Y-81721593D01*
X133017632Y-81891746D01*
X132922596Y-82082605D01*
X132922596Y-82082607D01*
X132864244Y-82287689D01*
X132844571Y-82499999D01*
X132844571Y-82500000D01*
X132864244Y-82712310D01*
X132922596Y-82917392D01*
X132922596Y-82917394D01*
X133017632Y-83108253D01*
X133017634Y-83108255D01*
X133146128Y-83278407D01*
X133303698Y-83422052D01*
X133484981Y-83534298D01*
X133683802Y-83611321D01*
X133880613Y-83648111D01*
X133942893Y-83679779D01*
X133978166Y-83740092D01*
X133975232Y-83809900D01*
X133935023Y-83867040D01*
X133880613Y-83891888D01*
X133683802Y-83928679D01*
X133683799Y-83928679D01*
X133683799Y-83928680D01*
X133484982Y-84005701D01*
X133484980Y-84005702D01*
X133303699Y-84117947D01*
X133146127Y-84261593D01*
X133017632Y-84431746D01*
X132922596Y-84622605D01*
X132922596Y-84622607D01*
X132864244Y-84827689D01*
X132844571Y-85039999D01*
X132844571Y-85040000D01*
X132864244Y-85252310D01*
X132922596Y-85457392D01*
X132922596Y-85457394D01*
X133017632Y-85648253D01*
X133102340Y-85760423D01*
X133146128Y-85818407D01*
X133303698Y-85962052D01*
X133484981Y-86074298D01*
X133683802Y-86151321D01*
X133881973Y-86188365D01*
X133944253Y-86220033D01*
X133979526Y-86280346D01*
X133976592Y-86350154D01*
X133936383Y-86407294D01*
X133881972Y-86432143D01*
X133683941Y-86469162D01*
X133683936Y-86469163D01*
X133485210Y-86546149D01*
X133485201Y-86546154D01*
X133382992Y-86609438D01*
X133382991Y-86609439D01*
X133983553Y-87210000D01*
X133951289Y-87210000D01*
X133857185Y-87235215D01*
X133772814Y-87283926D01*
X133703926Y-87352814D01*
X133655215Y-87437185D01*
X133630000Y-87531289D01*
X133630000Y-87563552D01*
X133026836Y-86960388D01*
X133018059Y-86972010D01*
X132923066Y-87162783D01*
X132923058Y-87162803D01*
X132864738Y-87367780D01*
X132864737Y-87367783D01*
X132845073Y-87579999D01*
X132845073Y-87580000D01*
X132864737Y-87792216D01*
X132864738Y-87792219D01*
X132923058Y-87997196D01*
X132923064Y-87997211D01*
X133018061Y-88187991D01*
X133018064Y-88187996D01*
X133026836Y-88199610D01*
X133630000Y-87596446D01*
X133630000Y-87628711D01*
X133655215Y-87722815D01*
X133703926Y-87807186D01*
X133772814Y-87876074D01*
X133857185Y-87924785D01*
X133951289Y-87950000D01*
X133983553Y-87950000D01*
X133434210Y-88499341D01*
X133408540Y-88519041D01*
X133407787Y-88519475D01*
X133407778Y-88519482D01*
X133064081Y-88863181D01*
X133002758Y-88896666D01*
X132976400Y-88899500D01*
X128082412Y-88899500D01*
X128015373Y-88879815D01*
X128005097Y-88872445D01*
X128002263Y-88870185D01*
X128002262Y-88870184D01*
X127945496Y-88834515D01*
X127849523Y-88774211D01*
X127679254Y-88714631D01*
X127679249Y-88714630D01*
X127500004Y-88694435D01*
X127499996Y-88694435D01*
X127320750Y-88714630D01*
X127320745Y-88714631D01*
X127150476Y-88774211D01*
X126997737Y-88870184D01*
X126870184Y-88997737D01*
X126774211Y-89150476D01*
X126714631Y-89320745D01*
X126714630Y-89320749D01*
X126704644Y-89409384D01*
X126677577Y-89473798D01*
X126619982Y-89513353D01*
X126581424Y-89519500D01*
X121990940Y-89519500D01*
X121874175Y-89550786D01*
X121836963Y-89553578D01*
X121836963Y-89554435D01*
X121829996Y-89554435D01*
X121650750Y-89574630D01*
X121650745Y-89574631D01*
X121480476Y-89634211D01*
X121327737Y-89730184D01*
X121200184Y-89857737D01*
X121104211Y-90010476D01*
X121044631Y-90180745D01*
X121044630Y-90180750D01*
X121024435Y-90359996D01*
X121024435Y-90360003D01*
X121044630Y-90539249D01*
X121044631Y-90539254D01*
X121104211Y-90709523D01*
X121174097Y-90820745D01*
X121200184Y-90862262D01*
X121327738Y-90989816D01*
X121480478Y-91085789D01*
X121650745Y-91145368D01*
X121650750Y-91145369D01*
X121829996Y-91165565D01*
X121830000Y-91165565D01*
X121830004Y-91165565D01*
X122009249Y-91145369D01*
X122009252Y-91145368D01*
X122009255Y-91145368D01*
X122179522Y-91085789D01*
X122332262Y-90989816D01*
X122459816Y-90862262D01*
X122512430Y-90778526D01*
X122564764Y-90732237D01*
X122617423Y-90720500D01*
X132950033Y-90720500D01*
X133017072Y-90740185D01*
X133048987Y-90769773D01*
X133118763Y-90862171D01*
X133146128Y-90898407D01*
X133303698Y-91042052D01*
X133484981Y-91154298D01*
X133683802Y-91231321D01*
X133880613Y-91268111D01*
X133942893Y-91299779D01*
X133978166Y-91360092D01*
X133975232Y-91429900D01*
X133935023Y-91487040D01*
X133880613Y-91511888D01*
X133683802Y-91548679D01*
X133683799Y-91548679D01*
X133683799Y-91548680D01*
X133484982Y-91625701D01*
X133484980Y-91625702D01*
X133303699Y-91737947D01*
X133146127Y-91881593D01*
X133048987Y-92010227D01*
X132992878Y-92051863D01*
X132950033Y-92059500D01*
X113655124Y-92059500D01*
X113588085Y-92039815D01*
X113550130Y-92001472D01*
X113523745Y-91959480D01*
X113459816Y-91857738D01*
X113332262Y-91730184D01*
X113225908Y-91663357D01*
X113179523Y-91634211D01*
X113009254Y-91574631D01*
X113009249Y-91574630D01*
X112830004Y-91554435D01*
X112829996Y-91554435D01*
X112650750Y-91574630D01*
X112650745Y-91574631D01*
X112480476Y-91634211D01*
X112327737Y-91730184D01*
X112200184Y-91857737D01*
X112104211Y-92010476D01*
X112044631Y-92180745D01*
X112044630Y-92180750D01*
X112024435Y-92359996D01*
X112024435Y-92360003D01*
X112044630Y-92539249D01*
X112044631Y-92539254D01*
X112104211Y-92709523D01*
X112164559Y-92805565D01*
X112200184Y-92862262D01*
X112327738Y-92989816D01*
X112480478Y-93085789D01*
X112650745Y-93145368D01*
X112650749Y-93145369D01*
X112752685Y-93156853D01*
X112772809Y-93159121D01*
X112820924Y-93174953D01*
X112898215Y-93219577D01*
X113050943Y-93260500D01*
X123857120Y-93260500D01*
X123924159Y-93280185D01*
X123969914Y-93332989D01*
X123979858Y-93402147D01*
X123964507Y-93446499D01*
X123940423Y-93488215D01*
X123899499Y-93640943D01*
X123899499Y-93640945D01*
X123899499Y-93809046D01*
X123899500Y-93809059D01*
X123899500Y-109377644D01*
X123899499Y-109377662D01*
X123899499Y-109543368D01*
X123899498Y-109543368D01*
X123906059Y-109567853D01*
X123940423Y-109696099D01*
X123948171Y-109709519D01*
X123948172Y-109709522D01*
X123948173Y-109709522D01*
X124019477Y-109833026D01*
X124019481Y-109833031D01*
X124138349Y-109951899D01*
X124138355Y-109951904D01*
X124434267Y-110247816D01*
X124467752Y-110309139D01*
X124462768Y-110378831D01*
X124420896Y-110434764D01*
X124355432Y-110459181D01*
X124346586Y-110459497D01*
X117860094Y-110459497D01*
X117793055Y-110439812D01*
X117772413Y-110423178D01*
X117330700Y-109981465D01*
X117297215Y-109920142D01*
X117295163Y-109907686D01*
X117285368Y-109820745D01*
X117225789Y-109650478D01*
X117129816Y-109497738D01*
X117002262Y-109370184D01*
X116989654Y-109362262D01*
X116849523Y-109274211D01*
X116679254Y-109214631D01*
X116679249Y-109214630D01*
X116500004Y-109194435D01*
X116499996Y-109194435D01*
X116320750Y-109214630D01*
X116320745Y-109214631D01*
X116150476Y-109274211D01*
X115997737Y-109370184D01*
X115870184Y-109497737D01*
X115774211Y-109650476D01*
X115714631Y-109820745D01*
X115714630Y-109820750D01*
X115694435Y-109999996D01*
X115694435Y-110000003D01*
X115714630Y-110179249D01*
X115714631Y-110179254D01*
X115774211Y-110349523D01*
X115858580Y-110483794D01*
X115870184Y-110502262D01*
X115997738Y-110629816D01*
X116150478Y-110725789D01*
X116320745Y-110785368D01*
X116407669Y-110795161D01*
X116472080Y-110822226D01*
X116481465Y-110830700D01*
X116716662Y-111065897D01*
X116750147Y-111127220D01*
X116745163Y-111196912D01*
X116716663Y-111241259D01*
X116600183Y-111357739D01*
X116504211Y-111510476D01*
X116444631Y-111680745D01*
X116444630Y-111680750D01*
X116424435Y-111859996D01*
X116424435Y-111860003D01*
X116444630Y-112039249D01*
X116444631Y-112039254D01*
X116504211Y-112209523D01*
X116600184Y-112362262D01*
X116727738Y-112489816D01*
X116804083Y-112537787D01*
X116862721Y-112574632D01*
X116880478Y-112585789D01*
X117018860Y-112634211D01*
X117050745Y-112645368D01*
X117050750Y-112645369D01*
X117229996Y-112665565D01*
X117230000Y-112665565D01*
X117230004Y-112665565D01*
X117409249Y-112645369D01*
X117409252Y-112645368D01*
X117409255Y-112645368D01*
X117579522Y-112585789D01*
X117732262Y-112489816D01*
X117732267Y-112489810D01*
X117735097Y-112487555D01*
X117737275Y-112486665D01*
X117738158Y-112486111D01*
X117738255Y-112486265D01*
X117799783Y-112461145D01*
X117812412Y-112460500D01*
X119890902Y-112460500D01*
X119957941Y-112480185D01*
X120003696Y-112532989D01*
X120013640Y-112602147D01*
X119984615Y-112665703D01*
X119978583Y-112672181D01*
X118787584Y-113863181D01*
X118726261Y-113896666D01*
X118699903Y-113899500D01*
X117582412Y-113899500D01*
X117515373Y-113879815D01*
X117505097Y-113872445D01*
X117502263Y-113870185D01*
X117502262Y-113870184D01*
X117445496Y-113834515D01*
X117349523Y-113774211D01*
X117179254Y-113714631D01*
X117179249Y-113714630D01*
X117000004Y-113694435D01*
X116999996Y-113694435D01*
X116820750Y-113714630D01*
X116820745Y-113714631D01*
X116650476Y-113774211D01*
X116497737Y-113870184D01*
X116370184Y-113997737D01*
X116274211Y-114150476D01*
X116214631Y-114320745D01*
X116214630Y-114320750D01*
X116194435Y-114499996D01*
X116194435Y-114500003D01*
X116214630Y-114679249D01*
X116214631Y-114679254D01*
X116274211Y-114849523D01*
X116363576Y-114991745D01*
X116370184Y-115002262D01*
X116497738Y-115129816D01*
X116576410Y-115179249D01*
X116632721Y-115214632D01*
X116650478Y-115225789D01*
X116788860Y-115274211D01*
X116820745Y-115285368D01*
X116820750Y-115285369D01*
X116999996Y-115305565D01*
X117000000Y-115305565D01*
X117000004Y-115305565D01*
X117179249Y-115285369D01*
X117179252Y-115285368D01*
X117179255Y-115285368D01*
X117349522Y-115225789D01*
X117502262Y-115129816D01*
X117502267Y-115129810D01*
X117505097Y-115127555D01*
X117507275Y-115126665D01*
X117508158Y-115126111D01*
X117508255Y-115126265D01*
X117569783Y-115101145D01*
X117582412Y-115100500D01*
X118913331Y-115100500D01*
X118913347Y-115100501D01*
X118920943Y-115100501D01*
X119079054Y-115100501D01*
X119079057Y-115100501D01*
X119231785Y-115059577D01*
X119281904Y-115030639D01*
X119368716Y-114980520D01*
X119480520Y-114868716D01*
X119480520Y-114868714D01*
X119490728Y-114858507D01*
X119490729Y-114858504D01*
X120712416Y-113636819D01*
X120773739Y-113603334D01*
X120800097Y-113600500D01*
X125083678Y-113600500D01*
X125150717Y-113620185D01*
X125196472Y-113672989D01*
X125206898Y-113710617D01*
X125214630Y-113779249D01*
X125274210Y-113949521D01*
X125304507Y-113997738D01*
X125352127Y-114073525D01*
X125370185Y-114102263D01*
X125372445Y-114105097D01*
X125373334Y-114107275D01*
X125373889Y-114108158D01*
X125373734Y-114108255D01*
X125398855Y-114169783D01*
X125399500Y-114182412D01*
X125399500Y-119615257D01*
X125399500Y-119773371D01*
X125406172Y-119798269D01*
X125440423Y-119926097D01*
X125440426Y-119926104D01*
X125519475Y-120063023D01*
X125519479Y-120063028D01*
X125519480Y-120063030D01*
X125631284Y-120174834D01*
X125631286Y-120174835D01*
X125631290Y-120174838D01*
X125768209Y-120253887D01*
X125768216Y-120253891D01*
X125920943Y-120294814D01*
X127605499Y-120294814D01*
X127672538Y-120314499D01*
X127718293Y-120367303D01*
X127729499Y-120418814D01*
X127729499Y-120449046D01*
X127729500Y-120449059D01*
X127729500Y-122775500D01*
X127709815Y-122842539D01*
X127657011Y-122888294D01*
X127605500Y-122899500D01*
X110224500Y-122899500D01*
X110157461Y-122879815D01*
X110111706Y-122827011D01*
X110100500Y-122775500D01*
X110100500Y-121860119D01*
X110120185Y-121793080D01*
X110145833Y-121764267D01*
X110210883Y-121710883D01*
X110335910Y-121558538D01*
X110428814Y-121384727D01*
X110486024Y-121196132D01*
X110505341Y-121000000D01*
X110486024Y-120803868D01*
X110428814Y-120615273D01*
X110428811Y-120615269D01*
X110428811Y-120615266D01*
X110335913Y-120441467D01*
X110335909Y-120441460D01*
X110210883Y-120289116D01*
X110058539Y-120164090D01*
X110058532Y-120164086D01*
X109884733Y-120071188D01*
X109884727Y-120071186D01*
X109696132Y-120013976D01*
X109696129Y-120013975D01*
X109500000Y-119994659D01*
X109303870Y-120013975D01*
X109115266Y-120071188D01*
X108941467Y-120164086D01*
X108941460Y-120164090D01*
X108789116Y-120289116D01*
X108664090Y-120441460D01*
X108664086Y-120441467D01*
X108571188Y-120615266D01*
X108513975Y-120803870D01*
X108494659Y-121000000D01*
X108513975Y-121196129D01*
X108571188Y-121384733D01*
X108664086Y-121558532D01*
X108664090Y-121558539D01*
X108789115Y-121710882D01*
X108820194Y-121736387D01*
X108854165Y-121764266D01*
X108893499Y-121822010D01*
X108899500Y-121860119D01*
X108899500Y-122775500D01*
X108879815Y-122842539D01*
X108827011Y-122888294D01*
X108775500Y-122899500D01*
X104724500Y-122899500D01*
X104657461Y-122879815D01*
X104611706Y-122827011D01*
X104600500Y-122775500D01*
X104600500Y-115582412D01*
X104620185Y-115515373D01*
X104627555Y-115505097D01*
X104629810Y-115502267D01*
X104629816Y-115502262D01*
X104725789Y-115349522D01*
X104785368Y-115179255D01*
X104785369Y-115179249D01*
X104805565Y-115000003D01*
X104805565Y-114999996D01*
X104785369Y-114820750D01*
X104785368Y-114820745D01*
X104741153Y-114694385D01*
X104725789Y-114650478D01*
X104717110Y-114636666D01*
X104670548Y-114562563D01*
X104629816Y-114497738D01*
X104502262Y-114370184D01*
X104448018Y-114336100D01*
X104349523Y-114274211D01*
X104179254Y-114214631D01*
X104179249Y-114214630D01*
X104000004Y-114194435D01*
X103999996Y-114194435D01*
X103820750Y-114214630D01*
X103820745Y-114214631D01*
X103650476Y-114274211D01*
X103497737Y-114370184D01*
X103370184Y-114497737D01*
X103274211Y-114650476D01*
X103214631Y-114820745D01*
X103214630Y-114820750D01*
X103194435Y-114999996D01*
X103194435Y-115000003D01*
X103214630Y-115179249D01*
X103214631Y-115179254D01*
X103274211Y-115349523D01*
X103325883Y-115431757D01*
X103368760Y-115499996D01*
X103370185Y-115502263D01*
X103372445Y-115505097D01*
X103373334Y-115507275D01*
X103373889Y-115508158D01*
X103373734Y-115508255D01*
X103398855Y-115569783D01*
X103399500Y-115582412D01*
X103399500Y-123420943D01*
X103399500Y-123579057D01*
X103439995Y-123730184D01*
X103440423Y-123731783D01*
X103440426Y-123731790D01*
X103519475Y-123868709D01*
X103519478Y-123868713D01*
X103519480Y-123868716D01*
X103631284Y-123980520D01*
X103631286Y-123980521D01*
X103631290Y-123980524D01*
X103768209Y-124059573D01*
X103768216Y-124059577D01*
X103920943Y-124100500D01*
X109420943Y-124100500D01*
X109579057Y-124100500D01*
X128103331Y-124100500D01*
X128103347Y-124100501D01*
X128110943Y-124100501D01*
X128269054Y-124100501D01*
X128269057Y-124100501D01*
X128421785Y-124059577D01*
X128471904Y-124030639D01*
X128558716Y-123980520D01*
X128670520Y-123868716D01*
X128670520Y-123868714D01*
X128680728Y-123858507D01*
X128680730Y-123858504D01*
X128688506Y-123850728D01*
X128688511Y-123850724D01*
X128698714Y-123840520D01*
X128698716Y-123840520D01*
X128810520Y-123728716D01*
X128888169Y-123594223D01*
X128889577Y-123591785D01*
X128929064Y-123444419D01*
X128965427Y-123384762D01*
X129028274Y-123354233D01*
X129097649Y-123362528D01*
X129110834Y-123369127D01*
X129198216Y-123419577D01*
X129350943Y-123460501D01*
X129350945Y-123460501D01*
X129516654Y-123460501D01*
X129516670Y-123460500D01*
X129600245Y-123460500D01*
X129667284Y-123480185D01*
X129687926Y-123496819D01*
X129688050Y-123496943D01*
X129688053Y-123496945D01*
X129688054Y-123496946D01*
X129803269Y-123583196D01*
X129803270Y-123583196D01*
X129803271Y-123583197D01*
X129826297Y-123591785D01*
X129938117Y-123633491D01*
X129997727Y-123639900D01*
X130311700Y-123639899D01*
X130378739Y-123659583D01*
X130424494Y-123712387D01*
X130435700Y-123763899D01*
X130435700Y-123853702D01*
X130416015Y-123920741D01*
X130399381Y-123941383D01*
X130349481Y-123991282D01*
X130301295Y-124074743D01*
X130270424Y-124128212D01*
X130270423Y-124128213D01*
X130256347Y-124180745D01*
X130229499Y-124280943D01*
X130229499Y-124280945D01*
X130229499Y-124439054D01*
X130229498Y-124439054D01*
X130270423Y-124591787D01*
X130270424Y-124591788D01*
X130281482Y-124610940D01*
X130281484Y-124610943D01*
X130349477Y-124728712D01*
X130349481Y-124728717D01*
X130408583Y-124787819D01*
X130442068Y-124849142D01*
X130437084Y-124918834D01*
X130395212Y-124974767D01*
X130329748Y-124999184D01*
X130320902Y-124999500D01*
X98188882Y-124999500D01*
X98121843Y-124979815D01*
X98076088Y-124927011D01*
X98066144Y-124857853D01*
X98068205Y-124846985D01*
X98068887Y-124844091D01*
X98068891Y-124844083D01*
X98075300Y-124784473D01*
X98075299Y-123215528D01*
X98068891Y-123155917D01*
X98018596Y-123021069D01*
X98018595Y-123021068D01*
X98018593Y-123021064D01*
X97932347Y-122905855D01*
X97932344Y-122905852D01*
X97817135Y-122819606D01*
X97817128Y-122819602D01*
X97682282Y-122769308D01*
X97682283Y-122769308D01*
X97622683Y-122762901D01*
X97622681Y-122762900D01*
X97622673Y-122762900D01*
X97622664Y-122762900D01*
X94377329Y-122762900D01*
X94377323Y-122762901D01*
X94317716Y-122769308D01*
X94182871Y-122819602D01*
X94182864Y-122819606D01*
X94067655Y-122905852D01*
X94067652Y-122905855D01*
X93981406Y-123021064D01*
X93981402Y-123021071D01*
X93931108Y-123155917D01*
X93924701Y-123215516D01*
X93924701Y-123215523D01*
X93924700Y-123215535D01*
X93924700Y-124784470D01*
X93924701Y-124784476D01*
X93931108Y-124844077D01*
X93931794Y-124846979D01*
X93931669Y-124849299D01*
X93931938Y-124851796D01*
X93931533Y-124851839D01*
X93928056Y-124916749D01*
X93887192Y-124973422D01*
X93822174Y-124999006D01*
X93811118Y-124999500D01*
X92124500Y-124999500D01*
X92057461Y-124979815D01*
X92011706Y-124927011D01*
X92000500Y-124875500D01*
X92000500Y-97807001D01*
X92020185Y-97739962D01*
X92072989Y-97694207D01*
X92142147Y-97684263D01*
X92195622Y-97705425D01*
X92322170Y-97794035D01*
X92327898Y-97796706D01*
X92380339Y-97842872D01*
X92399500Y-97909090D01*
X92399500Y-117486734D01*
X92399499Y-117486752D01*
X92399499Y-117652458D01*
X92399498Y-117652458D01*
X92399499Y-117652461D01*
X92440423Y-117805189D01*
X92466006Y-117849500D01*
X92519477Y-117942116D01*
X92519481Y-117942121D01*
X92638349Y-118060989D01*
X92638355Y-118060994D01*
X92707281Y-118129920D01*
X92740766Y-118191243D01*
X92743600Y-118217601D01*
X92743600Y-118546473D01*
X92743601Y-118546480D01*
X92750008Y-118606087D01*
X92800302Y-118740932D01*
X92800306Y-118740939D01*
X92886552Y-118856148D01*
X92886555Y-118856151D01*
X93001764Y-118942397D01*
X93001771Y-118942401D01*
X93136617Y-118992695D01*
X93136616Y-118992695D01*
X93143544Y-118993439D01*
X93196227Y-118999104D01*
X94180972Y-118999103D01*
X94240583Y-118992695D01*
X94375431Y-118942400D01*
X94490646Y-118856150D01*
X94576896Y-118740935D01*
X94627191Y-118606087D01*
X94633600Y-118546477D01*
X94633599Y-116977539D01*
X95055000Y-116977539D01*
X95055000Y-118546474D01*
X95055001Y-118546480D01*
X95061408Y-118606087D01*
X95111702Y-118740932D01*
X95111706Y-118740939D01*
X95197952Y-118856148D01*
X95197955Y-118856151D01*
X95313164Y-118942397D01*
X95313171Y-118942401D01*
X95448017Y-118992695D01*
X95448016Y-118992695D01*
X95454944Y-118993439D01*
X95507627Y-118999104D01*
X96492372Y-118999103D01*
X96551983Y-118992695D01*
X96686831Y-118942400D01*
X96802046Y-118856150D01*
X96888296Y-118740935D01*
X96938591Y-118606087D01*
X96945000Y-118546477D01*
X96945000Y-118546448D01*
X97366900Y-118546448D01*
X97373301Y-118605976D01*
X97373303Y-118605983D01*
X97423545Y-118740690D01*
X97423549Y-118740697D01*
X97509709Y-118855791D01*
X97509712Y-118855794D01*
X97624806Y-118941954D01*
X97624813Y-118941958D01*
X97759520Y-118992200D01*
X97759527Y-118992202D01*
X97819055Y-118998603D01*
X97819072Y-118998604D01*
X98061400Y-118998604D01*
X98561400Y-118998604D01*
X98803728Y-118998604D01*
X98803744Y-118998603D01*
X98863272Y-118992202D01*
X98863279Y-118992200D01*
X98997986Y-118941958D01*
X98997993Y-118941954D01*
X99113087Y-118855794D01*
X99113090Y-118855791D01*
X99199250Y-118740697D01*
X99199254Y-118740690D01*
X99249496Y-118605983D01*
X99249498Y-118605976D01*
X99255899Y-118546448D01*
X99255900Y-118546431D01*
X99255900Y-118012004D01*
X98561400Y-118012004D01*
X98561400Y-118998604D01*
X98061400Y-118998604D01*
X98061400Y-118012004D01*
X97366900Y-118012004D01*
X97366900Y-118546448D01*
X96945000Y-118546448D01*
X96944999Y-116977559D01*
X97366900Y-116977559D01*
X97366900Y-117512004D01*
X98061400Y-117512004D01*
X98561400Y-117512004D01*
X99255900Y-117512004D01*
X99255900Y-116977576D01*
X99255899Y-116977559D01*
X99249498Y-116918031D01*
X99249496Y-116918024D01*
X99199254Y-116783317D01*
X99199250Y-116783310D01*
X99113090Y-116668216D01*
X99113087Y-116668213D01*
X98997993Y-116582053D01*
X98997986Y-116582049D01*
X98863279Y-116531807D01*
X98863272Y-116531805D01*
X98803744Y-116525404D01*
X98561400Y-116525404D01*
X98561400Y-117512004D01*
X98061400Y-117512004D01*
X98061400Y-116525404D01*
X97819055Y-116525404D01*
X97759527Y-116531805D01*
X97759520Y-116531807D01*
X97624813Y-116582049D01*
X97624806Y-116582053D01*
X97509712Y-116668213D01*
X97509709Y-116668216D01*
X97423549Y-116783310D01*
X97423545Y-116783317D01*
X97373303Y-116918024D01*
X97373301Y-116918031D01*
X97366900Y-116977559D01*
X96944999Y-116977559D01*
X96944999Y-116977532D01*
X96938591Y-116917921D01*
X96930745Y-116896886D01*
X96888297Y-116783075D01*
X96888293Y-116783068D01*
X96802047Y-116667859D01*
X96802044Y-116667856D01*
X96705627Y-116595678D01*
X96663756Y-116539745D01*
X96658772Y-116470053D01*
X96674945Y-116430439D01*
X96693504Y-116400904D01*
X96725789Y-116349522D01*
X96785368Y-116179255D01*
X96789839Y-116139577D01*
X96805565Y-116000003D01*
X96805565Y-115999996D01*
X96785369Y-115820750D01*
X96785368Y-115820745D01*
X96764717Y-115761727D01*
X96725789Y-115650478D01*
X96629816Y-115497738D01*
X96502262Y-115370184D01*
X96469379Y-115349522D01*
X96349523Y-115274211D01*
X96179254Y-115214631D01*
X96179249Y-115214630D01*
X96000004Y-115194435D01*
X95999996Y-115194435D01*
X95820750Y-115214630D01*
X95820745Y-115214631D01*
X95650476Y-115274211D01*
X95497737Y-115370184D01*
X95370184Y-115497737D01*
X95274211Y-115650476D01*
X95214631Y-115820745D01*
X95214630Y-115820750D01*
X95194435Y-115999996D01*
X95194435Y-116000003D01*
X95214630Y-116179249D01*
X95214631Y-116179254D01*
X95274211Y-116349523D01*
X95325055Y-116430440D01*
X95344055Y-116497677D01*
X95323687Y-116564512D01*
X95294373Y-116595678D01*
X95197952Y-116667859D01*
X95111706Y-116783068D01*
X95111702Y-116783075D01*
X95061408Y-116917921D01*
X95055001Y-116977520D01*
X95055001Y-116977527D01*
X95055000Y-116977539D01*
X94633599Y-116977539D01*
X94633599Y-116977532D01*
X94627191Y-116917921D01*
X94619345Y-116896886D01*
X94576897Y-116783075D01*
X94576893Y-116783068D01*
X94490647Y-116667859D01*
X94490644Y-116667856D01*
X94375435Y-116581610D01*
X94375428Y-116581606D01*
X94240582Y-116531312D01*
X94240583Y-116531312D01*
X94180983Y-116524905D01*
X94180981Y-116524904D01*
X94180973Y-116524904D01*
X94180965Y-116524904D01*
X93724500Y-116524904D01*
X93657461Y-116505219D01*
X93611706Y-116452415D01*
X93600500Y-116400904D01*
X93600500Y-114883062D01*
X93620185Y-114816023D01*
X93672989Y-114770268D01*
X93742147Y-114760324D01*
X93765448Y-114766018D01*
X93820745Y-114785368D01*
X93820748Y-114785368D01*
X93820750Y-114785369D01*
X93999996Y-114805565D01*
X94000000Y-114805565D01*
X94000004Y-114805565D01*
X94179249Y-114785369D01*
X94179252Y-114785368D01*
X94179255Y-114785368D01*
X94349522Y-114725789D01*
X94502262Y-114629816D01*
X94629816Y-114502262D01*
X94725789Y-114349522D01*
X94785368Y-114179255D01*
X94785369Y-114179249D01*
X94805565Y-114000003D01*
X94805565Y-113999996D01*
X94785369Y-113820750D01*
X94785368Y-113820745D01*
X94769085Y-113774211D01*
X94725789Y-113650478D01*
X94722510Y-113645260D01*
X94631563Y-113500519D01*
X94629816Y-113497738D01*
X94502262Y-113370184D01*
X94486054Y-113360000D01*
X94349523Y-113274211D01*
X94179254Y-113214631D01*
X94179249Y-113214630D01*
X94000004Y-113194435D01*
X93999996Y-113194435D01*
X93820750Y-113214630D01*
X93820739Y-113214633D01*
X93765453Y-113233978D01*
X93695674Y-113237539D01*
X93635047Y-113202809D01*
X93602821Y-113140816D01*
X93600500Y-113116936D01*
X93600500Y-97909090D01*
X93620185Y-97842051D01*
X93672101Y-97796706D01*
X93677830Y-97794035D01*
X93871401Y-97658495D01*
X94038495Y-97491401D01*
X94174035Y-97297830D01*
X94273903Y-97083663D01*
X94335063Y-96855408D01*
X94355659Y-96620000D01*
X94335063Y-96384592D01*
X94273903Y-96156337D01*
X94174035Y-95942171D01*
X94109338Y-95849773D01*
X94038494Y-95748597D01*
X93871402Y-95581506D01*
X93871401Y-95581505D01*
X93685405Y-95451269D01*
X93641781Y-95396692D01*
X93634588Y-95327193D01*
X93666110Y-95264839D01*
X93685405Y-95248119D01*
X93871082Y-95118105D01*
X94038105Y-94951082D01*
X94173600Y-94757578D01*
X94273429Y-94543492D01*
X94273432Y-94543486D01*
X94330636Y-94330000D01*
X93433012Y-94330000D01*
X93465925Y-94272993D01*
X93500000Y-94145826D01*
X93500000Y-94014174D01*
X93465925Y-93887007D01*
X93433012Y-93830000D01*
X94330636Y-93830000D01*
X94330635Y-93829999D01*
X94273432Y-93616513D01*
X94273429Y-93616507D01*
X94173600Y-93402422D01*
X94173599Y-93402420D01*
X94038113Y-93208926D01*
X94038108Y-93208920D01*
X93871078Y-93041890D01*
X93685405Y-92911879D01*
X93641780Y-92857302D01*
X93634588Y-92787804D01*
X93666110Y-92725449D01*
X93685406Y-92708730D01*
X93798107Y-92629816D01*
X93871401Y-92578495D01*
X94038495Y-92411401D01*
X94174035Y-92217830D01*
X94176707Y-92212097D01*
X94222878Y-92159658D01*
X94289091Y-92140500D01*
X94373331Y-92140500D01*
X94373347Y-92140501D01*
X94380943Y-92140501D01*
X94539054Y-92140501D01*
X94539057Y-92140501D01*
X94691785Y-92099577D01*
X94774632Y-92051745D01*
X94828716Y-92020520D01*
X94940520Y-91908716D01*
X94940520Y-91908714D01*
X94950724Y-91898511D01*
X94950728Y-91898506D01*
X95075360Y-91773873D01*
X95136681Y-91740390D01*
X95203993Y-91744514D01*
X95245155Y-91758918D01*
X95320740Y-91785367D01*
X95320750Y-91785369D01*
X95499996Y-91805565D01*
X95500000Y-91805565D01*
X95500004Y-91805565D01*
X95679249Y-91785369D01*
X95679252Y-91785368D01*
X95679255Y-91785368D01*
X95849522Y-91725789D01*
X96002262Y-91629816D01*
X96047555Y-91584522D01*
X96108876Y-91551038D01*
X96178567Y-91556022D01*
X96234501Y-91597893D01*
X96258919Y-91663357D01*
X96252277Y-91713158D01*
X96214632Y-91820742D01*
X96214630Y-91820750D01*
X96194435Y-91999996D01*
X96194435Y-92000003D01*
X96214630Y-92179249D01*
X96214631Y-92179254D01*
X96274211Y-92349523D01*
X96370184Y-92502262D01*
X96497738Y-92629816D01*
X96586818Y-92685789D01*
X96649936Y-92725449D01*
X96650478Y-92725789D01*
X96820745Y-92785368D01*
X96820750Y-92785369D01*
X96999996Y-92805565D01*
X97000000Y-92805565D01*
X97000004Y-92805565D01*
X97179249Y-92785369D01*
X97179252Y-92785368D01*
X97179255Y-92785368D01*
X97349522Y-92725789D01*
X97502262Y-92629816D01*
X97502267Y-92629810D01*
X97505097Y-92627555D01*
X97507275Y-92626665D01*
X97508158Y-92626111D01*
X97508255Y-92626265D01*
X97569783Y-92601145D01*
X97582412Y-92600500D01*
X97913331Y-92600500D01*
X97913347Y-92600501D01*
X97920943Y-92600501D01*
X98079054Y-92600501D01*
X98079057Y-92600501D01*
X98231785Y-92559577D01*
X98305845Y-92516818D01*
X98368716Y-92480520D01*
X98480520Y-92368716D01*
X98480520Y-92368714D01*
X98490721Y-92358514D01*
X98490724Y-92358509D01*
X98812417Y-92036816D01*
X98873739Y-92003334D01*
X98900097Y-92000500D01*
X100750033Y-92000500D01*
X100817072Y-92020185D01*
X100848987Y-92049773D01*
X100917501Y-92140500D01*
X100946128Y-92178407D01*
X101103698Y-92322052D01*
X101284981Y-92434298D01*
X101483802Y-92511321D01*
X101693390Y-92550500D01*
X101693392Y-92550500D01*
X101906608Y-92550500D01*
X101906610Y-92550500D01*
X102116198Y-92511321D01*
X102315019Y-92434298D01*
X102496302Y-92322052D01*
X102653872Y-92178407D01*
X102782366Y-92008255D01*
X102784816Y-92003334D01*
X102877403Y-91817394D01*
X102877403Y-91817393D01*
X102877405Y-91817389D01*
X102935756Y-91612310D01*
X102955429Y-91400000D01*
X102935756Y-91187690D01*
X102877405Y-90982611D01*
X102877403Y-90982606D01*
X102877403Y-90982605D01*
X102782367Y-90791746D01*
X102653872Y-90621593D01*
X102563551Y-90539254D01*
X102496302Y-90477948D01*
X102315019Y-90365702D01*
X102315017Y-90365701D01*
X102116201Y-90288680D01*
X102116200Y-90288679D01*
X102116198Y-90288679D01*
X101918026Y-90251634D01*
X101855746Y-90219965D01*
X101820473Y-90159653D01*
X101823407Y-90089845D01*
X101863616Y-90032705D01*
X101918027Y-90007856D01*
X102116058Y-89970837D01*
X102116063Y-89970836D01*
X102314791Y-89893849D01*
X102314798Y-89893846D01*
X102417006Y-89830560D01*
X102417006Y-89830559D01*
X101816448Y-89230000D01*
X101848711Y-89230000D01*
X101942815Y-89204785D01*
X102027186Y-89156074D01*
X102096074Y-89087186D01*
X102144785Y-89002815D01*
X102170000Y-88908711D01*
X102170000Y-88876447D01*
X102773162Y-89479609D01*
X102773163Y-89479609D01*
X102781940Y-89467988D01*
X102781942Y-89467985D01*
X102876933Y-89277216D01*
X102876941Y-89277196D01*
X102935261Y-89072219D01*
X102935262Y-89072216D01*
X102954927Y-88860000D01*
X102954927Y-88859999D01*
X102935262Y-88647783D01*
X102935261Y-88647780D01*
X102876941Y-88442803D01*
X102876933Y-88442783D01*
X102781942Y-88252014D01*
X102781937Y-88252006D01*
X102773163Y-88240389D01*
X102170000Y-88843552D01*
X102170000Y-88811289D01*
X102144785Y-88717185D01*
X102096074Y-88632814D01*
X102027186Y-88563926D01*
X101942815Y-88515215D01*
X101848711Y-88490000D01*
X101816448Y-88490000D01*
X102417007Y-87889439D01*
X102314793Y-87826151D01*
X102314789Y-87826149D01*
X102116063Y-87749163D01*
X102116058Y-87749162D01*
X101918027Y-87712143D01*
X101855746Y-87680475D01*
X101820473Y-87620162D01*
X101823407Y-87550354D01*
X101863616Y-87493214D01*
X101918024Y-87468366D01*
X102116198Y-87431321D01*
X102315019Y-87354298D01*
X102496302Y-87242052D01*
X102653872Y-87098407D01*
X102782366Y-86928255D01*
X102784816Y-86923334D01*
X102877403Y-86737394D01*
X102877403Y-86737393D01*
X102877405Y-86737389D01*
X102935756Y-86532310D01*
X102955429Y-86320000D01*
X102935756Y-86107690D01*
X102877405Y-85902611D01*
X102877403Y-85902606D01*
X102877403Y-85902605D01*
X102782367Y-85711746D01*
X102653872Y-85541593D01*
X102496302Y-85397948D01*
X102315019Y-85285702D01*
X102315017Y-85285701D01*
X102215608Y-85247190D01*
X102116198Y-85208679D01*
X101906610Y-85169500D01*
X101693390Y-85169500D01*
X101483802Y-85208679D01*
X101483799Y-85208679D01*
X101483799Y-85208680D01*
X101284982Y-85285701D01*
X101284980Y-85285702D01*
X101103699Y-85397947D01*
X100946127Y-85541593D01*
X100848987Y-85670227D01*
X100792878Y-85711863D01*
X100750033Y-85719500D01*
X95600940Y-85719500D01*
X95560019Y-85730464D01*
X95560019Y-85730465D01*
X95522751Y-85740451D01*
X95448214Y-85760423D01*
X95448209Y-85760426D01*
X95311290Y-85839475D01*
X95311282Y-85839481D01*
X95199478Y-85951286D01*
X93537582Y-87613181D01*
X93476259Y-87646666D01*
X93449901Y-87649500D01*
X92124500Y-87649500D01*
X92057461Y-87629815D01*
X92011706Y-87577011D01*
X92000500Y-87525500D01*
X92000500Y-84859996D01*
X124024435Y-84859996D01*
X124024435Y-84860003D01*
X124044630Y-85039249D01*
X124044631Y-85039254D01*
X124104211Y-85209523D01*
X124152077Y-85285701D01*
X124200184Y-85362262D01*
X124327738Y-85489816D01*
X124480478Y-85585789D01*
X124650745Y-85645368D01*
X124650750Y-85645369D01*
X124829996Y-85665565D01*
X124830000Y-85665565D01*
X124830004Y-85665565D01*
X125009249Y-85645369D01*
X125009252Y-85645368D01*
X125009255Y-85645368D01*
X125179522Y-85585789D01*
X125332262Y-85489816D01*
X125332267Y-85489810D01*
X125335097Y-85487555D01*
X125337275Y-85486665D01*
X125338158Y-85486111D01*
X125338255Y-85486265D01*
X125399783Y-85461145D01*
X125412412Y-85460500D01*
X127750943Y-85460500D01*
X128247588Y-85460500D01*
X128314627Y-85480185D01*
X128324903Y-85487555D01*
X128327736Y-85489814D01*
X128327738Y-85489816D01*
X128480478Y-85585789D01*
X128650745Y-85645368D01*
X128650750Y-85645369D01*
X128829996Y-85665565D01*
X128830000Y-85665565D01*
X128830004Y-85665565D01*
X129009249Y-85645369D01*
X129009252Y-85645368D01*
X129009255Y-85645368D01*
X129179522Y-85585789D01*
X129332262Y-85489816D01*
X129459816Y-85362262D01*
X129555789Y-85209522D01*
X129615368Y-85039255D01*
X129635565Y-84860000D01*
X129631924Y-84827689D01*
X129615369Y-84680750D01*
X129615368Y-84680745D01*
X129555788Y-84510476D01*
X129459815Y-84357737D01*
X129332262Y-84230184D01*
X129179523Y-84134211D01*
X129009254Y-84074631D01*
X129009249Y-84074630D01*
X128830004Y-84054435D01*
X128829996Y-84054435D01*
X128650750Y-84074630D01*
X128650745Y-84074631D01*
X128480476Y-84134211D01*
X128327736Y-84230185D01*
X128324903Y-84232445D01*
X128322724Y-84233334D01*
X128321842Y-84233889D01*
X128321744Y-84233734D01*
X128260217Y-84258855D01*
X128247588Y-84259500D01*
X125412412Y-84259500D01*
X125345373Y-84239815D01*
X125335097Y-84232445D01*
X125332263Y-84230185D01*
X125332262Y-84230184D01*
X125251209Y-84179255D01*
X125179523Y-84134211D01*
X125009254Y-84074631D01*
X125009249Y-84074630D01*
X124830004Y-84054435D01*
X124829996Y-84054435D01*
X124650750Y-84074630D01*
X124650745Y-84074631D01*
X124480476Y-84134211D01*
X124327737Y-84230184D01*
X124200184Y-84357737D01*
X124104211Y-84510476D01*
X124044631Y-84680745D01*
X124044630Y-84680750D01*
X124024435Y-84859996D01*
X92000500Y-84859996D01*
X92000500Y-78299997D01*
X151672677Y-78299997D01*
X151672677Y-78300002D01*
X151691929Y-78520062D01*
X151691930Y-78520070D01*
X151749104Y-78733445D01*
X151749105Y-78733447D01*
X151749106Y-78733450D01*
X151782382Y-78804811D01*
X151842466Y-78933662D01*
X151842468Y-78933666D01*
X151969170Y-79114615D01*
X151969175Y-79114621D01*
X152125378Y-79270824D01*
X152125384Y-79270829D01*
X152306333Y-79397531D01*
X152306335Y-79397532D01*
X152306338Y-79397534D01*
X152506550Y-79490894D01*
X152719932Y-79548070D01*
X152877123Y-79561822D01*
X152939998Y-79567323D01*
X152940000Y-79567323D01*
X152940002Y-79567323D01*
X152995017Y-79562509D01*
X153160068Y-79548070D01*
X153373450Y-79490894D01*
X153573662Y-79397534D01*
X153754620Y-79270826D01*
X153910826Y-79114620D01*
X154037534Y-78933662D01*
X154097618Y-78804811D01*
X154143790Y-78752371D01*
X154210983Y-78733219D01*
X154277865Y-78753435D01*
X154322382Y-78804811D01*
X154382464Y-78933658D01*
X154382468Y-78933666D01*
X154509170Y-79114615D01*
X154509175Y-79114621D01*
X154665378Y-79270824D01*
X154665384Y-79270829D01*
X154846333Y-79397531D01*
X154846335Y-79397532D01*
X154846338Y-79397534D01*
X155046550Y-79490894D01*
X155259932Y-79548070D01*
X155417123Y-79561822D01*
X155479998Y-79567323D01*
X155480000Y-79567323D01*
X155480002Y-79567323D01*
X155535017Y-79562509D01*
X155700068Y-79548070D01*
X155913450Y-79490894D01*
X156113662Y-79397534D01*
X156294620Y-79270826D01*
X156450826Y-79114620D01*
X156577534Y-78933662D01*
X156637618Y-78804811D01*
X156683790Y-78752371D01*
X156750983Y-78733219D01*
X156817865Y-78753435D01*
X156862382Y-78804811D01*
X156922464Y-78933658D01*
X156922468Y-78933666D01*
X157049170Y-79114615D01*
X157049175Y-79114621D01*
X157205378Y-79270824D01*
X157205384Y-79270829D01*
X157386333Y-79397531D01*
X157386335Y-79397532D01*
X157386338Y-79397534D01*
X157586550Y-79490894D01*
X157799932Y-79548070D01*
X157957123Y-79561822D01*
X158019998Y-79567323D01*
X158020000Y-79567323D01*
X158020002Y-79567323D01*
X158075017Y-79562509D01*
X158240068Y-79548070D01*
X158453450Y-79490894D01*
X158653662Y-79397534D01*
X158834620Y-79270826D01*
X158990826Y-79114620D01*
X159117534Y-78933662D01*
X159177618Y-78804811D01*
X159223790Y-78752371D01*
X159290983Y-78733219D01*
X159357865Y-78753435D01*
X159402382Y-78804811D01*
X159462464Y-78933658D01*
X159462468Y-78933666D01*
X159589170Y-79114615D01*
X159589175Y-79114621D01*
X159745378Y-79270824D01*
X159745384Y-79270829D01*
X159926333Y-79397531D01*
X159926335Y-79397532D01*
X159926338Y-79397534D01*
X160126550Y-79490894D01*
X160339932Y-79548070D01*
X160497123Y-79561822D01*
X160559998Y-79567323D01*
X160560000Y-79567323D01*
X160560002Y-79567323D01*
X160615017Y-79562509D01*
X160780068Y-79548070D01*
X160993450Y-79490894D01*
X161193662Y-79397534D01*
X161374620Y-79270826D01*
X161530826Y-79114620D01*
X161657534Y-78933662D01*
X161717618Y-78804811D01*
X161763790Y-78752371D01*
X161830983Y-78733219D01*
X161897865Y-78753435D01*
X161942382Y-78804811D01*
X162002464Y-78933658D01*
X162002468Y-78933666D01*
X162129170Y-79114615D01*
X162129175Y-79114621D01*
X162285378Y-79270824D01*
X162285384Y-79270829D01*
X162466333Y-79397531D01*
X162466335Y-79397532D01*
X162466338Y-79397534D01*
X162666550Y-79490894D01*
X162879932Y-79548070D01*
X163037123Y-79561822D01*
X163099998Y-79567323D01*
X163100000Y-79567323D01*
X163100002Y-79567323D01*
X163155017Y-79562509D01*
X163320068Y-79548070D01*
X163533450Y-79490894D01*
X163733662Y-79397534D01*
X163914620Y-79270826D01*
X164070826Y-79114620D01*
X164197534Y-78933662D01*
X164257618Y-78804811D01*
X164303790Y-78752371D01*
X164370983Y-78733219D01*
X164437865Y-78753435D01*
X164482382Y-78804811D01*
X164542464Y-78933658D01*
X164542468Y-78933666D01*
X164669170Y-79114615D01*
X164669175Y-79114621D01*
X164825378Y-79270824D01*
X164825384Y-79270829D01*
X165006333Y-79397531D01*
X165006335Y-79397532D01*
X165006338Y-79397534D01*
X165206550Y-79490894D01*
X165419932Y-79548070D01*
X165577123Y-79561822D01*
X165639998Y-79567323D01*
X165640000Y-79567323D01*
X165640002Y-79567323D01*
X165695017Y-79562509D01*
X165860068Y-79548070D01*
X166073450Y-79490894D01*
X166273662Y-79397534D01*
X166454620Y-79270826D01*
X166610826Y-79114620D01*
X166737534Y-78933662D01*
X166797618Y-78804811D01*
X166843790Y-78752371D01*
X166910983Y-78733219D01*
X166977865Y-78753435D01*
X167022382Y-78804811D01*
X167082464Y-78933658D01*
X167082468Y-78933666D01*
X167209170Y-79114615D01*
X167209175Y-79114621D01*
X167365378Y-79270824D01*
X167365384Y-79270829D01*
X167546333Y-79397531D01*
X167546335Y-79397532D01*
X167546338Y-79397534D01*
X167746550Y-79490894D01*
X167959932Y-79548070D01*
X168117123Y-79561822D01*
X168179998Y-79567323D01*
X168180000Y-79567323D01*
X168180002Y-79567323D01*
X168235017Y-79562509D01*
X168400068Y-79548070D01*
X168613450Y-79490894D01*
X168813662Y-79397534D01*
X168994620Y-79270826D01*
X169150826Y-79114620D01*
X169277534Y-78933662D01*
X169337618Y-78804811D01*
X169383790Y-78752371D01*
X169450983Y-78733219D01*
X169517865Y-78753435D01*
X169562382Y-78804811D01*
X169622464Y-78933658D01*
X169622468Y-78933666D01*
X169749170Y-79114615D01*
X169749175Y-79114621D01*
X169905378Y-79270824D01*
X169905384Y-79270829D01*
X170086333Y-79397531D01*
X170086335Y-79397532D01*
X170086338Y-79397534D01*
X170286550Y-79490894D01*
X170499932Y-79548070D01*
X170657123Y-79561822D01*
X170719998Y-79567323D01*
X170720000Y-79567323D01*
X170720002Y-79567323D01*
X170775017Y-79562509D01*
X170940068Y-79548070D01*
X171153450Y-79490894D01*
X171353662Y-79397534D01*
X171534620Y-79270826D01*
X171690826Y-79114620D01*
X171817534Y-78933662D01*
X171877618Y-78804811D01*
X171923790Y-78752371D01*
X171990983Y-78733219D01*
X172057865Y-78753435D01*
X172102382Y-78804811D01*
X172162464Y-78933658D01*
X172162468Y-78933666D01*
X172289170Y-79114615D01*
X172289175Y-79114621D01*
X172445378Y-79270824D01*
X172445384Y-79270829D01*
X172626333Y-79397531D01*
X172626335Y-79397532D01*
X172626338Y-79397534D01*
X172826550Y-79490894D01*
X173039932Y-79548070D01*
X173197123Y-79561822D01*
X173259998Y-79567323D01*
X173260000Y-79567323D01*
X173260002Y-79567323D01*
X173315017Y-79562509D01*
X173480068Y-79548070D01*
X173693450Y-79490894D01*
X173893662Y-79397534D01*
X174074620Y-79270826D01*
X174230826Y-79114620D01*
X174357534Y-78933662D01*
X174417618Y-78804811D01*
X174463790Y-78752371D01*
X174530983Y-78733219D01*
X174597865Y-78753435D01*
X174642382Y-78804811D01*
X174702464Y-78933658D01*
X174702468Y-78933666D01*
X174829170Y-79114615D01*
X174829175Y-79114621D01*
X174985378Y-79270824D01*
X174985384Y-79270829D01*
X175166333Y-79397531D01*
X175166335Y-79397532D01*
X175166338Y-79397534D01*
X175366550Y-79490894D01*
X175579932Y-79548070D01*
X175737123Y-79561822D01*
X175799998Y-79567323D01*
X175800000Y-79567323D01*
X175800002Y-79567323D01*
X175855017Y-79562509D01*
X176020068Y-79548070D01*
X176233450Y-79490894D01*
X176433662Y-79397534D01*
X176614620Y-79270826D01*
X176770826Y-79114620D01*
X176897534Y-78933662D01*
X176957618Y-78804811D01*
X177003790Y-78752371D01*
X177070983Y-78733219D01*
X177137865Y-78753435D01*
X177182382Y-78804811D01*
X177242464Y-78933658D01*
X177242468Y-78933666D01*
X177369170Y-79114615D01*
X177369175Y-79114621D01*
X177525378Y-79270824D01*
X177525384Y-79270829D01*
X177706333Y-79397531D01*
X177706335Y-79397532D01*
X177706338Y-79397534D01*
X177906550Y-79490894D01*
X178119932Y-79548070D01*
X178277123Y-79561822D01*
X178339998Y-79567323D01*
X178340000Y-79567323D01*
X178340002Y-79567323D01*
X178395017Y-79562509D01*
X178560068Y-79548070D01*
X178773450Y-79490894D01*
X178973662Y-79397534D01*
X179154620Y-79270826D01*
X179310826Y-79114620D01*
X179437534Y-78933662D01*
X179497618Y-78804811D01*
X179543790Y-78752371D01*
X179610983Y-78733219D01*
X179677865Y-78753435D01*
X179722382Y-78804811D01*
X179782464Y-78933658D01*
X179782468Y-78933666D01*
X179909170Y-79114615D01*
X179909175Y-79114621D01*
X180065378Y-79270824D01*
X180065384Y-79270829D01*
X180246333Y-79397531D01*
X180246335Y-79397532D01*
X180246338Y-79397534D01*
X180446550Y-79490894D01*
X180659932Y-79548070D01*
X180817123Y-79561822D01*
X180879998Y-79567323D01*
X180880000Y-79567323D01*
X180880002Y-79567323D01*
X180935017Y-79562509D01*
X181100068Y-79548070D01*
X181313450Y-79490894D01*
X181513662Y-79397534D01*
X181694620Y-79270826D01*
X181850826Y-79114620D01*
X181977534Y-78933662D01*
X182037618Y-78804811D01*
X182083790Y-78752371D01*
X182150983Y-78733219D01*
X182217865Y-78753435D01*
X182262382Y-78804811D01*
X182322464Y-78933658D01*
X182322468Y-78933666D01*
X182449170Y-79114615D01*
X182449175Y-79114621D01*
X182605378Y-79270824D01*
X182605384Y-79270829D01*
X182786333Y-79397531D01*
X182786335Y-79397532D01*
X182786338Y-79397534D01*
X182986550Y-79490894D01*
X183199932Y-79548070D01*
X183357123Y-79561822D01*
X183419998Y-79567323D01*
X183420000Y-79567323D01*
X183420002Y-79567323D01*
X183475017Y-79562509D01*
X183640068Y-79548070D01*
X183853450Y-79490894D01*
X184053662Y-79397534D01*
X184234620Y-79270826D01*
X184390826Y-79114620D01*
X184517534Y-78933662D01*
X184577618Y-78804811D01*
X184623790Y-78752371D01*
X184690983Y-78733219D01*
X184757865Y-78753435D01*
X184802382Y-78804811D01*
X184862464Y-78933658D01*
X184862468Y-78933666D01*
X184989170Y-79114615D01*
X184989175Y-79114621D01*
X185145378Y-79270824D01*
X185145384Y-79270829D01*
X185326333Y-79397531D01*
X185326335Y-79397532D01*
X185326338Y-79397534D01*
X185526550Y-79490894D01*
X185739932Y-79548070D01*
X185897123Y-79561822D01*
X185959998Y-79567323D01*
X185960000Y-79567323D01*
X185960002Y-79567323D01*
X186015017Y-79562509D01*
X186180068Y-79548070D01*
X186393450Y-79490894D01*
X186593662Y-79397534D01*
X186774620Y-79270826D01*
X186930826Y-79114620D01*
X187057534Y-78933662D01*
X187117618Y-78804811D01*
X187163790Y-78752371D01*
X187230983Y-78733219D01*
X187297865Y-78753435D01*
X187342382Y-78804811D01*
X187402464Y-78933658D01*
X187402468Y-78933666D01*
X187529170Y-79114615D01*
X187529175Y-79114621D01*
X187685378Y-79270824D01*
X187685384Y-79270829D01*
X187866333Y-79397531D01*
X187866335Y-79397532D01*
X187866338Y-79397534D01*
X188066550Y-79490894D01*
X188279932Y-79548070D01*
X188437123Y-79561822D01*
X188499998Y-79567323D01*
X188500000Y-79567323D01*
X188500002Y-79567323D01*
X188555017Y-79562509D01*
X188720068Y-79548070D01*
X188933450Y-79490894D01*
X189133662Y-79397534D01*
X189314620Y-79270826D01*
X189470826Y-79114620D01*
X189597534Y-78933662D01*
X189690894Y-78733450D01*
X189748070Y-78520068D01*
X189767323Y-78300000D01*
X189748070Y-78079932D01*
X189690894Y-77866550D01*
X189597534Y-77666339D01*
X189470826Y-77485380D01*
X189314620Y-77329174D01*
X189314616Y-77329171D01*
X189314615Y-77329170D01*
X189133666Y-77202468D01*
X189133662Y-77202466D01*
X189133660Y-77202465D01*
X188933450Y-77109106D01*
X188933447Y-77109105D01*
X188933445Y-77109104D01*
X188720070Y-77051930D01*
X188720062Y-77051929D01*
X188500002Y-77032677D01*
X188499998Y-77032677D01*
X188279937Y-77051929D01*
X188279929Y-77051930D01*
X188066554Y-77109104D01*
X188066548Y-77109107D01*
X187866340Y-77202465D01*
X187866338Y-77202466D01*
X187685377Y-77329175D01*
X187529175Y-77485377D01*
X187402466Y-77666338D01*
X187402465Y-77666340D01*
X187342382Y-77795189D01*
X187296209Y-77847628D01*
X187229016Y-77866780D01*
X187162135Y-77846564D01*
X187117618Y-77795189D01*
X187057534Y-77666340D01*
X187057533Y-77666338D01*
X186930827Y-77485381D01*
X186930823Y-77485377D01*
X186774620Y-77329174D01*
X186774616Y-77329171D01*
X186774615Y-77329170D01*
X186593666Y-77202468D01*
X186593662Y-77202466D01*
X186593660Y-77202465D01*
X186393450Y-77109106D01*
X186393447Y-77109105D01*
X186393445Y-77109104D01*
X186180070Y-77051930D01*
X186180062Y-77051929D01*
X185960002Y-77032677D01*
X185959998Y-77032677D01*
X185739937Y-77051929D01*
X185739929Y-77051930D01*
X185526554Y-77109104D01*
X185526548Y-77109107D01*
X185326340Y-77202465D01*
X185326338Y-77202466D01*
X185145377Y-77329175D01*
X184989175Y-77485377D01*
X184862466Y-77666338D01*
X184862465Y-77666340D01*
X184802382Y-77795189D01*
X184756209Y-77847628D01*
X184689016Y-77866780D01*
X184622135Y-77846564D01*
X184577618Y-77795189D01*
X184517534Y-77666340D01*
X184517533Y-77666338D01*
X184390827Y-77485381D01*
X184390823Y-77485377D01*
X184234620Y-77329174D01*
X184234616Y-77329171D01*
X184234615Y-77329170D01*
X184053666Y-77202468D01*
X184053662Y-77202466D01*
X184053660Y-77202465D01*
X183853450Y-77109106D01*
X183853447Y-77109105D01*
X183853445Y-77109104D01*
X183640070Y-77051930D01*
X183640062Y-77051929D01*
X183420002Y-77032677D01*
X183419998Y-77032677D01*
X183199937Y-77051929D01*
X183199929Y-77051930D01*
X182986554Y-77109104D01*
X182986548Y-77109107D01*
X182786340Y-77202465D01*
X182786338Y-77202466D01*
X182605377Y-77329175D01*
X182449175Y-77485377D01*
X182322466Y-77666338D01*
X182322465Y-77666340D01*
X182262382Y-77795189D01*
X182216209Y-77847628D01*
X182149016Y-77866780D01*
X182082135Y-77846564D01*
X182037618Y-77795189D01*
X181977534Y-77666340D01*
X181977533Y-77666338D01*
X181850827Y-77485381D01*
X181850823Y-77485377D01*
X181694620Y-77329174D01*
X181694616Y-77329171D01*
X181694615Y-77329170D01*
X181513666Y-77202468D01*
X181513662Y-77202466D01*
X181513660Y-77202465D01*
X181313450Y-77109106D01*
X181313447Y-77109105D01*
X181313445Y-77109104D01*
X181100070Y-77051930D01*
X181100062Y-77051929D01*
X180880002Y-77032677D01*
X180879998Y-77032677D01*
X180659937Y-77051929D01*
X180659929Y-77051930D01*
X180446554Y-77109104D01*
X180446548Y-77109107D01*
X180246340Y-77202465D01*
X180246338Y-77202466D01*
X180065377Y-77329175D01*
X179909175Y-77485377D01*
X179782466Y-77666338D01*
X179782465Y-77666340D01*
X179722382Y-77795189D01*
X179676209Y-77847628D01*
X179609016Y-77866780D01*
X179542135Y-77846564D01*
X179497618Y-77795189D01*
X179437534Y-77666340D01*
X179437533Y-77666338D01*
X179310827Y-77485381D01*
X179310823Y-77485377D01*
X179154620Y-77329174D01*
X179154616Y-77329171D01*
X179154615Y-77329170D01*
X178973666Y-77202468D01*
X178973662Y-77202466D01*
X178973660Y-77202465D01*
X178773450Y-77109106D01*
X178773447Y-77109105D01*
X178773445Y-77109104D01*
X178560070Y-77051930D01*
X178560062Y-77051929D01*
X178340002Y-77032677D01*
X178339998Y-77032677D01*
X178119937Y-77051929D01*
X178119929Y-77051930D01*
X177906554Y-77109104D01*
X177906548Y-77109107D01*
X177706340Y-77202465D01*
X177706338Y-77202466D01*
X177525377Y-77329175D01*
X177369175Y-77485377D01*
X177242466Y-77666338D01*
X177242465Y-77666340D01*
X177182382Y-77795189D01*
X177136209Y-77847628D01*
X177069016Y-77866780D01*
X177002135Y-77846564D01*
X176957618Y-77795189D01*
X176897534Y-77666340D01*
X176897533Y-77666338D01*
X176770827Y-77485381D01*
X176770823Y-77485377D01*
X176614620Y-77329174D01*
X176614616Y-77329171D01*
X176614615Y-77329170D01*
X176433666Y-77202468D01*
X176433662Y-77202466D01*
X176433660Y-77202465D01*
X176233450Y-77109106D01*
X176233447Y-77109105D01*
X176233445Y-77109104D01*
X176020070Y-77051930D01*
X176020062Y-77051929D01*
X175800002Y-77032677D01*
X175799998Y-77032677D01*
X175579937Y-77051929D01*
X175579929Y-77051930D01*
X175366554Y-77109104D01*
X175366548Y-77109107D01*
X175166340Y-77202465D01*
X175166338Y-77202466D01*
X174985377Y-77329175D01*
X174829175Y-77485377D01*
X174702466Y-77666338D01*
X174702465Y-77666340D01*
X174642382Y-77795189D01*
X174596209Y-77847628D01*
X174529016Y-77866780D01*
X174462135Y-77846564D01*
X174417618Y-77795189D01*
X174357534Y-77666340D01*
X174357533Y-77666338D01*
X174230827Y-77485381D01*
X174230823Y-77485377D01*
X174074620Y-77329174D01*
X174074616Y-77329171D01*
X174074615Y-77329170D01*
X173893666Y-77202468D01*
X173893662Y-77202466D01*
X173893660Y-77202465D01*
X173693450Y-77109106D01*
X173693447Y-77109105D01*
X173693445Y-77109104D01*
X173480070Y-77051930D01*
X173480062Y-77051929D01*
X173260002Y-77032677D01*
X173259998Y-77032677D01*
X173039937Y-77051929D01*
X173039929Y-77051930D01*
X172826554Y-77109104D01*
X172826548Y-77109107D01*
X172626340Y-77202465D01*
X172626338Y-77202466D01*
X172445377Y-77329175D01*
X172289175Y-77485377D01*
X172162466Y-77666338D01*
X172162465Y-77666340D01*
X172102382Y-77795189D01*
X172056209Y-77847628D01*
X171989016Y-77866780D01*
X171922135Y-77846564D01*
X171877618Y-77795189D01*
X171817534Y-77666340D01*
X171817533Y-77666338D01*
X171690827Y-77485381D01*
X171690823Y-77485377D01*
X171534620Y-77329174D01*
X171534616Y-77329171D01*
X171534615Y-77329170D01*
X171353666Y-77202468D01*
X171353662Y-77202466D01*
X171353660Y-77202465D01*
X171153450Y-77109106D01*
X171153447Y-77109105D01*
X171153445Y-77109104D01*
X170940070Y-77051930D01*
X170940062Y-77051929D01*
X170720002Y-77032677D01*
X170719998Y-77032677D01*
X170499937Y-77051929D01*
X170499929Y-77051930D01*
X170286554Y-77109104D01*
X170286548Y-77109107D01*
X170086340Y-77202465D01*
X170086338Y-77202466D01*
X169905377Y-77329175D01*
X169749175Y-77485377D01*
X169622466Y-77666338D01*
X169622465Y-77666340D01*
X169562382Y-77795189D01*
X169516209Y-77847628D01*
X169449016Y-77866780D01*
X169382135Y-77846564D01*
X169337618Y-77795189D01*
X169277534Y-77666340D01*
X169277533Y-77666338D01*
X169150827Y-77485381D01*
X169150823Y-77485377D01*
X168994620Y-77329174D01*
X168994616Y-77329171D01*
X168994615Y-77329170D01*
X168813666Y-77202468D01*
X168813662Y-77202466D01*
X168813660Y-77202465D01*
X168613450Y-77109106D01*
X168613447Y-77109105D01*
X168613445Y-77109104D01*
X168400070Y-77051930D01*
X168400062Y-77051929D01*
X168180002Y-77032677D01*
X168179998Y-77032677D01*
X167959937Y-77051929D01*
X167959929Y-77051930D01*
X167746554Y-77109104D01*
X167746548Y-77109107D01*
X167546340Y-77202465D01*
X167546338Y-77202466D01*
X167365377Y-77329175D01*
X167209175Y-77485377D01*
X167082466Y-77666338D01*
X167082465Y-77666340D01*
X167022382Y-77795189D01*
X166976209Y-77847628D01*
X166909016Y-77866780D01*
X166842135Y-77846564D01*
X166797618Y-77795189D01*
X166737534Y-77666340D01*
X166737533Y-77666338D01*
X166610827Y-77485381D01*
X166610823Y-77485377D01*
X166454620Y-77329174D01*
X166454616Y-77329171D01*
X166454615Y-77329170D01*
X166273666Y-77202468D01*
X166273662Y-77202466D01*
X166273660Y-77202465D01*
X166073450Y-77109106D01*
X166073447Y-77109105D01*
X166073445Y-77109104D01*
X165860070Y-77051930D01*
X165860062Y-77051929D01*
X165640002Y-77032677D01*
X165639998Y-77032677D01*
X165419937Y-77051929D01*
X165419929Y-77051930D01*
X165206554Y-77109104D01*
X165206548Y-77109107D01*
X165006340Y-77202465D01*
X165006338Y-77202466D01*
X164825377Y-77329175D01*
X164669175Y-77485377D01*
X164542466Y-77666338D01*
X164542465Y-77666340D01*
X164482382Y-77795189D01*
X164436209Y-77847628D01*
X164369016Y-77866780D01*
X164302135Y-77846564D01*
X164257618Y-77795189D01*
X164197534Y-77666340D01*
X164197533Y-77666338D01*
X164070827Y-77485381D01*
X164070823Y-77485377D01*
X163914620Y-77329174D01*
X163914616Y-77329171D01*
X163914615Y-77329170D01*
X163733666Y-77202468D01*
X163733662Y-77202466D01*
X163733660Y-77202465D01*
X163533450Y-77109106D01*
X163533447Y-77109105D01*
X163533445Y-77109104D01*
X163320070Y-77051930D01*
X163320062Y-77051929D01*
X163100002Y-77032677D01*
X163099998Y-77032677D01*
X162879937Y-77051929D01*
X162879929Y-77051930D01*
X162666554Y-77109104D01*
X162666548Y-77109107D01*
X162466340Y-77202465D01*
X162466338Y-77202466D01*
X162285377Y-77329175D01*
X162129175Y-77485377D01*
X162002466Y-77666338D01*
X162002465Y-77666340D01*
X161942382Y-77795189D01*
X161896209Y-77847628D01*
X161829016Y-77866780D01*
X161762135Y-77846564D01*
X161717618Y-77795189D01*
X161657534Y-77666340D01*
X161657533Y-77666338D01*
X161530827Y-77485381D01*
X161530823Y-77485377D01*
X161374620Y-77329174D01*
X161374616Y-77329171D01*
X161374615Y-77329170D01*
X161193666Y-77202468D01*
X161193662Y-77202466D01*
X161193660Y-77202465D01*
X160993450Y-77109106D01*
X160993447Y-77109105D01*
X160993445Y-77109104D01*
X160780070Y-77051930D01*
X160780062Y-77051929D01*
X160560002Y-77032677D01*
X160559998Y-77032677D01*
X160339937Y-77051929D01*
X160339929Y-77051930D01*
X160126554Y-77109104D01*
X160126548Y-77109107D01*
X159926340Y-77202465D01*
X159926338Y-77202466D01*
X159745377Y-77329175D01*
X159589175Y-77485377D01*
X159462466Y-77666338D01*
X159462465Y-77666340D01*
X159402382Y-77795189D01*
X159356209Y-77847628D01*
X159289016Y-77866780D01*
X159222135Y-77846564D01*
X159177618Y-77795189D01*
X159117534Y-77666340D01*
X159117533Y-77666338D01*
X158990827Y-77485381D01*
X158990823Y-77485377D01*
X158834620Y-77329174D01*
X158834616Y-77329171D01*
X158834615Y-77329170D01*
X158653666Y-77202468D01*
X158653662Y-77202466D01*
X158653660Y-77202465D01*
X158453450Y-77109106D01*
X158453447Y-77109105D01*
X158453445Y-77109104D01*
X158240070Y-77051930D01*
X158240062Y-77051929D01*
X158020002Y-77032677D01*
X158019998Y-77032677D01*
X157799937Y-77051929D01*
X157799929Y-77051930D01*
X157586554Y-77109104D01*
X157586548Y-77109107D01*
X157386340Y-77202465D01*
X157386338Y-77202466D01*
X157205377Y-77329175D01*
X157049175Y-77485377D01*
X156922466Y-77666338D01*
X156922465Y-77666340D01*
X156862382Y-77795189D01*
X156816209Y-77847628D01*
X156749016Y-77866780D01*
X156682135Y-77846564D01*
X156637618Y-77795189D01*
X156577534Y-77666340D01*
X156577533Y-77666338D01*
X156450827Y-77485381D01*
X156450823Y-77485377D01*
X156294620Y-77329174D01*
X156294616Y-77329171D01*
X156294615Y-77329170D01*
X156113666Y-77202468D01*
X156113662Y-77202466D01*
X156113660Y-77202465D01*
X155913450Y-77109106D01*
X155913447Y-77109105D01*
X155913445Y-77109104D01*
X155700070Y-77051930D01*
X155700062Y-77051929D01*
X155480002Y-77032677D01*
X155479998Y-77032677D01*
X155259937Y-77051929D01*
X155259929Y-77051930D01*
X155046554Y-77109104D01*
X155046548Y-77109107D01*
X154846340Y-77202465D01*
X154846338Y-77202466D01*
X154665377Y-77329175D01*
X154509175Y-77485377D01*
X154382466Y-77666338D01*
X154382465Y-77666340D01*
X154322382Y-77795189D01*
X154276209Y-77847628D01*
X154209016Y-77866780D01*
X154142135Y-77846564D01*
X154097618Y-77795189D01*
X154037534Y-77666340D01*
X154037533Y-77666338D01*
X153910827Y-77485381D01*
X153910823Y-77485377D01*
X153754620Y-77329174D01*
X153754616Y-77329171D01*
X153754615Y-77329170D01*
X153573666Y-77202468D01*
X153573662Y-77202466D01*
X153573660Y-77202465D01*
X153373450Y-77109106D01*
X153373447Y-77109105D01*
X153373445Y-77109104D01*
X153160070Y-77051930D01*
X153160062Y-77051929D01*
X152940002Y-77032677D01*
X152939998Y-77032677D01*
X152719937Y-77051929D01*
X152719929Y-77051930D01*
X152506554Y-77109104D01*
X152506548Y-77109107D01*
X152306340Y-77202465D01*
X152306338Y-77202466D01*
X152125377Y-77329175D01*
X151969175Y-77485377D01*
X151842466Y-77666338D01*
X151842465Y-77666340D01*
X151749107Y-77866548D01*
X151749104Y-77866554D01*
X151691930Y-78079929D01*
X151691929Y-78079937D01*
X151672677Y-78299997D01*
X92000500Y-78299997D01*
X92000500Y-76124500D01*
X92020185Y-76057461D01*
X92072989Y-76011706D01*
X92124500Y-76000500D01*
X190875500Y-76000500D01*
X190942539Y-76020185D01*
G37*
%TD.AperFunction*%
%TA.AperFunction,Conductor*%
G36*
X125265448Y-103266018D02*
G01*
X125320745Y-103285368D01*
X125320748Y-103285368D01*
X125320750Y-103285369D01*
X125499996Y-103305565D01*
X125500000Y-103305565D01*
X125500003Y-103305565D01*
X125589676Y-103295461D01*
X125626776Y-103291280D01*
X125640658Y-103290501D01*
X125776654Y-103290501D01*
X125776670Y-103290500D01*
X127278060Y-103290500D01*
X127345099Y-103310185D01*
X127390854Y-103362989D01*
X127400798Y-103432147D01*
X127373648Y-103491596D01*
X127374525Y-103492295D01*
X127370184Y-103497737D01*
X127274211Y-103650476D01*
X127214631Y-103820745D01*
X127214630Y-103820750D01*
X127194435Y-103999996D01*
X127194435Y-104000003D01*
X127214630Y-104179249D01*
X127214631Y-104179254D01*
X127274211Y-104349523D01*
X127361130Y-104487853D01*
X127370184Y-104502262D01*
X127497738Y-104629816D01*
X127650478Y-104725789D01*
X127724642Y-104751740D01*
X127820745Y-104785368D01*
X127820750Y-104785369D01*
X127999996Y-104805565D01*
X128000000Y-104805565D01*
X128000004Y-104805565D01*
X128179249Y-104785369D01*
X128179252Y-104785368D01*
X128179255Y-104785368D01*
X128349522Y-104725789D01*
X128502262Y-104629816D01*
X128535259Y-104596819D01*
X128596582Y-104563334D01*
X128622940Y-104560500D01*
X129478325Y-104560500D01*
X129545364Y-104580185D01*
X129591119Y-104632989D01*
X129601063Y-104702147D01*
X129594507Y-104727833D01*
X129568511Y-104797533D01*
X129551509Y-104843117D01*
X129545100Y-104902727D01*
X129545100Y-104902734D01*
X129545100Y-104902735D01*
X129545100Y-105557270D01*
X129545101Y-105557276D01*
X129551508Y-105616883D01*
X129594507Y-105732167D01*
X129599491Y-105801859D01*
X129566006Y-105863182D01*
X129504683Y-105896666D01*
X129478325Y-105899500D01*
X126920943Y-105899500D01*
X126768216Y-105940423D01*
X126768209Y-105940426D01*
X126631290Y-106019475D01*
X126631282Y-106019481D01*
X126519481Y-106131282D01*
X126519475Y-106131290D01*
X126440426Y-106268209D01*
X126440423Y-106268216D01*
X126399500Y-106420943D01*
X126399500Y-110215217D01*
X126379815Y-110282256D01*
X126327011Y-110328011D01*
X126257853Y-110337955D01*
X126194297Y-110308930D01*
X126187819Y-110302898D01*
X125136819Y-109251898D01*
X125103334Y-109190575D01*
X125100500Y-109164217D01*
X125100500Y-103383062D01*
X125120185Y-103316023D01*
X125172989Y-103270268D01*
X125242147Y-103260324D01*
X125265448Y-103266018D01*
G37*
%TD.AperFunction*%
%TA.AperFunction,Conductor*%
G36*
X129545364Y-107120185D02*
G01*
X129591119Y-107172989D01*
X129601063Y-107242147D01*
X129594507Y-107267833D01*
X129551508Y-107383117D01*
X129545101Y-107442716D01*
X129545101Y-107442723D01*
X129545100Y-107442735D01*
X129545100Y-107939914D01*
X129525415Y-108006953D01*
X129472611Y-108052708D01*
X129407218Y-108063134D01*
X129330005Y-108054435D01*
X129329996Y-108054435D01*
X129150750Y-108074630D01*
X129150745Y-108074631D01*
X128980476Y-108134211D01*
X128827737Y-108230184D01*
X128700184Y-108357737D01*
X128604209Y-108510480D01*
X128567209Y-108616219D01*
X128526487Y-108672995D01*
X128464052Y-108698484D01*
X128338384Y-108712644D01*
X128269562Y-108700590D01*
X128218183Y-108653241D01*
X128200500Y-108589424D01*
X128200500Y-107682412D01*
X128220185Y-107615373D01*
X128227555Y-107605097D01*
X128229810Y-107602267D01*
X128229816Y-107602262D01*
X128325789Y-107449522D01*
X128385368Y-107279255D01*
X128388860Y-107248269D01*
X128393102Y-107210617D01*
X128420168Y-107146203D01*
X128477763Y-107106648D01*
X128516322Y-107100500D01*
X129478325Y-107100500D01*
X129545364Y-107120185D01*
G37*
%TD.AperFunction*%
%TA.AperFunction,Conductor*%
G36*
X100817072Y-86940185D02*
G01*
X100848987Y-86969773D01*
X100916561Y-87059255D01*
X100946128Y-87098407D01*
X101103698Y-87242052D01*
X101284981Y-87354298D01*
X101483802Y-87431321D01*
X101681973Y-87468365D01*
X101744253Y-87500033D01*
X101779526Y-87560346D01*
X101776592Y-87630154D01*
X101736383Y-87687294D01*
X101681972Y-87712143D01*
X101483941Y-87749162D01*
X101483936Y-87749163D01*
X101285210Y-87826149D01*
X101285201Y-87826154D01*
X101182992Y-87889438D01*
X101182991Y-87889439D01*
X101783553Y-88490000D01*
X101751289Y-88490000D01*
X101657185Y-88515215D01*
X101572814Y-88563926D01*
X101503926Y-88632814D01*
X101455215Y-88717185D01*
X101430000Y-88811289D01*
X101430000Y-88843552D01*
X100826836Y-88240388D01*
X100818059Y-88252010D01*
X100723066Y-88442783D01*
X100723058Y-88442803D01*
X100664738Y-88647780D01*
X100664737Y-88647783D01*
X100645073Y-88859999D01*
X100645073Y-88860000D01*
X100664737Y-89072216D01*
X100664738Y-89072219D01*
X100723058Y-89277196D01*
X100723064Y-89277211D01*
X100818061Y-89467991D01*
X100818064Y-89467996D01*
X100826836Y-89479610D01*
X101430000Y-88876446D01*
X101430000Y-88908711D01*
X101455215Y-89002815D01*
X101503926Y-89087186D01*
X101572814Y-89156074D01*
X101657185Y-89204785D01*
X101751289Y-89230000D01*
X101783553Y-89230000D01*
X101182991Y-89830559D01*
X101285204Y-89893847D01*
X101285208Y-89893849D01*
X101483936Y-89970836D01*
X101483941Y-89970837D01*
X101681972Y-90007856D01*
X101744253Y-90039524D01*
X101779526Y-90099836D01*
X101776592Y-90169645D01*
X101736383Y-90226785D01*
X101681973Y-90251634D01*
X101589932Y-90268839D01*
X101483802Y-90288679D01*
X101483800Y-90288679D01*
X101483798Y-90288680D01*
X101284982Y-90365701D01*
X101284980Y-90365702D01*
X101103699Y-90477947D01*
X100946127Y-90621593D01*
X100848987Y-90750227D01*
X100792878Y-90791863D01*
X100750033Y-90799500D01*
X98520943Y-90799500D01*
X98368213Y-90840423D01*
X98330547Y-90862171D01*
X98330546Y-90862171D01*
X98231287Y-90919477D01*
X98231282Y-90919481D01*
X98168159Y-90982605D01*
X98119480Y-91031284D01*
X98119478Y-91031286D01*
X97936133Y-91214632D01*
X97787584Y-91363181D01*
X97726261Y-91396666D01*
X97699903Y-91399500D01*
X97582412Y-91399500D01*
X97515373Y-91379815D01*
X97505097Y-91372445D01*
X97502263Y-91370185D01*
X97502262Y-91370184D01*
X97445496Y-91334515D01*
X97349523Y-91274211D01*
X97179254Y-91214631D01*
X97179249Y-91214630D01*
X97000004Y-91194435D01*
X96999996Y-91194435D01*
X96820750Y-91214630D01*
X96820745Y-91214631D01*
X96650476Y-91274211D01*
X96497737Y-91370184D01*
X96452444Y-91415477D01*
X96391121Y-91448961D01*
X96321429Y-91443976D01*
X96265496Y-91402104D01*
X96241080Y-91336640D01*
X96247723Y-91286840D01*
X96285366Y-91179262D01*
X96285369Y-91179249D01*
X96305565Y-91000003D01*
X96305565Y-90999996D01*
X96285369Y-90820750D01*
X96285368Y-90820745D01*
X96253004Y-90728255D01*
X96225789Y-90650478D01*
X96129816Y-90497738D01*
X96002262Y-90370184D01*
X95970934Y-90350499D01*
X95849523Y-90274211D01*
X95679254Y-90214631D01*
X95679249Y-90214630D01*
X95500004Y-90194435D01*
X95499996Y-90194435D01*
X95320750Y-90214630D01*
X95320745Y-90214631D01*
X95150476Y-90274211D01*
X94997736Y-90370185D01*
X94994903Y-90372445D01*
X94992724Y-90373334D01*
X94991842Y-90373889D01*
X94991744Y-90373734D01*
X94930217Y-90398855D01*
X94923070Y-90399219D01*
X94920942Y-90399500D01*
X94768215Y-90440423D01*
X94768214Y-90440423D01*
X94768212Y-90440424D01*
X94768209Y-90440425D01*
X94733066Y-90460716D01*
X94733064Y-90460717D01*
X94631290Y-90519475D01*
X94631282Y-90519481D01*
X94519478Y-90631286D01*
X94325708Y-90825055D01*
X94264385Y-90858540D01*
X94194693Y-90853556D01*
X94138760Y-90811684D01*
X94136452Y-90808497D01*
X94038496Y-90668600D01*
X93991489Y-90621593D01*
X93916567Y-90546671D01*
X93883084Y-90485351D01*
X93888068Y-90415659D01*
X93929939Y-90359725D01*
X93960915Y-90342810D01*
X94092331Y-90293796D01*
X94207546Y-90207546D01*
X94293796Y-90092331D01*
X94344091Y-89957483D01*
X94350500Y-89897873D01*
X94350499Y-88550095D01*
X94370184Y-88483057D01*
X94386813Y-88462420D01*
X95892416Y-86956819D01*
X95953739Y-86923334D01*
X95980097Y-86920500D01*
X100750033Y-86920500D01*
X100817072Y-86940185D01*
G37*
%TD.AperFunction*%
%TD*%
M02*
