M48
; DRILL file {KiCad 8.0.3} date 2024-08-29T14:55:14+0800
; FORMAT={-:-/ absolute / inch / decimal}
; #@! TF.CreationDate,2024-08-29T14:55:14+08:00
; #@! TF.GenerationSoftware,Kicad,Pcbnew,8.0.3
; #@! TF.FileFunction,Plated,1,2,PTH
FMAT,2
INCH
; #@! TA.AperFunction,Plated,PTH,ViaDrill
T1C0.0118
; #@! TA.AperFunction,Plated,PTH,ComponentDrill
T2C0.0291
; #@! TA.AperFunction,Plated,PTH,ComponentDrill
T3C0.0300
; #@! TA.AperFunction,Plated,PTH,ComponentDrill
T4C0.0394
%
G90
G05
T1
X3.7008Y-4.4882
X3.7598Y-3.5827
X3.7795Y-3.3071
X3.7795Y-4.5669
X3.8189Y-3.622
X4.0157Y-3.0709
X4.0157Y-3.2283
X4.0551Y-4.6598
X4.0945Y-4.5276
X4.1142Y-3.0709
X4.1142Y-3.2283
X4.1142Y-3.3465
X4.1142Y-3.4252
X4.1272Y-4.6598
X4.1929Y-4.5669
X4.1929Y-4.626
X4.2126Y-3.0709
X4.2126Y-3.2283
X4.2126Y-3.3465
X4.2126Y-3.4252
X4.2323Y-3.7402
X4.2323Y-3.7992
X4.2323Y-3.878
X4.2323Y-3.937
X4.2323Y-4.0354
X4.2323Y-4.1929
X4.2323Y-4.3307
X4.2323Y-4.5669
X4.2323Y-4.626
X4.2913Y-4.5669
X4.2913Y-4.626
X4.311Y-3.0709
X4.311Y-3.2283
X4.311Y-3.3465
X4.311Y-3.4252
X4.3307Y-4.3701
X4.3504Y-4.4685
X4.3504Y-4.5669
X4.3504Y-4.626
X4.3898Y-4.5669
X4.3898Y-4.626
X4.4094Y-3.0709
X4.4094Y-3.2283
X4.4094Y-3.3465
X4.4094Y-3.4252
X4.4291Y-4.3701
X4.4421Y-3.6362
X4.4488Y-4.4685
X4.4488Y-4.5669
X4.4488Y-4.626
X4.5079Y-3.0709
X4.5079Y-3.2283
X4.5079Y-3.3465
X4.5079Y-3.4252
X4.5276Y-4.5669
X4.5276Y-4.626
X4.5472Y-3.7205
X4.5472Y-3.878
X4.5472Y-3.9567
X4.5866Y-3.7205
X4.5866Y-3.878
X4.5866Y-3.9567
X4.5866Y-4.3307
X4.6063Y-3.0709
X4.6063Y-3.2283
X4.6063Y-3.3465
X4.6063Y-3.4252
X4.6063Y-4.5079
X4.6063Y-4.5669
X4.6063Y-4.626
X4.6154Y-4.4039
X4.7047Y-3.0709
X4.7047Y-3.2283
X4.7047Y-3.3465
X4.7047Y-3.4252
X4.7217Y-4.6598
X4.7638Y-4.7244
X4.7835Y-3.0709
X4.7835Y-3.2283
X4.7835Y-3.3465
X4.7835Y-3.4252
X4.7965Y-3.5575
X4.8031Y-4.4882
X4.8031Y-4.5472
X4.8031Y-4.6063
X4.8425Y-4.4882
X4.8425Y-4.5472
X4.8425Y-4.6063
X4.8425Y-4.7244
X4.8622Y-3.0709
X4.8622Y-3.2283
X4.8622Y-3.4055
X4.8622Y-3.4646
X4.8622Y-3.5827
X4.8622Y-3.622
X4.8622Y-3.7205
X4.8622Y-3.7598
X4.8622Y-3.7992
X4.8622Y-3.8583
X4.8622Y-3.8976
X4.8622Y-3.9567
X4.8622Y-4.0157
X4.8622Y-4.0945
X4.8622Y-4.1732
X4.8622Y-4.2323
X4.8752Y-4.4039
X4.9016Y-3.4055
X4.9016Y-3.4646
X4.9016Y-3.5827
X4.9016Y-3.622
X4.9016Y-4.6063
X4.9146Y-3.3409
X4.9213Y-4.7244
X4.9343Y-4.4039
X4.9409Y-4.0354
X4.9409Y-4.0945
X4.9409Y-4.1732
X4.9409Y-4.2323
X4.9606Y-4.4252
X4.9606Y-4.4724
X4.9803Y-3.4055
X4.9803Y-3.4646
X4.9803Y-3.5827
X4.9803Y-3.622
X4.9803Y-3.7402
X4.9803Y-3.7992
X4.9803Y-3.878
X4.9803Y-3.937
X4.9803Y-4.0945
X4.9803Y-4.1732
X5.0197Y-3.4055
X5.0197Y-3.4646
X5.0197Y-3.5236
X5.0236Y-4.2165
X5.0327Y-4.5181
X5.0394Y-4.0945
X5.0394Y-4.1339
X5.0394Y-4.4094
X5.0591Y-4.2323
X5.0591Y-4.2717
X5.0591Y-4.311
X5.072Y-3.3409
X5.072Y-4.5417
X5.076Y-4.778
X5.076Y-4.8173
X5.0787Y-4.626
X5.0917Y-4.2858
X5.1181Y-3.5827
X5.1181Y-3.622
X5.1508Y-3.9709
X5.1508Y-4.463
X5.1575Y-3.5827
X5.1575Y-3.622
X5.1902Y-4.3843
X5.1902Y-4.8961
X5.1969Y-3.5827
X5.1969Y-3.622
X5.2323Y-4.7047
X5.2795Y-4.1874
X5.2795Y-4.4094
X5.2795Y-4.6795
X5.2886Y-3.8921
X5.2886Y-4.3055
X5.2886Y-4.5811
X5.378Y-3.6205
X5.4067Y-4.5417
X5.4094Y-3.5039
X5.4115Y-4.8
X5.4264Y-4.2858
X5.4292Y-4.774
X5.4461Y-4.0299
X5.4528Y-4.5472
X5.4528Y-4.6654
X5.4724Y-4.7441
X5.5259Y-4.4494
X5.5315Y-4.7441
X5.5709Y-3.4449
X5.6299Y-3.6811
X5.6299Y-4.4094
X5.6299Y-4.5079
X5.6299Y-4.6063
X5.6496Y-3.5827
X5.7087Y-3.5827
X5.7087Y-3.6811
X5.7087Y-4.4094
X5.7087Y-4.5079
X5.7087Y-4.6063
X5.748Y-3.4646
X5.748Y-3.563
X5.8071Y-3.5827
X5.8071Y-3.6811
X5.8268Y-4.4094
X5.8268Y-4.5079
X5.8268Y-4.6063
X5.8661Y-3.4646
X5.8661Y-3.563
X5.9055Y-3.5827
X5.9055Y-3.6811
X5.9055Y-4.4094
X5.9055Y-4.5079
X5.9055Y-4.6063
X5.9646Y-3.4646
X5.9646Y-3.563
X6.0433Y-3.5827
X6.0433Y-3.6811
X6.0433Y-4.4094
X6.0433Y-4.5079
X6.0433Y-4.6063
X6.122Y-3.4646
X6.122Y-3.563
X6.122Y-4.4094
X6.122Y-4.5079
X6.122Y-4.6063
X6.1811Y-3.5827
X6.1811Y-3.6811
X6.2598Y-3.4646
X6.2598Y-3.563
X6.2795Y-4.4094
X6.2795Y-4.5079
X6.2795Y-4.6063
X6.3386Y-3.5827
X6.3386Y-3.622
X6.3583Y-4.4094
X6.3583Y-4.5079
X6.3583Y-4.6063
X6.378Y-3.7992
X6.4567Y-3.4646
X6.4567Y-3.563
X6.4567Y-3.622
X6.4961Y-4.4094
X6.4961Y-4.5079
X6.4961Y-4.6063
X6.5307Y-3.4205
X6.5551Y-3.563
X6.5551Y-3.622
X6.5748Y-4.4094
X6.5748Y-4.5079
X6.5748Y-4.6063
X6.6929Y-4.4094
X6.6929Y-4.5079
X6.6929Y-4.6063
X6.7717Y-4.4094
X6.7717Y-4.5079
X6.7717Y-4.6063
X6.9094Y-4.4094
X6.9094Y-4.5079
X6.9094Y-4.6063
X6.9882Y-4.4094
X6.9882Y-4.5079
X6.9882Y-4.6063
X7.0866Y-4.4094
X7.0866Y-4.5079
X7.0866Y-4.6063
X7.1654Y-4.4094
X7.1654Y-4.5079
X7.1654Y-4.6063
X7.2638Y-4.4094
X7.2638Y-4.5079
X7.2638Y-4.6063
X7.3425Y-4.4094
X7.3425Y-4.5079
X7.3425Y-4.6063
T2
X4.0079Y-3.3984
X4.0079Y-3.4984
X4.0079Y-3.5984
X5.2756Y-3.248
X5.2756Y-3.348
X5.2756Y-3.448
X5.2756Y-3.548
X5.2756Y-3.648
X5.2756Y-3.748
T3
X6.0213Y-3.0827
X6.0213Y-4.0827
X6.1213Y-3.0827
X6.1213Y-4.0827
X6.2213Y-3.0827
X6.2213Y-4.0827
X6.3213Y-3.0827
X6.3213Y-4.0827
X6.4213Y-3.0827
X6.4213Y-4.0827
X6.5213Y-3.0827
X6.5213Y-4.0827
X6.6213Y-3.0827
X6.6213Y-4.0827
X6.7213Y-3.0827
X6.7213Y-4.0827
X6.8213Y-3.0827
X6.8213Y-4.0827
X6.9213Y-3.0827
X6.9213Y-4.0827
X7.0213Y-3.0827
X7.0213Y-4.0827
X7.1213Y-3.0827
X7.1213Y-4.0827
X7.2213Y-3.0827
X7.2213Y-4.0827
X7.3213Y-3.0827
X7.3213Y-4.0827
X7.4213Y-3.0827
X7.4213Y-4.0827
T4
X3.6614Y-3.5039
X3.6614Y-3.6039
X3.6614Y-3.7039
X3.6614Y-3.8039
M30
