%TF.GenerationSoftware,KiCad,Pcbnew,8.0.3*%
%TF.CreationDate,2024-08-29T14:55:06+08:00*%
%TF.ProjectId,Full_withESP,46756c6c-5f77-4697-9468-4553502e6b69,rev?*%
%TF.SameCoordinates,Original*%
%TF.FileFunction,Soldermask,Top*%
%TF.FilePolarity,Negative*%
%FSLAX46Y46*%
G04 Gerber Fmt 4.6, Leading zero omitted, Abs format (unit mm)*
G04 Created by KiCad (PCBNEW 8.0.3) date 2024-08-29 14:55:06*
%MOMM*%
%LPD*%
G01*
G04 APERTURE LIST*
%ADD10R,0.889000X1.473200*%
%ADD11R,3.149600X1.473200*%
%ADD12C,1.300000*%
%ADD13R,1.524000X1.524000*%
%ADD14C,1.524000*%
%ADD15C,1.000000*%
%ADD16R,1.981200X0.558800*%
%ADD17R,1.700000X1.700000*%
%ADD18O,1.700000X1.700000*%
G04 APERTURE END LIST*
D10*
%TO.C,U1*%
X98311400Y-117762004D03*
X96000000Y-117762004D03*
X93688600Y-117762004D03*
D11*
X96000000Y-124000000D03*
%TD*%
D12*
%TO.C,U2*%
X101800000Y-91400000D03*
X101800000Y-88860000D03*
X101800000Y-86320000D03*
X134000000Y-82500000D03*
X134000000Y-85040000D03*
X134000000Y-87580000D03*
X134000000Y-90120000D03*
X134000000Y-92660000D03*
X134000000Y-95200000D03*
%TD*%
D13*
%TO.C,U5*%
X152940000Y-103700000D03*
D14*
X155480000Y-103700000D03*
X158020000Y-103700000D03*
X160560000Y-103700000D03*
X163100000Y-103700000D03*
X165640000Y-103700000D03*
X168180000Y-103700000D03*
X170720000Y-103700000D03*
X173260000Y-103700000D03*
X175800000Y-103700000D03*
X178340000Y-103700000D03*
X180880000Y-103700000D03*
X183420000Y-103700000D03*
X185960000Y-103700000D03*
X188500000Y-103700000D03*
X152940000Y-78300000D03*
X155480000Y-78300000D03*
X158020000Y-78300000D03*
X160560000Y-78300000D03*
X163100000Y-78300000D03*
X165640000Y-78300000D03*
X168180000Y-78300000D03*
X170720000Y-78300000D03*
X173260000Y-78300000D03*
X175800000Y-78300000D03*
X178340000Y-78300000D03*
X180880000Y-78300000D03*
X183420000Y-78300000D03*
X185960000Y-78300000D03*
X188500000Y-78300000D03*
%TD*%
D15*
%TO.C,TP1*%
X109500000Y-121000000D03*
%TD*%
D16*
%TO.C,U4*%
X131036200Y-115240000D03*
X131036200Y-116510000D03*
X131036200Y-117780000D03*
X131036200Y-119050000D03*
X131036200Y-120320000D03*
X131036200Y-121590000D03*
X131036200Y-122860000D03*
X135963800Y-122860000D03*
X135963800Y-121590000D03*
X135963800Y-120320000D03*
X135963800Y-119050000D03*
X135963800Y-117780000D03*
X135963800Y-116510000D03*
X135963800Y-115240000D03*
%TD*%
D17*
%TO.C,J1*%
X93000000Y-89000000D03*
D18*
X93000000Y-91540000D03*
X93000000Y-94080000D03*
X93000000Y-96620000D03*
%TD*%
D16*
%TO.C,U3*%
X131036200Y-102690000D03*
X131036200Y-103960000D03*
X131036200Y-105230000D03*
X131036200Y-106500000D03*
X131036200Y-107770000D03*
X131036200Y-109040000D03*
X131036200Y-110310000D03*
X135963800Y-110310000D03*
X135963800Y-109040000D03*
X135963800Y-107770000D03*
X135963800Y-106500000D03*
X135963800Y-105230000D03*
X135963800Y-103960000D03*
X135963800Y-102690000D03*
%TD*%
M02*
