%TF.GenerationSoftware,KiCad,Pcbnew,8.0.3*%
%TF.CreationDate,2024-08-29T14:55:06+08:00*%
%TF.ProjectId,Full_withESP,46756c6c-5f77-4697-9468-4553502e6b69,rev?*%
%TF.SameCoordinates,Original*%
%TF.FileFunction,Copper,L2,Bot*%
%TF.FilePolarity,Positive*%
%FSLAX46Y46*%
G04 Gerber Fmt 4.6, Leading zero omitted, Abs format (unit mm)*
G04 Created by KiCad (PCBNEW 8.0.3) date 2024-08-29 14:55:06*
%MOMM*%
%LPD*%
G01*
G04 APERTURE LIST*
G04 Aperture macros list*
%AMRoundRect*
0 Rectangle with rounded corners*
0 $1 Rounding radius*
0 $2 $3 $4 $5 $6 $7 $8 $9 X,Y pos of 4 corners*
0 Add a 4 corners polygon primitive as box body*
4,1,4,$2,$3,$4,$5,$6,$7,$8,$9,$2,$3,0*
0 Add four circle primitives for the rounded corners*
1,1,$1+$1,$2,$3*
1,1,$1+$1,$4,$5*
1,1,$1+$1,$6,$7*
1,1,$1+$1,$8,$9*
0 Add four rect primitives between the rounded corners*
20,1,$1+$1,$2,$3,$4,$5,0*
20,1,$1+$1,$4,$5,$6,$7,0*
20,1,$1+$1,$6,$7,$8,$9,0*
20,1,$1+$1,$8,$9,$2,$3,0*%
G04 Aperture macros list end*
%TA.AperFunction,ComponentPad*%
%ADD10C,1.300000*%
%TD*%
%TA.AperFunction,ComponentPad*%
%ADD11R,1.524000X1.524000*%
%TD*%
%TA.AperFunction,ComponentPad*%
%ADD12C,1.524000*%
%TD*%
%TA.AperFunction,ComponentPad*%
%ADD13R,1.700000X1.700000*%
%TD*%
%TA.AperFunction,ComponentPad*%
%ADD14O,1.700000X1.700000*%
%TD*%
%TA.AperFunction,SMDPad,CuDef*%
%ADD15RoundRect,0.140000X-0.170000X0.140000X-0.170000X-0.140000X0.170000X-0.140000X0.170000X0.140000X0*%
%TD*%
%TA.AperFunction,SMDPad,CuDef*%
%ADD16RoundRect,0.135000X-0.135000X-0.185000X0.135000X-0.185000X0.135000X0.185000X-0.135000X0.185000X0*%
%TD*%
%TA.AperFunction,SMDPad,CuDef*%
%ADD17RoundRect,0.135000X0.185000X-0.135000X0.185000X0.135000X-0.185000X0.135000X-0.185000X-0.135000X0*%
%TD*%
%TA.AperFunction,SMDPad,CuDef*%
%ADD18RoundRect,0.140000X0.140000X0.170000X-0.140000X0.170000X-0.140000X-0.170000X0.140000X-0.170000X0*%
%TD*%
%TA.AperFunction,SMDPad,CuDef*%
%ADD19RoundRect,0.140000X-0.140000X-0.170000X0.140000X-0.170000X0.140000X0.170000X-0.140000X0.170000X0*%
%TD*%
%TA.AperFunction,SMDPad,CuDef*%
%ADD20RoundRect,0.135000X0.135000X0.185000X-0.135000X0.185000X-0.135000X-0.185000X0.135000X-0.185000X0*%
%TD*%
%TA.AperFunction,SMDPad,CuDef*%
%ADD21RoundRect,0.135000X-0.185000X0.135000X-0.185000X-0.135000X0.185000X-0.135000X0.185000X0.135000X0*%
%TD*%
%TA.AperFunction,ViaPad*%
%ADD22C,0.600000*%
%TD*%
%TA.AperFunction,Conductor*%
%ADD23C,0.200000*%
%TD*%
G04 APERTURE END LIST*
D10*
%TO.P,U2,X1\u002C1,VCC*%
%TO.N,5v*%
X101800000Y-91400000D03*
%TO.P,U2,X1\u002C2,GND*%
%TO.N,GND*%
X101800000Y-88860000D03*
%TO.P,U2,X1\u002C3,fDiv_out*%
%TO.N,Net-(J1-Pin_1)*%
X101800000Y-86320000D03*
%TO.P,U2,X2\u002C1,Out_I1*%
%TO.N,Net-(U2-Out_I1)*%
X134000000Y-82500000D03*
%TO.P,U2,X2\u002C2,Out_Q1*%
%TO.N,Net-(U2-Out_Q1)*%
X134000000Y-85040000D03*
%TO.P,U2,X2\u002C3,GND*%
%TO.N,GND*%
X134000000Y-87580000D03*
%TO.P,U2,X2\u002C4,Out_Q2*%
%TO.N,Net-(U2-Out_Q2)*%
X134000000Y-90120000D03*
%TO.P,U2,X2\u002C5,Out_I2*%
%TO.N,Net-(U2-Out_I2)*%
X134000000Y-92660000D03*
%TO.P,U2,X2\u002C6,VCO_In*%
%TO.N,Net-(J1-Pin_2)*%
X134000000Y-95200000D03*
%TD*%
D11*
%TO.P,U5,1,EN*%
%TO.N,unconnected-(U5-EN-Pad1)*%
X152940000Y-103700000D03*
D12*
%TO.P,U5,2,VP*%
%TO.N,unconnected-(U5-VP-Pad2)*%
X155480000Y-103700000D03*
%TO.P,U5,3,VN*%
%TO.N,unconnected-(U5-VN-Pad3)*%
X158020000Y-103700000D03*
%TO.P,U5,4,D34*%
%TO.N,Net-(U5-D34)*%
X160560000Y-103700000D03*
%TO.P,U5,5,D35*%
%TO.N,Net-(U5-D35)*%
X163100000Y-103700000D03*
%TO.P,U5,6,D32*%
%TO.N,Net-(U5-D32)*%
X165640000Y-103700000D03*
%TO.P,U5,7,D33*%
%TO.N,Net-(U5-D33)*%
X168180000Y-103700000D03*
%TO.P,U5,8,D25*%
%TO.N,unconnected-(U5-D25-Pad8)*%
X170720000Y-103700000D03*
%TO.P,U5,9,D26*%
%TO.N,unconnected-(U5-D26-Pad9)*%
X173260000Y-103700000D03*
%TO.P,U5,10,D27*%
%TO.N,unconnected-(U5-D27-Pad10)*%
X175800000Y-103700000D03*
%TO.P,U5,11,D14*%
%TO.N,unconnected-(U5-D14-Pad11)*%
X178340000Y-103700000D03*
%TO.P,U5,12,D12*%
%TO.N,unconnected-(U5-D12-Pad12)*%
X180880000Y-103700000D03*
%TO.P,U5,13,D13*%
%TO.N,unconnected-(U5-D13-Pad13)*%
X183420000Y-103700000D03*
%TO.P,U5,14,GND*%
%TO.N,GND*%
X185960000Y-103700000D03*
%TO.P,U5,15,VIN*%
%TO.N,5v*%
X188500000Y-103700000D03*
%TO.P,U5,16,D23*%
%TO.N,unconnected-(U5-D23-Pad16)*%
X152940000Y-78300000D03*
%TO.P,U5,17,D22*%
%TO.N,unconnected-(U5-D22-Pad17)*%
X155480000Y-78300000D03*
%TO.P,U5,18,TX0*%
%TO.N,unconnected-(U5-TX0-Pad18)*%
X158020000Y-78300000D03*
%TO.P,U5,19,RX0*%
%TO.N,unconnected-(U5-RX0-Pad19)*%
X160560000Y-78300000D03*
%TO.P,U5,20,D21*%
%TO.N,unconnected-(U5-D21-Pad20)*%
X163100000Y-78300000D03*
%TO.P,U5,21,D19*%
%TO.N,unconnected-(U5-D19-Pad21)*%
X165640000Y-78300000D03*
%TO.P,U5,22,D18*%
%TO.N,unconnected-(U5-D18-Pad22)*%
X168180000Y-78300000D03*
%TO.P,U5,23,D5*%
%TO.N,unconnected-(U5-D5-Pad23)*%
X170720000Y-78300000D03*
%TO.P,U5,24,TX2*%
%TO.N,unconnected-(U5-TX2-Pad24)*%
X173260000Y-78300000D03*
%TO.P,U5,25,RX2*%
%TO.N,unconnected-(U5-RX2-Pad25)*%
X175800000Y-78300000D03*
%TO.P,U5,26,D4*%
%TO.N,unconnected-(U5-D4-Pad26)*%
X178340000Y-78300000D03*
%TO.P,U5,27,D2*%
%TO.N,unconnected-(U5-D2-Pad27)*%
X180880000Y-78300000D03*
%TO.P,U5,28,D15*%
%TO.N,unconnected-(U5-D15-Pad28)*%
X183420000Y-78300000D03*
%TO.P,U5,29,GND*%
%TO.N,unconnected-(U5-GND-Pad29)*%
X185960000Y-78300000D03*
%TO.P,U5,30,3V3*%
%TO.N,unconnected-(U5-3V3-Pad30)*%
X188500000Y-78300000D03*
%TD*%
D13*
%TO.P,J1,1,Pin_1*%
%TO.N,Net-(J1-Pin_1)*%
X93000000Y-89000000D03*
D14*
%TO.P,J1,2,Pin_2*%
%TO.N,Net-(J1-Pin_2)*%
X93000000Y-91540000D03*
%TO.P,J1,3,Pin_3*%
%TO.N,GND*%
X93000000Y-94080000D03*
%TO.P,J1,4,Pin_4*%
%TO.N,Net-(J1-Pin_4)*%
X93000000Y-96620000D03*
%TD*%
D15*
%TO.P,C2,1*%
%TO.N,5v*%
X97500000Y-114540000D03*
%TO.P,C2,2*%
%TO.N,GND*%
X97500000Y-115500000D03*
%TD*%
D16*
%TO.P,R12,1*%
%TO.N,Net-(U3-INC-)*%
X138310000Y-110110000D03*
%TO.P,R12,2*%
%TO.N,Net-(U3-OUTC)*%
X139330000Y-110110000D03*
%TD*%
D17*
%TO.P,R19,1*%
%TO.N,Net-(U4-OUTC)*%
X140500000Y-119020000D03*
%TO.P,R19,2*%
%TO.N,Net-(U5-D34)*%
X140500000Y-118000000D03*
%TD*%
D16*
%TO.P,R16,1*%
%TO.N,Net-(C17-Pad2)*%
X134775000Y-124360000D03*
%TO.P,R16,2*%
%TO.N,Net-(U4-INC-)*%
X135795000Y-124360000D03*
%TD*%
D15*
%TO.P,C1,1*%
%TO.N,Net-(J1-Pin_4)*%
X95000000Y-114540000D03*
%TO.P,C1,2*%
%TO.N,GND*%
X95000000Y-115500000D03*
%TD*%
D16*
%TO.P,R15,1*%
%TO.N,Net-(C16-Pad2)*%
X134260000Y-113360000D03*
%TO.P,R15,2*%
%TO.N,Net-(U4-IND-)*%
X135280000Y-113360000D03*
%TD*%
D18*
%TO.P,C9,1*%
%TO.N,Net-(U3-INB-)*%
X123810000Y-83360000D03*
%TO.P,C9,2*%
%TO.N,Net-(U3-OUTB)*%
X122850000Y-83360000D03*
%TD*%
D19*
%TO.P,C13,1*%
%TO.N,Net-(U3-INC-)*%
X138370000Y-111610000D03*
%TO.P,C13,2*%
%TO.N,Net-(U3-OUTC)*%
X139330000Y-111610000D03*
%TD*%
D16*
%TO.P,R9,1*%
%TO.N,Net-(C10-Pad2)*%
X133360000Y-99860000D03*
%TO.P,R9,2*%
%TO.N,Net-(U3-IND-)*%
X134380000Y-99860000D03*
%TD*%
D20*
%TO.P,R7,1*%
%TO.N,Net-(U3-INA-)*%
X126560000Y-82500000D03*
%TO.P,R7,2*%
%TO.N,Net-(U3-OUTA)*%
X125540000Y-82500000D03*
%TD*%
D19*
%TO.P,C19,1*%
%TO.N,Net-(U4-INC-)*%
X138370000Y-124110000D03*
%TO.P,C19,2*%
%TO.N,Net-(U4-OUTC)*%
X139330000Y-124110000D03*
%TD*%
%TO.P,C17,1*%
%TO.N,Net-(U4-OUTB)*%
X132825000Y-124360000D03*
%TO.P,C17,2*%
%TO.N,Net-(C17-Pad2)*%
X133785000Y-124360000D03*
%TD*%
D18*
%TO.P,C5,1*%
%TO.N,Net-(U2-Out_Q1)*%
X132300000Y-84860000D03*
%TO.P,C5,2*%
%TO.N,Net-(C5-Pad2)*%
X131340000Y-84860000D03*
%TD*%
D19*
%TO.P,C12,1*%
%TO.N,Net-(U3-OUTB)*%
X132850000Y-110360000D03*
%TO.P,C12,2*%
%TO.N,Net-(C12-Pad2)*%
X133810000Y-110360000D03*
%TD*%
D16*
%TO.P,R17,1*%
%TO.N,Net-(U4-IND-)*%
X136320000Y-112420000D03*
%TO.P,R17,2*%
%TO.N,Net-(U4-OUTD)*%
X137340000Y-112420000D03*
%TD*%
D17*
%TO.P,R20,1*%
%TO.N,Net-(U4-OUTD)*%
X140500000Y-109500000D03*
%TO.P,R20,2*%
%TO.N,Net-(U5-D35)*%
X140500000Y-108480000D03*
%TD*%
D19*
%TO.P,C18,1*%
%TO.N,Net-(U4-IND-)*%
X136380000Y-113470000D03*
%TO.P,C18,2*%
%TO.N,Net-(U4-OUTD)*%
X137340000Y-113470000D03*
%TD*%
D21*
%TO.P,R1,1*%
%TO.N,5v*%
X101000000Y-112990000D03*
%TO.P,R1,2*%
%TO.N,/2.5v*%
X101000000Y-114010000D03*
%TD*%
D20*
%TO.P,R8,1*%
%TO.N,Net-(U3-INB-)*%
X123840000Y-84860000D03*
%TO.P,R8,2*%
%TO.N,Net-(U3-OUTB)*%
X122820000Y-84860000D03*
%TD*%
D16*
%TO.P,R10,1*%
%TO.N,Net-(U3-IND-)*%
X135330000Y-99860000D03*
%TO.P,R10,2*%
%TO.N,Net-(U3-OUTD)*%
X136350000Y-99860000D03*
%TD*%
D18*
%TO.P,C6,1*%
%TO.N,Net-(U2-Out_I2)*%
X111280000Y-92360000D03*
%TO.P,C6,2*%
%TO.N,Net-(C6-Pad2)*%
X110320000Y-92360000D03*
%TD*%
%TO.P,C15,1*%
%TO.N,Net-(U4-INB-)*%
X115780000Y-88860000D03*
%TO.P,C15,2*%
%TO.N,Net-(U4-OUTB)*%
X114820000Y-88860000D03*
%TD*%
D20*
%TO.P,R5,1*%
%TO.N,Net-(C6-Pad2)*%
X109340000Y-92360000D03*
%TO.P,R5,2*%
%TO.N,Net-(U4-INA-)*%
X108320000Y-92360000D03*
%TD*%
D19*
%TO.P,C11,1*%
%TO.N,Net-(U3-IND-)*%
X135370000Y-97360000D03*
%TO.P,C11,2*%
%TO.N,Net-(U3-OUTD)*%
X136330000Y-97360000D03*
%TD*%
D18*
%TO.P,C14,1*%
%TO.N,Net-(U4-INA-)*%
X107330000Y-90920000D03*
%TO.P,C14,2*%
%TO.N,Net-(U4-OUTA)*%
X106370000Y-90920000D03*
%TD*%
D20*
%TO.P,R3,1*%
%TO.N,Net-(C4-Pad2)*%
X129240000Y-82500000D03*
%TO.P,R3,2*%
%TO.N,Net-(U3-INA-)*%
X128220000Y-82500000D03*
%TD*%
D16*
%TO.P,R11,1*%
%TO.N,Net-(C12-Pad2)*%
X135320000Y-110360000D03*
%TO.P,R11,2*%
%TO.N,Net-(U3-INC-)*%
X136340000Y-110360000D03*
%TD*%
D18*
%TO.P,C8,1*%
%TO.N,Net-(U3-INA-)*%
X126500000Y-81000000D03*
%TO.P,C8,2*%
%TO.N,Net-(U3-OUTA)*%
X125540000Y-81000000D03*
%TD*%
D16*
%TO.P,R18,1*%
%TO.N,Net-(U4-INC-)*%
X138310000Y-122610000D03*
%TO.P,R18,2*%
%TO.N,Net-(U4-OUTC)*%
X139330000Y-122610000D03*
%TD*%
D20*
%TO.P,R4,1*%
%TO.N,Net-(C5-Pad2)*%
X130320000Y-84860000D03*
%TO.P,R4,2*%
%TO.N,Net-(U3-INB-)*%
X129300000Y-84860000D03*
%TD*%
D21*
%TO.P,R22,1*%
%TO.N,Net-(U3-OUTC)*%
X140330000Y-114480000D03*
%TO.P,R22,2*%
%TO.N,Net-(U5-D33)*%
X140330000Y-115500000D03*
%TD*%
D19*
%TO.P,C10,1*%
%TO.N,Net-(U3-OUTA)*%
X130870000Y-99860000D03*
%TO.P,C10,2*%
%TO.N,Net-(C10-Pad2)*%
X131830000Y-99860000D03*
%TD*%
D20*
%TO.P,R6,1*%
%TO.N,Net-(C7-Pad2)*%
X118330000Y-90360000D03*
%TO.P,R6,2*%
%TO.N,Net-(U4-INB-)*%
X117310000Y-90360000D03*
%TD*%
D18*
%TO.P,C7,1*%
%TO.N,Net-(U2-Out_Q2)*%
X120770000Y-90360000D03*
%TO.P,C7,2*%
%TO.N,Net-(C7-Pad2)*%
X119810000Y-90360000D03*
%TD*%
D20*
%TO.P,R14,1*%
%TO.N,Net-(U4-INB-)*%
X115840000Y-90360000D03*
%TO.P,R14,2*%
%TO.N,Net-(U4-OUTB)*%
X114820000Y-90360000D03*
%TD*%
D17*
%TO.P,R21,1*%
%TO.N,Net-(U3-OUTD)*%
X139500000Y-98020000D03*
%TO.P,R21,2*%
%TO.N,Net-(U5-D32)*%
X139500000Y-97000000D03*
%TD*%
D20*
%TO.P,R13,1*%
%TO.N,Net-(U4-INA-)*%
X107390000Y-92420000D03*
%TO.P,R13,2*%
%TO.N,Net-(U4-OUTA)*%
X106370000Y-92420000D03*
%TD*%
D19*
%TO.P,C16,1*%
%TO.N,Net-(U4-OUTA)*%
X132320000Y-113360000D03*
%TO.P,C16,2*%
%TO.N,Net-(C16-Pad2)*%
X133280000Y-113360000D03*
%TD*%
D18*
%TO.P,C4,1*%
%TO.N,Net-(U2-Out_I1)*%
X131720000Y-82500000D03*
%TO.P,C4,2*%
%TO.N,Net-(C4-Pad2)*%
X130760000Y-82500000D03*
%TD*%
D15*
%TO.P,C3,1*%
%TO.N,/2.5v*%
X99500000Y-114520000D03*
%TO.P,C3,2*%
%TO.N,GND*%
X99500000Y-115480000D03*
%TD*%
D21*
%TO.P,R2,1*%
%TO.N,/2.5v*%
X101000000Y-116000000D03*
%TO.P,R2,2*%
%TO.N,GND*%
X101000000Y-117020000D03*
%TD*%
D22*
%TO.N,GND*%
X164000000Y-90500000D03*
X155500000Y-114500000D03*
X123500000Y-78000000D03*
X107500000Y-100000000D03*
X124500000Y-117000000D03*
X145000000Y-117000000D03*
X123500000Y-104000000D03*
X126500000Y-106000000D03*
X170000000Y-117000000D03*
X119500000Y-78000000D03*
X119500000Y-87000000D03*
X125500000Y-106000000D03*
X123500000Y-91000000D03*
X127500000Y-86500000D03*
X104830000Y-118360000D03*
X159000000Y-88000000D03*
X107000000Y-87000000D03*
X180000000Y-112000000D03*
X161000000Y-91000000D03*
X143000000Y-117000000D03*
X159500000Y-114500000D03*
X102000000Y-78000000D03*
X186500000Y-114500000D03*
X111500000Y-117500000D03*
X113000000Y-113500000D03*
X112000000Y-87000000D03*
X109500000Y-85000000D03*
X123500000Y-86500000D03*
X145000000Y-93500000D03*
X126500000Y-96500000D03*
X119500000Y-82000000D03*
X122000000Y-115500000D03*
X131000000Y-91000000D03*
X123500000Y-99000000D03*
X132000000Y-92000000D03*
X112000000Y-78000000D03*
X161500000Y-114500000D03*
X123500000Y-100500000D03*
X155500000Y-117000000D03*
X165000000Y-117000000D03*
X175500000Y-112000000D03*
X121500000Y-78000000D03*
X104500000Y-82000000D03*
X172000000Y-112000000D03*
X104500000Y-78000000D03*
X153500000Y-112000000D03*
X107500000Y-102500000D03*
X128500000Y-108500000D03*
X107000000Y-78000000D03*
X115500000Y-94500000D03*
X124500000Y-91000000D03*
X150000000Y-112000000D03*
X121000000Y-120000000D03*
X130000000Y-92000000D03*
X161500000Y-117000000D03*
X119500000Y-85000000D03*
X123500000Y-94500000D03*
X113000000Y-117500000D03*
X109500000Y-78000000D03*
X150000000Y-93500000D03*
X182000000Y-117000000D03*
X184500000Y-117000000D03*
X123500000Y-92000000D03*
X117000000Y-87000000D03*
X157000000Y-93500000D03*
X107500000Y-110000000D03*
X164000000Y-88000000D03*
X186500000Y-112000000D03*
X123000000Y-114000000D03*
X180000000Y-117000000D03*
X172000000Y-114500000D03*
X180000000Y-114500000D03*
X117000000Y-78000000D03*
X109000000Y-117500000D03*
X112000000Y-82000000D03*
X141500000Y-87500000D03*
X114500000Y-87000000D03*
X143000000Y-114500000D03*
X110500000Y-116000000D03*
X127500000Y-88000000D03*
X110500000Y-117500000D03*
X114500000Y-78000000D03*
X167000000Y-114500000D03*
X134100000Y-118860000D03*
X117000000Y-85000000D03*
X119930000Y-118360000D03*
X117000000Y-82000000D03*
X150000000Y-91000000D03*
X159500000Y-112000000D03*
X125000000Y-120000000D03*
X112000000Y-85000000D03*
X107500000Y-117500000D03*
X148000000Y-114500000D03*
X109500000Y-87000000D03*
X186500000Y-117000000D03*
X123500000Y-95500000D03*
X122000000Y-114000000D03*
X166500000Y-90500000D03*
X116500000Y-94500000D03*
X110000000Y-111000000D03*
X147500000Y-91000000D03*
X139000000Y-120500000D03*
X182000000Y-112000000D03*
X155500000Y-90500000D03*
X153500000Y-114500000D03*
X124500000Y-88000000D03*
X175500000Y-114500000D03*
X106500000Y-116000000D03*
X165000000Y-114500000D03*
X167000000Y-112000000D03*
X104500000Y-87000000D03*
X143500000Y-91000000D03*
X170000000Y-112000000D03*
X146000000Y-88000000D03*
X153500000Y-93500000D03*
X123000000Y-120000000D03*
X148000000Y-117000000D03*
X102000000Y-82000000D03*
X172000000Y-117000000D03*
X115500000Y-100500000D03*
X166500000Y-92000000D03*
X150000000Y-114500000D03*
X115000000Y-117500000D03*
X123500000Y-88000000D03*
X143000000Y-112000000D03*
X167000000Y-117000000D03*
X145000000Y-112000000D03*
X182000000Y-114500000D03*
X177500000Y-114500000D03*
X123500000Y-107500000D03*
X107500000Y-106500000D03*
X125500000Y-104000000D03*
X126500000Y-88000000D03*
X123500000Y-106000000D03*
X111500000Y-116000000D03*
X153500000Y-91000000D03*
X161500000Y-112000000D03*
X155500000Y-88000000D03*
X159000000Y-90500000D03*
X116500000Y-100500000D03*
X148000000Y-112000000D03*
X103000000Y-118360000D03*
X162000000Y-96500000D03*
X126500000Y-86500000D03*
X159500000Y-117000000D03*
X170000000Y-114500000D03*
X157000000Y-91000000D03*
X124500000Y-92000000D03*
X184500000Y-114500000D03*
X145000000Y-91000000D03*
X106500000Y-117500000D03*
X123500000Y-98000000D03*
X107500000Y-98500000D03*
X128000000Y-105000000D03*
X126500000Y-100000000D03*
X117000000Y-117500000D03*
X147500000Y-93500000D03*
X123000000Y-117000000D03*
X107500000Y-95000000D03*
X165000000Y-112000000D03*
X117000000Y-116000000D03*
X131000000Y-92000000D03*
X146000000Y-90500000D03*
X126500000Y-104000000D03*
X114500000Y-82000000D03*
X128500000Y-107500000D03*
X130000000Y-91000000D03*
X107500000Y-96500000D03*
X143000000Y-93500000D03*
X121500000Y-87000000D03*
X126500000Y-95000000D03*
X153500000Y-117000000D03*
X109000000Y-116000000D03*
X134100000Y-106360000D03*
X121500000Y-82000000D03*
X177500000Y-117000000D03*
X121500000Y-85000000D03*
X145000000Y-114500000D03*
X132000000Y-91000000D03*
X104500000Y-85000000D03*
X149000000Y-90500000D03*
X116500000Y-98500000D03*
X126500000Y-92000000D03*
X124500000Y-86500000D03*
X175500000Y-117000000D03*
X115000000Y-116000000D03*
X112500000Y-111000000D03*
X126500000Y-98500000D03*
X107000000Y-82000000D03*
X123500000Y-82000000D03*
X110500000Y-113500000D03*
X150000000Y-117000000D03*
X107000000Y-85000000D03*
X125500000Y-107500000D03*
X164000000Y-92000000D03*
X149000000Y-88000000D03*
X151500000Y-88000000D03*
X114500000Y-85000000D03*
X126500000Y-91000000D03*
X107500000Y-116000000D03*
X151500000Y-90500000D03*
X109500000Y-82000000D03*
X115500000Y-98500000D03*
X122000000Y-117000000D03*
X177500000Y-112000000D03*
X123000000Y-115500000D03*
X155500000Y-112000000D03*
X184500000Y-112000000D03*
X123500000Y-96500000D03*
X113000000Y-116000000D03*
X123500000Y-102000000D03*
%TO.N,5v*%
X96000000Y-116000000D03*
X138500000Y-118500000D03*
X117000000Y-114500000D03*
X97000000Y-92000000D03*
X129000000Y-117500000D03*
%TO.N,Net-(U2-Out_I2)*%
X112830000Y-92360000D03*
%TO.N,Net-(U2-Out_Q2)*%
X121830000Y-90360000D03*
%TO.N,Net-(U3-OUTA)*%
X130830000Y-100860000D03*
X125500000Y-102500000D03*
%TO.N,Net-(U3-INA-)*%
X128000000Y-104000000D03*
%TO.N,Net-(U3-INB-)*%
X128830000Y-84860000D03*
X124830000Y-84860000D03*
X129330000Y-108860000D03*
%TO.N,Net-(U3-OUTB)*%
X131830000Y-111360000D03*
X128500000Y-109500000D03*
%TO.N,Net-(U3-OUTD)*%
X138330000Y-102360000D03*
%TO.N,Net-(U3-IND-)*%
X134330000Y-98860000D03*
%TO.N,Net-(U3-INC-)*%
X137830000Y-108860000D03*
%TO.N,Net-(U3-OUTC)*%
X140356880Y-113013678D03*
X134330000Y-109360000D03*
%TO.N,Net-(U4-INA-)*%
X116500000Y-110000000D03*
X127830000Y-114760000D03*
X125330000Y-111860000D03*
%TO.N,Net-(U4-OUTA)*%
X130830000Y-113360000D03*
X123830000Y-111860000D03*
X128830000Y-115360000D03*
X117230000Y-111860000D03*
%TO.N,Net-(U4-OUTB)*%
X131830000Y-124360000D03*
X128930000Y-122360000D03*
%TO.N,Net-(U4-INB-)*%
X128930000Y-121360000D03*
%TO.N,Net-(U4-OUTD)*%
X137330000Y-115360000D03*
%TO.N,Net-(U4-IND-)*%
X134330000Y-116360000D03*
%TO.N,Net-(U4-INC-)*%
X137902008Y-121260000D03*
%TO.N,Net-(U4-OUTC)*%
X140500000Y-120500000D03*
X137451708Y-121921233D03*
%TO.N,/2.5v*%
X104000000Y-115000000D03*
%TO.N,Net-(J1-Pin_4)*%
X94000000Y-114000000D03*
%TO.N,Net-(J1-Pin_2)*%
X95500000Y-91000000D03*
X96000000Y-84000000D03*
%TO.N,Net-(U5-D34)*%
X161000000Y-92000000D03*
X126000000Y-113600000D03*
X126000000Y-112400000D03*
X136600000Y-91960000D03*
X132900000Y-119500000D03*
%TO.N,Net-(U5-D32)*%
X165880000Y-86880000D03*
%TO.N,Net-(U5-D33)*%
X127600000Y-107100000D03*
X127500000Y-89500000D03*
X137400000Y-89000000D03*
X128000000Y-112000000D03*
X134100000Y-112000000D03*
X138500000Y-115500000D03*
%TD*%
D23*
%TO.N,GND*%
X133730000Y-118490000D02*
X121330000Y-118490000D01*
X97500000Y-116500000D02*
X97500000Y-115500000D01*
X120060000Y-118490000D02*
X119930000Y-118360000D01*
X99500000Y-115520000D02*
X101000000Y-117020000D01*
X121330000Y-118490000D02*
X120060000Y-118490000D01*
X95000000Y-115848529D02*
X95751471Y-116600000D01*
X101000000Y-118000000D02*
X101360000Y-118360000D01*
X99500000Y-115480000D02*
X99500000Y-115520000D01*
X101000000Y-117020000D02*
X101000000Y-118000000D01*
X120830000Y-117990000D02*
X121330000Y-118490000D01*
X101360000Y-118360000D02*
X103000000Y-118360000D01*
X97400000Y-116600000D02*
X97500000Y-116500000D01*
X121370000Y-110960000D02*
X120830000Y-111500000D01*
X134100000Y-118860000D02*
X133730000Y-118490000D01*
X95000000Y-115500000D02*
X95000000Y-115848529D01*
X134100000Y-106360000D02*
X129500000Y-110960000D01*
X120830000Y-111500000D02*
X120830000Y-117990000D01*
X95751471Y-116600000D02*
X97400000Y-116600000D01*
X129500000Y-110960000D02*
X121370000Y-110960000D01*
X103000000Y-118360000D02*
X104830000Y-118360000D01*
%TO.N,5v*%
X96000000Y-114500000D02*
X95500000Y-114000000D01*
X96000000Y-114500000D02*
X97460000Y-114500000D01*
X106500000Y-114500000D02*
X117000000Y-114500000D01*
X99500000Y-113000000D02*
X105000000Y-113000000D01*
X138500000Y-118500000D02*
X137500000Y-117500000D01*
X97960000Y-114540000D02*
X99500000Y-113000000D01*
X96000000Y-116000000D02*
X96000000Y-114500000D01*
X105000000Y-113000000D02*
X106500000Y-114500000D01*
X97460000Y-114500000D02*
X97500000Y-114540000D01*
X97500000Y-114540000D02*
X97960000Y-114540000D01*
X95500000Y-114000000D02*
X95500000Y-92000000D01*
X137500000Y-117500000D02*
X129000000Y-117500000D01*
X95500000Y-92000000D02*
X97000000Y-92000000D01*
%TO.N,Net-(C4-Pad2)*%
X130760000Y-82500000D02*
X129240000Y-82500000D01*
%TO.N,Net-(U2-Out_I1)*%
X134000000Y-82500000D02*
X131720000Y-82500000D01*
%TO.N,Net-(C5-Pad2)*%
X131340000Y-84860000D02*
X130320000Y-84860000D01*
%TO.N,Net-(U2-Out_Q1)*%
X132480000Y-85040000D02*
X132300000Y-84860000D01*
X134000000Y-85040000D02*
X132480000Y-85040000D01*
%TO.N,Net-(U2-Out_I2)*%
X111280000Y-92360000D02*
X112830000Y-92360000D01*
%TO.N,Net-(C6-Pad2)*%
X110320000Y-92360000D02*
X109340000Y-92360000D01*
%TO.N,Net-(C7-Pad2)*%
X119810000Y-90360000D02*
X118330000Y-90360000D01*
%TO.N,Net-(U2-Out_Q2)*%
X121830000Y-90360000D02*
X120770000Y-90360000D01*
%TO.N,Net-(U3-OUTA)*%
X130830000Y-100860000D02*
X130830000Y-99900000D01*
X125540000Y-102460000D02*
X125500000Y-102500000D01*
X130830000Y-99900000D02*
X130870000Y-99860000D01*
X125540000Y-81000000D02*
X125540000Y-82500000D01*
X125540000Y-82500000D02*
X125540000Y-102460000D01*
%TO.N,Net-(U3-INA-)*%
X126500000Y-82440000D02*
X126560000Y-82500000D01*
X128220000Y-82500000D02*
X128220000Y-103780000D01*
X126560000Y-82500000D02*
X128220000Y-82500000D01*
X128220000Y-103780000D02*
X128000000Y-104000000D01*
X126500000Y-81000000D02*
X126500000Y-82440000D01*
%TO.N,Net-(U3-INB-)*%
X123810000Y-83360000D02*
X123810000Y-84830000D01*
X129300000Y-84860000D02*
X129300000Y-108830000D01*
X123810000Y-84830000D02*
X123840000Y-84860000D01*
X124830000Y-84860000D02*
X123840000Y-84860000D01*
X129300000Y-84860000D02*
X128830000Y-84860000D01*
X129300000Y-108830000D02*
X129330000Y-108860000D01*
%TO.N,Net-(U3-OUTB)*%
X132830000Y-111360000D02*
X132830000Y-110380000D01*
X122850000Y-83360000D02*
X122850000Y-84830000D01*
X128500000Y-109500000D02*
X123000000Y-109500000D01*
X122500000Y-109000000D02*
X122500000Y-85180000D01*
X132830000Y-110380000D02*
X132850000Y-110360000D01*
X122850000Y-84830000D02*
X122820000Y-84860000D01*
X122500000Y-85180000D02*
X122820000Y-84860000D01*
X123000000Y-109500000D02*
X122500000Y-109000000D01*
X131830000Y-111360000D02*
X132830000Y-111360000D01*
%TO.N,Net-(C10-Pad2)*%
X131830000Y-99860000D02*
X133360000Y-99860000D01*
%TO.N,Net-(U3-OUTD)*%
X136350000Y-97380000D02*
X136330000Y-97360000D01*
X139930000Y-101360000D02*
X139500000Y-100930000D01*
X138330000Y-101360000D02*
X138330000Y-102360000D01*
X138330000Y-101360000D02*
X139930000Y-101360000D01*
X136350000Y-99860000D02*
X136350000Y-97380000D01*
X136350000Y-99860000D02*
X138330000Y-99860000D01*
X138330000Y-99860000D02*
X138330000Y-101360000D01*
X139500000Y-100930000D02*
X139500000Y-98020000D01*
%TO.N,Net-(U3-IND-)*%
X134380000Y-99860000D02*
X134380000Y-98910000D01*
X135330000Y-99860000D02*
X135330000Y-97400000D01*
X134380000Y-99860000D02*
X135330000Y-99860000D01*
X134380000Y-98910000D02*
X134330000Y-98860000D01*
X135330000Y-97400000D02*
X135370000Y-97360000D01*
%TO.N,Net-(C12-Pad2)*%
X133810000Y-110360000D02*
X135320000Y-110360000D01*
%TO.N,Net-(U3-INC-)*%
X136340000Y-110360000D02*
X138060000Y-110360000D01*
X136340000Y-110360000D02*
X137830000Y-108870000D01*
X138060000Y-110360000D02*
X138310000Y-110110000D01*
X137830000Y-108870000D02*
X137830000Y-108860000D01*
X138310000Y-111550000D02*
X138370000Y-111610000D01*
X138310000Y-110110000D02*
X138310000Y-111550000D01*
%TO.N,Net-(U3-OUTC)*%
X140356880Y-114453120D02*
X140330000Y-114480000D01*
X139330000Y-108360000D02*
X139330000Y-110110000D01*
X134330000Y-108360000D02*
X134330000Y-109360000D01*
X140356880Y-113013678D02*
X140356880Y-114453120D01*
X134430000Y-108260000D02*
X134330000Y-108360000D01*
X139330000Y-111610000D02*
X139330000Y-110110000D01*
X139230000Y-108260000D02*
X134430000Y-108260000D01*
X139230000Y-108260000D02*
X139330000Y-108360000D01*
%TO.N,Net-(U4-INA-)*%
X108320000Y-109500000D02*
X108320000Y-92360000D01*
X125330000Y-113860000D02*
X125830000Y-114360000D01*
X107450000Y-92360000D02*
X107390000Y-92420000D01*
X116500000Y-110000000D02*
X108820000Y-110000000D01*
X108320000Y-92360000D02*
X107450000Y-92360000D01*
X127830000Y-114360000D02*
X127830000Y-114760000D01*
X107330000Y-92360000D02*
X107390000Y-92420000D01*
X125830000Y-114360000D02*
X127830000Y-114360000D01*
X107330000Y-90920000D02*
X107330000Y-92360000D01*
X125330000Y-111860000D02*
X125330000Y-113860000D01*
X108820000Y-110000000D02*
X108320000Y-109500000D01*
%TO.N,Net-(U4-OUTA)*%
X123830000Y-115360000D02*
X128830000Y-115360000D01*
X106370000Y-92420000D02*
X106370000Y-111960000D01*
X106370000Y-111960000D02*
X117130000Y-111960000D01*
X130830000Y-113360000D02*
X132320000Y-113360000D01*
X123830000Y-111860000D02*
X123830000Y-115360000D01*
X106370000Y-90920000D02*
X106370000Y-92420000D01*
X117130000Y-111960000D02*
X117230000Y-111860000D01*
%TO.N,Net-(U4-OUTB)*%
X114820000Y-90360000D02*
X114820000Y-105320000D01*
X114820000Y-105320000D02*
X117830000Y-108330000D01*
X131830000Y-124360000D02*
X132825000Y-124360000D01*
X117830000Y-108330000D02*
X117830000Y-122360000D01*
X114820000Y-88860000D02*
X114820000Y-90360000D01*
X117830000Y-122360000D02*
X128930000Y-122360000D01*
%TO.N,Net-(U4-INB-)*%
X115780000Y-90300000D02*
X115840000Y-90360000D01*
X117310000Y-104810000D02*
X119330000Y-106830000D01*
X119330000Y-106830000D02*
X119330000Y-121360000D01*
X115780000Y-88860000D02*
X115780000Y-90300000D01*
X117310000Y-90360000D02*
X117310000Y-104810000D01*
X119330000Y-121360000D02*
X128930000Y-121360000D01*
X115840000Y-90360000D02*
X117310000Y-90360000D01*
%TO.N,Net-(C16-Pad2)*%
X133280000Y-113360000D02*
X134260000Y-113360000D01*
%TO.N,Net-(C17-Pad2)*%
X133785000Y-124360000D02*
X134775000Y-124360000D01*
%TO.N,Net-(U4-OUTD)*%
X140270000Y-112420000D02*
X140500000Y-112190000D01*
X137340000Y-112420000D02*
X140270000Y-112420000D01*
X137340000Y-113470000D02*
X137340000Y-115350000D01*
X137340000Y-113470000D02*
X137340000Y-112420000D01*
X137340000Y-115350000D02*
X137330000Y-115360000D01*
X140500000Y-112190000D02*
X140500000Y-109500000D01*
%TO.N,Net-(U4-IND-)*%
X135280000Y-113360000D02*
X136270000Y-113360000D01*
X135280000Y-115410000D02*
X134330000Y-116360000D01*
X136380000Y-113470000D02*
X136380000Y-112480000D01*
X135280000Y-113360000D02*
X135280000Y-115410000D01*
X136270000Y-113360000D02*
X136380000Y-113470000D01*
X136380000Y-112480000D02*
X136320000Y-112420000D01*
%TO.N,Net-(U4-INC-)*%
X135830000Y-124900000D02*
X135870000Y-124860000D01*
X140330000Y-124860000D02*
X140330000Y-121360000D01*
X138002008Y-121360000D02*
X137902008Y-121260000D01*
X135795000Y-124360000D02*
X138120000Y-124360000D01*
X140330000Y-121360000D02*
X138002008Y-121360000D01*
X138370000Y-122670000D02*
X138310000Y-122610000D01*
X138120000Y-124360000D02*
X138370000Y-124110000D01*
X138370000Y-124110000D02*
X138370000Y-122670000D01*
X135795000Y-124360000D02*
X135795000Y-124865000D01*
X135870000Y-124860000D02*
X140330000Y-124860000D01*
X135795000Y-124865000D02*
X135830000Y-124900000D01*
%TO.N,Net-(U4-OUTC)*%
X137441087Y-121860000D02*
X137405017Y-121896070D01*
X139330000Y-122610000D02*
X139330000Y-121860000D01*
X139330000Y-121860000D02*
X137441087Y-121860000D01*
X139330000Y-124110000D02*
X139330000Y-122610000D01*
X140500000Y-120500000D02*
X140500000Y-119020000D01*
%TO.N,/2.5v*%
X101000000Y-114010000D02*
X101000000Y-116000000D01*
X99500000Y-114520000D02*
X100490000Y-114520000D01*
X100490000Y-114520000D02*
X101000000Y-114010000D01*
X101000000Y-114010000D02*
X103010000Y-114010000D01*
X103010000Y-114010000D02*
X104000000Y-115000000D01*
%TO.N,Net-(J1-Pin_4)*%
X94460000Y-114000000D02*
X95000000Y-114540000D01*
X94000000Y-114000000D02*
X94460000Y-114000000D01*
%TO.N,Net-(J1-Pin_2)*%
X96000000Y-90500000D02*
X95500000Y-91000000D01*
X96000000Y-84000000D02*
X96000000Y-90500000D01*
%TO.N,Net-(U5-D34)*%
X160960000Y-91960000D02*
X136540000Y-91960000D01*
X132900000Y-119500000D02*
X133000000Y-119600000D01*
X139500000Y-119600000D02*
X139600000Y-119600000D01*
X136540000Y-91960000D02*
X136500000Y-92000000D01*
X139600000Y-118900000D02*
X140500000Y-118000000D01*
X126000000Y-112400000D02*
X126000000Y-113600000D01*
X160960000Y-91960000D02*
X161000000Y-92000000D01*
X139600000Y-119600000D02*
X139600000Y-118900000D01*
X133000000Y-119600000D02*
X139500000Y-119600000D01*
X136540000Y-91960000D02*
X136600000Y-91960000D01*
%TO.N,Net-(U5-D35)*%
X140530000Y-95030000D02*
X162970000Y-95030000D01*
X162970000Y-95030000D02*
X163000000Y-95000000D01*
X140530000Y-108450000D02*
X140530000Y-95030000D01*
X163100000Y-95100000D02*
X163100000Y-103700000D01*
X163000000Y-95000000D02*
X163100000Y-95100000D01*
X140500000Y-108480000D02*
X140530000Y-108450000D01*
%TO.N,Net-(U5-D32)*%
X136000000Y-96000000D02*
X136000000Y-87000000D01*
X140000000Y-86880000D02*
X165880000Y-86880000D01*
X139500000Y-97000000D02*
X138500000Y-97000000D01*
X136000000Y-87000000D02*
X136120000Y-86880000D01*
X166000000Y-87000000D02*
X165880000Y-86880000D01*
X137500000Y-96000000D02*
X136000000Y-96000000D01*
X136120000Y-86880000D02*
X140000000Y-86880000D01*
X138500000Y-97000000D02*
X137500000Y-96000000D01*
%TO.N,Net-(U5-D33)*%
X127600000Y-107100000D02*
X127400000Y-106900000D01*
X168500000Y-89000000D02*
X167900000Y-89600000D01*
X127400000Y-89600000D02*
X127500000Y-89500000D01*
X127400000Y-106900000D02*
X127400000Y-89600000D01*
X137400000Y-89000000D02*
X168500000Y-89000000D01*
X134100000Y-112000000D02*
X128000000Y-112000000D01*
X167900000Y-103420000D02*
X168180000Y-103700000D01*
X167900000Y-89600000D02*
X167900000Y-103420000D01*
X138500000Y-115500000D02*
X140330000Y-115500000D01*
%TD*%
%TA.AperFunction,Conductor*%
%TO.N,GND*%
G36*
X190942539Y-76020185D02*
G01*
X190988294Y-76072989D01*
X190999500Y-76124500D01*
X190999500Y-124875500D01*
X190979815Y-124942539D01*
X190927011Y-124988294D01*
X190875500Y-124999500D01*
X141054500Y-124999500D01*
X140987461Y-124979815D01*
X140941706Y-124927011D01*
X140930500Y-124875500D01*
X140930500Y-121280945D01*
X140930500Y-121280943D01*
X140929869Y-121278588D01*
X140929918Y-121276525D01*
X140929439Y-121272887D01*
X140930006Y-121272812D01*
X140931528Y-121208740D01*
X140970688Y-121150876D01*
X140983673Y-121141496D01*
X140993900Y-121135070D01*
X141002262Y-121129816D01*
X141129816Y-121002262D01*
X141225789Y-120849522D01*
X141285368Y-120679255D01*
X141290298Y-120635500D01*
X141305565Y-120500003D01*
X141305565Y-120499996D01*
X141285369Y-120320750D01*
X141285368Y-120320745D01*
X141252141Y-120225787D01*
X141225789Y-120150478D01*
X141129816Y-119997738D01*
X141129814Y-119997736D01*
X141129813Y-119997734D01*
X141127550Y-119994896D01*
X141126659Y-119992715D01*
X141126111Y-119991842D01*
X141126264Y-119991745D01*
X141101144Y-119930209D01*
X141100500Y-119917587D01*
X141100500Y-119689595D01*
X141120185Y-119622556D01*
X141136814Y-119601918D01*
X141191135Y-119547598D01*
X141272869Y-119409393D01*
X141317665Y-119255204D01*
X141320500Y-119219181D01*
X141320499Y-118820820D01*
X141317665Y-118784796D01*
X141272869Y-118630607D01*
X141238869Y-118573117D01*
X141221688Y-118505398D01*
X141238869Y-118446882D01*
X141272869Y-118389393D01*
X141317665Y-118235204D01*
X141320500Y-118199181D01*
X141320499Y-117800820D01*
X141317665Y-117764796D01*
X141272869Y-117610607D01*
X141191135Y-117472402D01*
X141191133Y-117472400D01*
X141191130Y-117472396D01*
X141077603Y-117358869D01*
X141077595Y-117358863D01*
X140939393Y-117277131D01*
X140939388Y-117277129D01*
X140785208Y-117232335D01*
X140785202Y-117232334D01*
X140749181Y-117229500D01*
X140250830Y-117229500D01*
X140250808Y-117229501D01*
X140214794Y-117232335D01*
X140060611Y-117277129D01*
X140060606Y-117277131D01*
X139922404Y-117358863D01*
X139922396Y-117358869D01*
X139808869Y-117472396D01*
X139808863Y-117472404D01*
X139727131Y-117610606D01*
X139727129Y-117610611D01*
X139682335Y-117764791D01*
X139682334Y-117764797D01*
X139679500Y-117800811D01*
X139679500Y-117919902D01*
X139659815Y-117986941D01*
X139643181Y-118007583D01*
X139436486Y-118214277D01*
X139375163Y-118247762D01*
X139305471Y-118242778D01*
X139249538Y-118200906D01*
X139231763Y-118167550D01*
X139225789Y-118150478D01*
X139212805Y-118129814D01*
X139129816Y-117997738D01*
X139002262Y-117870184D01*
X138891870Y-117800820D01*
X138849521Y-117774210D01*
X138679249Y-117714630D01*
X138592330Y-117704837D01*
X138527916Y-117677770D01*
X138518533Y-117669298D01*
X137987590Y-117138355D01*
X137987588Y-117138352D01*
X137868717Y-117019481D01*
X137868709Y-117019475D01*
X137766936Y-116960717D01*
X137766934Y-116960716D01*
X137731790Y-116940425D01*
X137731789Y-116940424D01*
X137719263Y-116937067D01*
X137579057Y-116899499D01*
X137420943Y-116899499D01*
X137413347Y-116899499D01*
X137413331Y-116899500D01*
X135160780Y-116899500D01*
X135093741Y-116879815D01*
X135047986Y-116827011D01*
X135038042Y-116757853D01*
X135053375Y-116716087D01*
X135052769Y-116715795D01*
X135055774Y-116709553D01*
X135055782Y-116709534D01*
X135055789Y-116709522D01*
X135061068Y-116694435D01*
X135115368Y-116539255D01*
X135125161Y-116452329D01*
X135152226Y-116387918D01*
X135160690Y-116378543D01*
X135638506Y-115900728D01*
X135638511Y-115900724D01*
X135648714Y-115890520D01*
X135648716Y-115890520D01*
X135760520Y-115778716D01*
X135826449Y-115664523D01*
X135839577Y-115641785D01*
X135880501Y-115489057D01*
X135880501Y-115330943D01*
X135880501Y-115323348D01*
X135880500Y-115323330D01*
X135880500Y-114367692D01*
X135900185Y-114300653D01*
X135952989Y-114254898D01*
X136022147Y-114244954D01*
X136039095Y-114248616D01*
X136139002Y-114277642D01*
X136139005Y-114277642D01*
X136139007Y-114277643D01*
X136175310Y-114280500D01*
X136175318Y-114280500D01*
X136584682Y-114280500D01*
X136584690Y-114280500D01*
X136605767Y-114278841D01*
X136674145Y-114293202D01*
X136723903Y-114342252D01*
X136739500Y-114402458D01*
X136739500Y-114767060D01*
X136719815Y-114834099D01*
X136703181Y-114854741D01*
X136700184Y-114857737D01*
X136604211Y-115010476D01*
X136544631Y-115180745D01*
X136544630Y-115180750D01*
X136524435Y-115359996D01*
X136524435Y-115360003D01*
X136544630Y-115539249D01*
X136544631Y-115539254D01*
X136604211Y-115709523D01*
X136686525Y-115840524D01*
X136700184Y-115862262D01*
X136827738Y-115989816D01*
X136980478Y-116085789D01*
X137150745Y-116145368D01*
X137150750Y-116145369D01*
X137329996Y-116165565D01*
X137330000Y-116165565D01*
X137330004Y-116165565D01*
X137509249Y-116145369D01*
X137509252Y-116145368D01*
X137509255Y-116145368D01*
X137679522Y-116085789D01*
X137764176Y-116032596D01*
X137831413Y-116013596D01*
X137898248Y-116033963D01*
X137917830Y-116049908D01*
X137997738Y-116129816D01*
X138057954Y-116167652D01*
X138145830Y-116222869D01*
X138150478Y-116225789D01*
X138244787Y-116258789D01*
X138320745Y-116285368D01*
X138320750Y-116285369D01*
X138499996Y-116305565D01*
X138500000Y-116305565D01*
X138500004Y-116305565D01*
X138679249Y-116285369D01*
X138679252Y-116285368D01*
X138679255Y-116285368D01*
X138849522Y-116225789D01*
X139002262Y-116129816D01*
X139002267Y-116129810D01*
X139005097Y-116127555D01*
X139007275Y-116126665D01*
X139008158Y-116126111D01*
X139008255Y-116126265D01*
X139069783Y-116101145D01*
X139082412Y-116100500D01*
X139660404Y-116100500D01*
X139727443Y-116120185D01*
X139748085Y-116136819D01*
X139752396Y-116141130D01*
X139752400Y-116141133D01*
X139752402Y-116141135D01*
X139890607Y-116222869D01*
X139922143Y-116232031D01*
X140044791Y-116267664D01*
X140044794Y-116267664D01*
X140044796Y-116267665D01*
X140080819Y-116270500D01*
X140579180Y-116270499D01*
X140615204Y-116267665D01*
X140769393Y-116222869D01*
X140907598Y-116141135D01*
X141021135Y-116027598D01*
X141102869Y-115889393D01*
X141147665Y-115735204D01*
X141150500Y-115699181D01*
X141150499Y-115300820D01*
X141147665Y-115264796D01*
X141102869Y-115110607D01*
X141068869Y-115053117D01*
X141051688Y-114985398D01*
X141068869Y-114926882D01*
X141102869Y-114869393D01*
X141106256Y-114857737D01*
X141147664Y-114715208D01*
X141147665Y-114715202D01*
X141147710Y-114714630D01*
X141150500Y-114679181D01*
X141150499Y-114280820D01*
X141147665Y-114244796D01*
X141102869Y-114090607D01*
X141021135Y-113952402D01*
X141021133Y-113952400D01*
X141021130Y-113952396D01*
X140993699Y-113924965D01*
X140960214Y-113863642D01*
X140957380Y-113837284D01*
X140957380Y-113596090D01*
X140977065Y-113529051D01*
X140984435Y-113518775D01*
X140986690Y-113515945D01*
X140986696Y-113515940D01*
X141082669Y-113363200D01*
X141142248Y-113192933D01*
X141143621Y-113180750D01*
X141162445Y-113013681D01*
X141162445Y-113013674D01*
X141142249Y-112834428D01*
X141142248Y-112834423D01*
X141082668Y-112664154D01*
X141037460Y-112592206D01*
X141018460Y-112524969D01*
X141035070Y-112464229D01*
X141036125Y-112462403D01*
X141059577Y-112421785D01*
X141100500Y-112269057D01*
X141100500Y-112110943D01*
X141100500Y-110169595D01*
X141120185Y-110102556D01*
X141136814Y-110081918D01*
X141191135Y-110027598D01*
X141272869Y-109889393D01*
X141317665Y-109735204D01*
X141320500Y-109699181D01*
X141320499Y-109300820D01*
X141317665Y-109264796D01*
X141272869Y-109110607D01*
X141238869Y-109053117D01*
X141221688Y-108985398D01*
X141238869Y-108926882D01*
X141272869Y-108869393D01*
X141274779Y-108862821D01*
X141317664Y-108715208D01*
X141317665Y-108715202D01*
X141318981Y-108698484D01*
X141320500Y-108679181D01*
X141320499Y-108280820D01*
X141317665Y-108244796D01*
X141272869Y-108090607D01*
X141191135Y-107952402D01*
X141191133Y-107952400D01*
X141191130Y-107952396D01*
X141166819Y-107928085D01*
X141133334Y-107866762D01*
X141130500Y-107840404D01*
X141130500Y-95754500D01*
X141150185Y-95687461D01*
X141202989Y-95641706D01*
X141254500Y-95630500D01*
X162375500Y-95630500D01*
X162442539Y-95650185D01*
X162488294Y-95702989D01*
X162499500Y-95754500D01*
X162499500Y-102514695D01*
X162479815Y-102581734D01*
X162446623Y-102616270D01*
X162285378Y-102729174D01*
X162129175Y-102885377D01*
X162002466Y-103066338D01*
X162002465Y-103066340D01*
X161942382Y-103195189D01*
X161896209Y-103247628D01*
X161829016Y-103266780D01*
X161762135Y-103246564D01*
X161717618Y-103195189D01*
X161687133Y-103129815D01*
X161657534Y-103066339D01*
X161562125Y-102930080D01*
X161530827Y-102885381D01*
X161456176Y-102810730D01*
X161374620Y-102729174D01*
X161374616Y-102729171D01*
X161374615Y-102729170D01*
X161193666Y-102602468D01*
X161193662Y-102602466D01*
X161146457Y-102580454D01*
X160993450Y-102509106D01*
X160993447Y-102509105D01*
X160993445Y-102509104D01*
X160780070Y-102451930D01*
X160780062Y-102451929D01*
X160560002Y-102432677D01*
X160559998Y-102432677D01*
X160339937Y-102451929D01*
X160339929Y-102451930D01*
X160126554Y-102509104D01*
X160126548Y-102509107D01*
X159926340Y-102602465D01*
X159926338Y-102602466D01*
X159745377Y-102729175D01*
X159589175Y-102885377D01*
X159462466Y-103066338D01*
X159462465Y-103066340D01*
X159402382Y-103195189D01*
X159356209Y-103247628D01*
X159289016Y-103266780D01*
X159222135Y-103246564D01*
X159177618Y-103195189D01*
X159147133Y-103129815D01*
X159117534Y-103066339D01*
X159022125Y-102930080D01*
X158990827Y-102885381D01*
X158916176Y-102810730D01*
X158834620Y-102729174D01*
X158834616Y-102729171D01*
X158834615Y-102729170D01*
X158653666Y-102602468D01*
X158653662Y-102602466D01*
X158606457Y-102580454D01*
X158453450Y-102509106D01*
X158453447Y-102509105D01*
X158453445Y-102509104D01*
X158240070Y-102451930D01*
X158240062Y-102451929D01*
X158020002Y-102432677D01*
X158019998Y-102432677D01*
X157799937Y-102451929D01*
X157799929Y-102451930D01*
X157586554Y-102509104D01*
X157586548Y-102509107D01*
X157386340Y-102602465D01*
X157386338Y-102602466D01*
X157205377Y-102729175D01*
X157049175Y-102885377D01*
X156922466Y-103066338D01*
X156922465Y-103066340D01*
X156862382Y-103195189D01*
X156816209Y-103247628D01*
X156749016Y-103266780D01*
X156682135Y-103246564D01*
X156637618Y-103195189D01*
X156607133Y-103129815D01*
X156577534Y-103066339D01*
X156482125Y-102930080D01*
X156450827Y-102885381D01*
X156376176Y-102810730D01*
X156294620Y-102729174D01*
X156294616Y-102729171D01*
X156294615Y-102729170D01*
X156113666Y-102602468D01*
X156113662Y-102602466D01*
X156066457Y-102580454D01*
X155913450Y-102509106D01*
X155913447Y-102509105D01*
X155913445Y-102509104D01*
X155700070Y-102451930D01*
X155700062Y-102451929D01*
X155480002Y-102432677D01*
X155479998Y-102432677D01*
X155259937Y-102451929D01*
X155259929Y-102451930D01*
X155046554Y-102509104D01*
X155046548Y-102509107D01*
X154846340Y-102602465D01*
X154846338Y-102602466D01*
X154665377Y-102729175D01*
X154509175Y-102885377D01*
X154428074Y-103001203D01*
X154373497Y-103044828D01*
X154303999Y-103052022D01*
X154241644Y-103020499D01*
X154206230Y-102960270D01*
X154202499Y-102930080D01*
X154202499Y-102890129D01*
X154202498Y-102890123D01*
X154202497Y-102890116D01*
X154196091Y-102830517D01*
X154182864Y-102795054D01*
X154145797Y-102695671D01*
X154145793Y-102695664D01*
X154059547Y-102580455D01*
X154059544Y-102580452D01*
X153944335Y-102494206D01*
X153944328Y-102494202D01*
X153809482Y-102443908D01*
X153809483Y-102443908D01*
X153749883Y-102437501D01*
X153749881Y-102437500D01*
X153749873Y-102437500D01*
X153749864Y-102437500D01*
X152130129Y-102437500D01*
X152130123Y-102437501D01*
X152070516Y-102443908D01*
X151935671Y-102494202D01*
X151935664Y-102494206D01*
X151820455Y-102580452D01*
X151820452Y-102580455D01*
X151734206Y-102695664D01*
X151734202Y-102695671D01*
X151683908Y-102830517D01*
X151678010Y-102885380D01*
X151677501Y-102890123D01*
X151677500Y-102890135D01*
X151677500Y-104509870D01*
X151677501Y-104509876D01*
X151683908Y-104569483D01*
X151734202Y-104704328D01*
X151734206Y-104704335D01*
X151820452Y-104819544D01*
X151820455Y-104819547D01*
X151935664Y-104905793D01*
X151935671Y-104905797D01*
X152070517Y-104956091D01*
X152070516Y-104956091D01*
X152077444Y-104956835D01*
X152130127Y-104962500D01*
X153749872Y-104962499D01*
X153809483Y-104956091D01*
X153944331Y-104905796D01*
X154059546Y-104819546D01*
X154145796Y-104704331D01*
X154196091Y-104569483D01*
X154202500Y-104509873D01*
X154202499Y-104469920D01*
X154222182Y-104402884D01*
X154274985Y-104357128D01*
X154344143Y-104347183D01*
X154407700Y-104376206D01*
X154428073Y-104398796D01*
X154509174Y-104514620D01*
X154509175Y-104514621D01*
X154665378Y-104670824D01*
X154665384Y-104670829D01*
X154846333Y-104797531D01*
X154846335Y-104797532D01*
X154846338Y-104797534D01*
X155046550Y-104890894D01*
X155259932Y-104948070D01*
X155417123Y-104961822D01*
X155479998Y-104967323D01*
X155480000Y-104967323D01*
X155480002Y-104967323D01*
X155535151Y-104962498D01*
X155700068Y-104948070D01*
X155913450Y-104890894D01*
X156113662Y-104797534D01*
X156294620Y-104670826D01*
X156450826Y-104514620D01*
X156577534Y-104333662D01*
X156637618Y-104204811D01*
X156683790Y-104152371D01*
X156750983Y-104133219D01*
X156817865Y-104153435D01*
X156862382Y-104204811D01*
X156922464Y-104333658D01*
X156922468Y-104333666D01*
X157049170Y-104514615D01*
X157049175Y-104514621D01*
X157205378Y-104670824D01*
X157205384Y-104670829D01*
X157386333Y-104797531D01*
X157386335Y-104797532D01*
X157386338Y-104797534D01*
X157586550Y-104890894D01*
X157799932Y-104948070D01*
X157957123Y-104961822D01*
X158019998Y-104967323D01*
X158020000Y-104967323D01*
X158020002Y-104967323D01*
X158075151Y-104962498D01*
X158240068Y-104948070D01*
X158453450Y-104890894D01*
X158653662Y-104797534D01*
X158834620Y-104670826D01*
X158990826Y-104514620D01*
X159117534Y-104333662D01*
X159177618Y-104204811D01*
X159223790Y-104152371D01*
X159290983Y-104133219D01*
X159357865Y-104153435D01*
X159402382Y-104204811D01*
X159462464Y-104333658D01*
X159462468Y-104333666D01*
X159589170Y-104514615D01*
X159589175Y-104514621D01*
X159745378Y-104670824D01*
X159745384Y-104670829D01*
X159926333Y-104797531D01*
X159926335Y-104797532D01*
X159926338Y-104797534D01*
X160126550Y-104890894D01*
X160339932Y-104948070D01*
X160497123Y-104961822D01*
X160559998Y-104967323D01*
X160560000Y-104967323D01*
X160560002Y-104967323D01*
X160615151Y-104962498D01*
X160780068Y-104948070D01*
X160993450Y-104890894D01*
X161193662Y-104797534D01*
X161374620Y-104670826D01*
X161530826Y-104514620D01*
X161657534Y-104333662D01*
X161717618Y-104204811D01*
X161763790Y-104152371D01*
X161830983Y-104133219D01*
X161897865Y-104153435D01*
X161942382Y-104204811D01*
X162002464Y-104333658D01*
X162002468Y-104333666D01*
X162129170Y-104514615D01*
X162129175Y-104514621D01*
X162285378Y-104670824D01*
X162285384Y-104670829D01*
X162466333Y-104797531D01*
X162466335Y-104797532D01*
X162466338Y-104797534D01*
X162666550Y-104890894D01*
X162879932Y-104948070D01*
X163037123Y-104961822D01*
X163099998Y-104967323D01*
X163100000Y-104967323D01*
X163100002Y-104967323D01*
X163155151Y-104962498D01*
X163320068Y-104948070D01*
X163533450Y-104890894D01*
X163733662Y-104797534D01*
X163914620Y-104670826D01*
X164070826Y-104514620D01*
X164197534Y-104333662D01*
X164257618Y-104204811D01*
X164303790Y-104152371D01*
X164370983Y-104133219D01*
X164437865Y-104153435D01*
X164482382Y-104204811D01*
X164542464Y-104333658D01*
X164542468Y-104333666D01*
X164669170Y-104514615D01*
X164669175Y-104514621D01*
X164825378Y-104670824D01*
X164825384Y-104670829D01*
X165006333Y-104797531D01*
X165006335Y-104797532D01*
X165006338Y-104797534D01*
X165206550Y-104890894D01*
X165419932Y-104948070D01*
X165577123Y-104961822D01*
X165639998Y-104967323D01*
X165640000Y-104967323D01*
X165640002Y-104967323D01*
X165695151Y-104962498D01*
X165860068Y-104948070D01*
X166073450Y-104890894D01*
X166273662Y-104797534D01*
X166454620Y-104670826D01*
X166610826Y-104514620D01*
X166737534Y-104333662D01*
X166797618Y-104204811D01*
X166843790Y-104152371D01*
X166910983Y-104133219D01*
X166977865Y-104153435D01*
X167022382Y-104204811D01*
X167082464Y-104333658D01*
X167082468Y-104333666D01*
X167209170Y-104514615D01*
X167209175Y-104514621D01*
X167365378Y-104670824D01*
X167365384Y-104670829D01*
X167546333Y-104797531D01*
X167546335Y-104797532D01*
X167546338Y-104797534D01*
X167746550Y-104890894D01*
X167959932Y-104948070D01*
X168117123Y-104961822D01*
X168179998Y-104967323D01*
X168180000Y-104967323D01*
X168180002Y-104967323D01*
X168235151Y-104962498D01*
X168400068Y-104948070D01*
X168613450Y-104890894D01*
X168813662Y-104797534D01*
X168994620Y-104670826D01*
X169150826Y-104514620D01*
X169277534Y-104333662D01*
X169337618Y-104204811D01*
X169383790Y-104152371D01*
X169450983Y-104133219D01*
X169517865Y-104153435D01*
X169562382Y-104204811D01*
X169622464Y-104333658D01*
X169622468Y-104333666D01*
X169749170Y-104514615D01*
X169749175Y-104514621D01*
X169905378Y-104670824D01*
X169905384Y-104670829D01*
X170086333Y-104797531D01*
X170086335Y-104797532D01*
X170086338Y-104797534D01*
X170286550Y-104890894D01*
X170499932Y-104948070D01*
X170657123Y-104961822D01*
X170719998Y-104967323D01*
X170720000Y-104967323D01*
X170720002Y-104967323D01*
X170775151Y-104962498D01*
X170940068Y-104948070D01*
X171153450Y-104890894D01*
X171353662Y-104797534D01*
X171534620Y-104670826D01*
X171690826Y-104514620D01*
X171817534Y-104333662D01*
X171877618Y-104204811D01*
X171923790Y-104152371D01*
X171990983Y-104133219D01*
X172057865Y-104153435D01*
X172102382Y-104204811D01*
X172162464Y-104333658D01*
X172162468Y-104333666D01*
X172289170Y-104514615D01*
X172289175Y-104514621D01*
X172445378Y-104670824D01*
X172445384Y-104670829D01*
X172626333Y-104797531D01*
X172626335Y-104797532D01*
X172626338Y-104797534D01*
X172826550Y-104890894D01*
X173039932Y-104948070D01*
X173197123Y-104961822D01*
X173259998Y-104967323D01*
X173260000Y-104967323D01*
X173260002Y-104967323D01*
X173315151Y-104962498D01*
X173480068Y-104948070D01*
X173693450Y-104890894D01*
X173893662Y-104797534D01*
X174074620Y-104670826D01*
X174230826Y-104514620D01*
X174357534Y-104333662D01*
X174417618Y-104204811D01*
X174463790Y-104152371D01*
X174530983Y-104133219D01*
X174597865Y-104153435D01*
X174642382Y-104204811D01*
X174702464Y-104333658D01*
X174702468Y-104333666D01*
X174829170Y-104514615D01*
X174829175Y-104514621D01*
X174985378Y-104670824D01*
X174985384Y-104670829D01*
X175166333Y-104797531D01*
X175166335Y-104797532D01*
X175166338Y-104797534D01*
X175366550Y-104890894D01*
X175579932Y-104948070D01*
X175737123Y-104961822D01*
X175799998Y-104967323D01*
X175800000Y-104967323D01*
X175800002Y-104967323D01*
X175855151Y-104962498D01*
X176020068Y-104948070D01*
X176233450Y-104890894D01*
X176433662Y-104797534D01*
X176614620Y-104670826D01*
X176770826Y-104514620D01*
X176897534Y-104333662D01*
X176957618Y-104204811D01*
X177003790Y-104152371D01*
X177070983Y-104133219D01*
X177137865Y-104153435D01*
X177182382Y-104204811D01*
X177242464Y-104333658D01*
X177242468Y-104333666D01*
X177369170Y-104514615D01*
X177369175Y-104514621D01*
X177525378Y-104670824D01*
X177525384Y-104670829D01*
X177706333Y-104797531D01*
X177706335Y-104797532D01*
X177706338Y-104797534D01*
X177906550Y-104890894D01*
X178119932Y-104948070D01*
X178277123Y-104961822D01*
X178339998Y-104967323D01*
X178340000Y-104967323D01*
X178340002Y-104967323D01*
X178395151Y-104962498D01*
X178560068Y-104948070D01*
X178773450Y-104890894D01*
X178973662Y-104797534D01*
X179154620Y-104670826D01*
X179310826Y-104514620D01*
X179437534Y-104333662D01*
X179497618Y-104204811D01*
X179543790Y-104152371D01*
X179610983Y-104133219D01*
X179677865Y-104153435D01*
X179722382Y-104204811D01*
X179782464Y-104333658D01*
X179782468Y-104333666D01*
X179909170Y-104514615D01*
X179909175Y-104514621D01*
X180065378Y-104670824D01*
X180065384Y-104670829D01*
X180246333Y-104797531D01*
X180246335Y-104797532D01*
X180246338Y-104797534D01*
X180446550Y-104890894D01*
X180659932Y-104948070D01*
X180817123Y-104961822D01*
X180879998Y-104967323D01*
X180880000Y-104967323D01*
X180880002Y-104967323D01*
X180935151Y-104962498D01*
X181100068Y-104948070D01*
X181313450Y-104890894D01*
X181513662Y-104797534D01*
X181694620Y-104670826D01*
X181850826Y-104514620D01*
X181977534Y-104333662D01*
X182037618Y-104204811D01*
X182083790Y-104152371D01*
X182150983Y-104133219D01*
X182217865Y-104153435D01*
X182262382Y-104204811D01*
X182322464Y-104333658D01*
X182322468Y-104333666D01*
X182449170Y-104514615D01*
X182449175Y-104514621D01*
X182605378Y-104670824D01*
X182605384Y-104670829D01*
X182786333Y-104797531D01*
X182786335Y-104797532D01*
X182786338Y-104797534D01*
X182986550Y-104890894D01*
X183199932Y-104948070D01*
X183357123Y-104961822D01*
X183419998Y-104967323D01*
X183420000Y-104967323D01*
X183420002Y-104967323D01*
X183475151Y-104962498D01*
X183640068Y-104948070D01*
X183853450Y-104890894D01*
X184053662Y-104797534D01*
X184234620Y-104670826D01*
X184390826Y-104514620D01*
X184517534Y-104333662D01*
X184577894Y-104204218D01*
X184624066Y-104151779D01*
X184691259Y-104132627D01*
X184758141Y-104152843D01*
X184802658Y-104204219D01*
X184862898Y-104333405D01*
X184862901Y-104333411D01*
X184908258Y-104398187D01*
X184908259Y-104398188D01*
X185579000Y-103727447D01*
X185579000Y-103750160D01*
X185604964Y-103847061D01*
X185655124Y-103933940D01*
X185726060Y-104004876D01*
X185812939Y-104055036D01*
X185909840Y-104081000D01*
X185932553Y-104081000D01*
X185261810Y-104751740D01*
X185326590Y-104797099D01*
X185326592Y-104797100D01*
X185526715Y-104890419D01*
X185526729Y-104890424D01*
X185740013Y-104947573D01*
X185740023Y-104947575D01*
X185959999Y-104966821D01*
X185960001Y-104966821D01*
X186179976Y-104947575D01*
X186179986Y-104947573D01*
X186393270Y-104890424D01*
X186393284Y-104890419D01*
X186593407Y-104797100D01*
X186593417Y-104797094D01*
X186658188Y-104751741D01*
X185987448Y-104081000D01*
X186010160Y-104081000D01*
X186107061Y-104055036D01*
X186193940Y-104004876D01*
X186264876Y-103933940D01*
X186315036Y-103847061D01*
X186341000Y-103750160D01*
X186341000Y-103727447D01*
X187011741Y-104398188D01*
X187057094Y-104333417D01*
X187057095Y-104333416D01*
X187117340Y-104204219D01*
X187163512Y-104151780D01*
X187230706Y-104132627D01*
X187297587Y-104152842D01*
X187342105Y-104204218D01*
X187402466Y-104333662D01*
X187402468Y-104333666D01*
X187529170Y-104514615D01*
X187529175Y-104514621D01*
X187685378Y-104670824D01*
X187685384Y-104670829D01*
X187866333Y-104797531D01*
X187866335Y-104797532D01*
X187866338Y-104797534D01*
X188066550Y-104890894D01*
X188279932Y-104948070D01*
X188437123Y-104961822D01*
X188499998Y-104967323D01*
X188500000Y-104967323D01*
X188500002Y-104967323D01*
X188555151Y-104962498D01*
X188720068Y-104948070D01*
X188933450Y-104890894D01*
X189133662Y-104797534D01*
X189314620Y-104670826D01*
X189470826Y-104514620D01*
X189597534Y-104333662D01*
X189690894Y-104133450D01*
X189748070Y-103920068D01*
X189767323Y-103700000D01*
X189748070Y-103479932D01*
X189690894Y-103266550D01*
X189597534Y-103066339D01*
X189502125Y-102930080D01*
X189470827Y-102885381D01*
X189396176Y-102810730D01*
X189314620Y-102729174D01*
X189314616Y-102729171D01*
X189314615Y-102729170D01*
X189133666Y-102602468D01*
X189133662Y-102602466D01*
X189086457Y-102580454D01*
X188933450Y-102509106D01*
X188933447Y-102509105D01*
X188933445Y-102509104D01*
X188720070Y-102451930D01*
X188720062Y-102451929D01*
X188500002Y-102432677D01*
X188499998Y-102432677D01*
X188279937Y-102451929D01*
X188279929Y-102451930D01*
X188066554Y-102509104D01*
X188066548Y-102509107D01*
X187866340Y-102602465D01*
X187866338Y-102602466D01*
X187685377Y-102729175D01*
X187529175Y-102885377D01*
X187402467Y-103066337D01*
X187342105Y-103195782D01*
X187295932Y-103248221D01*
X187228738Y-103267372D01*
X187161857Y-103247156D01*
X187117341Y-103195780D01*
X187057098Y-103066589D01*
X187057097Y-103066587D01*
X187011741Y-103001811D01*
X187011740Y-103001810D01*
X186341000Y-103672551D01*
X186341000Y-103649840D01*
X186315036Y-103552939D01*
X186264876Y-103466060D01*
X186193940Y-103395124D01*
X186107061Y-103344964D01*
X186010160Y-103319000D01*
X185987448Y-103319000D01*
X186658188Y-102648259D01*
X186658187Y-102648258D01*
X186593411Y-102602901D01*
X186593405Y-102602898D01*
X186393284Y-102509580D01*
X186393270Y-102509575D01*
X186179986Y-102452426D01*
X186179976Y-102452424D01*
X185960001Y-102433179D01*
X185959999Y-102433179D01*
X185740023Y-102452424D01*
X185740013Y-102452426D01*
X185526729Y-102509575D01*
X185526720Y-102509579D01*
X185326590Y-102602901D01*
X185261811Y-102648258D01*
X185932553Y-103319000D01*
X185909840Y-103319000D01*
X185812939Y-103344964D01*
X185726060Y-103395124D01*
X185655124Y-103466060D01*
X185604964Y-103552939D01*
X185579000Y-103649840D01*
X185579000Y-103672553D01*
X184908258Y-103001811D01*
X184862901Y-103066590D01*
X184802658Y-103195781D01*
X184756485Y-103248220D01*
X184689292Y-103267372D01*
X184622411Y-103247156D01*
X184577894Y-103195781D01*
X184547133Y-103129815D01*
X184517534Y-103066339D01*
X184422125Y-102930080D01*
X184390827Y-102885381D01*
X184316176Y-102810730D01*
X184234620Y-102729174D01*
X184234616Y-102729171D01*
X184234615Y-102729170D01*
X184053666Y-102602468D01*
X184053662Y-102602466D01*
X184006457Y-102580454D01*
X183853450Y-102509106D01*
X183853447Y-102509105D01*
X183853445Y-102509104D01*
X183640070Y-102451930D01*
X183640062Y-102451929D01*
X183420002Y-102432677D01*
X183419998Y-102432677D01*
X183199937Y-102451929D01*
X183199929Y-102451930D01*
X182986554Y-102509104D01*
X182986548Y-102509107D01*
X182786340Y-102602465D01*
X182786338Y-102602466D01*
X182605377Y-102729175D01*
X182449175Y-102885377D01*
X182322466Y-103066338D01*
X182322465Y-103066340D01*
X182262382Y-103195189D01*
X182216209Y-103247628D01*
X182149016Y-103266780D01*
X182082135Y-103246564D01*
X182037618Y-103195189D01*
X182007133Y-103129815D01*
X181977534Y-103066339D01*
X181882125Y-102930080D01*
X181850827Y-102885381D01*
X181776176Y-102810730D01*
X181694620Y-102729174D01*
X181694616Y-102729171D01*
X181694615Y-102729170D01*
X181513666Y-102602468D01*
X181513662Y-102602466D01*
X181466457Y-102580454D01*
X181313450Y-102509106D01*
X181313447Y-102509105D01*
X181313445Y-102509104D01*
X181100070Y-102451930D01*
X181100062Y-102451929D01*
X180880002Y-102432677D01*
X180879998Y-102432677D01*
X180659937Y-102451929D01*
X180659929Y-102451930D01*
X180446554Y-102509104D01*
X180446548Y-102509107D01*
X180246340Y-102602465D01*
X180246338Y-102602466D01*
X180065377Y-102729175D01*
X179909175Y-102885377D01*
X179782466Y-103066338D01*
X179782465Y-103066340D01*
X179722382Y-103195189D01*
X179676209Y-103247628D01*
X179609016Y-103266780D01*
X179542135Y-103246564D01*
X179497618Y-103195189D01*
X179467133Y-103129815D01*
X179437534Y-103066339D01*
X179342125Y-102930080D01*
X179310827Y-102885381D01*
X179236176Y-102810730D01*
X179154620Y-102729174D01*
X179154616Y-102729171D01*
X179154615Y-102729170D01*
X178973666Y-102602468D01*
X178973662Y-102602466D01*
X178926457Y-102580454D01*
X178773450Y-102509106D01*
X178773447Y-102509105D01*
X178773445Y-102509104D01*
X178560070Y-102451930D01*
X178560062Y-102451929D01*
X178340002Y-102432677D01*
X178339998Y-102432677D01*
X178119937Y-102451929D01*
X178119929Y-102451930D01*
X177906554Y-102509104D01*
X177906548Y-102509107D01*
X177706340Y-102602465D01*
X177706338Y-102602466D01*
X177525377Y-102729175D01*
X177369175Y-102885377D01*
X177242466Y-103066338D01*
X177242465Y-103066340D01*
X177182382Y-103195189D01*
X177136209Y-103247628D01*
X177069016Y-103266780D01*
X177002135Y-103246564D01*
X176957618Y-103195189D01*
X176927133Y-103129815D01*
X176897534Y-103066339D01*
X176802125Y-102930080D01*
X176770827Y-102885381D01*
X176696176Y-102810730D01*
X176614620Y-102729174D01*
X176614616Y-102729171D01*
X176614615Y-102729170D01*
X176433666Y-102602468D01*
X176433662Y-102602466D01*
X176386457Y-102580454D01*
X176233450Y-102509106D01*
X176233447Y-102509105D01*
X176233445Y-102509104D01*
X176020070Y-102451930D01*
X176020062Y-102451929D01*
X175800002Y-102432677D01*
X175799998Y-102432677D01*
X175579937Y-102451929D01*
X175579929Y-102451930D01*
X175366554Y-102509104D01*
X175366548Y-102509107D01*
X175166340Y-102602465D01*
X175166338Y-102602466D01*
X174985377Y-102729175D01*
X174829175Y-102885377D01*
X174702466Y-103066338D01*
X174702465Y-103066340D01*
X174642382Y-103195189D01*
X174596209Y-103247628D01*
X174529016Y-103266780D01*
X174462135Y-103246564D01*
X174417618Y-103195189D01*
X174387133Y-103129815D01*
X174357534Y-103066339D01*
X174262125Y-102930080D01*
X174230827Y-102885381D01*
X174156176Y-102810730D01*
X174074620Y-102729174D01*
X174074616Y-102729171D01*
X174074615Y-102729170D01*
X173893666Y-102602468D01*
X173893662Y-102602466D01*
X173846457Y-102580454D01*
X173693450Y-102509106D01*
X173693447Y-102509105D01*
X173693445Y-102509104D01*
X173480070Y-102451930D01*
X173480062Y-102451929D01*
X173260002Y-102432677D01*
X173259998Y-102432677D01*
X173039937Y-102451929D01*
X173039929Y-102451930D01*
X172826554Y-102509104D01*
X172826548Y-102509107D01*
X172626340Y-102602465D01*
X172626338Y-102602466D01*
X172445377Y-102729175D01*
X172289175Y-102885377D01*
X172162466Y-103066338D01*
X172162465Y-103066340D01*
X172102382Y-103195189D01*
X172056209Y-103247628D01*
X171989016Y-103266780D01*
X171922135Y-103246564D01*
X171877618Y-103195189D01*
X171847133Y-103129815D01*
X171817534Y-103066339D01*
X171722125Y-102930080D01*
X171690827Y-102885381D01*
X171616176Y-102810730D01*
X171534620Y-102729174D01*
X171534616Y-102729171D01*
X171534615Y-102729170D01*
X171353666Y-102602468D01*
X171353662Y-102602466D01*
X171306457Y-102580454D01*
X171153450Y-102509106D01*
X171153447Y-102509105D01*
X171153445Y-102509104D01*
X170940070Y-102451930D01*
X170940062Y-102451929D01*
X170720002Y-102432677D01*
X170719998Y-102432677D01*
X170499937Y-102451929D01*
X170499929Y-102451930D01*
X170286554Y-102509104D01*
X170286548Y-102509107D01*
X170086340Y-102602465D01*
X170086338Y-102602466D01*
X169905377Y-102729175D01*
X169749175Y-102885377D01*
X169622466Y-103066338D01*
X169622465Y-103066340D01*
X169562382Y-103195189D01*
X169516209Y-103247628D01*
X169449016Y-103266780D01*
X169382135Y-103246564D01*
X169337618Y-103195189D01*
X169307133Y-103129815D01*
X169277534Y-103066339D01*
X169182125Y-102930080D01*
X169150827Y-102885381D01*
X169076176Y-102810730D01*
X168994620Y-102729174D01*
X168994616Y-102729171D01*
X168994615Y-102729170D01*
X168813666Y-102602468D01*
X168813662Y-102602466D01*
X168766457Y-102580454D01*
X168613450Y-102509106D01*
X168613451Y-102509106D01*
X168592403Y-102503466D01*
X168532743Y-102467099D01*
X168502216Y-102404251D01*
X168500500Y-102383692D01*
X168500500Y-89900096D01*
X168520185Y-89833057D01*
X168536815Y-89812419D01*
X168858506Y-89490727D01*
X168858511Y-89490724D01*
X168868714Y-89480520D01*
X168868716Y-89480520D01*
X168980520Y-89368716D01*
X169049349Y-89249500D01*
X169059577Y-89231785D01*
X169100500Y-89079057D01*
X169100500Y-88920943D01*
X169059577Y-88768215D01*
X169024907Y-88708165D01*
X168980520Y-88631284D01*
X168868716Y-88519480D01*
X168868714Y-88519479D01*
X168868709Y-88519475D01*
X168766936Y-88460717D01*
X168766934Y-88460716D01*
X168731790Y-88440425D01*
X168731787Y-88440424D01*
X168731786Y-88440423D01*
X168731785Y-88440423D01*
X168579057Y-88399500D01*
X168579056Y-88399500D01*
X137982412Y-88399500D01*
X137915373Y-88379815D01*
X137905097Y-88372445D01*
X137902263Y-88370185D01*
X137902262Y-88370184D01*
X137845496Y-88334515D01*
X137749523Y-88274211D01*
X137579254Y-88214631D01*
X137579249Y-88214630D01*
X137400004Y-88194435D01*
X137399996Y-88194435D01*
X137220750Y-88214630D01*
X137220745Y-88214631D01*
X137050476Y-88274211D01*
X136897737Y-88370184D01*
X136812181Y-88455741D01*
X136750858Y-88489226D01*
X136681166Y-88484242D01*
X136625233Y-88442370D01*
X136600816Y-88376906D01*
X136600500Y-88368060D01*
X136600500Y-87604500D01*
X136620185Y-87537461D01*
X136672989Y-87491706D01*
X136724500Y-87480500D01*
X139920943Y-87480500D01*
X165297588Y-87480500D01*
X165364627Y-87500185D01*
X165374903Y-87507555D01*
X165377736Y-87509814D01*
X165377738Y-87509816D01*
X165489435Y-87580000D01*
X165528426Y-87604500D01*
X165530478Y-87605789D01*
X165655397Y-87649500D01*
X165700745Y-87665368D01*
X165700750Y-87665369D01*
X165879996Y-87685565D01*
X165880000Y-87685565D01*
X165880004Y-87685565D01*
X166059249Y-87665369D01*
X166059252Y-87665368D01*
X166059255Y-87665368D01*
X166229522Y-87605789D01*
X166382262Y-87509816D01*
X166509816Y-87382262D01*
X166605789Y-87229522D01*
X166665368Y-87059255D01*
X166675199Y-86972006D01*
X166685565Y-86880003D01*
X166685565Y-86879996D01*
X166665369Y-86700750D01*
X166665368Y-86700744D01*
X166611273Y-86546151D01*
X166605789Y-86530478D01*
X166598878Y-86519480D01*
X166528387Y-86407294D01*
X166509816Y-86377738D01*
X166382262Y-86250184D01*
X166283878Y-86188365D01*
X166229523Y-86154211D01*
X166059254Y-86094631D01*
X166059249Y-86094630D01*
X165880004Y-86074435D01*
X165879996Y-86074435D01*
X165700750Y-86094630D01*
X165700745Y-86094631D01*
X165530476Y-86154211D01*
X165377736Y-86250185D01*
X165374903Y-86252445D01*
X165372724Y-86253334D01*
X165371842Y-86253889D01*
X165371744Y-86253734D01*
X165310217Y-86278855D01*
X165297588Y-86279500D01*
X136206670Y-86279500D01*
X136206654Y-86279499D01*
X136199058Y-86279499D01*
X136040943Y-86279499D01*
X135964579Y-86299961D01*
X135888214Y-86320423D01*
X135888209Y-86320426D01*
X135751290Y-86399475D01*
X135751282Y-86399481D01*
X135519481Y-86631282D01*
X135519480Y-86631284D01*
X135479377Y-86700745D01*
X135440423Y-86768215D01*
X135399499Y-86920943D01*
X135399499Y-86920945D01*
X135399499Y-87089046D01*
X135399500Y-87089059D01*
X135399500Y-87537284D01*
X135387109Y-87579481D01*
X135397193Y-87598907D01*
X135399500Y-87622715D01*
X135399500Y-90071865D01*
X135385076Y-90120984D01*
X135397193Y-90144326D01*
X135399500Y-90168134D01*
X135399500Y-92611865D01*
X135385076Y-92660984D01*
X135397193Y-92684326D01*
X135399500Y-92708134D01*
X135399500Y-95151865D01*
X135385076Y-95200984D01*
X135397193Y-95224326D01*
X135399500Y-95248134D01*
X135399500Y-95920943D01*
X135399500Y-96079057D01*
X135439812Y-96229501D01*
X135440423Y-96231783D01*
X135440423Y-96231784D01*
X135516469Y-96363501D01*
X135532941Y-96431401D01*
X135510088Y-96497428D01*
X135455166Y-96540618D01*
X135409081Y-96549500D01*
X135165302Y-96549500D01*
X135129008Y-96552356D01*
X135129002Y-96552357D01*
X134973609Y-96597504D01*
X134973606Y-96597505D01*
X134834315Y-96679881D01*
X134834307Y-96679887D01*
X134719887Y-96794307D01*
X134719881Y-96794315D01*
X134637505Y-96933606D01*
X134637504Y-96933609D01*
X134592357Y-97089002D01*
X134592356Y-97089008D01*
X134589500Y-97125302D01*
X134589500Y-97594697D01*
X134592356Y-97630991D01*
X134592357Y-97630997D01*
X134637504Y-97786390D01*
X134637505Y-97786393D01*
X134712232Y-97912750D01*
X134729500Y-97975871D01*
X134729500Y-97976936D01*
X134709815Y-98043975D01*
X134657011Y-98089730D01*
X134587853Y-98099674D01*
X134564547Y-98093978D01*
X134509260Y-98074633D01*
X134509249Y-98074630D01*
X134330004Y-98054435D01*
X134329996Y-98054435D01*
X134150750Y-98074630D01*
X134150745Y-98074631D01*
X133980476Y-98134211D01*
X133827737Y-98230184D01*
X133700184Y-98357737D01*
X133604211Y-98510476D01*
X133544631Y-98680745D01*
X133544630Y-98680750D01*
X133524435Y-98859996D01*
X133529124Y-98901618D01*
X133517068Y-98970440D01*
X133469718Y-99021819D01*
X133405904Y-99039500D01*
X133160830Y-99039500D01*
X133160808Y-99039501D01*
X133124794Y-99042335D01*
X132970611Y-99087129D01*
X132970606Y-99087131D01*
X132832404Y-99168863D01*
X132832400Y-99168866D01*
X132814256Y-99187011D01*
X132778084Y-99223182D01*
X132716764Y-99256666D01*
X132690405Y-99259500D01*
X132496666Y-99259500D01*
X132429627Y-99239815D01*
X132408984Y-99223180D01*
X132365692Y-99179887D01*
X132365684Y-99179881D01*
X132275930Y-99126801D01*
X132226395Y-99097506D01*
X132226394Y-99097505D01*
X132226393Y-99097505D01*
X132226390Y-99097504D01*
X132070997Y-99052357D01*
X132070991Y-99052356D01*
X132034697Y-99049500D01*
X132034690Y-99049500D01*
X131625310Y-99049500D01*
X131625302Y-99049500D01*
X131589008Y-99052356D01*
X131589002Y-99052357D01*
X131433608Y-99097504D01*
X131433602Y-99097506D01*
X131413120Y-99109620D01*
X131345396Y-99126801D01*
X131286880Y-99109620D01*
X131266397Y-99097506D01*
X131266391Y-99097504D01*
X131110997Y-99052357D01*
X131110991Y-99052356D01*
X131074697Y-99049500D01*
X131074690Y-99049500D01*
X130665310Y-99049500D01*
X130665302Y-99049500D01*
X130629008Y-99052356D01*
X130629002Y-99052357D01*
X130473609Y-99097504D01*
X130473606Y-99097505D01*
X130334315Y-99179881D01*
X130334307Y-99179887D01*
X130219887Y-99294307D01*
X130219881Y-99294315D01*
X130133535Y-99440320D01*
X130131960Y-99439389D01*
X130093605Y-99485479D01*
X130026971Y-99506495D01*
X129959553Y-99488151D01*
X129912755Y-99436269D01*
X129900500Y-99382520D01*
X129900500Y-85789274D01*
X129920185Y-85722235D01*
X129972989Y-85676480D01*
X130042147Y-85666536D01*
X130059086Y-85670195D01*
X130084796Y-85677665D01*
X130120819Y-85680500D01*
X130519180Y-85680499D01*
X130555204Y-85677665D01*
X130709393Y-85632869D01*
X130772149Y-85595754D01*
X130839872Y-85578571D01*
X130898388Y-85595752D01*
X130943605Y-85622494D01*
X130943608Y-85622494D01*
X130943610Y-85622496D01*
X131099002Y-85667642D01*
X131099005Y-85667642D01*
X131099007Y-85667643D01*
X131135310Y-85670500D01*
X131135318Y-85670500D01*
X131544682Y-85670500D01*
X131544690Y-85670500D01*
X131580993Y-85667643D01*
X131580995Y-85667642D01*
X131580997Y-85667642D01*
X131621975Y-85655736D01*
X131736395Y-85622494D01*
X131756879Y-85610379D01*
X131824601Y-85593196D01*
X131883119Y-85610379D01*
X131903605Y-85622494D01*
X131903607Y-85622494D01*
X131903608Y-85622495D01*
X132059002Y-85667642D01*
X132059005Y-85667642D01*
X132059007Y-85667643D01*
X132095310Y-85670500D01*
X132095318Y-85670500D01*
X132504682Y-85670500D01*
X132504690Y-85670500D01*
X132540993Y-85667643D01*
X132617471Y-85645423D01*
X132652066Y-85640500D01*
X132950033Y-85640500D01*
X133017072Y-85660185D01*
X133048987Y-85689773D01*
X133124127Y-85789274D01*
X133146128Y-85818407D01*
X133303698Y-85962052D01*
X133484981Y-86074298D01*
X133683802Y-86151321D01*
X133881973Y-86188365D01*
X133944253Y-86220033D01*
X133979526Y-86280346D01*
X133976592Y-86350154D01*
X133936383Y-86407294D01*
X133881972Y-86432143D01*
X133683941Y-86469162D01*
X133683936Y-86469163D01*
X133485210Y-86546149D01*
X133485201Y-86546154D01*
X133382992Y-86609438D01*
X133382991Y-86609439D01*
X133983553Y-87210000D01*
X133951289Y-87210000D01*
X133857185Y-87235215D01*
X133772814Y-87283926D01*
X133703926Y-87352814D01*
X133655215Y-87437185D01*
X133630000Y-87531289D01*
X133630000Y-87563552D01*
X133026836Y-86960388D01*
X133018059Y-86972010D01*
X132923066Y-87162783D01*
X132923058Y-87162803D01*
X132864738Y-87367780D01*
X132864737Y-87367783D01*
X132845073Y-87579999D01*
X132845073Y-87580000D01*
X132864737Y-87792216D01*
X132864738Y-87792219D01*
X132923058Y-87997196D01*
X132923064Y-87997211D01*
X133018061Y-88187991D01*
X133018064Y-88187996D01*
X133026836Y-88199610D01*
X133630000Y-87596446D01*
X133630000Y-87628711D01*
X133655215Y-87722815D01*
X133703926Y-87807186D01*
X133772814Y-87876074D01*
X133857185Y-87924785D01*
X133951289Y-87950000D01*
X133983553Y-87950000D01*
X133382991Y-88550559D01*
X133485204Y-88613847D01*
X133485208Y-88613849D01*
X133683936Y-88690836D01*
X133683941Y-88690837D01*
X133881972Y-88727856D01*
X133944253Y-88759524D01*
X133979526Y-88819836D01*
X133976592Y-88889645D01*
X133936383Y-88946785D01*
X133881973Y-88971634D01*
X133789932Y-88988839D01*
X133683802Y-89008679D01*
X133683800Y-89008679D01*
X133683798Y-89008680D01*
X133484982Y-89085701D01*
X133484980Y-89085702D01*
X133303699Y-89197947D01*
X133146127Y-89341593D01*
X133017632Y-89511746D01*
X132922596Y-89702605D01*
X132922596Y-89702607D01*
X132864244Y-89907689D01*
X132848760Y-90074797D01*
X132844571Y-90120000D01*
X132864244Y-90332310D01*
X132910137Y-90493606D01*
X132922596Y-90537392D01*
X132922596Y-90537394D01*
X133017632Y-90728253D01*
X133123702Y-90868711D01*
X133146128Y-90898407D01*
X133303698Y-91042052D01*
X133484981Y-91154298D01*
X133683802Y-91231321D01*
X133880613Y-91268111D01*
X133942893Y-91299779D01*
X133978166Y-91360092D01*
X133975232Y-91429900D01*
X133935023Y-91487040D01*
X133880613Y-91511888D01*
X133683802Y-91548679D01*
X133683799Y-91548679D01*
X133683799Y-91548680D01*
X133484982Y-91625701D01*
X133484980Y-91625702D01*
X133303699Y-91737947D01*
X133146127Y-91881593D01*
X133017632Y-92051746D01*
X132922596Y-92242605D01*
X132922596Y-92242607D01*
X132864244Y-92447689D01*
X132851075Y-92589814D01*
X132844571Y-92660000D01*
X132864244Y-92872310D01*
X132921360Y-93073050D01*
X132922596Y-93077392D01*
X132922596Y-93077394D01*
X133017632Y-93268253D01*
X133118953Y-93402422D01*
X133146128Y-93438407D01*
X133303698Y-93582052D01*
X133484981Y-93694298D01*
X133683802Y-93771321D01*
X133880613Y-93808111D01*
X133942893Y-93839779D01*
X133978166Y-93900092D01*
X133975232Y-93969900D01*
X133935023Y-94027040D01*
X133880613Y-94051888D01*
X133683802Y-94088679D01*
X133683799Y-94088679D01*
X133683799Y-94088680D01*
X133484982Y-94165701D01*
X133484980Y-94165702D01*
X133303699Y-94277947D01*
X133146127Y-94421593D01*
X133017632Y-94591746D01*
X132922596Y-94782605D01*
X132922596Y-94782607D01*
X132864244Y-94987689D01*
X132844571Y-95199999D01*
X132844571Y-95200000D01*
X132864244Y-95412310D01*
X132922596Y-95617392D01*
X132922596Y-95617394D01*
X133017632Y-95808253D01*
X133146127Y-95978406D01*
X133146128Y-95978407D01*
X133303698Y-96122052D01*
X133484981Y-96234298D01*
X133683802Y-96311321D01*
X133893390Y-96350500D01*
X133893392Y-96350500D01*
X134106608Y-96350500D01*
X134106610Y-96350500D01*
X134316198Y-96311321D01*
X134515019Y-96234298D01*
X134696302Y-96122052D01*
X134853872Y-95978407D01*
X134982366Y-95808255D01*
X135065297Y-95641706D01*
X135077403Y-95617394D01*
X135077403Y-95617393D01*
X135077405Y-95617389D01*
X135135756Y-95412310D01*
X135152029Y-95236693D01*
X135165990Y-95201532D01*
X135156523Y-95186800D01*
X135152029Y-95163306D01*
X135138837Y-95020943D01*
X135135756Y-94987690D01*
X135077405Y-94782611D01*
X135077403Y-94782606D01*
X135077403Y-94782605D01*
X134982367Y-94591746D01*
X134853872Y-94421593D01*
X134815933Y-94387007D01*
X134696302Y-94277948D01*
X134515019Y-94165702D01*
X134515017Y-94165701D01*
X134415608Y-94127190D01*
X134316198Y-94088679D01*
X134119385Y-94051888D01*
X134057106Y-94020221D01*
X134021833Y-93959908D01*
X134024767Y-93890100D01*
X134064976Y-93832960D01*
X134119384Y-93808111D01*
X134316198Y-93771321D01*
X134515019Y-93694298D01*
X134696302Y-93582052D01*
X134853872Y-93438407D01*
X134982366Y-93268255D01*
X135011911Y-93208920D01*
X135077403Y-93077394D01*
X135077403Y-93077393D01*
X135077405Y-93077389D01*
X135135756Y-92872310D01*
X135152029Y-92696693D01*
X135165990Y-92661532D01*
X135156523Y-92646800D01*
X135152029Y-92623306D01*
X135147877Y-92578498D01*
X135135756Y-92447690D01*
X135077405Y-92242611D01*
X135077403Y-92242606D01*
X135077403Y-92242605D01*
X134982367Y-92051746D01*
X134853872Y-91881593D01*
X134806146Y-91838085D01*
X134696302Y-91737948D01*
X134515019Y-91625702D01*
X134515017Y-91625701D01*
X134325692Y-91552357D01*
X134316198Y-91548679D01*
X134119385Y-91511888D01*
X134057106Y-91480221D01*
X134021833Y-91419908D01*
X134024767Y-91350100D01*
X134064976Y-91292960D01*
X134119384Y-91268111D01*
X134316198Y-91231321D01*
X134515019Y-91154298D01*
X134696302Y-91042052D01*
X134853872Y-90898407D01*
X134982366Y-90728255D01*
X135003754Y-90685302D01*
X135077403Y-90537394D01*
X135077403Y-90537393D01*
X135077405Y-90537389D01*
X135135756Y-90332310D01*
X135152029Y-90156693D01*
X135165990Y-90121532D01*
X135156523Y-90106800D01*
X135152029Y-90083306D01*
X135147340Y-90032705D01*
X135135756Y-89907690D01*
X135077405Y-89702611D01*
X135077403Y-89702606D01*
X135077403Y-89702605D01*
X134982367Y-89511746D01*
X134853872Y-89341593D01*
X134793321Y-89286393D01*
X134696302Y-89197948D01*
X134515019Y-89085702D01*
X134515017Y-89085701D01*
X134316201Y-89008680D01*
X134316200Y-89008679D01*
X134316198Y-89008679D01*
X134118026Y-88971634D01*
X134055746Y-88939965D01*
X134020473Y-88879653D01*
X134023407Y-88809845D01*
X134063616Y-88752705D01*
X134118027Y-88727856D01*
X134316058Y-88690837D01*
X134316063Y-88690836D01*
X134514791Y-88613849D01*
X134514798Y-88613846D01*
X134617006Y-88550560D01*
X134617006Y-88550559D01*
X134016448Y-87950000D01*
X134048711Y-87950000D01*
X134142815Y-87924785D01*
X134227186Y-87876074D01*
X134296074Y-87807186D01*
X134344785Y-87722815D01*
X134370000Y-87628711D01*
X134370000Y-87596447D01*
X134973162Y-88199609D01*
X134973163Y-88199609D01*
X134981940Y-88187988D01*
X134981942Y-88187985D01*
X135076933Y-87997216D01*
X135076941Y-87997196D01*
X135135261Y-87792219D01*
X135135262Y-87792216D01*
X135152029Y-87611274D01*
X135163330Y-87582812D01*
X135156523Y-87572219D01*
X135152029Y-87548725D01*
X135135262Y-87367783D01*
X135135261Y-87367780D01*
X135076941Y-87162803D01*
X135076933Y-87162783D01*
X134981942Y-86972014D01*
X134981937Y-86972006D01*
X134973163Y-86960389D01*
X134370000Y-87563552D01*
X134370000Y-87531289D01*
X134344785Y-87437185D01*
X134296074Y-87352814D01*
X134227186Y-87283926D01*
X134142815Y-87235215D01*
X134048711Y-87210000D01*
X134016448Y-87210000D01*
X134617007Y-86609439D01*
X134514793Y-86546151D01*
X134514789Y-86546149D01*
X134316063Y-86469163D01*
X134316058Y-86469162D01*
X134118027Y-86432143D01*
X134055746Y-86400475D01*
X134020473Y-86340162D01*
X134023407Y-86270354D01*
X134063616Y-86213214D01*
X134118024Y-86188366D01*
X134316198Y-86151321D01*
X134515019Y-86074298D01*
X134696302Y-85962052D01*
X134853872Y-85818407D01*
X134982366Y-85648255D01*
X134984080Y-85644813D01*
X135077403Y-85457394D01*
X135077403Y-85457393D01*
X135077405Y-85457389D01*
X135135756Y-85252310D01*
X135155429Y-85040000D01*
X135135756Y-84827690D01*
X135077405Y-84622611D01*
X135077403Y-84622606D01*
X135077403Y-84622605D01*
X134982367Y-84431746D01*
X134853872Y-84261593D01*
X134696302Y-84117948D01*
X134515019Y-84005702D01*
X134515017Y-84005701D01*
X134322922Y-83931284D01*
X134316198Y-83928679D01*
X134119385Y-83891888D01*
X134057106Y-83860221D01*
X134021833Y-83799908D01*
X134024767Y-83730100D01*
X134064976Y-83672960D01*
X134119384Y-83648111D01*
X134316198Y-83611321D01*
X134515019Y-83534298D01*
X134696302Y-83422052D01*
X134853872Y-83278407D01*
X134982366Y-83108255D01*
X134984816Y-83103334D01*
X135077403Y-82917394D01*
X135077403Y-82917393D01*
X135077405Y-82917389D01*
X135135756Y-82712310D01*
X135155429Y-82500000D01*
X135135756Y-82287690D01*
X135077405Y-82082611D01*
X135077403Y-82082606D01*
X135077403Y-82082605D01*
X134982367Y-81891746D01*
X134853872Y-81721593D01*
X134810807Y-81682334D01*
X134696302Y-81577948D01*
X134515019Y-81465702D01*
X134515017Y-81465701D01*
X134413542Y-81426390D01*
X134316198Y-81388679D01*
X134106610Y-81349500D01*
X133893390Y-81349500D01*
X133683802Y-81388679D01*
X133683799Y-81388679D01*
X133683799Y-81388680D01*
X133484982Y-81465701D01*
X133484980Y-81465702D01*
X133303699Y-81577947D01*
X133146127Y-81721593D01*
X133048987Y-81850227D01*
X132992878Y-81891863D01*
X132950033Y-81899500D01*
X132386666Y-81899500D01*
X132319627Y-81879815D01*
X132298984Y-81863180D01*
X132255692Y-81819887D01*
X132255684Y-81819881D01*
X132156338Y-81761128D01*
X132116395Y-81737506D01*
X132116394Y-81737505D01*
X132116393Y-81737505D01*
X132116390Y-81737504D01*
X131960997Y-81692357D01*
X131960991Y-81692356D01*
X131924697Y-81689500D01*
X131924690Y-81689500D01*
X131515310Y-81689500D01*
X131515302Y-81689500D01*
X131479008Y-81692356D01*
X131479002Y-81692357D01*
X131323608Y-81737504D01*
X131323602Y-81737506D01*
X131303120Y-81749620D01*
X131235396Y-81766801D01*
X131176880Y-81749620D01*
X131156397Y-81737506D01*
X131156391Y-81737504D01*
X131000997Y-81692357D01*
X131000991Y-81692356D01*
X130964697Y-81689500D01*
X130964690Y-81689500D01*
X130555310Y-81689500D01*
X130555302Y-81689500D01*
X130519008Y-81692356D01*
X130519002Y-81692357D01*
X130363609Y-81737504D01*
X130363606Y-81737505D01*
X130224315Y-81819881D01*
X130224307Y-81819887D01*
X130181016Y-81863180D01*
X130119693Y-81896666D01*
X130093334Y-81899500D01*
X129909595Y-81899500D01*
X129842556Y-81879815D01*
X129821918Y-81863185D01*
X129767598Y-81808865D01*
X129715930Y-81778309D01*
X129629393Y-81727131D01*
X129629388Y-81727129D01*
X129475208Y-81682335D01*
X129475202Y-81682334D01*
X129439181Y-81679500D01*
X129040830Y-81679500D01*
X129040808Y-81679501D01*
X129004794Y-81682335D01*
X128850611Y-81727129D01*
X128850604Y-81727132D01*
X128793119Y-81761128D01*
X128725395Y-81778309D01*
X128666881Y-81761128D01*
X128609395Y-81727132D01*
X128609388Y-81727129D01*
X128455208Y-81682335D01*
X128455202Y-81682334D01*
X128419181Y-81679500D01*
X128020830Y-81679500D01*
X128020808Y-81679501D01*
X127984794Y-81682335D01*
X127830611Y-81727129D01*
X127830606Y-81727131D01*
X127692404Y-81808863D01*
X127692400Y-81808866D01*
X127670863Y-81830404D01*
X127638084Y-81863182D01*
X127576764Y-81896666D01*
X127550405Y-81899500D01*
X127229595Y-81899500D01*
X127162556Y-81879815D01*
X127141914Y-81863181D01*
X127136819Y-81858086D01*
X127103334Y-81796763D01*
X127100500Y-81770405D01*
X127100500Y-81666666D01*
X127120185Y-81599627D01*
X127136816Y-81578987D01*
X127150117Y-81565687D01*
X127232494Y-81426395D01*
X127277643Y-81270993D01*
X127280500Y-81234690D01*
X127280500Y-80765310D01*
X127277643Y-80729007D01*
X127232494Y-80573605D01*
X127150117Y-80434313D01*
X127150115Y-80434311D01*
X127150112Y-80434307D01*
X127035692Y-80319887D01*
X127035684Y-80319881D01*
X126945930Y-80266801D01*
X126896395Y-80237506D01*
X126896394Y-80237505D01*
X126896393Y-80237505D01*
X126896390Y-80237504D01*
X126740997Y-80192357D01*
X126740991Y-80192356D01*
X126704697Y-80189500D01*
X126704690Y-80189500D01*
X126295310Y-80189500D01*
X126295302Y-80189500D01*
X126259008Y-80192356D01*
X126259002Y-80192357D01*
X126103608Y-80237504D01*
X126103602Y-80237506D01*
X126083120Y-80249620D01*
X126015396Y-80266801D01*
X125956880Y-80249620D01*
X125936397Y-80237506D01*
X125936391Y-80237504D01*
X125780997Y-80192357D01*
X125780991Y-80192356D01*
X125744697Y-80189500D01*
X125744690Y-80189500D01*
X125335310Y-80189500D01*
X125335302Y-80189500D01*
X125299008Y-80192356D01*
X125299002Y-80192357D01*
X125143609Y-80237504D01*
X125143606Y-80237505D01*
X125004315Y-80319881D01*
X125004307Y-80319887D01*
X124889887Y-80434307D01*
X124889881Y-80434315D01*
X124807505Y-80573606D01*
X124807504Y-80573609D01*
X124762357Y-80729002D01*
X124762356Y-80729008D01*
X124759500Y-80765302D01*
X124759500Y-81234697D01*
X124762356Y-81270991D01*
X124762357Y-81270997D01*
X124807504Y-81426390D01*
X124807505Y-81426393D01*
X124807506Y-81426395D01*
X124889883Y-81565687D01*
X124903180Y-81578984D01*
X124936666Y-81640305D01*
X124939500Y-81666666D01*
X124939500Y-81830404D01*
X124919815Y-81897443D01*
X124903181Y-81918085D01*
X124898869Y-81922396D01*
X124898863Y-81922404D01*
X124817131Y-82060606D01*
X124817129Y-82060611D01*
X124772335Y-82214791D01*
X124772334Y-82214797D01*
X124769500Y-82250811D01*
X124769500Y-82749169D01*
X124769501Y-82749191D01*
X124772335Y-82785205D01*
X124817129Y-82939388D01*
X124817131Y-82939393D01*
X124898865Y-83077598D01*
X124903178Y-83081911D01*
X124936665Y-83143231D01*
X124939500Y-83169595D01*
X124939500Y-83931284D01*
X124919815Y-83998323D01*
X124867011Y-84044078D01*
X124829383Y-84054504D01*
X124650750Y-84074630D01*
X124650735Y-84074634D01*
X124619875Y-84085432D01*
X124550096Y-84088993D01*
X124489470Y-84054263D01*
X124457244Y-83992269D01*
X124463650Y-83922693D01*
X124472182Y-83905285D01*
X124542494Y-83786395D01*
X124555947Y-83740092D01*
X124587642Y-83630997D01*
X124587643Y-83630991D01*
X124590499Y-83594697D01*
X124590500Y-83594690D01*
X124590500Y-83125310D01*
X124587643Y-83089007D01*
X124584328Y-83077598D01*
X124554400Y-82974587D01*
X124542494Y-82933605D01*
X124460117Y-82794313D01*
X124460115Y-82794311D01*
X124460112Y-82794307D01*
X124345692Y-82679887D01*
X124345684Y-82679881D01*
X124255930Y-82626801D01*
X124206395Y-82597506D01*
X124206394Y-82597505D01*
X124206393Y-82597505D01*
X124206390Y-82597504D01*
X124050997Y-82552357D01*
X124050991Y-82552356D01*
X124014697Y-82549500D01*
X124014690Y-82549500D01*
X123605310Y-82549500D01*
X123605302Y-82549500D01*
X123569008Y-82552356D01*
X123569002Y-82552357D01*
X123413608Y-82597504D01*
X123413602Y-82597506D01*
X123393120Y-82609620D01*
X123325396Y-82626801D01*
X123266880Y-82609620D01*
X123246397Y-82597506D01*
X123246391Y-82597504D01*
X123090997Y-82552357D01*
X123090991Y-82552356D01*
X123054697Y-82549500D01*
X123054690Y-82549500D01*
X122645310Y-82549500D01*
X122645302Y-82549500D01*
X122609008Y-82552356D01*
X122609002Y-82552357D01*
X122453609Y-82597504D01*
X122453606Y-82597505D01*
X122314315Y-82679881D01*
X122314307Y-82679887D01*
X122199887Y-82794307D01*
X122199881Y-82794315D01*
X122117505Y-82933606D01*
X122117504Y-82933609D01*
X122072357Y-83089002D01*
X122072356Y-83089008D01*
X122069500Y-83125302D01*
X122069500Y-83594697D01*
X122072356Y-83630991D01*
X122072357Y-83630997D01*
X122117504Y-83786390D01*
X122117505Y-83786393D01*
X122117506Y-83786395D01*
X122199883Y-83925687D01*
X122213180Y-83938984D01*
X122246666Y-84000305D01*
X122249500Y-84026666D01*
X122249500Y-84160404D01*
X122229815Y-84227443D01*
X122213181Y-84248085D01*
X122178869Y-84282396D01*
X122178863Y-84282404D01*
X122097131Y-84420606D01*
X122097129Y-84420611D01*
X122052335Y-84574791D01*
X122052334Y-84574797D01*
X122049500Y-84610811D01*
X122049500Y-84730069D01*
X122029815Y-84797108D01*
X122023875Y-84805557D01*
X122019479Y-84811285D01*
X121969361Y-84898094D01*
X121969359Y-84898096D01*
X121940425Y-84948209D01*
X121940424Y-84948210D01*
X121940423Y-84948215D01*
X121899499Y-85100943D01*
X121899499Y-85100945D01*
X121899499Y-85269046D01*
X121899500Y-85269059D01*
X121899500Y-89435790D01*
X121879815Y-89502829D01*
X121827011Y-89548584D01*
X121789384Y-89559010D01*
X121650749Y-89574630D01*
X121650737Y-89574633D01*
X121480480Y-89634209D01*
X121422299Y-89670766D01*
X121355062Y-89689765D01*
X121293208Y-89672503D01*
X121287058Y-89668866D01*
X121166395Y-89597506D01*
X121166394Y-89597505D01*
X121166393Y-89597505D01*
X121166390Y-89597504D01*
X121010997Y-89552357D01*
X121010991Y-89552356D01*
X120974697Y-89549500D01*
X120974690Y-89549500D01*
X120565310Y-89549500D01*
X120565302Y-89549500D01*
X120529008Y-89552356D01*
X120529002Y-89552357D01*
X120373608Y-89597504D01*
X120373602Y-89597506D01*
X120353120Y-89609620D01*
X120285396Y-89626801D01*
X120226880Y-89609620D01*
X120206397Y-89597506D01*
X120206391Y-89597504D01*
X120050997Y-89552357D01*
X120050991Y-89552356D01*
X120014697Y-89549500D01*
X120014690Y-89549500D01*
X119605310Y-89549500D01*
X119605302Y-89549500D01*
X119569008Y-89552356D01*
X119569002Y-89552357D01*
X119413609Y-89597504D01*
X119413606Y-89597505D01*
X119274315Y-89679881D01*
X119274307Y-89679887D01*
X119231016Y-89723180D01*
X119169693Y-89756666D01*
X119143334Y-89759500D01*
X118999595Y-89759500D01*
X118932556Y-89739815D01*
X118911918Y-89723185D01*
X118857598Y-89668865D01*
X118805930Y-89638309D01*
X118719393Y-89587131D01*
X118719388Y-89587129D01*
X118565208Y-89542335D01*
X118565202Y-89542334D01*
X118529181Y-89539500D01*
X118130830Y-89539500D01*
X118130808Y-89539501D01*
X118094794Y-89542335D01*
X117940611Y-89587129D01*
X117940604Y-89587132D01*
X117883119Y-89621128D01*
X117815395Y-89638309D01*
X117756881Y-89621128D01*
X117699395Y-89587132D01*
X117699388Y-89587129D01*
X117545208Y-89542335D01*
X117545202Y-89542334D01*
X117509181Y-89539500D01*
X117110830Y-89539500D01*
X117110808Y-89539501D01*
X117074794Y-89542335D01*
X116920611Y-89587129D01*
X116920606Y-89587131D01*
X116782404Y-89668863D01*
X116782400Y-89668866D01*
X116761502Y-89689765D01*
X116728084Y-89723182D01*
X116666764Y-89756666D01*
X116640405Y-89759500D01*
X116509595Y-89759500D01*
X116442556Y-89739815D01*
X116421914Y-89723181D01*
X116416819Y-89718086D01*
X116383334Y-89656763D01*
X116380500Y-89630405D01*
X116380500Y-89526666D01*
X116400185Y-89459627D01*
X116416816Y-89438987D01*
X116430117Y-89425687D01*
X116512494Y-89286395D01*
X116557643Y-89130993D01*
X116560500Y-89094690D01*
X116560500Y-88625310D01*
X116557643Y-88589007D01*
X116552247Y-88570435D01*
X116512495Y-88433609D01*
X116512494Y-88433606D01*
X116512494Y-88433605D01*
X116430117Y-88294313D01*
X116430115Y-88294311D01*
X116430112Y-88294307D01*
X116315692Y-88179887D01*
X116315684Y-88179881D01*
X116225930Y-88126801D01*
X116176395Y-88097506D01*
X116176394Y-88097505D01*
X116176393Y-88097505D01*
X116176390Y-88097504D01*
X116020997Y-88052357D01*
X116020991Y-88052356D01*
X115984697Y-88049500D01*
X115984690Y-88049500D01*
X115575310Y-88049500D01*
X115575302Y-88049500D01*
X115539008Y-88052356D01*
X115539002Y-88052357D01*
X115383608Y-88097504D01*
X115383602Y-88097506D01*
X115363120Y-88109620D01*
X115295396Y-88126801D01*
X115236880Y-88109620D01*
X115216397Y-88097506D01*
X115216391Y-88097504D01*
X115060997Y-88052357D01*
X115060991Y-88052356D01*
X115024697Y-88049500D01*
X115024690Y-88049500D01*
X114615310Y-88049500D01*
X114615302Y-88049500D01*
X114579008Y-88052356D01*
X114579002Y-88052357D01*
X114423609Y-88097504D01*
X114423606Y-88097505D01*
X114284315Y-88179881D01*
X114284307Y-88179887D01*
X114169887Y-88294307D01*
X114169881Y-88294315D01*
X114087505Y-88433606D01*
X114087504Y-88433609D01*
X114042357Y-88589002D01*
X114042356Y-88589008D01*
X114039500Y-88625302D01*
X114039500Y-89094697D01*
X114042356Y-89130991D01*
X114042357Y-89130997D01*
X114087504Y-89286390D01*
X114087505Y-89286393D01*
X114087506Y-89286395D01*
X114169883Y-89425687D01*
X114183180Y-89438984D01*
X114216666Y-89500305D01*
X114219500Y-89526666D01*
X114219500Y-89690404D01*
X114199815Y-89757443D01*
X114183181Y-89778085D01*
X114178869Y-89782396D01*
X114178863Y-89782404D01*
X114097131Y-89920606D01*
X114097129Y-89920611D01*
X114052335Y-90074791D01*
X114052334Y-90074797D01*
X114049500Y-90110811D01*
X114049500Y-90609169D01*
X114049501Y-90609191D01*
X114052335Y-90645205D01*
X114097129Y-90799388D01*
X114097131Y-90799393D01*
X114155687Y-90898407D01*
X114178865Y-90937598D01*
X114183178Y-90941911D01*
X114216665Y-91003231D01*
X114219500Y-91029595D01*
X114219500Y-105233330D01*
X114219499Y-105233348D01*
X114219499Y-105399054D01*
X114219498Y-105399054D01*
X114260423Y-105551785D01*
X114289358Y-105601900D01*
X114289359Y-105601904D01*
X114289360Y-105601904D01*
X114339479Y-105688714D01*
X114339481Y-105688717D01*
X114458349Y-105807585D01*
X114458355Y-105807590D01*
X117193181Y-108542416D01*
X117226666Y-108603739D01*
X117229500Y-108630097D01*
X117229500Y-109298060D01*
X117209815Y-109365099D01*
X117157011Y-109410854D01*
X117087853Y-109420798D01*
X117024297Y-109391773D01*
X117017819Y-109385741D01*
X117002262Y-109370184D01*
X116849523Y-109274211D01*
X116679254Y-109214631D01*
X116679249Y-109214630D01*
X116500004Y-109194435D01*
X116499996Y-109194435D01*
X116320750Y-109214630D01*
X116320745Y-109214631D01*
X116150476Y-109274211D01*
X115997736Y-109370185D01*
X115994903Y-109372445D01*
X115992724Y-109373334D01*
X115991842Y-109373889D01*
X115991744Y-109373734D01*
X115930217Y-109398855D01*
X115917588Y-109399500D01*
X109120098Y-109399500D01*
X109053059Y-109379815D01*
X109032417Y-109363181D01*
X108956819Y-109287583D01*
X108923334Y-109226260D01*
X108920500Y-109199902D01*
X108920500Y-93289274D01*
X108940185Y-93222235D01*
X108992989Y-93176480D01*
X109062147Y-93166536D01*
X109079086Y-93170195D01*
X109104796Y-93177665D01*
X109140819Y-93180500D01*
X109539180Y-93180499D01*
X109575204Y-93177665D01*
X109729393Y-93132869D01*
X109772150Y-93107582D01*
X109839871Y-93090399D01*
X109898388Y-93107580D01*
X109923605Y-93122494D01*
X109923608Y-93122494D01*
X109923610Y-93122496D01*
X110079002Y-93167642D01*
X110079005Y-93167642D01*
X110079007Y-93167643D01*
X110115310Y-93170500D01*
X110115318Y-93170500D01*
X110524682Y-93170500D01*
X110524690Y-93170500D01*
X110560993Y-93167643D01*
X110560995Y-93167642D01*
X110560997Y-93167642D01*
X110601975Y-93155736D01*
X110716395Y-93122494D01*
X110736879Y-93110379D01*
X110804601Y-93093196D01*
X110863119Y-93110379D01*
X110883605Y-93122494D01*
X110883607Y-93122494D01*
X110883608Y-93122495D01*
X111039002Y-93167642D01*
X111039005Y-93167642D01*
X111039007Y-93167643D01*
X111075310Y-93170500D01*
X111075318Y-93170500D01*
X111484682Y-93170500D01*
X111484690Y-93170500D01*
X111520993Y-93167643D01*
X111520995Y-93167642D01*
X111520997Y-93167642D01*
X111561975Y-93155736D01*
X111676395Y-93122494D01*
X111815687Y-93040117D01*
X111858984Y-92996820D01*
X111920307Y-92963334D01*
X111946666Y-92960500D01*
X112247588Y-92960500D01*
X112314627Y-92980185D01*
X112324903Y-92987555D01*
X112327736Y-92989814D01*
X112327738Y-92989816D01*
X112441270Y-93061152D01*
X112455752Y-93070253D01*
X112480478Y-93085789D01*
X112585375Y-93122494D01*
X112650745Y-93145368D01*
X112650750Y-93145369D01*
X112829996Y-93165565D01*
X112830000Y-93165565D01*
X112830004Y-93165565D01*
X113009249Y-93145369D01*
X113009252Y-93145368D01*
X113009255Y-93145368D01*
X113179522Y-93085789D01*
X113332262Y-92989816D01*
X113459816Y-92862262D01*
X113555789Y-92709522D01*
X113615368Y-92539255D01*
X113615369Y-92539249D01*
X113635565Y-92360003D01*
X113635565Y-92359996D01*
X113615369Y-92180750D01*
X113615368Y-92180745D01*
X113555788Y-92010476D01*
X113459815Y-91857737D01*
X113332262Y-91730184D01*
X113179523Y-91634211D01*
X113009254Y-91574631D01*
X113009249Y-91574630D01*
X112830004Y-91554435D01*
X112829996Y-91554435D01*
X112650750Y-91574630D01*
X112650745Y-91574631D01*
X112480476Y-91634211D01*
X112327736Y-91730185D01*
X112324903Y-91732445D01*
X112322724Y-91733334D01*
X112321842Y-91733889D01*
X112321744Y-91733734D01*
X112260217Y-91758855D01*
X112247588Y-91759500D01*
X111946666Y-91759500D01*
X111879627Y-91739815D01*
X111858984Y-91723180D01*
X111815692Y-91679887D01*
X111815684Y-91679881D01*
X111701427Y-91612310D01*
X111676395Y-91597506D01*
X111676394Y-91597505D01*
X111676393Y-91597505D01*
X111676390Y-91597504D01*
X111520997Y-91552357D01*
X111520991Y-91552356D01*
X111484697Y-91549500D01*
X111484690Y-91549500D01*
X111075310Y-91549500D01*
X111075302Y-91549500D01*
X111039008Y-91552356D01*
X111039002Y-91552357D01*
X110883608Y-91597504D01*
X110883602Y-91597506D01*
X110863120Y-91609620D01*
X110795396Y-91626801D01*
X110736880Y-91609620D01*
X110716397Y-91597506D01*
X110716391Y-91597504D01*
X110560997Y-91552357D01*
X110560991Y-91552356D01*
X110524697Y-91549500D01*
X110524690Y-91549500D01*
X110115310Y-91549500D01*
X110115302Y-91549500D01*
X110079008Y-91552356D01*
X110079002Y-91552357D01*
X109923606Y-91597504D01*
X109898388Y-91612418D01*
X109830663Y-91629598D01*
X109772151Y-91612417D01*
X109729395Y-91587132D01*
X109729388Y-91587129D01*
X109575208Y-91542335D01*
X109575202Y-91542334D01*
X109539181Y-91539500D01*
X109140830Y-91539500D01*
X109140808Y-91539501D01*
X109104794Y-91542335D01*
X108950611Y-91587129D01*
X108950604Y-91587132D01*
X108893119Y-91621128D01*
X108825395Y-91638309D01*
X108766881Y-91621128D01*
X108709395Y-91587132D01*
X108709388Y-91587129D01*
X108555208Y-91542335D01*
X108555202Y-91542334D01*
X108519188Y-91539500D01*
X108165686Y-91539500D01*
X108098647Y-91519815D01*
X108052892Y-91467011D01*
X108042948Y-91397853D01*
X108058955Y-91352378D01*
X108062494Y-91346395D01*
X108100775Y-91214632D01*
X108107642Y-91190997D01*
X108107643Y-91190991D01*
X108108469Y-91180498D01*
X108110500Y-91154690D01*
X108110500Y-90685310D01*
X108107643Y-90649007D01*
X108106538Y-90645205D01*
X108062495Y-90493609D01*
X108062494Y-90493606D01*
X108062494Y-90493605D01*
X107980117Y-90354313D01*
X107980115Y-90354311D01*
X107980112Y-90354307D01*
X107865692Y-90239887D01*
X107865684Y-90239881D01*
X107746921Y-90169645D01*
X107726395Y-90157506D01*
X107726394Y-90157505D01*
X107726393Y-90157505D01*
X107726390Y-90157504D01*
X107570997Y-90112357D01*
X107570991Y-90112356D01*
X107534697Y-90109500D01*
X107534690Y-90109500D01*
X107125310Y-90109500D01*
X107125302Y-90109500D01*
X107089008Y-90112356D01*
X107089002Y-90112357D01*
X106933608Y-90157504D01*
X106933602Y-90157506D01*
X106913120Y-90169620D01*
X106845396Y-90186801D01*
X106786880Y-90169620D01*
X106766397Y-90157506D01*
X106766391Y-90157504D01*
X106610997Y-90112357D01*
X106610991Y-90112356D01*
X106574697Y-90109500D01*
X106574690Y-90109500D01*
X106165310Y-90109500D01*
X106165302Y-90109500D01*
X106129008Y-90112356D01*
X106129002Y-90112357D01*
X105973609Y-90157504D01*
X105973606Y-90157505D01*
X105834315Y-90239881D01*
X105834307Y-90239887D01*
X105719887Y-90354307D01*
X105719881Y-90354315D01*
X105637505Y-90493606D01*
X105637504Y-90493609D01*
X105592357Y-90649002D01*
X105592356Y-90649008D01*
X105589500Y-90685302D01*
X105589500Y-91154697D01*
X105592356Y-91190991D01*
X105592357Y-91190997D01*
X105637504Y-91346390D01*
X105637505Y-91346393D01*
X105637506Y-91346395D01*
X105719883Y-91485687D01*
X105733180Y-91498984D01*
X105766666Y-91560305D01*
X105769500Y-91586666D01*
X105769500Y-91750404D01*
X105749815Y-91817443D01*
X105733181Y-91838085D01*
X105728869Y-91842396D01*
X105728863Y-91842404D01*
X105647131Y-91980606D01*
X105647129Y-91980611D01*
X105602335Y-92134791D01*
X105602334Y-92134797D01*
X105599500Y-92170811D01*
X105599500Y-92669169D01*
X105599501Y-92669191D01*
X105602335Y-92705205D01*
X105647129Y-92859388D01*
X105647131Y-92859393D01*
X105724261Y-92989814D01*
X105728865Y-92997598D01*
X105733178Y-93001911D01*
X105766665Y-93063231D01*
X105769500Y-93089595D01*
X105769500Y-111880943D01*
X105769500Y-112039057D01*
X105807065Y-112179249D01*
X105810423Y-112191783D01*
X105810426Y-112191790D01*
X105889475Y-112328709D01*
X105889479Y-112328714D01*
X105889480Y-112328716D01*
X106001284Y-112440520D01*
X106001286Y-112440521D01*
X106001290Y-112440524D01*
X106108225Y-112502262D01*
X106138216Y-112519577D01*
X106290943Y-112560500D01*
X116804506Y-112560500D01*
X116870477Y-112579506D01*
X116880474Y-112585787D01*
X116880475Y-112585787D01*
X116880478Y-112585789D01*
X117050745Y-112645368D01*
X117119384Y-112653101D01*
X117183796Y-112680166D01*
X117223352Y-112737760D01*
X117229500Y-112776321D01*
X117229500Y-113581537D01*
X117209815Y-113648576D01*
X117157011Y-113694331D01*
X117091617Y-113704757D01*
X117000004Y-113694435D01*
X116999996Y-113694435D01*
X116820750Y-113714630D01*
X116820745Y-113714631D01*
X116650476Y-113774211D01*
X116497736Y-113870185D01*
X116494903Y-113872445D01*
X116492724Y-113873334D01*
X116491842Y-113873889D01*
X116491744Y-113873734D01*
X116430217Y-113898855D01*
X116417588Y-113899500D01*
X106800097Y-113899500D01*
X106733058Y-113879815D01*
X106712416Y-113863181D01*
X105487590Y-112638355D01*
X105487588Y-112638352D01*
X105368717Y-112519481D01*
X105368716Y-112519480D01*
X105269853Y-112462402D01*
X105269852Y-112462401D01*
X105231953Y-112440520D01*
X105231785Y-112440423D01*
X105231784Y-112440422D01*
X105231783Y-112440422D01*
X105175881Y-112425443D01*
X105079057Y-112399499D01*
X104920943Y-112399499D01*
X104913347Y-112399499D01*
X104913331Y-112399500D01*
X101679596Y-112399500D01*
X101612557Y-112379815D01*
X101591915Y-112363181D01*
X101577603Y-112348869D01*
X101577595Y-112348863D01*
X101439393Y-112267131D01*
X101439388Y-112267129D01*
X101285208Y-112222335D01*
X101285202Y-112222334D01*
X101249181Y-112219500D01*
X100750830Y-112219500D01*
X100750808Y-112219501D01*
X100714794Y-112222335D01*
X100560611Y-112267129D01*
X100560606Y-112267131D01*
X100422404Y-112348863D01*
X100422396Y-112348869D01*
X100408085Y-112363181D01*
X100346762Y-112396666D01*
X100320404Y-112399500D01*
X99586669Y-112399500D01*
X99586653Y-112399499D01*
X99579057Y-112399499D01*
X99420943Y-112399499D01*
X99341010Y-112420917D01*
X99268216Y-112440422D01*
X99230145Y-112462403D01*
X99230144Y-112462402D01*
X99131287Y-112519477D01*
X99131282Y-112519481D01*
X99019478Y-112631286D01*
X97913829Y-113736934D01*
X97852506Y-113770419D01*
X97791556Y-113768330D01*
X97770997Y-113762357D01*
X97770991Y-113762356D01*
X97734697Y-113759500D01*
X97734690Y-113759500D01*
X97265310Y-113759500D01*
X97265302Y-113759500D01*
X97229008Y-113762356D01*
X97229002Y-113762357D01*
X97073609Y-113807504D01*
X97073606Y-113807505D01*
X96947250Y-113882232D01*
X96884129Y-113899500D01*
X96300098Y-113899500D01*
X96233059Y-113879815D01*
X96212417Y-113863181D01*
X96136819Y-113787583D01*
X96103334Y-113726260D01*
X96100500Y-113699902D01*
X96100500Y-92724500D01*
X96120185Y-92657461D01*
X96172989Y-92611706D01*
X96224500Y-92600500D01*
X96417588Y-92600500D01*
X96484627Y-92620185D01*
X96494903Y-92627555D01*
X96497736Y-92629814D01*
X96497738Y-92629816D01*
X96604172Y-92696693D01*
X96649936Y-92725449D01*
X96650478Y-92725789D01*
X96820745Y-92785368D01*
X96820750Y-92785369D01*
X96999996Y-92805565D01*
X97000000Y-92805565D01*
X97000004Y-92805565D01*
X97179249Y-92785369D01*
X97179252Y-92785368D01*
X97179255Y-92785368D01*
X97349522Y-92725789D01*
X97502262Y-92629816D01*
X97629816Y-92502262D01*
X97725789Y-92349522D01*
X97785368Y-92179255D01*
X97786319Y-92170819D01*
X97805565Y-92000003D01*
X97805565Y-91999996D01*
X97785369Y-91820750D01*
X97785368Y-91820745D01*
X97763712Y-91758855D01*
X97725789Y-91650478D01*
X97719350Y-91640231D01*
X97657838Y-91542335D01*
X97629816Y-91497738D01*
X97502262Y-91370184D01*
X97438604Y-91330185D01*
X97349523Y-91274211D01*
X97179254Y-91214631D01*
X97179249Y-91214630D01*
X97000004Y-91194435D01*
X96999996Y-91194435D01*
X96820750Y-91214630D01*
X96820745Y-91214631D01*
X96650476Y-91274211D01*
X96497736Y-91370185D01*
X96494903Y-91372445D01*
X96492724Y-91373334D01*
X96491842Y-91373889D01*
X96491744Y-91373734D01*
X96430217Y-91398855D01*
X96417588Y-91399500D01*
X96383063Y-91399500D01*
X96316024Y-91379815D01*
X96270269Y-91327011D01*
X96260325Y-91257853D01*
X96266021Y-91234546D01*
X96281259Y-91190997D01*
X96285368Y-91179255D01*
X96295161Y-91092330D01*
X96322226Y-91027920D01*
X96330700Y-91018534D01*
X96480520Y-90868716D01*
X96559577Y-90731784D01*
X96600501Y-90579057D01*
X96600501Y-90420942D01*
X96600501Y-90413347D01*
X96600500Y-90413329D01*
X96600500Y-86320000D01*
X100644571Y-86320000D01*
X100664244Y-86532310D01*
X100712168Y-86700744D01*
X100722596Y-86737392D01*
X100722596Y-86737394D01*
X100817632Y-86928253D01*
X100946127Y-87098406D01*
X100946128Y-87098407D01*
X101103698Y-87242052D01*
X101284981Y-87354298D01*
X101483802Y-87431321D01*
X101681973Y-87468365D01*
X101744253Y-87500033D01*
X101779526Y-87560346D01*
X101776592Y-87630154D01*
X101736383Y-87687294D01*
X101681972Y-87712143D01*
X101483941Y-87749162D01*
X101483936Y-87749163D01*
X101285210Y-87826149D01*
X101285201Y-87826154D01*
X101182992Y-87889438D01*
X101182991Y-87889439D01*
X101783553Y-88490000D01*
X101751289Y-88490000D01*
X101657185Y-88515215D01*
X101572814Y-88563926D01*
X101503926Y-88632814D01*
X101455215Y-88717185D01*
X101430000Y-88811289D01*
X101430000Y-88843552D01*
X100826836Y-88240388D01*
X100818059Y-88252010D01*
X100723066Y-88442783D01*
X100723058Y-88442803D01*
X100664738Y-88647780D01*
X100664737Y-88647783D01*
X100645073Y-88859999D01*
X100645073Y-88860000D01*
X100664737Y-89072216D01*
X100664738Y-89072219D01*
X100723058Y-89277196D01*
X100723064Y-89277211D01*
X100818061Y-89467991D01*
X100818064Y-89467996D01*
X100826836Y-89479610D01*
X101430000Y-88876446D01*
X101430000Y-88908711D01*
X101455215Y-89002815D01*
X101503926Y-89087186D01*
X101572814Y-89156074D01*
X101657185Y-89204785D01*
X101751289Y-89230000D01*
X101783553Y-89230000D01*
X101182991Y-89830559D01*
X101285204Y-89893847D01*
X101285208Y-89893849D01*
X101483936Y-89970836D01*
X101483941Y-89970837D01*
X101681972Y-90007856D01*
X101744253Y-90039524D01*
X101779526Y-90099836D01*
X101776592Y-90169645D01*
X101736383Y-90226785D01*
X101681973Y-90251634D01*
X101589932Y-90268839D01*
X101483802Y-90288679D01*
X101483800Y-90288679D01*
X101483798Y-90288680D01*
X101284982Y-90365701D01*
X101284980Y-90365702D01*
X101103699Y-90477947D01*
X100946127Y-90621593D01*
X100817632Y-90791746D01*
X100722596Y-90982605D01*
X100722596Y-90982607D01*
X100664244Y-91187689D01*
X100649539Y-91346390D01*
X100644571Y-91400000D01*
X100664244Y-91612310D01*
X100699991Y-91737947D01*
X100722596Y-91817392D01*
X100722596Y-91817394D01*
X100817632Y-92008253D01*
X100940398Y-92170819D01*
X100946128Y-92178407D01*
X101103698Y-92322052D01*
X101284981Y-92434298D01*
X101483802Y-92511321D01*
X101693390Y-92550500D01*
X101693392Y-92550500D01*
X101906608Y-92550500D01*
X101906610Y-92550500D01*
X102116198Y-92511321D01*
X102315019Y-92434298D01*
X102496302Y-92322052D01*
X102653872Y-92178407D01*
X102782366Y-92008255D01*
X102857314Y-91857738D01*
X102877403Y-91817394D01*
X102877403Y-91817393D01*
X102877405Y-91817389D01*
X102935756Y-91612310D01*
X102955429Y-91400000D01*
X102935756Y-91187690D01*
X102877405Y-90982611D01*
X102877403Y-90982606D01*
X102877403Y-90982605D01*
X102782367Y-90791746D01*
X102653872Y-90621593D01*
X102640244Y-90609169D01*
X102496302Y-90477948D01*
X102315019Y-90365702D01*
X102315017Y-90365701D01*
X102116201Y-90288680D01*
X102116200Y-90288679D01*
X102116198Y-90288679D01*
X101918026Y-90251634D01*
X101855746Y-90219965D01*
X101820473Y-90159653D01*
X101823407Y-90089845D01*
X101863616Y-90032705D01*
X101918027Y-90007856D01*
X102116058Y-89970837D01*
X102116063Y-89970836D01*
X102314791Y-89893849D01*
X102314798Y-89893846D01*
X102417006Y-89830560D01*
X102417006Y-89830559D01*
X101816448Y-89230000D01*
X101848711Y-89230000D01*
X101942815Y-89204785D01*
X102027186Y-89156074D01*
X102096074Y-89087186D01*
X102144785Y-89002815D01*
X102170000Y-88908711D01*
X102170000Y-88876447D01*
X102773162Y-89479609D01*
X102773163Y-89479609D01*
X102781940Y-89467988D01*
X102781942Y-89467985D01*
X102876933Y-89277216D01*
X102876941Y-89277196D01*
X102935261Y-89072219D01*
X102935262Y-89072216D01*
X102954927Y-88860000D01*
X102954927Y-88859999D01*
X102935262Y-88647783D01*
X102935261Y-88647780D01*
X102876941Y-88442803D01*
X102876933Y-88442783D01*
X102781942Y-88252014D01*
X102781937Y-88252006D01*
X102773163Y-88240389D01*
X102170000Y-88843552D01*
X102170000Y-88811289D01*
X102144785Y-88717185D01*
X102096074Y-88632814D01*
X102027186Y-88563926D01*
X101942815Y-88515215D01*
X101848711Y-88490000D01*
X101816448Y-88490000D01*
X102417007Y-87889439D01*
X102314793Y-87826151D01*
X102314789Y-87826149D01*
X102116063Y-87749163D01*
X102116058Y-87749162D01*
X101918027Y-87712143D01*
X101855746Y-87680475D01*
X101820473Y-87620162D01*
X101823407Y-87550354D01*
X101863616Y-87493214D01*
X101918024Y-87468366D01*
X102116198Y-87431321D01*
X102315019Y-87354298D01*
X102496302Y-87242052D01*
X102653872Y-87098407D01*
X102782366Y-86928255D01*
X102786007Y-86920943D01*
X102877403Y-86737394D01*
X102877403Y-86737393D01*
X102877405Y-86737389D01*
X102935756Y-86532310D01*
X102955429Y-86320000D01*
X102935756Y-86107690D01*
X102877405Y-85902611D01*
X102877403Y-85902606D01*
X102877403Y-85902605D01*
X102782367Y-85711746D01*
X102653872Y-85541593D01*
X102639902Y-85528858D01*
X102496302Y-85397948D01*
X102315019Y-85285702D01*
X102315017Y-85285701D01*
X102215608Y-85247190D01*
X102116198Y-85208679D01*
X101906610Y-85169500D01*
X101693390Y-85169500D01*
X101483802Y-85208679D01*
X101483799Y-85208679D01*
X101483799Y-85208680D01*
X101284982Y-85285701D01*
X101284980Y-85285702D01*
X101103699Y-85397947D01*
X100946127Y-85541593D01*
X100817632Y-85711746D01*
X100722596Y-85902605D01*
X100722596Y-85902607D01*
X100664244Y-86107689D01*
X100648384Y-86278855D01*
X100644571Y-86320000D01*
X96600500Y-86320000D01*
X96600500Y-84582412D01*
X96620185Y-84515373D01*
X96627555Y-84505097D01*
X96629810Y-84502267D01*
X96629816Y-84502262D01*
X96725789Y-84349522D01*
X96785368Y-84179255D01*
X96787492Y-84160404D01*
X96805565Y-84000003D01*
X96805565Y-83999996D01*
X96785369Y-83820750D01*
X96785368Y-83820745D01*
X96733656Y-83672960D01*
X96725789Y-83650478D01*
X96713544Y-83630991D01*
X96652788Y-83534298D01*
X96629816Y-83497738D01*
X96502262Y-83370184D01*
X96489611Y-83362235D01*
X96349523Y-83274211D01*
X96179254Y-83214631D01*
X96179249Y-83214630D01*
X96000004Y-83194435D01*
X95999996Y-83194435D01*
X95820750Y-83214630D01*
X95820745Y-83214631D01*
X95650476Y-83274211D01*
X95497737Y-83370184D01*
X95370184Y-83497737D01*
X95274211Y-83650476D01*
X95214631Y-83820745D01*
X95214630Y-83820750D01*
X95194435Y-83999996D01*
X95194435Y-84000003D01*
X95214630Y-84179249D01*
X95214631Y-84179254D01*
X95274211Y-84349523D01*
X95370185Y-84502263D01*
X95372445Y-84505097D01*
X95373334Y-84507275D01*
X95373889Y-84508158D01*
X95373734Y-84508255D01*
X95398855Y-84569783D01*
X95399500Y-84582412D01*
X95399500Y-90099092D01*
X95379815Y-90166131D01*
X95327011Y-90211886D01*
X95316463Y-90216130D01*
X95286014Y-90226785D01*
X95150478Y-90274210D01*
X94997737Y-90370184D01*
X94870184Y-90497737D01*
X94774211Y-90650476D01*
X94714631Y-90820745D01*
X94714630Y-90820750D01*
X94694435Y-90999996D01*
X94694435Y-91000003D01*
X94714630Y-91179249D01*
X94714631Y-91179254D01*
X94774211Y-91349523D01*
X94805928Y-91400000D01*
X94870184Y-91502262D01*
X94907921Y-91539999D01*
X94944779Y-91576857D01*
X94978263Y-91638181D01*
X94973278Y-91707872D01*
X94964486Y-91726535D01*
X94940424Y-91768213D01*
X94940423Y-91768216D01*
X94899500Y-91920943D01*
X94899500Y-113345573D01*
X94879815Y-113412612D01*
X94827011Y-113458367D01*
X94771105Y-113466405D01*
X94771105Y-113467036D01*
X94771104Y-113467036D01*
X94769573Y-113466625D01*
X94757853Y-113468311D01*
X94713508Y-113452965D01*
X94712936Y-113452635D01*
X94709113Y-113450427D01*
X94709114Y-113450424D01*
X94709101Y-113450421D01*
X94703058Y-113446932D01*
X94691786Y-113440423D01*
X94647145Y-113428461D01*
X94560930Y-113405360D01*
X94505345Y-113373267D01*
X94502262Y-113370184D01*
X94349523Y-113274211D01*
X94179254Y-113214631D01*
X94179249Y-113214630D01*
X94000004Y-113194435D01*
X93999996Y-113194435D01*
X93820750Y-113214630D01*
X93820745Y-113214631D01*
X93650476Y-113274211D01*
X93497737Y-113370184D01*
X93370184Y-113497737D01*
X93274211Y-113650476D01*
X93214631Y-113820745D01*
X93214630Y-113820750D01*
X93194435Y-113999996D01*
X93194435Y-114000003D01*
X93214630Y-114179249D01*
X93214631Y-114179254D01*
X93274211Y-114349523D01*
X93307473Y-114402458D01*
X93370184Y-114502262D01*
X93497738Y-114629816D01*
X93545354Y-114659735D01*
X93632721Y-114714632D01*
X93650478Y-114725789D01*
X93768424Y-114767060D01*
X93820745Y-114785368D01*
X93820750Y-114785369D01*
X93999996Y-114805565D01*
X94000000Y-114805565D01*
X94000003Y-114805565D01*
X94089358Y-114795497D01*
X94158180Y-114807551D01*
X94209560Y-114854900D01*
X94222318Y-114884121D01*
X94237504Y-114936391D01*
X94237507Y-114936397D01*
X94249910Y-114957370D01*
X94267093Y-115025094D01*
X94249912Y-115083608D01*
X94237968Y-115103804D01*
X94195496Y-115250000D01*
X94501648Y-115250000D01*
X94564766Y-115267267D01*
X94573605Y-115272494D01*
X94573608Y-115272494D01*
X94573610Y-115272496D01*
X94729002Y-115317642D01*
X94729005Y-115317642D01*
X94729007Y-115317643D01*
X94765310Y-115320500D01*
X94765318Y-115320500D01*
X95126000Y-115320500D01*
X95193039Y-115340185D01*
X95238794Y-115392989D01*
X95250000Y-115444500D01*
X95250000Y-115698598D01*
X95243042Y-115739552D01*
X95214632Y-115820742D01*
X95214630Y-115820750D01*
X95194435Y-115999996D01*
X95194435Y-116000003D01*
X95214630Y-116179249D01*
X95214631Y-116179254D01*
X95274211Y-116349523D01*
X95338811Y-116452333D01*
X95370184Y-116502262D01*
X95497738Y-116629816D01*
X95588080Y-116686582D01*
X95645830Y-116722869D01*
X95650478Y-116725789D01*
X95778249Y-116770498D01*
X95820745Y-116785368D01*
X95820750Y-116785369D01*
X95999996Y-116805565D01*
X96000000Y-116805565D01*
X96000004Y-116805565D01*
X96179249Y-116785369D01*
X96179252Y-116785368D01*
X96179255Y-116785368D01*
X96349522Y-116725789D01*
X96502262Y-116629816D01*
X96629816Y-116502262D01*
X96725789Y-116349522D01*
X96769561Y-116224427D01*
X96810283Y-116167652D01*
X96875235Y-116141904D01*
X96943797Y-116155360D01*
X96949724Y-116158650D01*
X97073804Y-116232031D01*
X97229089Y-116277145D01*
X97250000Y-116278789D01*
X97750000Y-116278789D01*
X97770910Y-116277145D01*
X97926195Y-116232031D01*
X98065374Y-116149721D01*
X98065383Y-116149714D01*
X98179714Y-116035383D01*
X98179721Y-116035374D01*
X98262031Y-115896195D01*
X98304504Y-115750000D01*
X97750000Y-115750000D01*
X97750000Y-116278789D01*
X97250000Y-116278789D01*
X97250000Y-115730000D01*
X98695496Y-115730000D01*
X98737968Y-115876195D01*
X98820278Y-116015374D01*
X98820285Y-116015383D01*
X98934616Y-116129714D01*
X98934625Y-116129721D01*
X99073804Y-116212031D01*
X99229089Y-116257145D01*
X99250000Y-116258789D01*
X99250000Y-115730000D01*
X98695496Y-115730000D01*
X97250000Y-115730000D01*
X97250000Y-115444500D01*
X97269685Y-115377461D01*
X97322489Y-115331706D01*
X97374000Y-115320500D01*
X97734682Y-115320500D01*
X97734690Y-115320500D01*
X97770993Y-115317643D01*
X97770995Y-115317642D01*
X97770997Y-115317642D01*
X97926389Y-115272496D01*
X97926389Y-115272495D01*
X97926395Y-115272494D01*
X97935233Y-115267267D01*
X97998352Y-115250000D01*
X98304504Y-115250000D01*
X98278015Y-115158821D01*
X98278214Y-115088951D01*
X98316156Y-115030281D01*
X98322507Y-115025775D01*
X98322270Y-115025466D01*
X98328714Y-115020521D01*
X98328713Y-115020521D01*
X98328716Y-115020520D01*
X98440520Y-114908716D01*
X98440520Y-114908714D01*
X98450728Y-114898507D01*
X98450729Y-114898504D01*
X98520659Y-114828574D01*
X98581980Y-114795091D01*
X98651672Y-114800075D01*
X98707605Y-114841947D01*
X98727414Y-114881661D01*
X98737504Y-114916391D01*
X98737507Y-114916397D01*
X98749910Y-114937370D01*
X98767093Y-115005094D01*
X98749912Y-115063608D01*
X98737968Y-115083804D01*
X98695496Y-115230000D01*
X99001648Y-115230000D01*
X99064766Y-115247267D01*
X99073605Y-115252494D01*
X99073608Y-115252494D01*
X99073610Y-115252496D01*
X99229002Y-115297642D01*
X99229005Y-115297642D01*
X99229007Y-115297643D01*
X99265310Y-115300500D01*
X99265318Y-115300500D01*
X99626000Y-115300500D01*
X99693039Y-115320185D01*
X99738794Y-115372989D01*
X99750000Y-115424500D01*
X99750000Y-116258789D01*
X99770910Y-116257145D01*
X99926195Y-116212031D01*
X99926197Y-116212030D01*
X100001434Y-116167535D01*
X100069158Y-116150351D01*
X100135421Y-116172510D01*
X100179184Y-116226976D01*
X100183632Y-116239671D01*
X100227129Y-116389387D01*
X100227130Y-116389391D01*
X100261419Y-116447371D01*
X100278601Y-116515095D01*
X100261419Y-116573611D01*
X100227594Y-116630806D01*
X100187156Y-116770000D01*
X100739591Y-116770000D01*
X100749318Y-116770382D01*
X100749516Y-116770397D01*
X100750819Y-116770500D01*
X101249180Y-116770499D01*
X101249193Y-116770498D01*
X101250668Y-116770382D01*
X101260393Y-116770000D01*
X101812844Y-116770000D01*
X101772404Y-116630805D01*
X101738581Y-116573612D01*
X101721398Y-116505888D01*
X101738582Y-116447369D01*
X101772867Y-116389396D01*
X101772869Y-116389393D01*
X101817665Y-116235204D01*
X101820500Y-116199181D01*
X101820499Y-115800820D01*
X101817665Y-115764796D01*
X101772869Y-115610607D01*
X101691135Y-115472402D01*
X101691133Y-115472400D01*
X101691130Y-115472396D01*
X101636819Y-115418085D01*
X101603334Y-115356762D01*
X101600500Y-115330404D01*
X101600500Y-114734500D01*
X101620185Y-114667461D01*
X101672989Y-114621706D01*
X101724500Y-114610500D01*
X102709903Y-114610500D01*
X102776942Y-114630185D01*
X102797584Y-114646819D01*
X103169298Y-115018533D01*
X103202783Y-115079856D01*
X103204837Y-115092330D01*
X103214630Y-115179249D01*
X103274210Y-115349521D01*
X103333890Y-115444500D01*
X103370184Y-115502262D01*
X103497738Y-115629816D01*
X103650478Y-115725789D01*
X103761948Y-115764794D01*
X103820745Y-115785368D01*
X103820750Y-115785369D01*
X103999996Y-115805565D01*
X104000000Y-115805565D01*
X104000004Y-115805565D01*
X104179249Y-115785369D01*
X104179252Y-115785368D01*
X104179255Y-115785368D01*
X104349522Y-115725789D01*
X104502262Y-115629816D01*
X104629816Y-115502262D01*
X104725789Y-115349522D01*
X104785368Y-115179255D01*
X104787395Y-115161265D01*
X104805565Y-115000003D01*
X104805565Y-114999996D01*
X104785369Y-114820750D01*
X104785368Y-114820745D01*
X104755283Y-114734767D01*
X104725789Y-114650478D01*
X104629816Y-114497738D01*
X104502262Y-114370184D01*
X104455052Y-114340520D01*
X104349521Y-114274210D01*
X104179249Y-114214630D01*
X104092330Y-114204837D01*
X104027916Y-114177770D01*
X104018533Y-114169298D01*
X103661416Y-113812181D01*
X103627931Y-113750858D01*
X103632915Y-113681166D01*
X103674787Y-113625233D01*
X103740251Y-113600816D01*
X103749097Y-113600500D01*
X104699903Y-113600500D01*
X104766942Y-113620185D01*
X104787584Y-113636819D01*
X106015139Y-114864374D01*
X106015149Y-114864385D01*
X106019479Y-114868715D01*
X106019480Y-114868716D01*
X106131284Y-114980520D01*
X106131286Y-114980521D01*
X106131290Y-114980524D01*
X106261478Y-115055687D01*
X106268216Y-115059577D01*
X106346306Y-115080501D01*
X106420942Y-115100500D01*
X106420943Y-115100500D01*
X116417588Y-115100500D01*
X116484627Y-115120185D01*
X116494903Y-115127555D01*
X116497736Y-115129814D01*
X116497738Y-115129816D01*
X116650478Y-115225789D01*
X116820745Y-115285368D01*
X116820750Y-115285369D01*
X116999996Y-115305565D01*
X117000000Y-115305565D01*
X117000002Y-115305565D01*
X117030483Y-115302130D01*
X117091617Y-115295242D01*
X117160438Y-115307296D01*
X117211817Y-115354645D01*
X117229500Y-115418462D01*
X117229500Y-122280943D01*
X117229500Y-122439057D01*
X117256347Y-122539249D01*
X117270423Y-122591783D01*
X117270426Y-122591790D01*
X117349475Y-122728709D01*
X117349479Y-122728714D01*
X117349480Y-122728716D01*
X117461284Y-122840520D01*
X117461286Y-122840521D01*
X117461290Y-122840524D01*
X117556000Y-122895204D01*
X117598216Y-122919577D01*
X117750943Y-122960500D01*
X128347588Y-122960500D01*
X128414627Y-122980185D01*
X128424903Y-122987555D01*
X128427736Y-122989814D01*
X128427738Y-122989816D01*
X128580478Y-123085789D01*
X128750745Y-123145368D01*
X128750750Y-123145369D01*
X128929996Y-123165565D01*
X128930000Y-123165565D01*
X128930004Y-123165565D01*
X129109249Y-123145369D01*
X129109252Y-123145368D01*
X129109255Y-123145368D01*
X129279522Y-123085789D01*
X129432262Y-122989816D01*
X129559816Y-122862262D01*
X129655789Y-122709522D01*
X129715368Y-122539255D01*
X129715369Y-122539249D01*
X129735565Y-122360003D01*
X129735565Y-122359996D01*
X129715369Y-122180750D01*
X129715368Y-122180745D01*
X129655788Y-122010475D01*
X129602691Y-121925973D01*
X129583690Y-121858736D01*
X129602691Y-121794027D01*
X129655788Y-121709524D01*
X129715368Y-121539254D01*
X129715369Y-121539249D01*
X129735565Y-121360003D01*
X129735565Y-121359996D01*
X129715369Y-121180750D01*
X129715368Y-121180745D01*
X129655788Y-121010476D01*
X129559815Y-120857737D01*
X129432262Y-120730184D01*
X129279523Y-120634211D01*
X129109254Y-120574631D01*
X129109249Y-120574630D01*
X128930004Y-120554435D01*
X128929996Y-120554435D01*
X128750750Y-120574630D01*
X128750745Y-120574631D01*
X128580476Y-120634211D01*
X128427736Y-120730185D01*
X128424903Y-120732445D01*
X128422724Y-120733334D01*
X128421842Y-120733889D01*
X128421744Y-120733734D01*
X128360217Y-120758855D01*
X128347588Y-120759500D01*
X120054500Y-120759500D01*
X119987461Y-120739815D01*
X119941706Y-120687011D01*
X119930500Y-120635500D01*
X119930500Y-111859996D01*
X123024435Y-111859996D01*
X123024435Y-111860003D01*
X123044630Y-112039249D01*
X123044631Y-112039254D01*
X123104211Y-112209523D01*
X123200185Y-112362263D01*
X123202445Y-112365097D01*
X123203334Y-112367275D01*
X123203889Y-112368158D01*
X123203734Y-112368255D01*
X123228855Y-112429783D01*
X123229500Y-112442412D01*
X123229500Y-115439057D01*
X123256347Y-115539249D01*
X123270423Y-115591783D01*
X123270426Y-115591790D01*
X123349475Y-115728709D01*
X123349479Y-115728714D01*
X123349480Y-115728716D01*
X123461284Y-115840520D01*
X123461286Y-115840521D01*
X123461290Y-115840524D01*
X123565561Y-115900724D01*
X123598216Y-115919577D01*
X123750943Y-115960500D01*
X123909057Y-115960500D01*
X128247588Y-115960500D01*
X128314627Y-115980185D01*
X128324903Y-115987555D01*
X128327736Y-115989814D01*
X128327738Y-115989816D01*
X128480478Y-116085789D01*
X128650745Y-116145368D01*
X128650750Y-116145369D01*
X128829996Y-116165565D01*
X128830000Y-116165565D01*
X128830004Y-116165565D01*
X129009249Y-116145369D01*
X129009252Y-116145368D01*
X129009255Y-116145368D01*
X129179522Y-116085789D01*
X129332262Y-115989816D01*
X129459816Y-115862262D01*
X129555789Y-115709522D01*
X129615368Y-115539255D01*
X129621024Y-115489057D01*
X129635565Y-115360003D01*
X129635565Y-115359996D01*
X129615369Y-115180750D01*
X129615368Y-115180745D01*
X129580065Y-115079856D01*
X129555789Y-115010478D01*
X129459816Y-114857738D01*
X129332262Y-114730184D01*
X129308428Y-114715208D01*
X129179523Y-114634211D01*
X129009254Y-114574631D01*
X129009249Y-114574630D01*
X128830004Y-114554435D01*
X128829996Y-114554435D01*
X128712916Y-114567626D01*
X128644094Y-114555571D01*
X128592715Y-114508222D01*
X128581991Y-114485360D01*
X128555789Y-114410478D01*
X128550750Y-114402458D01*
X128459816Y-114257738D01*
X128434770Y-114232692D01*
X128402676Y-114177104D01*
X128401179Y-114171517D01*
X128389577Y-114128216D01*
X128381983Y-114115063D01*
X128310524Y-113991290D01*
X128310518Y-113991282D01*
X128198717Y-113879481D01*
X128198709Y-113879475D01*
X128061790Y-113800426D01*
X128061786Y-113800424D01*
X128061784Y-113800423D01*
X127909057Y-113759500D01*
X127909056Y-113759500D01*
X126926350Y-113759500D01*
X126859311Y-113739815D01*
X126813556Y-113687011D01*
X126803130Y-113621617D01*
X126805565Y-113600004D01*
X126805565Y-113599996D01*
X126785369Y-113420750D01*
X126785368Y-113420745D01*
X126759064Y-113345573D01*
X126725789Y-113250478D01*
X126703265Y-113214632D01*
X126680937Y-113179097D01*
X126629816Y-113097738D01*
X126629814Y-113097736D01*
X126629813Y-113097734D01*
X126627550Y-113094896D01*
X126626659Y-113092715D01*
X126626111Y-113091842D01*
X126626264Y-113091745D01*
X126601144Y-113030209D01*
X126600500Y-113017587D01*
X126600500Y-112982412D01*
X126620185Y-112915373D01*
X126627555Y-112905097D01*
X126629810Y-112902267D01*
X126629816Y-112902262D01*
X126725789Y-112749522D01*
X126785368Y-112579255D01*
X126785369Y-112579249D01*
X126805565Y-112400003D01*
X126805565Y-112399996D01*
X126785369Y-112220750D01*
X126785368Y-112220745D01*
X126767895Y-112170811D01*
X126725789Y-112050478D01*
X126718736Y-112039254D01*
X126629815Y-111897737D01*
X126502262Y-111770184D01*
X126349521Y-111674210D01*
X126179250Y-111614630D01*
X126166083Y-111613147D01*
X126101670Y-111586079D01*
X126062928Y-111530880D01*
X126055789Y-111510478D01*
X126055789Y-111510477D01*
X125959815Y-111357737D01*
X125832262Y-111230184D01*
X125679523Y-111134211D01*
X125509254Y-111074631D01*
X125509249Y-111074630D01*
X125330004Y-111054435D01*
X125329996Y-111054435D01*
X125150750Y-111074630D01*
X125150745Y-111074631D01*
X124980476Y-111134211D01*
X124827737Y-111230184D01*
X124700184Y-111357737D01*
X124684994Y-111381913D01*
X124632659Y-111428204D01*
X124563605Y-111438852D01*
X124499757Y-111410477D01*
X124475006Y-111381913D01*
X124459815Y-111357737D01*
X124332262Y-111230184D01*
X124179523Y-111134211D01*
X124009254Y-111074631D01*
X124009249Y-111074630D01*
X123830004Y-111054435D01*
X123829996Y-111054435D01*
X123650750Y-111074630D01*
X123650745Y-111074631D01*
X123480476Y-111134211D01*
X123327737Y-111230184D01*
X123200184Y-111357737D01*
X123104211Y-111510476D01*
X123044631Y-111680745D01*
X123044630Y-111680750D01*
X123024435Y-111859996D01*
X119930500Y-111859996D01*
X119930500Y-106750941D01*
X119930373Y-106750469D01*
X119930349Y-106750380D01*
X119908333Y-106668216D01*
X119889576Y-106598214D01*
X119889573Y-106598209D01*
X119810524Y-106461290D01*
X119810521Y-106461286D01*
X119810520Y-106461284D01*
X119698716Y-106349480D01*
X119698715Y-106349479D01*
X119694385Y-106345149D01*
X119694374Y-106345139D01*
X117946819Y-104597584D01*
X117913334Y-104536261D01*
X117910500Y-104509903D01*
X117910500Y-91289274D01*
X117930185Y-91222235D01*
X117982989Y-91176480D01*
X118052147Y-91166536D01*
X118069086Y-91170195D01*
X118094796Y-91177665D01*
X118130819Y-91180500D01*
X118529180Y-91180499D01*
X118565204Y-91177665D01*
X118719393Y-91132869D01*
X118857598Y-91051135D01*
X118911915Y-90996817D01*
X118973236Y-90963334D01*
X118999595Y-90960500D01*
X119143334Y-90960500D01*
X119210373Y-90980185D01*
X119231016Y-90996820D01*
X119274307Y-91040112D01*
X119274311Y-91040115D01*
X119274313Y-91040117D01*
X119413605Y-91122494D01*
X119449312Y-91132868D01*
X119569002Y-91167642D01*
X119569005Y-91167642D01*
X119569007Y-91167643D01*
X119605310Y-91170500D01*
X119605318Y-91170500D01*
X120014682Y-91170500D01*
X120014690Y-91170500D01*
X120050993Y-91167643D01*
X120050995Y-91167642D01*
X120050997Y-91167642D01*
X120095577Y-91154690D01*
X120206395Y-91122494D01*
X120226879Y-91110379D01*
X120294601Y-91093196D01*
X120353119Y-91110379D01*
X120373605Y-91122494D01*
X120373607Y-91122494D01*
X120373608Y-91122495D01*
X120529002Y-91167642D01*
X120529005Y-91167642D01*
X120529007Y-91167643D01*
X120565310Y-91170500D01*
X120565318Y-91170500D01*
X120974682Y-91170500D01*
X120974690Y-91170500D01*
X121010993Y-91167643D01*
X121010995Y-91167642D01*
X121010997Y-91167642D01*
X121055577Y-91154690D01*
X121166395Y-91122494D01*
X121293210Y-91047495D01*
X121360933Y-91030313D01*
X121422299Y-91049233D01*
X121480478Y-91085789D01*
X121480481Y-91085790D01*
X121650737Y-91145366D01*
X121650743Y-91145367D01*
X121650745Y-91145368D01*
X121650746Y-91145368D01*
X121650750Y-91145369D01*
X121789383Y-91160989D01*
X121853797Y-91188055D01*
X121893352Y-91245650D01*
X121899500Y-91284209D01*
X121899500Y-108913330D01*
X121899499Y-108913348D01*
X121899499Y-109079054D01*
X121899498Y-109079054D01*
X121940424Y-109231789D01*
X121940425Y-109231790D01*
X121959481Y-109264795D01*
X121959482Y-109264796D01*
X122019477Y-109368712D01*
X122019479Y-109368715D01*
X122019480Y-109368716D01*
X122131284Y-109480520D01*
X122131285Y-109480521D01*
X122631284Y-109980520D01*
X122631286Y-109980521D01*
X122631290Y-109980524D01*
X122712821Y-110027595D01*
X122768216Y-110059577D01*
X122920943Y-110100501D01*
X122920945Y-110100501D01*
X123086654Y-110100501D01*
X123086670Y-110100500D01*
X127917588Y-110100500D01*
X127984627Y-110120185D01*
X127994903Y-110127555D01*
X127997736Y-110129814D01*
X127997738Y-110129816D01*
X128150478Y-110225789D01*
X128320745Y-110285368D01*
X128320750Y-110285369D01*
X128499996Y-110305565D01*
X128500000Y-110305565D01*
X128500004Y-110305565D01*
X128679249Y-110285369D01*
X128679252Y-110285368D01*
X128679255Y-110285368D01*
X128849522Y-110225789D01*
X129002262Y-110129816D01*
X129129816Y-110002262D01*
X129225789Y-109849522D01*
X129262789Y-109743779D01*
X129303511Y-109687005D01*
X129365948Y-109661515D01*
X129509249Y-109645369D01*
X129509252Y-109645368D01*
X129509255Y-109645368D01*
X129679522Y-109585789D01*
X129832262Y-109489816D01*
X129959816Y-109362262D01*
X130055789Y-109209522D01*
X130115368Y-109039255D01*
X130116923Y-109025454D01*
X130135565Y-108860003D01*
X130135565Y-108859996D01*
X130115369Y-108680750D01*
X130115368Y-108680745D01*
X130079673Y-108578735D01*
X130055789Y-108510478D01*
X129959816Y-108357738D01*
X129936819Y-108334741D01*
X129903334Y-108273418D01*
X129900500Y-108247060D01*
X129900500Y-101315731D01*
X129920185Y-101248692D01*
X129972989Y-101202937D01*
X130042147Y-101192993D01*
X130105703Y-101222018D01*
X130129492Y-101249757D01*
X130200184Y-101362262D01*
X130327738Y-101489816D01*
X130480478Y-101585789D01*
X130650745Y-101645368D01*
X130650750Y-101645369D01*
X130829996Y-101665565D01*
X130830000Y-101665565D01*
X130830004Y-101665565D01*
X131009249Y-101645369D01*
X131009252Y-101645368D01*
X131009255Y-101645368D01*
X131179522Y-101585789D01*
X131332262Y-101489816D01*
X131459816Y-101362262D01*
X131555789Y-101209522D01*
X131615368Y-101039255D01*
X131635565Y-100860000D01*
X131635565Y-100859995D01*
X131629750Y-100808383D01*
X131641805Y-100739561D01*
X131689154Y-100688182D01*
X131752970Y-100670500D01*
X132034682Y-100670500D01*
X132034690Y-100670500D01*
X132070993Y-100667643D01*
X132070995Y-100667642D01*
X132070997Y-100667642D01*
X132111975Y-100655736D01*
X132226395Y-100622494D01*
X132365687Y-100540117D01*
X132408984Y-100496820D01*
X132470307Y-100463334D01*
X132496666Y-100460500D01*
X132690405Y-100460500D01*
X132757444Y-100480185D01*
X132778081Y-100496814D01*
X132832402Y-100551135D01*
X132970607Y-100632869D01*
X132970614Y-100632871D01*
X133124791Y-100677664D01*
X133124794Y-100677664D01*
X133124796Y-100677665D01*
X133160819Y-100680500D01*
X133559180Y-100680499D01*
X133595204Y-100677665D01*
X133749393Y-100632869D01*
X133806882Y-100598869D01*
X133874602Y-100581688D01*
X133933117Y-100598869D01*
X133990607Y-100632869D01*
X133990610Y-100632869D01*
X133990612Y-100632871D01*
X134144791Y-100677664D01*
X134144794Y-100677664D01*
X134144796Y-100677665D01*
X134180819Y-100680500D01*
X134579180Y-100680499D01*
X134615204Y-100677665D01*
X134769393Y-100632869D01*
X134791879Y-100619570D01*
X134859601Y-100602387D01*
X134918119Y-100619570D01*
X134940607Y-100632869D01*
X134940609Y-100632869D01*
X134940610Y-100632870D01*
X135094791Y-100677664D01*
X135094794Y-100677664D01*
X135094796Y-100677665D01*
X135130819Y-100680500D01*
X135529180Y-100680499D01*
X135565204Y-100677665D01*
X135719393Y-100632869D01*
X135776882Y-100598869D01*
X135844602Y-100581688D01*
X135903117Y-100598869D01*
X135960607Y-100632869D01*
X135960610Y-100632869D01*
X135960612Y-100632871D01*
X136114791Y-100677664D01*
X136114794Y-100677664D01*
X136114796Y-100677665D01*
X136150819Y-100680500D01*
X136549180Y-100680499D01*
X136585204Y-100677665D01*
X136739393Y-100632869D01*
X136877598Y-100551135D01*
X136931915Y-100496817D01*
X136993236Y-100463334D01*
X137019595Y-100460500D01*
X137605500Y-100460500D01*
X137672539Y-100480185D01*
X137718294Y-100532989D01*
X137729500Y-100584500D01*
X137729500Y-101777587D01*
X137709815Y-101844626D01*
X137702450Y-101854896D01*
X137700186Y-101857734D01*
X137604211Y-102010476D01*
X137544631Y-102180745D01*
X137544630Y-102180750D01*
X137524435Y-102359996D01*
X137524435Y-102360003D01*
X137544630Y-102539249D01*
X137544631Y-102539254D01*
X137604211Y-102709523D01*
X137700184Y-102862262D01*
X137827738Y-102989816D01*
X137846828Y-103001811D01*
X137949523Y-103066339D01*
X137980478Y-103085789D01*
X138106297Y-103129815D01*
X138150745Y-103145368D01*
X138150750Y-103145369D01*
X138329996Y-103165565D01*
X138330000Y-103165565D01*
X138330004Y-103165565D01*
X138509249Y-103145369D01*
X138509252Y-103145368D01*
X138509255Y-103145368D01*
X138679522Y-103085789D01*
X138832262Y-102989816D01*
X138959816Y-102862262D01*
X139055789Y-102709522D01*
X139115368Y-102539255D01*
X139115369Y-102539249D01*
X139135565Y-102360003D01*
X139135565Y-102359996D01*
X139115369Y-102180750D01*
X139115366Y-102180737D01*
X139096022Y-102125455D01*
X139092460Y-102055676D01*
X139127188Y-101995049D01*
X139189182Y-101962821D01*
X139213063Y-101960500D01*
X139805500Y-101960500D01*
X139872539Y-101980185D01*
X139918294Y-102032989D01*
X139929500Y-102084500D01*
X139929500Y-107780404D01*
X139909815Y-107847443D01*
X139893181Y-107868085D01*
X139877932Y-107883334D01*
X139816609Y-107916819D01*
X139746917Y-107911835D01*
X139702570Y-107883334D01*
X139598717Y-107779481D01*
X139598709Y-107779475D01*
X139483043Y-107712696D01*
X139483042Y-107712695D01*
X139468100Y-107704069D01*
X139461785Y-107700423D01*
X139309057Y-107659499D01*
X139150943Y-107659499D01*
X139143347Y-107659499D01*
X139143331Y-107659500D01*
X134350940Y-107659500D01*
X134310019Y-107670464D01*
X134310019Y-107670465D01*
X134272751Y-107680451D01*
X134198214Y-107700423D01*
X134198209Y-107700426D01*
X134061290Y-107779475D01*
X134061282Y-107779481D01*
X133849481Y-107991282D01*
X133849480Y-107991284D01*
X133813020Y-108054435D01*
X133770423Y-108128215D01*
X133729499Y-108280943D01*
X133729499Y-108280945D01*
X133729499Y-108449046D01*
X133729500Y-108449059D01*
X133729500Y-108777587D01*
X133709815Y-108844626D01*
X133702450Y-108854896D01*
X133700186Y-108857734D01*
X133604211Y-109010476D01*
X133544631Y-109180745D01*
X133544630Y-109180750D01*
X133524435Y-109359996D01*
X133524435Y-109360004D01*
X133535136Y-109454985D01*
X133523081Y-109523807D01*
X133475732Y-109575186D01*
X133446514Y-109587943D01*
X133413612Y-109597502D01*
X133413601Y-109597507D01*
X133393117Y-109609621D01*
X133325392Y-109626801D01*
X133266880Y-109609620D01*
X133246397Y-109597506D01*
X133246391Y-109597504D01*
X133090997Y-109552357D01*
X133090991Y-109552356D01*
X133054697Y-109549500D01*
X133054690Y-109549500D01*
X132645310Y-109549500D01*
X132645302Y-109549500D01*
X132609008Y-109552356D01*
X132609002Y-109552357D01*
X132453609Y-109597504D01*
X132453606Y-109597505D01*
X132314315Y-109679881D01*
X132314307Y-109679887D01*
X132199887Y-109794307D01*
X132199881Y-109794315D01*
X132117505Y-109933606D01*
X132117504Y-109933609D01*
X132072357Y-110089002D01*
X132072356Y-110089008D01*
X132069500Y-110125302D01*
X132069500Y-110442663D01*
X132049815Y-110509702D01*
X131997011Y-110555457D01*
X131931618Y-110565883D01*
X131830005Y-110554435D01*
X131829996Y-110554435D01*
X131650750Y-110574630D01*
X131650745Y-110574631D01*
X131480476Y-110634211D01*
X131327737Y-110730184D01*
X131200184Y-110857737D01*
X131104211Y-111010476D01*
X131044631Y-111180745D01*
X131044630Y-111180750D01*
X131032391Y-111289383D01*
X131005325Y-111353797D01*
X130947730Y-111393353D01*
X130909171Y-111399500D01*
X128582412Y-111399500D01*
X128515373Y-111379815D01*
X128505097Y-111372445D01*
X128502263Y-111370185D01*
X128502262Y-111370184D01*
X128427459Y-111323182D01*
X128349523Y-111274211D01*
X128179254Y-111214631D01*
X128179249Y-111214630D01*
X128000004Y-111194435D01*
X127999996Y-111194435D01*
X127820750Y-111214630D01*
X127820745Y-111214631D01*
X127650476Y-111274211D01*
X127497737Y-111370184D01*
X127370184Y-111497737D01*
X127274211Y-111650476D01*
X127214631Y-111820745D01*
X127214630Y-111820750D01*
X127194435Y-111999996D01*
X127194435Y-112000003D01*
X127214630Y-112179249D01*
X127214631Y-112179254D01*
X127274211Y-112349523D01*
X127345138Y-112462402D01*
X127370184Y-112502262D01*
X127497738Y-112629816D01*
X127650478Y-112725789D01*
X127718306Y-112749523D01*
X127820745Y-112785368D01*
X127820750Y-112785369D01*
X127999996Y-112805565D01*
X128000000Y-112805565D01*
X128000004Y-112805565D01*
X128179249Y-112785369D01*
X128179252Y-112785368D01*
X128179255Y-112785368D01*
X128349522Y-112725789D01*
X128502262Y-112629816D01*
X128502267Y-112629810D01*
X128505097Y-112627555D01*
X128507275Y-112626665D01*
X128508158Y-112626111D01*
X128508255Y-112626265D01*
X128569783Y-112601145D01*
X128582412Y-112600500D01*
X130158060Y-112600500D01*
X130225099Y-112620185D01*
X130270854Y-112672989D01*
X130280798Y-112742147D01*
X130251773Y-112805703D01*
X130245741Y-112812181D01*
X130200184Y-112857737D01*
X130104211Y-113010476D01*
X130044631Y-113180745D01*
X130044630Y-113180750D01*
X130024435Y-113359996D01*
X130024435Y-113360003D01*
X130044630Y-113539249D01*
X130044631Y-113539254D01*
X130104211Y-113709523D01*
X130153260Y-113787583D01*
X130200184Y-113862262D01*
X130327738Y-113989816D01*
X130400741Y-114035687D01*
X130455752Y-114070253D01*
X130480478Y-114085789D01*
X130601733Y-114128218D01*
X130650745Y-114145368D01*
X130650750Y-114145369D01*
X130829996Y-114165565D01*
X130830000Y-114165565D01*
X130830004Y-114165565D01*
X131009249Y-114145369D01*
X131009252Y-114145368D01*
X131009255Y-114145368D01*
X131179522Y-114085789D01*
X131332262Y-113989816D01*
X131332267Y-113989810D01*
X131335097Y-113987555D01*
X131337275Y-113986665D01*
X131338158Y-113986111D01*
X131338255Y-113986265D01*
X131399783Y-113961145D01*
X131412412Y-113960500D01*
X131653334Y-113960500D01*
X131720373Y-113980185D01*
X131741016Y-113996820D01*
X131784307Y-114040112D01*
X131784311Y-114040115D01*
X131784313Y-114040117D01*
X131923605Y-114122494D01*
X131964587Y-114134400D01*
X132079002Y-114167642D01*
X132079005Y-114167642D01*
X132079007Y-114167643D01*
X132115310Y-114170500D01*
X132115318Y-114170500D01*
X132524682Y-114170500D01*
X132524690Y-114170500D01*
X132560993Y-114167643D01*
X132560995Y-114167642D01*
X132560997Y-114167642D01*
X132601975Y-114155736D01*
X132716395Y-114122494D01*
X132736879Y-114110379D01*
X132804601Y-114093196D01*
X132863119Y-114110379D01*
X132883605Y-114122494D01*
X132883607Y-114122494D01*
X132883608Y-114122495D01*
X133039002Y-114167642D01*
X133039005Y-114167642D01*
X133039007Y-114167643D01*
X133075310Y-114170500D01*
X133075318Y-114170500D01*
X133484682Y-114170500D01*
X133484690Y-114170500D01*
X133520993Y-114167643D01*
X133520995Y-114167642D01*
X133520997Y-114167642D01*
X133561975Y-114155736D01*
X133676395Y-114122494D01*
X133701607Y-114107583D01*
X133769328Y-114090399D01*
X133827846Y-114107580D01*
X133870607Y-114132869D01*
X133870608Y-114132869D01*
X133870611Y-114132871D01*
X134024791Y-114177664D01*
X134024794Y-114177664D01*
X134024796Y-114177665D01*
X134060819Y-114180500D01*
X134459180Y-114180499D01*
X134495204Y-114177665D01*
X134520905Y-114170198D01*
X134590773Y-114170397D01*
X134649444Y-114208338D01*
X134678288Y-114271976D01*
X134679500Y-114289274D01*
X134679500Y-115109902D01*
X134659815Y-115176941D01*
X134643181Y-115197583D01*
X134311465Y-115529298D01*
X134250142Y-115562783D01*
X134237668Y-115564837D01*
X134150750Y-115574630D01*
X133980478Y-115634210D01*
X133827737Y-115730184D01*
X133700184Y-115857737D01*
X133604211Y-116010476D01*
X133544631Y-116180745D01*
X133544630Y-116180750D01*
X133524435Y-116359996D01*
X133524435Y-116360003D01*
X133544630Y-116539249D01*
X133544631Y-116539254D01*
X133604211Y-116709523D01*
X133604218Y-116709534D01*
X133604221Y-116709545D01*
X133607231Y-116715795D01*
X133606135Y-116716322D01*
X133623213Y-116776772D01*
X133602842Y-116843606D01*
X133549572Y-116888817D01*
X133499220Y-116899500D01*
X129582412Y-116899500D01*
X129515373Y-116879815D01*
X129505097Y-116872445D01*
X129502263Y-116870185D01*
X129502262Y-116870184D01*
X129399422Y-116805565D01*
X129349523Y-116774211D01*
X129179254Y-116714631D01*
X129179249Y-116714630D01*
X129000004Y-116694435D01*
X128999996Y-116694435D01*
X128820750Y-116714630D01*
X128820745Y-116714631D01*
X128650476Y-116774211D01*
X128497737Y-116870184D01*
X128370184Y-116997737D01*
X128274211Y-117150476D01*
X128214631Y-117320745D01*
X128214630Y-117320750D01*
X128194435Y-117499996D01*
X128194435Y-117500003D01*
X128214630Y-117679249D01*
X128214631Y-117679254D01*
X128274211Y-117849523D01*
X128350707Y-117971264D01*
X128370184Y-118002262D01*
X128497738Y-118129816D01*
X128557791Y-118167550D01*
X128632156Y-118214277D01*
X128650478Y-118225789D01*
X128820745Y-118285368D01*
X128820750Y-118285369D01*
X128999996Y-118305565D01*
X129000000Y-118305565D01*
X129000004Y-118305565D01*
X129179249Y-118285369D01*
X129179252Y-118285368D01*
X129179255Y-118285368D01*
X129349522Y-118225789D01*
X129502262Y-118129816D01*
X129502267Y-118129810D01*
X129505097Y-118127555D01*
X129507275Y-118126665D01*
X129508158Y-118126111D01*
X129508255Y-118126265D01*
X129569783Y-118101145D01*
X129582412Y-118100500D01*
X137199903Y-118100500D01*
X137266942Y-118120185D01*
X137287584Y-118136819D01*
X137669298Y-118518533D01*
X137702783Y-118579856D01*
X137704837Y-118592330D01*
X137714630Y-118679249D01*
X137768970Y-118834546D01*
X137772531Y-118904325D01*
X137737802Y-118964952D01*
X137675808Y-118997179D01*
X137651928Y-118999500D01*
X133582941Y-118999500D01*
X133515902Y-118979815D01*
X133495260Y-118963182D01*
X133402262Y-118870184D01*
X133323681Y-118820808D01*
X133249523Y-118774211D01*
X133079254Y-118714631D01*
X133079249Y-118714630D01*
X132900004Y-118694435D01*
X132899996Y-118694435D01*
X132720750Y-118714630D01*
X132720745Y-118714631D01*
X132550476Y-118774211D01*
X132397737Y-118870184D01*
X132270184Y-118997737D01*
X132174211Y-119150476D01*
X132114631Y-119320745D01*
X132114630Y-119320750D01*
X132094435Y-119499996D01*
X132094435Y-119500003D01*
X132114630Y-119679249D01*
X132114631Y-119679254D01*
X132174211Y-119849523D01*
X132216979Y-119917587D01*
X132270184Y-120002262D01*
X132397738Y-120129816D01*
X132473692Y-120177541D01*
X132550474Y-120225787D01*
X132550478Y-120225789D01*
X132685368Y-120272989D01*
X132720745Y-120285368D01*
X132720750Y-120285369D01*
X132899996Y-120305565D01*
X132900000Y-120305565D01*
X132900004Y-120305565D01*
X133079249Y-120285369D01*
X133079252Y-120285368D01*
X133079255Y-120285368D01*
X133249522Y-120225789D01*
X133250488Y-120225181D01*
X133259523Y-120219506D01*
X133325494Y-120200500D01*
X139589424Y-120200500D01*
X139656463Y-120220185D01*
X139702218Y-120272989D01*
X139712644Y-120338383D01*
X139694435Y-120499996D01*
X139694435Y-120500003D01*
X139708137Y-120621617D01*
X139696082Y-120690439D01*
X139648733Y-120741818D01*
X139584917Y-120759500D01*
X138584949Y-120759500D01*
X138517910Y-120739815D01*
X138497268Y-120723182D01*
X138453335Y-120679249D01*
X138404270Y-120630184D01*
X138315858Y-120574631D01*
X138251531Y-120534211D01*
X138081262Y-120474631D01*
X138081257Y-120474630D01*
X137902012Y-120454435D01*
X137902004Y-120454435D01*
X137722758Y-120474630D01*
X137722753Y-120474631D01*
X137552484Y-120534211D01*
X137399745Y-120630184D01*
X137272192Y-120757737D01*
X137176218Y-120910478D01*
X137116638Y-121080750D01*
X137110518Y-121135070D01*
X137083451Y-121199484D01*
X137053270Y-121226180D01*
X136949445Y-121291417D01*
X136821892Y-121418970D01*
X136725919Y-121571709D01*
X136666339Y-121741978D01*
X136666338Y-121741983D01*
X136646143Y-121921229D01*
X136646143Y-121921236D01*
X136666338Y-122100482D01*
X136666339Y-122100487D01*
X136725919Y-122270756D01*
X136781993Y-122359996D01*
X136821892Y-122423495D01*
X136949446Y-122551049D01*
X137102186Y-122647022D01*
X137272453Y-122706601D01*
X137272458Y-122706602D01*
X137429383Y-122724283D01*
X137493797Y-122751349D01*
X137533352Y-122808944D01*
X137539500Y-122847494D01*
X137539500Y-122859164D01*
X137539501Y-122859192D01*
X137542335Y-122895205D01*
X137587129Y-123049388D01*
X137587131Y-123049393D01*
X137668865Y-123187598D01*
X137733182Y-123251915D01*
X137766666Y-123313236D01*
X137769500Y-123339595D01*
X137769500Y-123443333D01*
X137749815Y-123510372D01*
X137733181Y-123531014D01*
X137719887Y-123544307D01*
X137719881Y-123544315D01*
X137637502Y-123683611D01*
X137637007Y-123684756D01*
X137636379Y-123685509D01*
X137633535Y-123690320D01*
X137632758Y-123689860D01*
X137592313Y-123738460D01*
X137525678Y-123759475D01*
X137523210Y-123759500D01*
X136464595Y-123759500D01*
X136397556Y-123739815D01*
X136376918Y-123723185D01*
X136322598Y-123668865D01*
X136295269Y-123652703D01*
X136184393Y-123587131D01*
X136184388Y-123587129D01*
X136030208Y-123542335D01*
X136030202Y-123542334D01*
X135994181Y-123539500D01*
X135595830Y-123539500D01*
X135595808Y-123539501D01*
X135559794Y-123542335D01*
X135405611Y-123587129D01*
X135405604Y-123587132D01*
X135348119Y-123621128D01*
X135280395Y-123638309D01*
X135221881Y-123621128D01*
X135164395Y-123587132D01*
X135164388Y-123587129D01*
X135010208Y-123542335D01*
X135010202Y-123542334D01*
X134974181Y-123539500D01*
X134575830Y-123539500D01*
X134575808Y-123539501D01*
X134539794Y-123542335D01*
X134385608Y-123587130D01*
X134385601Y-123587133D01*
X134337847Y-123615374D01*
X134270123Y-123632555D01*
X134211608Y-123615374D01*
X134181395Y-123597506D01*
X134181393Y-123597505D01*
X134181391Y-123597504D01*
X134025997Y-123552357D01*
X134025991Y-123552356D01*
X133989697Y-123549500D01*
X133989690Y-123549500D01*
X133580310Y-123549500D01*
X133580302Y-123549500D01*
X133544008Y-123552356D01*
X133544002Y-123552357D01*
X133388608Y-123597504D01*
X133388602Y-123597506D01*
X133368120Y-123609620D01*
X133300396Y-123626801D01*
X133241880Y-123609620D01*
X133221397Y-123597506D01*
X133221391Y-123597504D01*
X133065997Y-123552357D01*
X133065991Y-123552356D01*
X133029697Y-123549500D01*
X133029690Y-123549500D01*
X132620310Y-123549500D01*
X132620302Y-123549500D01*
X132584008Y-123552356D01*
X132584002Y-123552357D01*
X132428609Y-123597504D01*
X132428606Y-123597505D01*
X132335275Y-123652701D01*
X132267551Y-123669884D01*
X132206183Y-123650963D01*
X132179522Y-123634211D01*
X132179520Y-123634210D01*
X132179518Y-123634209D01*
X132009262Y-123574633D01*
X132009249Y-123574630D01*
X131830004Y-123554435D01*
X131829996Y-123554435D01*
X131650750Y-123574630D01*
X131650745Y-123574631D01*
X131480476Y-123634211D01*
X131327737Y-123730184D01*
X131200184Y-123857737D01*
X131104211Y-124010476D01*
X131044631Y-124180745D01*
X131044630Y-124180750D01*
X131024435Y-124359996D01*
X131024435Y-124360003D01*
X131044630Y-124539249D01*
X131044631Y-124539254D01*
X131104211Y-124709523D01*
X131167049Y-124809528D01*
X131186049Y-124876764D01*
X131165681Y-124943600D01*
X131112414Y-124988814D01*
X131062055Y-124999500D01*
X92124500Y-124999500D01*
X92057461Y-124979815D01*
X92011706Y-124927011D01*
X92000500Y-124875500D01*
X92000500Y-117270000D01*
X100187156Y-117270000D01*
X100227595Y-117409194D01*
X100309261Y-117547285D01*
X100309268Y-117547294D01*
X100422705Y-117660731D01*
X100422714Y-117660738D01*
X100560808Y-117742406D01*
X100560811Y-117742407D01*
X100714871Y-117787166D01*
X100714877Y-117787167D01*
X100750000Y-117789931D01*
X100750000Y-117789930D01*
X101250000Y-117789930D01*
X101285122Y-117787167D01*
X101285128Y-117787166D01*
X101439188Y-117742407D01*
X101439191Y-117742406D01*
X101577285Y-117660738D01*
X101577294Y-117660731D01*
X101690731Y-117547294D01*
X101690738Y-117547285D01*
X101772404Y-117409194D01*
X101812844Y-117270000D01*
X101250000Y-117270000D01*
X101250000Y-117789930D01*
X100750000Y-117789930D01*
X100750000Y-117270000D01*
X100187156Y-117270000D01*
X92000500Y-117270000D01*
X92000500Y-115750000D01*
X94195496Y-115750000D01*
X94237968Y-115896195D01*
X94320278Y-116035374D01*
X94320285Y-116035383D01*
X94434616Y-116149714D01*
X94434625Y-116149721D01*
X94573804Y-116232031D01*
X94729089Y-116277145D01*
X94750000Y-116278789D01*
X94750000Y-115750000D01*
X94195496Y-115750000D01*
X92000500Y-115750000D01*
X92000500Y-97807001D01*
X92020185Y-97739962D01*
X92072989Y-97694207D01*
X92142147Y-97684263D01*
X92195622Y-97705425D01*
X92322170Y-97794035D01*
X92536337Y-97893903D01*
X92764592Y-97955063D01*
X92952918Y-97971539D01*
X92999999Y-97975659D01*
X93000000Y-97975659D01*
X93000001Y-97975659D01*
X93039234Y-97972226D01*
X93235408Y-97955063D01*
X93463663Y-97893903D01*
X93677830Y-97794035D01*
X93871401Y-97658495D01*
X94038495Y-97491401D01*
X94174035Y-97297830D01*
X94273903Y-97083663D01*
X94335063Y-96855408D01*
X94355659Y-96620000D01*
X94335063Y-96384592D01*
X94273903Y-96156337D01*
X94174035Y-95942171D01*
X94080267Y-95808255D01*
X94038494Y-95748597D01*
X93871402Y-95581506D01*
X93871401Y-95581505D01*
X93685405Y-95451269D01*
X93641781Y-95396692D01*
X93634588Y-95327193D01*
X93666110Y-95264839D01*
X93685405Y-95248119D01*
X93871082Y-95118105D01*
X94038105Y-94951082D01*
X94173600Y-94757578D01*
X94273429Y-94543492D01*
X94273432Y-94543486D01*
X94330636Y-94330000D01*
X93433012Y-94330000D01*
X93465925Y-94272993D01*
X93500000Y-94145826D01*
X93500000Y-94014174D01*
X93465925Y-93887007D01*
X93433012Y-93830000D01*
X94330636Y-93830000D01*
X94330635Y-93829999D01*
X94273432Y-93616513D01*
X94273429Y-93616507D01*
X94173600Y-93402422D01*
X94173599Y-93402420D01*
X94038113Y-93208926D01*
X94038108Y-93208920D01*
X93871078Y-93041890D01*
X93685405Y-92911879D01*
X93641780Y-92857302D01*
X93634588Y-92787804D01*
X93666110Y-92725449D01*
X93685406Y-92708730D01*
X93686257Y-92708134D01*
X93871401Y-92578495D01*
X94038495Y-92411401D01*
X94174035Y-92217830D01*
X94273903Y-92003663D01*
X94335063Y-91775408D01*
X94355659Y-91540000D01*
X94335063Y-91304592D01*
X94286271Y-91122494D01*
X94273905Y-91076344D01*
X94273904Y-91076343D01*
X94273903Y-91076337D01*
X94174035Y-90862171D01*
X94145028Y-90820745D01*
X94038496Y-90668600D01*
X93979065Y-90609169D01*
X93916567Y-90546671D01*
X93883084Y-90485351D01*
X93888068Y-90415659D01*
X93929939Y-90359725D01*
X93960915Y-90342810D01*
X94092331Y-90293796D01*
X94207546Y-90207546D01*
X94293796Y-90092331D01*
X94344091Y-89957483D01*
X94350500Y-89897873D01*
X94350499Y-88102128D01*
X94344091Y-88042517D01*
X94327187Y-87997196D01*
X94293797Y-87907671D01*
X94293793Y-87907664D01*
X94207547Y-87792455D01*
X94207544Y-87792452D01*
X94092335Y-87706206D01*
X94092328Y-87706202D01*
X93957482Y-87655908D01*
X93957483Y-87655908D01*
X93897883Y-87649501D01*
X93897881Y-87649500D01*
X93897873Y-87649500D01*
X93897865Y-87649500D01*
X92124500Y-87649500D01*
X92057461Y-87629815D01*
X92011706Y-87577011D01*
X92000500Y-87525500D01*
X92000500Y-78299997D01*
X151672677Y-78299997D01*
X151672677Y-78300002D01*
X151691929Y-78520062D01*
X151691930Y-78520070D01*
X151749104Y-78733445D01*
X151749105Y-78733447D01*
X151749106Y-78733450D01*
X151782382Y-78804811D01*
X151842466Y-78933662D01*
X151842468Y-78933666D01*
X151969170Y-79114615D01*
X151969175Y-79114621D01*
X152125378Y-79270824D01*
X152125384Y-79270829D01*
X152306333Y-79397531D01*
X152306335Y-79397532D01*
X152306338Y-79397534D01*
X152506550Y-79490894D01*
X152719932Y-79548070D01*
X152877123Y-79561822D01*
X152939998Y-79567323D01*
X152940000Y-79567323D01*
X152940002Y-79567323D01*
X152995017Y-79562509D01*
X153160068Y-79548070D01*
X153373450Y-79490894D01*
X153573662Y-79397534D01*
X153754620Y-79270826D01*
X153910826Y-79114620D01*
X154037534Y-78933662D01*
X154097618Y-78804811D01*
X154143790Y-78752371D01*
X154210983Y-78733219D01*
X154277865Y-78753435D01*
X154322382Y-78804811D01*
X154382464Y-78933658D01*
X154382468Y-78933666D01*
X154509170Y-79114615D01*
X154509175Y-79114621D01*
X154665378Y-79270824D01*
X154665384Y-79270829D01*
X154846333Y-79397531D01*
X154846335Y-79397532D01*
X154846338Y-79397534D01*
X155046550Y-79490894D01*
X155259932Y-79548070D01*
X155417123Y-79561822D01*
X155479998Y-79567323D01*
X155480000Y-79567323D01*
X155480002Y-79567323D01*
X155535017Y-79562509D01*
X155700068Y-79548070D01*
X155913450Y-79490894D01*
X156113662Y-79397534D01*
X156294620Y-79270826D01*
X156450826Y-79114620D01*
X156577534Y-78933662D01*
X156637618Y-78804811D01*
X156683790Y-78752371D01*
X156750983Y-78733219D01*
X156817865Y-78753435D01*
X156862382Y-78804811D01*
X156922464Y-78933658D01*
X156922468Y-78933666D01*
X157049170Y-79114615D01*
X157049175Y-79114621D01*
X157205378Y-79270824D01*
X157205384Y-79270829D01*
X157386333Y-79397531D01*
X157386335Y-79397532D01*
X157386338Y-79397534D01*
X157586550Y-79490894D01*
X157799932Y-79548070D01*
X157957123Y-79561822D01*
X158019998Y-79567323D01*
X158020000Y-79567323D01*
X158020002Y-79567323D01*
X158075017Y-79562509D01*
X158240068Y-79548070D01*
X158453450Y-79490894D01*
X158653662Y-79397534D01*
X158834620Y-79270826D01*
X158990826Y-79114620D01*
X159117534Y-78933662D01*
X159177618Y-78804811D01*
X159223790Y-78752371D01*
X159290983Y-78733219D01*
X159357865Y-78753435D01*
X159402382Y-78804811D01*
X159462464Y-78933658D01*
X159462468Y-78933666D01*
X159589170Y-79114615D01*
X159589175Y-79114621D01*
X159745378Y-79270824D01*
X159745384Y-79270829D01*
X159926333Y-79397531D01*
X159926335Y-79397532D01*
X159926338Y-79397534D01*
X160126550Y-79490894D01*
X160339932Y-79548070D01*
X160497123Y-79561822D01*
X160559998Y-79567323D01*
X160560000Y-79567323D01*
X160560002Y-79567323D01*
X160615017Y-79562509D01*
X160780068Y-79548070D01*
X160993450Y-79490894D01*
X161193662Y-79397534D01*
X161374620Y-79270826D01*
X161530826Y-79114620D01*
X161657534Y-78933662D01*
X161717618Y-78804811D01*
X161763790Y-78752371D01*
X161830983Y-78733219D01*
X161897865Y-78753435D01*
X161942382Y-78804811D01*
X162002464Y-78933658D01*
X162002468Y-78933666D01*
X162129170Y-79114615D01*
X162129175Y-79114621D01*
X162285378Y-79270824D01*
X162285384Y-79270829D01*
X162466333Y-79397531D01*
X162466335Y-79397532D01*
X162466338Y-79397534D01*
X162666550Y-79490894D01*
X162879932Y-79548070D01*
X163037123Y-79561822D01*
X163099998Y-79567323D01*
X163100000Y-79567323D01*
X163100002Y-79567323D01*
X163155017Y-79562509D01*
X163320068Y-79548070D01*
X163533450Y-79490894D01*
X163733662Y-79397534D01*
X163914620Y-79270826D01*
X164070826Y-79114620D01*
X164197534Y-78933662D01*
X164257618Y-78804811D01*
X164303790Y-78752371D01*
X164370983Y-78733219D01*
X164437865Y-78753435D01*
X164482382Y-78804811D01*
X164542464Y-78933658D01*
X164542468Y-78933666D01*
X164669170Y-79114615D01*
X164669175Y-79114621D01*
X164825378Y-79270824D01*
X164825384Y-79270829D01*
X165006333Y-79397531D01*
X165006335Y-79397532D01*
X165006338Y-79397534D01*
X165206550Y-79490894D01*
X165419932Y-79548070D01*
X165577123Y-79561822D01*
X165639998Y-79567323D01*
X165640000Y-79567323D01*
X165640002Y-79567323D01*
X165695017Y-79562509D01*
X165860068Y-79548070D01*
X166073450Y-79490894D01*
X166273662Y-79397534D01*
X166454620Y-79270826D01*
X166610826Y-79114620D01*
X166737534Y-78933662D01*
X166797618Y-78804811D01*
X166843790Y-78752371D01*
X166910983Y-78733219D01*
X166977865Y-78753435D01*
X167022382Y-78804811D01*
X167082464Y-78933658D01*
X167082468Y-78933666D01*
X167209170Y-79114615D01*
X167209175Y-79114621D01*
X167365378Y-79270824D01*
X167365384Y-79270829D01*
X167546333Y-79397531D01*
X167546335Y-79397532D01*
X167546338Y-79397534D01*
X167746550Y-79490894D01*
X167959932Y-79548070D01*
X168117123Y-79561822D01*
X168179998Y-79567323D01*
X168180000Y-79567323D01*
X168180002Y-79567323D01*
X168235017Y-79562509D01*
X168400068Y-79548070D01*
X168613450Y-79490894D01*
X168813662Y-79397534D01*
X168994620Y-79270826D01*
X169150826Y-79114620D01*
X169277534Y-78933662D01*
X169337618Y-78804811D01*
X169383790Y-78752371D01*
X169450983Y-78733219D01*
X169517865Y-78753435D01*
X169562382Y-78804811D01*
X169622464Y-78933658D01*
X169622468Y-78933666D01*
X169749170Y-79114615D01*
X169749175Y-79114621D01*
X169905378Y-79270824D01*
X169905384Y-79270829D01*
X170086333Y-79397531D01*
X170086335Y-79397532D01*
X170086338Y-79397534D01*
X170286550Y-79490894D01*
X170499932Y-79548070D01*
X170657123Y-79561822D01*
X170719998Y-79567323D01*
X170720000Y-79567323D01*
X170720002Y-79567323D01*
X170775017Y-79562509D01*
X170940068Y-79548070D01*
X171153450Y-79490894D01*
X171353662Y-79397534D01*
X171534620Y-79270826D01*
X171690826Y-79114620D01*
X171817534Y-78933662D01*
X171877618Y-78804811D01*
X171923790Y-78752371D01*
X171990983Y-78733219D01*
X172057865Y-78753435D01*
X172102382Y-78804811D01*
X172162464Y-78933658D01*
X172162468Y-78933666D01*
X172289170Y-79114615D01*
X172289175Y-79114621D01*
X172445378Y-79270824D01*
X172445384Y-79270829D01*
X172626333Y-79397531D01*
X172626335Y-79397532D01*
X172626338Y-79397534D01*
X172826550Y-79490894D01*
X173039932Y-79548070D01*
X173197123Y-79561822D01*
X173259998Y-79567323D01*
X173260000Y-79567323D01*
X173260002Y-79567323D01*
X173315017Y-79562509D01*
X173480068Y-79548070D01*
X173693450Y-79490894D01*
X173893662Y-79397534D01*
X174074620Y-79270826D01*
X174230826Y-79114620D01*
X174357534Y-78933662D01*
X174417618Y-78804811D01*
X174463790Y-78752371D01*
X174530983Y-78733219D01*
X174597865Y-78753435D01*
X174642382Y-78804811D01*
X174702464Y-78933658D01*
X174702468Y-78933666D01*
X174829170Y-79114615D01*
X174829175Y-79114621D01*
X174985378Y-79270824D01*
X174985384Y-79270829D01*
X175166333Y-79397531D01*
X175166335Y-79397532D01*
X175166338Y-79397534D01*
X175366550Y-79490894D01*
X175579932Y-79548070D01*
X175737123Y-79561822D01*
X175799998Y-79567323D01*
X175800000Y-79567323D01*
X175800002Y-79567323D01*
X175855017Y-79562509D01*
X176020068Y-79548070D01*
X176233450Y-79490894D01*
X176433662Y-79397534D01*
X176614620Y-79270826D01*
X176770826Y-79114620D01*
X176897534Y-78933662D01*
X176957618Y-78804811D01*
X177003790Y-78752371D01*
X177070983Y-78733219D01*
X177137865Y-78753435D01*
X177182382Y-78804811D01*
X177242464Y-78933658D01*
X177242468Y-78933666D01*
X177369170Y-79114615D01*
X177369175Y-79114621D01*
X177525378Y-79270824D01*
X177525384Y-79270829D01*
X177706333Y-79397531D01*
X177706335Y-79397532D01*
X177706338Y-79397534D01*
X177906550Y-79490894D01*
X178119932Y-79548070D01*
X178277123Y-79561822D01*
X178339998Y-79567323D01*
X178340000Y-79567323D01*
X178340002Y-79567323D01*
X178395017Y-79562509D01*
X178560068Y-79548070D01*
X178773450Y-79490894D01*
X178973662Y-79397534D01*
X179154620Y-79270826D01*
X179310826Y-79114620D01*
X179437534Y-78933662D01*
X179497618Y-78804811D01*
X179543790Y-78752371D01*
X179610983Y-78733219D01*
X179677865Y-78753435D01*
X179722382Y-78804811D01*
X179782464Y-78933658D01*
X179782468Y-78933666D01*
X179909170Y-79114615D01*
X179909175Y-79114621D01*
X180065378Y-79270824D01*
X180065384Y-79270829D01*
X180246333Y-79397531D01*
X180246335Y-79397532D01*
X180246338Y-79397534D01*
X180446550Y-79490894D01*
X180659932Y-79548070D01*
X180817123Y-79561822D01*
X180879998Y-79567323D01*
X180880000Y-79567323D01*
X180880002Y-79567323D01*
X180935017Y-79562509D01*
X181100068Y-79548070D01*
X181313450Y-79490894D01*
X181513662Y-79397534D01*
X181694620Y-79270826D01*
X181850826Y-79114620D01*
X181977534Y-78933662D01*
X182037618Y-78804811D01*
X182083790Y-78752371D01*
X182150983Y-78733219D01*
X182217865Y-78753435D01*
X182262382Y-78804811D01*
X182322464Y-78933658D01*
X182322468Y-78933666D01*
X182449170Y-79114615D01*
X182449175Y-79114621D01*
X182605378Y-79270824D01*
X182605384Y-79270829D01*
X182786333Y-79397531D01*
X182786335Y-79397532D01*
X182786338Y-79397534D01*
X182986550Y-79490894D01*
X183199932Y-79548070D01*
X183357123Y-79561822D01*
X183419998Y-79567323D01*
X183420000Y-79567323D01*
X183420002Y-79567323D01*
X183475017Y-79562509D01*
X183640068Y-79548070D01*
X183853450Y-79490894D01*
X184053662Y-79397534D01*
X184234620Y-79270826D01*
X184390826Y-79114620D01*
X184517534Y-78933662D01*
X184577618Y-78804811D01*
X184623790Y-78752371D01*
X184690983Y-78733219D01*
X184757865Y-78753435D01*
X184802382Y-78804811D01*
X184862464Y-78933658D01*
X184862468Y-78933666D01*
X184989170Y-79114615D01*
X184989175Y-79114621D01*
X185145378Y-79270824D01*
X185145384Y-79270829D01*
X185326333Y-79397531D01*
X185326335Y-79397532D01*
X185326338Y-79397534D01*
X185526550Y-79490894D01*
X185739932Y-79548070D01*
X185897123Y-79561822D01*
X185959998Y-79567323D01*
X185960000Y-79567323D01*
X185960002Y-79567323D01*
X186015017Y-79562509D01*
X186180068Y-79548070D01*
X186393450Y-79490894D01*
X186593662Y-79397534D01*
X186774620Y-79270826D01*
X186930826Y-79114620D01*
X187057534Y-78933662D01*
X187117618Y-78804811D01*
X187163790Y-78752371D01*
X187230983Y-78733219D01*
X187297865Y-78753435D01*
X187342382Y-78804811D01*
X187402464Y-78933658D01*
X187402468Y-78933666D01*
X187529170Y-79114615D01*
X187529175Y-79114621D01*
X187685378Y-79270824D01*
X187685384Y-79270829D01*
X187866333Y-79397531D01*
X187866335Y-79397532D01*
X187866338Y-79397534D01*
X188066550Y-79490894D01*
X188279932Y-79548070D01*
X188437123Y-79561822D01*
X188499998Y-79567323D01*
X188500000Y-79567323D01*
X188500002Y-79567323D01*
X188555017Y-79562509D01*
X188720068Y-79548070D01*
X188933450Y-79490894D01*
X189133662Y-79397534D01*
X189314620Y-79270826D01*
X189470826Y-79114620D01*
X189597534Y-78933662D01*
X189690894Y-78733450D01*
X189748070Y-78520068D01*
X189767323Y-78300000D01*
X189748070Y-78079932D01*
X189690894Y-77866550D01*
X189597534Y-77666339D01*
X189470826Y-77485380D01*
X189314620Y-77329174D01*
X189314616Y-77329171D01*
X189314615Y-77329170D01*
X189133666Y-77202468D01*
X189133662Y-77202466D01*
X189133660Y-77202465D01*
X188933450Y-77109106D01*
X188933447Y-77109105D01*
X188933445Y-77109104D01*
X188720070Y-77051930D01*
X188720062Y-77051929D01*
X188500002Y-77032677D01*
X188499998Y-77032677D01*
X188279937Y-77051929D01*
X188279929Y-77051930D01*
X188066554Y-77109104D01*
X188066548Y-77109107D01*
X187866340Y-77202465D01*
X187866338Y-77202466D01*
X187685377Y-77329175D01*
X187529175Y-77485377D01*
X187402466Y-77666338D01*
X187402465Y-77666340D01*
X187342382Y-77795189D01*
X187296209Y-77847628D01*
X187229016Y-77866780D01*
X187162135Y-77846564D01*
X187117618Y-77795189D01*
X187057534Y-77666340D01*
X187057533Y-77666338D01*
X186930827Y-77485381D01*
X186930823Y-77485377D01*
X186774620Y-77329174D01*
X186774616Y-77329171D01*
X186774615Y-77329170D01*
X186593666Y-77202468D01*
X186593662Y-77202466D01*
X186593660Y-77202465D01*
X186393450Y-77109106D01*
X186393447Y-77109105D01*
X186393445Y-77109104D01*
X186180070Y-77051930D01*
X186180062Y-77051929D01*
X185960002Y-77032677D01*
X185959998Y-77032677D01*
X185739937Y-77051929D01*
X185739929Y-77051930D01*
X185526554Y-77109104D01*
X185526548Y-77109107D01*
X185326340Y-77202465D01*
X185326338Y-77202466D01*
X185145377Y-77329175D01*
X184989175Y-77485377D01*
X184862466Y-77666338D01*
X184862465Y-77666340D01*
X184802382Y-77795189D01*
X184756209Y-77847628D01*
X184689016Y-77866780D01*
X184622135Y-77846564D01*
X184577618Y-77795189D01*
X184517534Y-77666340D01*
X184517533Y-77666338D01*
X184390827Y-77485381D01*
X184390823Y-77485377D01*
X184234620Y-77329174D01*
X184234616Y-77329171D01*
X184234615Y-77329170D01*
X184053666Y-77202468D01*
X184053662Y-77202466D01*
X184053660Y-77202465D01*
X183853450Y-77109106D01*
X183853447Y-77109105D01*
X183853445Y-77109104D01*
X183640070Y-77051930D01*
X183640062Y-77051929D01*
X183420002Y-77032677D01*
X183419998Y-77032677D01*
X183199937Y-77051929D01*
X183199929Y-77051930D01*
X182986554Y-77109104D01*
X182986548Y-77109107D01*
X182786340Y-77202465D01*
X182786338Y-77202466D01*
X182605377Y-77329175D01*
X182449175Y-77485377D01*
X182322466Y-77666338D01*
X182322465Y-77666340D01*
X182262382Y-77795189D01*
X182216209Y-77847628D01*
X182149016Y-77866780D01*
X182082135Y-77846564D01*
X182037618Y-77795189D01*
X181977534Y-77666340D01*
X181977533Y-77666338D01*
X181850827Y-77485381D01*
X181850823Y-77485377D01*
X181694620Y-77329174D01*
X181694616Y-77329171D01*
X181694615Y-77329170D01*
X181513666Y-77202468D01*
X181513662Y-77202466D01*
X181513660Y-77202465D01*
X181313450Y-77109106D01*
X181313447Y-77109105D01*
X181313445Y-77109104D01*
X181100070Y-77051930D01*
X181100062Y-77051929D01*
X180880002Y-77032677D01*
X180879998Y-77032677D01*
X180659937Y-77051929D01*
X180659929Y-77051930D01*
X180446554Y-77109104D01*
X180446548Y-77109107D01*
X180246340Y-77202465D01*
X180246338Y-77202466D01*
X180065377Y-77329175D01*
X179909175Y-77485377D01*
X179782466Y-77666338D01*
X179782465Y-77666340D01*
X179722382Y-77795189D01*
X179676209Y-77847628D01*
X179609016Y-77866780D01*
X179542135Y-77846564D01*
X179497618Y-77795189D01*
X179437534Y-77666340D01*
X179437533Y-77666338D01*
X179310827Y-77485381D01*
X179310823Y-77485377D01*
X179154620Y-77329174D01*
X179154616Y-77329171D01*
X179154615Y-77329170D01*
X178973666Y-77202468D01*
X178973662Y-77202466D01*
X178973660Y-77202465D01*
X178773450Y-77109106D01*
X178773447Y-77109105D01*
X178773445Y-77109104D01*
X178560070Y-77051930D01*
X178560062Y-77051929D01*
X178340002Y-77032677D01*
X178339998Y-77032677D01*
X178119937Y-77051929D01*
X178119929Y-77051930D01*
X177906554Y-77109104D01*
X177906548Y-77109107D01*
X177706340Y-77202465D01*
X177706338Y-77202466D01*
X177525377Y-77329175D01*
X177369175Y-77485377D01*
X177242466Y-77666338D01*
X177242465Y-77666340D01*
X177182382Y-77795189D01*
X177136209Y-77847628D01*
X177069016Y-77866780D01*
X177002135Y-77846564D01*
X176957618Y-77795189D01*
X176897534Y-77666340D01*
X176897533Y-77666338D01*
X176770827Y-77485381D01*
X176770823Y-77485377D01*
X176614620Y-77329174D01*
X176614616Y-77329171D01*
X176614615Y-77329170D01*
X176433666Y-77202468D01*
X176433662Y-77202466D01*
X176433660Y-77202465D01*
X176233450Y-77109106D01*
X176233447Y-77109105D01*
X176233445Y-77109104D01*
X176020070Y-77051930D01*
X176020062Y-77051929D01*
X175800002Y-77032677D01*
X175799998Y-77032677D01*
X175579937Y-77051929D01*
X175579929Y-77051930D01*
X175366554Y-77109104D01*
X175366548Y-77109107D01*
X175166340Y-77202465D01*
X175166338Y-77202466D01*
X174985377Y-77329175D01*
X174829175Y-77485377D01*
X174702466Y-77666338D01*
X174702465Y-77666340D01*
X174642382Y-77795189D01*
X174596209Y-77847628D01*
X174529016Y-77866780D01*
X174462135Y-77846564D01*
X174417618Y-77795189D01*
X174357534Y-77666340D01*
X174357533Y-77666338D01*
X174230827Y-77485381D01*
X174230823Y-77485377D01*
X174074620Y-77329174D01*
X174074616Y-77329171D01*
X174074615Y-77329170D01*
X173893666Y-77202468D01*
X173893662Y-77202466D01*
X173893660Y-77202465D01*
X173693450Y-77109106D01*
X173693447Y-77109105D01*
X173693445Y-77109104D01*
X173480070Y-77051930D01*
X173480062Y-77051929D01*
X173260002Y-77032677D01*
X173259998Y-77032677D01*
X173039937Y-77051929D01*
X173039929Y-77051930D01*
X172826554Y-77109104D01*
X172826548Y-77109107D01*
X172626340Y-77202465D01*
X172626338Y-77202466D01*
X172445377Y-77329175D01*
X172289175Y-77485377D01*
X172162466Y-77666338D01*
X172162465Y-77666340D01*
X172102382Y-77795189D01*
X172056209Y-77847628D01*
X171989016Y-77866780D01*
X171922135Y-77846564D01*
X171877618Y-77795189D01*
X171817534Y-77666340D01*
X171817533Y-77666338D01*
X171690827Y-77485381D01*
X171690823Y-77485377D01*
X171534620Y-77329174D01*
X171534616Y-77329171D01*
X171534615Y-77329170D01*
X171353666Y-77202468D01*
X171353662Y-77202466D01*
X171353660Y-77202465D01*
X171153450Y-77109106D01*
X171153447Y-77109105D01*
X171153445Y-77109104D01*
X170940070Y-77051930D01*
X170940062Y-77051929D01*
X170720002Y-77032677D01*
X170719998Y-77032677D01*
X170499937Y-77051929D01*
X170499929Y-77051930D01*
X170286554Y-77109104D01*
X170286548Y-77109107D01*
X170086340Y-77202465D01*
X170086338Y-77202466D01*
X169905377Y-77329175D01*
X169749175Y-77485377D01*
X169622466Y-77666338D01*
X169622465Y-77666340D01*
X169562382Y-77795189D01*
X169516209Y-77847628D01*
X169449016Y-77866780D01*
X169382135Y-77846564D01*
X169337618Y-77795189D01*
X169277534Y-77666340D01*
X169277533Y-77666338D01*
X169150827Y-77485381D01*
X169150823Y-77485377D01*
X168994620Y-77329174D01*
X168994616Y-77329171D01*
X168994615Y-77329170D01*
X168813666Y-77202468D01*
X168813662Y-77202466D01*
X168813660Y-77202465D01*
X168613450Y-77109106D01*
X168613447Y-77109105D01*
X168613445Y-77109104D01*
X168400070Y-77051930D01*
X168400062Y-77051929D01*
X168180002Y-77032677D01*
X168179998Y-77032677D01*
X167959937Y-77051929D01*
X167959929Y-77051930D01*
X167746554Y-77109104D01*
X167746548Y-77109107D01*
X167546340Y-77202465D01*
X167546338Y-77202466D01*
X167365377Y-77329175D01*
X167209175Y-77485377D01*
X167082466Y-77666338D01*
X167082465Y-77666340D01*
X167022382Y-77795189D01*
X166976209Y-77847628D01*
X166909016Y-77866780D01*
X166842135Y-77846564D01*
X166797618Y-77795189D01*
X166737534Y-77666340D01*
X166737533Y-77666338D01*
X166610827Y-77485381D01*
X166610823Y-77485377D01*
X166454620Y-77329174D01*
X166454616Y-77329171D01*
X166454615Y-77329170D01*
X166273666Y-77202468D01*
X166273662Y-77202466D01*
X166273660Y-77202465D01*
X166073450Y-77109106D01*
X166073447Y-77109105D01*
X166073445Y-77109104D01*
X165860070Y-77051930D01*
X165860062Y-77051929D01*
X165640002Y-77032677D01*
X165639998Y-77032677D01*
X165419937Y-77051929D01*
X165419929Y-77051930D01*
X165206554Y-77109104D01*
X165206548Y-77109107D01*
X165006340Y-77202465D01*
X165006338Y-77202466D01*
X164825377Y-77329175D01*
X164669175Y-77485377D01*
X164542466Y-77666338D01*
X164542465Y-77666340D01*
X164482382Y-77795189D01*
X164436209Y-77847628D01*
X164369016Y-77866780D01*
X164302135Y-77846564D01*
X164257618Y-77795189D01*
X164197534Y-77666340D01*
X164197533Y-77666338D01*
X164070827Y-77485381D01*
X164070823Y-77485377D01*
X163914620Y-77329174D01*
X163914616Y-77329171D01*
X163914615Y-77329170D01*
X163733666Y-77202468D01*
X163733662Y-77202466D01*
X163733660Y-77202465D01*
X163533450Y-77109106D01*
X163533447Y-77109105D01*
X163533445Y-77109104D01*
X163320070Y-77051930D01*
X163320062Y-77051929D01*
X163100002Y-77032677D01*
X163099998Y-77032677D01*
X162879937Y-77051929D01*
X162879929Y-77051930D01*
X162666554Y-77109104D01*
X162666548Y-77109107D01*
X162466340Y-77202465D01*
X162466338Y-77202466D01*
X162285377Y-77329175D01*
X162129175Y-77485377D01*
X162002466Y-77666338D01*
X162002465Y-77666340D01*
X161942382Y-77795189D01*
X161896209Y-77847628D01*
X161829016Y-77866780D01*
X161762135Y-77846564D01*
X161717618Y-77795189D01*
X161657534Y-77666340D01*
X161657533Y-77666338D01*
X161530827Y-77485381D01*
X161530823Y-77485377D01*
X161374620Y-77329174D01*
X161374616Y-77329171D01*
X161374615Y-77329170D01*
X161193666Y-77202468D01*
X161193662Y-77202466D01*
X161193660Y-77202465D01*
X160993450Y-77109106D01*
X160993447Y-77109105D01*
X160993445Y-77109104D01*
X160780070Y-77051930D01*
X160780062Y-77051929D01*
X160560002Y-77032677D01*
X160559998Y-77032677D01*
X160339937Y-77051929D01*
X160339929Y-77051930D01*
X160126554Y-77109104D01*
X160126548Y-77109107D01*
X159926340Y-77202465D01*
X159926338Y-77202466D01*
X159745377Y-77329175D01*
X159589175Y-77485377D01*
X159462466Y-77666338D01*
X159462465Y-77666340D01*
X159402382Y-77795189D01*
X159356209Y-77847628D01*
X159289016Y-77866780D01*
X159222135Y-77846564D01*
X159177618Y-77795189D01*
X159117534Y-77666340D01*
X159117533Y-77666338D01*
X158990827Y-77485381D01*
X158990823Y-77485377D01*
X158834620Y-77329174D01*
X158834616Y-77329171D01*
X158834615Y-77329170D01*
X158653666Y-77202468D01*
X158653662Y-77202466D01*
X158653660Y-77202465D01*
X158453450Y-77109106D01*
X158453447Y-77109105D01*
X158453445Y-77109104D01*
X158240070Y-77051930D01*
X158240062Y-77051929D01*
X158020002Y-77032677D01*
X158019998Y-77032677D01*
X157799937Y-77051929D01*
X157799929Y-77051930D01*
X157586554Y-77109104D01*
X157586548Y-77109107D01*
X157386340Y-77202465D01*
X157386338Y-77202466D01*
X157205377Y-77329175D01*
X157049175Y-77485377D01*
X156922466Y-77666338D01*
X156922465Y-77666340D01*
X156862382Y-77795189D01*
X156816209Y-77847628D01*
X156749016Y-77866780D01*
X156682135Y-77846564D01*
X156637618Y-77795189D01*
X156577534Y-77666340D01*
X156577533Y-77666338D01*
X156450827Y-77485381D01*
X156450823Y-77485377D01*
X156294620Y-77329174D01*
X156294616Y-77329171D01*
X156294615Y-77329170D01*
X156113666Y-77202468D01*
X156113662Y-77202466D01*
X156113660Y-77202465D01*
X155913450Y-77109106D01*
X155913447Y-77109105D01*
X155913445Y-77109104D01*
X155700070Y-77051930D01*
X155700062Y-77051929D01*
X155480002Y-77032677D01*
X155479998Y-77032677D01*
X155259937Y-77051929D01*
X155259929Y-77051930D01*
X155046554Y-77109104D01*
X155046548Y-77109107D01*
X154846340Y-77202465D01*
X154846338Y-77202466D01*
X154665377Y-77329175D01*
X154509175Y-77485377D01*
X154382466Y-77666338D01*
X154382465Y-77666340D01*
X154322382Y-77795189D01*
X154276209Y-77847628D01*
X154209016Y-77866780D01*
X154142135Y-77846564D01*
X154097618Y-77795189D01*
X154037534Y-77666340D01*
X154037533Y-77666338D01*
X153910827Y-77485381D01*
X153910823Y-77485377D01*
X153754620Y-77329174D01*
X153754616Y-77329171D01*
X153754615Y-77329170D01*
X153573666Y-77202468D01*
X153573662Y-77202466D01*
X153573660Y-77202465D01*
X153373450Y-77109106D01*
X153373447Y-77109105D01*
X153373445Y-77109104D01*
X153160070Y-77051930D01*
X153160062Y-77051929D01*
X152940002Y-77032677D01*
X152939998Y-77032677D01*
X152719937Y-77051929D01*
X152719929Y-77051930D01*
X152506554Y-77109104D01*
X152506548Y-77109107D01*
X152306340Y-77202465D01*
X152306338Y-77202466D01*
X152125377Y-77329175D01*
X151969175Y-77485377D01*
X151842466Y-77666338D01*
X151842465Y-77666340D01*
X151749107Y-77866548D01*
X151749104Y-77866554D01*
X151691930Y-78079929D01*
X151691929Y-78079937D01*
X151672677Y-78299997D01*
X92000500Y-78299997D01*
X92000500Y-76124500D01*
X92020185Y-76057461D01*
X92072989Y-76011706D01*
X92124500Y-76000500D01*
X190875500Y-76000500D01*
X190942539Y-76020185D01*
G37*
%TD.AperFunction*%
%TA.AperFunction,Conductor*%
G36*
X116652539Y-90980185D02*
G01*
X116698294Y-91032989D01*
X116709500Y-91084500D01*
X116709500Y-104723330D01*
X116709499Y-104723348D01*
X116709499Y-104889054D01*
X116709498Y-104889054D01*
X116750423Y-105041784D01*
X116750424Y-105041788D01*
X116777229Y-105088216D01*
X116777230Y-105088216D01*
X116829477Y-105178712D01*
X116829481Y-105178717D01*
X116948349Y-105297585D01*
X116948355Y-105297590D01*
X118693181Y-107042416D01*
X118726666Y-107103739D01*
X118729500Y-107130097D01*
X118729500Y-121280942D01*
X118729500Y-121280943D01*
X118729500Y-121439057D01*
X118765044Y-121571711D01*
X118772527Y-121599635D01*
X118770190Y-121600260D01*
X118776342Y-121657528D01*
X118745061Y-121720004D01*
X118684969Y-121755651D01*
X118654314Y-121759500D01*
X118554500Y-121759500D01*
X118487461Y-121739815D01*
X118441706Y-121687011D01*
X118430500Y-121635500D01*
X118430500Y-108419059D01*
X118430501Y-108419046D01*
X118430501Y-108250945D01*
X118430501Y-108250943D01*
X118389577Y-108098215D01*
X118315252Y-107969481D01*
X118310520Y-107961284D01*
X118198716Y-107849480D01*
X118198715Y-107849479D01*
X118194385Y-107845149D01*
X118194374Y-107845139D01*
X115456819Y-105107584D01*
X115423334Y-105046261D01*
X115420500Y-105019903D01*
X115420500Y-91289274D01*
X115440185Y-91222235D01*
X115492989Y-91176480D01*
X115562147Y-91166536D01*
X115579086Y-91170195D01*
X115604796Y-91177665D01*
X115640819Y-91180500D01*
X116039180Y-91180499D01*
X116075204Y-91177665D01*
X116229393Y-91132869D01*
X116367598Y-91051135D01*
X116421915Y-90996817D01*
X116483236Y-90963334D01*
X116509595Y-90960500D01*
X116585500Y-90960500D01*
X116652539Y-90980185D01*
G37*
%TD.AperFunction*%
%TA.AperFunction,Conductor*%
G36*
X107129086Y-93230195D02*
G01*
X107154796Y-93237665D01*
X107190819Y-93240500D01*
X107589180Y-93240499D01*
X107589186Y-93240498D01*
X107590622Y-93240442D01*
X107590848Y-93240499D01*
X107591614Y-93240499D01*
X107591614Y-93240691D01*
X107658384Y-93257474D01*
X107706180Y-93308437D01*
X107719500Y-93364346D01*
X107719500Y-109413330D01*
X107719499Y-109413348D01*
X107719499Y-109579054D01*
X107719498Y-109579054D01*
X107760423Y-109731785D01*
X107781457Y-109768216D01*
X107839480Y-109868716D01*
X107951284Y-109980520D01*
X107951285Y-109980521D01*
X108451284Y-110480520D01*
X108451286Y-110480521D01*
X108451290Y-110480524D01*
X108501829Y-110509702D01*
X108588216Y-110559577D01*
X108740943Y-110600501D01*
X108740945Y-110600501D01*
X108906654Y-110600501D01*
X108906670Y-110600500D01*
X115917588Y-110600500D01*
X115984627Y-110620185D01*
X115994903Y-110627555D01*
X115997736Y-110629814D01*
X115997738Y-110629816D01*
X116150478Y-110725789D01*
X116320745Y-110785368D01*
X116320750Y-110785369D01*
X116499996Y-110805565D01*
X116500000Y-110805565D01*
X116500004Y-110805565D01*
X116679249Y-110785369D01*
X116679252Y-110785368D01*
X116679255Y-110785368D01*
X116849522Y-110725789D01*
X117002262Y-110629816D01*
X117017819Y-110614259D01*
X117079142Y-110580774D01*
X117148834Y-110585758D01*
X117204767Y-110627630D01*
X117229184Y-110693094D01*
X117229500Y-110701940D01*
X117229500Y-110943677D01*
X117209815Y-111010716D01*
X117157011Y-111056471D01*
X117119384Y-111066897D01*
X117050750Y-111074630D01*
X116880478Y-111134210D01*
X116727739Y-111230183D01*
X116634740Y-111323182D01*
X116573416Y-111356666D01*
X116547059Y-111359500D01*
X107094500Y-111359500D01*
X107027461Y-111339815D01*
X106981706Y-111287011D01*
X106970500Y-111235500D01*
X106970500Y-93349274D01*
X106990185Y-93282235D01*
X107042989Y-93236480D01*
X107112147Y-93226536D01*
X107129086Y-93230195D01*
G37*
%TD.AperFunction*%
%TA.AperFunction,Conductor*%
G36*
X127562539Y-83120185D02*
G01*
X127608294Y-83172989D01*
X127619500Y-83224500D01*
X127619500Y-88570435D01*
X127599815Y-88637474D01*
X127547011Y-88683229D01*
X127506731Y-88691991D01*
X127506919Y-88693655D01*
X127320750Y-88714630D01*
X127320745Y-88714631D01*
X127150476Y-88774211D01*
X126997737Y-88870184D01*
X126870184Y-88997737D01*
X126774211Y-89150476D01*
X126714631Y-89320745D01*
X126714630Y-89320750D01*
X126694435Y-89499996D01*
X126694435Y-89500003D01*
X126714630Y-89679249D01*
X126714631Y-89679254D01*
X126774212Y-89849525D01*
X126780492Y-89859519D01*
X126799500Y-89925493D01*
X126799500Y-106813330D01*
X126799499Y-106813348D01*
X126799499Y-106979056D01*
X126800560Y-106987114D01*
X126800076Y-106987177D01*
X126802899Y-107024867D01*
X126794435Y-107099995D01*
X126794435Y-107100003D01*
X126814630Y-107279249D01*
X126814631Y-107279254D01*
X126874211Y-107449523D01*
X126970184Y-107602262D01*
X127097738Y-107729816D01*
X127250478Y-107825789D01*
X127367572Y-107866762D01*
X127420745Y-107885368D01*
X127420750Y-107885369D01*
X127599996Y-107905565D01*
X127600000Y-107905565D01*
X127600004Y-107905565D01*
X127779249Y-107885369D01*
X127779252Y-107885368D01*
X127779255Y-107885368D01*
X127949522Y-107825789D01*
X128102262Y-107729816D01*
X128229816Y-107602262D01*
X128325789Y-107449522D01*
X128385368Y-107279255D01*
X128405565Y-107100000D01*
X128405564Y-107099995D01*
X128385369Y-106920750D01*
X128385368Y-106920745D01*
X128347782Y-106813330D01*
X128325789Y-106750478D01*
X128325783Y-106750469D01*
X128229815Y-106597737D01*
X128102261Y-106470183D01*
X128058528Y-106442704D01*
X128012237Y-106390370D01*
X128000500Y-106337710D01*
X128000500Y-104916321D01*
X128020185Y-104849282D01*
X128072989Y-104803527D01*
X128110612Y-104793101D01*
X128179255Y-104785368D01*
X128349522Y-104725789D01*
X128502262Y-104629816D01*
X128502262Y-104629815D01*
X128508158Y-104626111D01*
X128509602Y-104628409D01*
X128562849Y-104606659D01*
X128631547Y-104619401D01*
X128682450Y-104667261D01*
X128699500Y-104730012D01*
X128699500Y-108323101D01*
X128680494Y-108389073D01*
X128604212Y-108510475D01*
X128567211Y-108616219D01*
X128526489Y-108672995D01*
X128464053Y-108698484D01*
X128320749Y-108714630D01*
X128320745Y-108714631D01*
X128150476Y-108774211D01*
X127997736Y-108870185D01*
X127994903Y-108872445D01*
X127992724Y-108873334D01*
X127991842Y-108873889D01*
X127991744Y-108873734D01*
X127930217Y-108898855D01*
X127917588Y-108899500D01*
X123300098Y-108899500D01*
X123233059Y-108879815D01*
X123212417Y-108863181D01*
X123136819Y-108787583D01*
X123103334Y-108726260D01*
X123100500Y-108699902D01*
X123100500Y-85757607D01*
X123120185Y-85690568D01*
X123172989Y-85644813D01*
X123189900Y-85638532D01*
X123209393Y-85632869D01*
X123266882Y-85598869D01*
X123334602Y-85581688D01*
X123393117Y-85598869D01*
X123450607Y-85632869D01*
X123450610Y-85632869D01*
X123450612Y-85632871D01*
X123604791Y-85677664D01*
X123604794Y-85677664D01*
X123604796Y-85677665D01*
X123640819Y-85680500D01*
X124039180Y-85680499D01*
X124075204Y-85677665D01*
X124229393Y-85632869D01*
X124332262Y-85572032D01*
X124399983Y-85554850D01*
X124461352Y-85573771D01*
X124480478Y-85585789D01*
X124585375Y-85622494D01*
X124650745Y-85645368D01*
X124650749Y-85645369D01*
X124745947Y-85656094D01*
X124829384Y-85665495D01*
X124893797Y-85692561D01*
X124933352Y-85750156D01*
X124939500Y-85788715D01*
X124939500Y-101877060D01*
X124919815Y-101944099D01*
X124903181Y-101964741D01*
X124870184Y-101997737D01*
X124774211Y-102150476D01*
X124714631Y-102320745D01*
X124714630Y-102320750D01*
X124694435Y-102499996D01*
X124694435Y-102500003D01*
X124714630Y-102679249D01*
X124714631Y-102679254D01*
X124774211Y-102849523D01*
X124862363Y-102989815D01*
X124870184Y-103002262D01*
X124997738Y-103129816D01*
X125054632Y-103165565D01*
X125102720Y-103195781D01*
X125150478Y-103225789D01*
X125320745Y-103285368D01*
X125320750Y-103285369D01*
X125499996Y-103305565D01*
X125500000Y-103305565D01*
X125500004Y-103305565D01*
X125679249Y-103285369D01*
X125679252Y-103285368D01*
X125679255Y-103285368D01*
X125849522Y-103225789D01*
X126002262Y-103129816D01*
X126129816Y-103002262D01*
X126225789Y-102849522D01*
X126285368Y-102679255D01*
X126285369Y-102679249D01*
X126305565Y-102500003D01*
X126305565Y-102499996D01*
X126285369Y-102320750D01*
X126285366Y-102320737D01*
X126225790Y-102150481D01*
X126225789Y-102150478D01*
X126200357Y-102110003D01*
X126159506Y-102044988D01*
X126140500Y-101979016D01*
X126140500Y-83429274D01*
X126160185Y-83362235D01*
X126212989Y-83316480D01*
X126282147Y-83306536D01*
X126299086Y-83310195D01*
X126324796Y-83317665D01*
X126360819Y-83320500D01*
X126759180Y-83320499D01*
X126795204Y-83317665D01*
X126949393Y-83272869D01*
X127087598Y-83191135D01*
X127141915Y-83136817D01*
X127203236Y-83103334D01*
X127229595Y-83100500D01*
X127495500Y-83100500D01*
X127562539Y-83120185D01*
G37*
%TD.AperFunction*%
%TA.AperFunction,Conductor*%
G36*
X136805703Y-89538227D02*
G01*
X136812181Y-89544259D01*
X136897738Y-89629816D01*
X136988080Y-89686582D01*
X137048426Y-89724500D01*
X137050478Y-89725789D01*
X137140940Y-89757443D01*
X137220745Y-89785368D01*
X137220750Y-89785369D01*
X137399996Y-89805565D01*
X137400000Y-89805565D01*
X137400004Y-89805565D01*
X137579249Y-89785369D01*
X137579252Y-89785368D01*
X137579255Y-89785368D01*
X137749522Y-89725789D01*
X137902262Y-89629816D01*
X137902267Y-89629810D01*
X137905097Y-89627555D01*
X137907275Y-89626665D01*
X137908158Y-89626111D01*
X137908255Y-89626265D01*
X137969783Y-89601145D01*
X137982412Y-89600500D01*
X167175500Y-89600500D01*
X167242539Y-89620185D01*
X167288294Y-89672989D01*
X167299500Y-89724500D01*
X167299500Y-102743691D01*
X167279815Y-102810730D01*
X167263181Y-102831372D01*
X167209175Y-102885377D01*
X167082466Y-103066338D01*
X167082465Y-103066340D01*
X167022382Y-103195189D01*
X166976209Y-103247628D01*
X166909016Y-103266780D01*
X166842135Y-103246564D01*
X166797618Y-103195189D01*
X166767133Y-103129815D01*
X166737534Y-103066339D01*
X166642125Y-102930080D01*
X166610827Y-102885381D01*
X166536176Y-102810730D01*
X166454620Y-102729174D01*
X166454616Y-102729171D01*
X166454615Y-102729170D01*
X166273666Y-102602468D01*
X166273662Y-102602466D01*
X166226457Y-102580454D01*
X166073450Y-102509106D01*
X166073447Y-102509105D01*
X166073445Y-102509104D01*
X165860070Y-102451930D01*
X165860062Y-102451929D01*
X165640002Y-102432677D01*
X165639998Y-102432677D01*
X165419937Y-102451929D01*
X165419929Y-102451930D01*
X165206554Y-102509104D01*
X165206548Y-102509107D01*
X165006340Y-102602465D01*
X165006338Y-102602466D01*
X164825377Y-102729175D01*
X164669175Y-102885377D01*
X164542466Y-103066338D01*
X164542465Y-103066340D01*
X164482382Y-103195189D01*
X164436209Y-103247628D01*
X164369016Y-103266780D01*
X164302135Y-103246564D01*
X164257618Y-103195189D01*
X164227133Y-103129815D01*
X164197534Y-103066339D01*
X164102125Y-102930080D01*
X164070827Y-102885381D01*
X163996176Y-102810730D01*
X163914620Y-102729174D01*
X163914616Y-102729171D01*
X163914615Y-102729170D01*
X163753377Y-102616270D01*
X163709752Y-102561693D01*
X163700500Y-102514695D01*
X163700500Y-95020945D01*
X163700500Y-95020943D01*
X163659577Y-94868216D01*
X163619159Y-94798209D01*
X163580524Y-94731290D01*
X163580521Y-94731286D01*
X163580520Y-94731284D01*
X163468716Y-94619480D01*
X163468715Y-94619479D01*
X163464385Y-94615149D01*
X163464374Y-94615139D01*
X163368718Y-94519483D01*
X163368716Y-94519481D01*
X163231785Y-94440423D01*
X163079057Y-94399499D01*
X162920943Y-94399499D01*
X162838489Y-94421593D01*
X162824748Y-94425275D01*
X162792654Y-94429500D01*
X140450943Y-94429500D01*
X140298216Y-94470423D01*
X140298209Y-94470426D01*
X140161290Y-94549475D01*
X140161282Y-94549481D01*
X140049481Y-94661282D01*
X140049475Y-94661290D01*
X139970426Y-94798209D01*
X139970423Y-94798216D01*
X139929500Y-94950943D01*
X139929500Y-96109990D01*
X139909815Y-96177029D01*
X139857011Y-96222784D01*
X139791571Y-96232193D01*
X139791521Y-96232832D01*
X139788682Y-96232608D01*
X139787853Y-96232728D01*
X139785666Y-96232371D01*
X139749181Y-96229500D01*
X139250830Y-96229500D01*
X139250808Y-96229501D01*
X139214794Y-96232335D01*
X139060611Y-96277129D01*
X139060606Y-96277131D01*
X138922404Y-96358863D01*
X138922396Y-96358869D01*
X138918085Y-96363181D01*
X138856762Y-96396666D01*
X138830404Y-96399500D01*
X138800098Y-96399500D01*
X138733059Y-96379815D01*
X138712417Y-96363181D01*
X137987590Y-95638355D01*
X137987588Y-95638352D01*
X137868717Y-95519481D01*
X137868709Y-95519475D01*
X137780789Y-95468715D01*
X137780788Y-95468715D01*
X137750570Y-95451269D01*
X137731785Y-95440423D01*
X137579057Y-95399499D01*
X137420943Y-95399499D01*
X137413347Y-95399499D01*
X137413331Y-95399500D01*
X136724500Y-95399500D01*
X136657461Y-95379815D01*
X136611706Y-95327011D01*
X136600500Y-95275500D01*
X136600500Y-92876321D01*
X136620185Y-92809282D01*
X136672989Y-92763527D01*
X136710612Y-92753101D01*
X136779255Y-92745368D01*
X136949522Y-92685789D01*
X137102262Y-92589816D01*
X137102267Y-92589810D01*
X137105097Y-92587555D01*
X137107275Y-92586665D01*
X137108158Y-92586111D01*
X137108255Y-92586265D01*
X137169783Y-92561145D01*
X137182412Y-92560500D01*
X160377060Y-92560500D01*
X160444099Y-92580185D01*
X160464741Y-92596819D01*
X160497738Y-92629816D01*
X160560403Y-92669191D01*
X160649936Y-92725449D01*
X160650478Y-92725789D01*
X160820745Y-92785368D01*
X160820750Y-92785369D01*
X160999996Y-92805565D01*
X161000000Y-92805565D01*
X161000004Y-92805565D01*
X161179249Y-92785369D01*
X161179252Y-92785368D01*
X161179255Y-92785368D01*
X161349522Y-92725789D01*
X161502262Y-92629816D01*
X161629816Y-92502262D01*
X161725789Y-92349522D01*
X161785368Y-92179255D01*
X161786319Y-92170819D01*
X161805565Y-92000003D01*
X161805565Y-91999996D01*
X161785369Y-91820750D01*
X161785368Y-91820745D01*
X161763712Y-91758855D01*
X161725789Y-91650478D01*
X161719350Y-91640231D01*
X161657838Y-91542335D01*
X161629816Y-91497738D01*
X161502262Y-91370184D01*
X161438604Y-91330185D01*
X161349523Y-91274211D01*
X161179254Y-91214631D01*
X161179249Y-91214630D01*
X161000004Y-91194435D01*
X160999996Y-91194435D01*
X160820750Y-91214630D01*
X160820737Y-91214633D01*
X160650481Y-91274209D01*
X160650477Y-91274210D01*
X160544989Y-91340494D01*
X160479017Y-91359500D01*
X137182412Y-91359500D01*
X137115373Y-91339815D01*
X137105097Y-91332445D01*
X137102263Y-91330185D01*
X137102262Y-91330184D01*
X137007276Y-91270500D01*
X136949521Y-91234210D01*
X136779249Y-91174630D01*
X136710616Y-91166897D01*
X136646202Y-91139830D01*
X136606647Y-91082235D01*
X136600500Y-91043677D01*
X136600500Y-89631940D01*
X136620185Y-89564901D01*
X136672989Y-89519146D01*
X136742147Y-89509202D01*
X136805703Y-89538227D01*
G37*
%TD.AperFunction*%
%TD*%
M02*
